<svg width="1367" height="242" viewBox="0 0 1367 242" fill="none" xmlns="http://www.w3.org/2000/svg">
<g clip-path="url(#clip0_8280_2608)">
<path fill-rule="evenodd" clip-rule="evenodd" d="M410.15 0H482.822C479.857 2.53051 477.445 5.7324 476.088 10.277C466.086 10.7418 456.035 12.1878 446.034 14.7183C434.826 17.5586 425.076 24.4273 425.076 36.2536C425.076 40.0751 426.082 43.6902 427.79 46.8404L427.69 44.3615L429.197 43.5868C430.555 42.8638 432.012 42.2441 433.419 41.6244C437.038 40.0751 440.807 38.784 444.576 37.6996C466.689 31.2958 499.256 31.2958 521.37 37.6996C525.14 38.784 528.91 40.1268 532.525 41.6244C533.935 42.1925 535.39 42.8638 536.75 43.5868L538.255 44.3615L538.155 46.8404C539.865 43.6902 540.87 40.0751 540.87 36.2536C540.87 24.4273 531.12 17.4554 519.91 14.7183C509.26 12.1362 498.603 10.5869 487.948 10.2254C490.159 7.33335 493.577 5.4742 496.994 3.66667C499.156 2.47887 501.315 1.34273 503.275 0H555.795C562.93 0 568.76 5.9906 568.76 13.3239V228.624C568.76 235.958 562.93 241.949 555.795 241.949H410.15C403.013 241.949 397.183 235.958 397.183 228.624V13.3239C397.133 5.9906 402.963 0 410.15 0ZM493.829 104.836C512.275 94.0425 520.715 81.5965 521.77 60.9905C514.285 86.1925 503.325 98.3805 493.829 104.836ZM431.609 72.6105C434.223 108.761 472.218 111.807 482.973 132.258C493.728 111.807 531.725 108.709 534.335 72.6105L535.54 45.9624C509.56 32.0704 456.437 32.0704 430.454 45.9624L431.609 72.6105Z" fill="white"/>
<path fill-rule="evenodd" clip-rule="evenodd" d="M211.533 0H357.179C364.315 0 370.145 5.9906 370.145 13.3239V228.624C370.145 235.958 364.315 241.949 357.179 241.949H211.533C204.396 241.949 198.566 235.958 198.566 228.624V13.3239C198.566 5.9906 204.396 0 211.533 0ZM296.015 165.62C314.46 154.826 322.903 142.38 323.958 121.774C316.47 146.977 305.514 159.164 296.015 165.62ZM233.043 135.357C235.656 171.507 273.651 174.605 284.406 195.005C295.161 174.554 333.155 171.455 335.769 135.357L336.975 108.709C310.992 94.817 257.87 94.817 231.887 108.709L233.043 135.357ZM277.521 73.0235C267.519 73.488 257.468 74.934 247.467 77.465C236.259 80.3055 226.509 87.174 226.509 99C226.509 102.822 227.515 106.437 229.223 109.587L229.123 107.108L230.631 106.334C231.988 105.611 233.445 104.991 234.852 104.371C238.47 102.822 242.24 101.531 246.01 100.446C268.122 94.0425 300.69 94.0425 322.802 100.446C326.572 101.531 330.341 102.873 333.96 104.371C335.367 104.939 336.824 105.611 338.181 106.334L339.689 107.108L339.589 109.587C341.297 106.437 342.303 102.822 342.303 99C342.303 87.174 332.552 80.202 321.345 77.465C310.69 74.8825 300.036 73.3335 289.382 72.972C291.593 70.0795 295.01 68.2205 298.428 66.4135C305.966 62.333 313.304 58.357 314.208 46.9436C300.237 48.7512 307.273 48.0798 293.502 56.8075C286.868 60.4225 280.084 64.0895 277.521 73.0235Z" fill="white"/>
<path fill-rule="evenodd" clip-rule="evenodd" d="M12.9664 0H33.9238L34.4263 11.3098C37.0396 47.46 75.0345 50.507 85.7895 70.958C96.544 50.507 134.539 47.4084 137.152 11.3098L137.655 0H158.612C165.749 0 171.579 5.9906 171.579 13.3239V228.624C171.579 235.958 165.749 241.949 158.612 241.949H137.706L138.359 227.643C112.376 213.751 59.2535 213.751 33.2704 227.643L33.9238 241.949H12.9664C5.82985 242 0 235.958 0 228.624V13.3239C0 5.9906 5.82985 0 12.9664 0ZM125.593 0C118.206 21.5352 108.204 32.4319 99.4095 38.3709C116.145 28.5586 124.639 17.3521 126.85 0H125.593ZM78.9545 192.01C68.953 192.474 58.9015 193.92 48.9004 196.451C37.693 199.291 27.9431 206.16 27.9431 217.986C27.9431 221.808 28.9482 225.423 30.6569 228.572L30.5564 226.094L32.0642 225.32C33.4212 224.596 34.8786 223.977 36.2858 223.357C39.9044 221.807 43.6737 220.517 47.443 219.432C69.556 213.029 102.123 213.029 124.236 219.432C128.005 220.517 131.774 221.859 135.393 223.357C136.8 223.925 138.258 224.596 139.615 225.32L141.123 226.094L141.023 228.572C142.731 225.423 143.736 221.808 143.736 217.986C143.736 206.16 133.986 199.188 122.779 196.451C112.124 193.868 101.47 192.319 90.815 191.958C93.026 189.065 96.4435 187.206 99.861 185.399C107.4 181.319 114.737 177.342 115.642 165.93C101.671 167.737 108.706 167.066 94.9365 175.794C88.302 179.357 81.5175 183.023 78.9545 192.01Z" fill="white"/>
<path fill-rule="evenodd" clip-rule="evenodd" d="M709.43 139.179C738.635 139.179 756.575 120.536 756.575 95.1797V94.8182C756.575 69.8227 739.185 60.2172 721.395 57.1187L754.515 24.6351V2.3252H666.015V27.682H717.475L686.215 59.9587L690.685 78.8087H702.65C718.735 78.8087 728.28 84.9542 728.28 95.9027V96.2642C728.28 106.283 720.59 112.584 709.735 112.584C696.47 112.584 687.115 106.799 678.125 96.4192L658.375 115.94C669.58 129.574 685.865 139.179 709.43 139.179Z" fill="white"/>
<path fill-rule="evenodd" clip-rule="evenodd" d="M902.875 139.178C943.28 139.178 972.635 107.831 972.635 69.5635V69.2015C972.635 30.9342 943.63 0 903.225 0C862.82 0 833.465 31.3474 833.465 69.5635V69.9245C833.465 108.244 862.47 139.178 902.875 139.178ZM903.225 111.859C880.005 111.859 863.57 92.648 863.57 69.5635V69.2015C863.57 46.1174 879.655 27.3193 902.875 27.3193C926.095 27.3193 942.53 46.5305 942.53 69.615V69.9765C942.53 93.061 926.445 111.859 903.225 111.859Z" fill="white"/>
<path fill-rule="evenodd" clip-rule="evenodd" d="M978.615 136.855H1007.97L1019.92 106.695H1075.31L1087.27 136.855H1117.37L1061.34 1.34277H1034.76L978.615 136.855ZM1030.28 80.5632L1047.67 36.9249L1065.06 80.5632H1030.28Z" fill="white"/>
<path fill-rule="evenodd" clip-rule="evenodd" d="M1137.63 136.856H1166.47V95.7477L1181.6 79.5832L1222.2 136.856H1256.78L1201.05 59.3907L1254.37 2.3252H1219.59L1166.47 61.1472V2.3252H1137.63V136.856Z" fill="white"/>
<path fill-rule="evenodd" clip-rule="evenodd" d="M1318.9 138.816C1347.15 138.816 1367 123.839 1367 97.088V96.727C1367 73.2805 1352.03 63.4685 1325.49 56.3415C1302.87 50.4025 1297.24 47.5107 1297.24 38.6797V38.2665C1297.24 31.7079 1303.03 26.5436 1314.08 26.5436C1325.14 26.5436 1336.55 31.5529 1348.11 39.8158L1363.08 17.506C1349.81 6.55765 1333.53 0.412109 1314.43 0.412109C1287.7 0.412109 1268.6 16.5764 1268.6 40.952V41.3135C1268.6 68.013 1285.64 75.553 1312.02 82.473C1333.93 88.2575 1338.4 92.0785 1338.4 99.5675V99.9285C1338.4 107.83 1331.32 112.633 1319.51 112.633C1304.53 112.633 1292.22 106.281 1280.41 96.3135L1263.37 117.281C1279.05 131.689 1299.11 138.816 1318.9 138.816Z" fill="white"/>
<path fill-rule="evenodd" clip-rule="evenodd" d="M687.115 242C697.12 242 704.86 237.972 710.49 233.066V208.69H686.72V219.38H698.825V227.385C695.76 229.657 691.895 230.742 687.52 230.742C677.82 230.742 670.985 223.202 670.985 212.925V212.77C670.985 203.216 677.925 195.263 686.67 195.263C693.005 195.263 696.77 197.328 700.94 200.944L708.53 191.545C702.85 186.587 696.87 183.85 687.07 183.85C670.53 183.85 658.42 196.916 658.42 212.925V213.08C658.375 229.709 670.085 242 687.115 242Z" fill="white"/>
<path fill-rule="evenodd" clip-rule="evenodd" d="M792.36 241.018H804.62L809.595 228.417H832.715L837.695 241.018H850.255L826.835 184.418H815.73L792.36 241.018ZM813.92 217.521L821.205 199.291L828.495 217.521H813.92Z" fill="white"/>
<path fill-rule="evenodd" clip-rule="evenodd" d="M933.83 241.02H945.59V204.56L960.82 228.367H961.17L976.55 204.353V241.02H988.51V184.832H975.55L961.17 208.588L946.8 184.832H933.83V241.02Z" fill="white"/>
<path d="M1089.22 184.832H1077.21V241.02H1089.22V184.832Z" fill="white"/>
<path fill-rule="evenodd" clip-rule="evenodd" d="M1177.93 241.02H1189.84V205.283L1216.33 241.02H1226.53V184.832H1214.67V219.433L1189.04 184.832H1177.93V241.02Z" fill="white"/>
<path fill-rule="evenodd" clip-rule="evenodd" d="M1341.02 242C1351.02 242 1358.76 237.972 1364.39 233.066V208.69H1340.61V219.38H1352.73V227.385C1349.66 229.657 1345.8 230.742 1341.42 230.742C1331.73 230.742 1324.83 223.202 1324.83 212.925V212.77C1324.83 203.216 1331.77 195.263 1340.52 195.263C1346.85 195.263 1350.62 197.328 1354.79 200.944L1362.38 191.545C1356.7 186.587 1350.72 183.85 1340.92 183.85C1324.39 183.85 1312.27 196.916 1312.27 212.925V213.08C1312.27 229.709 1324.03 242 1341.02 242Z" fill="white"/>
</g>
<defs>
<clipPath id="clip0_8280_2608">
<rect width="1367" height="242" fill="white"/>
</clipPath>
</defs>
</svg>
