<svg width="1033" height="279" viewBox="0 0 1033 279" fill="none" xmlns="http://www.w3.org/2000/svg">
<g filter="url(#filter0_d_8280_2635)">
<path d="M118.209 210.082H909.052V215.13H118.209V210.082ZM362.311 167.006H362.733L395.441 84.0098H425.252V86.7622C422.658 86.7622 420.425 86.9913 418.795 87.4511C417.105 87.9093 415.838 88.7127 414.872 89.7453C413.908 90.7779 413.244 92.3832 412.881 94.3337C412.52 96.2843 412.399 98.6931 412.399 101.676V178.707C412.399 181.804 412.639 184.329 413.002 186.278C413.365 188.172 414.148 189.777 415.114 190.867C416.08 192.014 417.347 192.646 419.097 192.99C420.786 193.333 422.898 193.562 425.373 193.562V196.316H380.233V193.562C383.252 193.562 385.665 193.448 387.657 193.104C389.648 192.761 391.278 192.072 392.363 191.039C393.511 190.007 394.356 188.516 394.838 186.451C395.32 184.558 395.562 181.862 395.562 178.592V102.938H395.201L358.509 196.431H356.397L319.827 105.059H319.465V178.765C319.465 182.091 319.706 184.729 320.068 186.68C320.43 188.572 321.275 190.121 322.422 191.268C323.508 192.244 325.138 192.99 327.008 193.277C328.939 193.621 331.293 193.735 334.37 193.735V196.489H298.283V193.735C301.18 193.735 303.473 193.506 305.343 193.162C307.154 192.817 308.663 192.015 309.809 190.983C310.896 189.95 311.62 188.458 312.042 186.393C312.404 184.5 312.645 181.804 312.645 178.65V101.56C312.645 98.5785 312.525 96.1697 312.163 94.2192C311.801 92.2686 311.017 90.7779 310.051 89.6307C309.085 88.4836 307.455 87.7947 305.585 87.3365C303.774 86.8767 301.301 86.6476 298.344 86.6476V83.8944H329.604L362.311 167.006ZM486.926 187.311C486.926 189.434 487.771 191.154 489.522 192.186C491.272 193.333 494.47 193.793 499.298 193.677V196.431H464.78V193.677C467.013 193.677 469.004 193.448 470.753 192.99C472.443 192.53 473.831 191.728 475.039 190.581C476.306 189.434 477.452 187.827 478.418 185.82C479.384 183.755 480.409 181.231 481.375 178.134L513.962 81.4853H516.98L552.101 178.134C553.429 181.919 554.697 184.787 555.661 186.852C556.747 188.859 557.894 190.466 559.101 191.441C560.309 192.415 561.696 192.99 563.205 193.219C564.714 193.448 566.524 193.562 568.758 193.562V196.316H525.307V193.562C529.23 193.562 532.066 193.104 533.635 192.072C535.265 191.039 536.11 189.434 536.11 187.196C536.11 186.278 535.989 185.362 535.747 184.444L534.299 179.739L527.239 160.467H495.073L487.833 182.264C487.289 184.787 486.926 186.393 486.926 187.311ZM510.281 114.294L497.186 154.445H525.006L510.643 114.294H510.281ZM642.561 186.623C643.043 188.516 643.888 190.065 644.975 191.212C646.242 192.186 647.872 192.932 650.103 193.219C652.336 193.562 655.053 193.677 658.371 193.677V196.431H607.68V193.677C611.06 193.677 613.896 193.562 616.008 193.219C618.181 192.99 619.81 192.301 621.077 191.268C622.285 190.236 623.009 188.63 623.491 186.68C624.034 184.673 624.276 182.033 624.276 178.65V90.3761H611C607.198 90.3761 603.878 90.7198 601.284 91.4087C598.831 91.8904 596.568 93.0172 594.756 94.6601C592.943 96.3016 591.65 98.3949 591.025 100.7C590.119 103.109 589.818 106.092 589.637 109.762H586.68V84.1243H679.613V109.591H676.656C676.415 102.593 674.725 97.5459 671.466 94.6774C668.268 91.8104 662.958 90.3181 655.293 90.3181H641.837V178.65C641.837 182.033 642.077 184.673 642.561 186.623ZM766.633 86.8767C764.029 86.8297 761.426 86.9834 758.849 87.3365C757.033 87.5468 755.339 88.311 754.022 89.5162C752.935 90.6633 752.09 92.1541 751.606 94.1046C751.065 96.0536 751.003 98.5785 751.003 101.791V178.823C751.003 182.264 751.184 184.902 751.848 186.852C752.451 188.745 753.296 190.294 754.444 191.441C755.65 192.415 757.159 193.162 759.271 193.333C761.203 193.562 763.676 193.793 766.633 193.793V196.546H717.753V193.793C720.951 193.793 723.667 193.562 725.598 193.219C727.71 192.875 729.218 192.072 730.425 190.925C731.572 189.777 732.296 188.287 732.839 186.336C733.261 184.444 733.442 181.919 733.442 178.879V101.962C733.442 98.7495 733.141 96.2262 732.839 94.2757C732.296 92.3267 731.572 90.8343 730.305 89.6872C729.099 88.5401 727.468 87.8528 725.477 87.5076C722.9 87.1529 720.297 87.0007 717.693 87.0494V84.2954H766.633V86.9348V86.8767ZM897.827 118.768C897.45 110.222 893.951 102.068 887.93 95.7099C885.11 92.8743 881.688 90.6413 877.889 89.1568C874.092 87.6739 870.006 86.9756 865.903 87.1059C860.587 86.8815 855.314 88.1133 850.714 90.6555C846.113 93.1976 842.379 96.9434 839.954 101.445C834.403 110.968 831.506 125.193 831.506 143.892C831.506 152.552 832.412 160.009 834.04 166.261C835.73 172.569 838.084 177.676 841.281 181.748C844.541 185.762 848.343 188.745 852.929 190.581C857.516 192.415 862.585 193.333 868.136 193.333C875.559 193.333 881.836 191.613 887.085 188.056C893.024 183.554 897.863 177.878 901.267 171.422L904.284 172.856C895.473 190.352 881.594 199.242 862.946 199.242C849.474 199.21 836.555 194.142 826.98 185.131C821.807 180.15 817.762 174.217 815.091 167.695C811.985 160.014 810.488 151.83 810.686 143.604C810.686 134.657 812.015 126.569 814.609 118.941C817.076 111.818 820.901 105.187 825.893 99.3804C830.532 94.0058 836.284 89.5931 842.79 86.4185C849.756 83.1506 857.459 81.5571 865.225 81.7771C872.988 81.9971 880.578 84.0239 887.327 87.6802C888.896 88.3691 890.284 88.7127 891.369 88.7127C892.577 88.7127 893.602 88.1384 894.205 87.1059C894.81 86.0733 895.353 84.2389 895.714 81.7148H898.913L901.146 118.883H897.827V118.768ZM156.892 185.246C156.892 188.114 158.098 190.236 160.632 191.728C163.046 193.219 167.512 193.793 174.211 193.677V197.349H125.753V193.677C128.829 193.677 131.667 193.333 134.019 192.761C136.433 192.186 138.485 191.154 140.235 189.548C141.924 188.056 143.554 185.934 144.881 183.239C146.27 180.657 147.779 177.216 149.106 173.086L194.849 45.1777H199.073L247.955 173.316C250.006 178.248 251.574 182.149 253.083 184.902C254.531 187.598 256.1 189.663 257.911 190.925C259.6 192.186 261.592 192.99 263.704 193.333C265.817 193.679 268.412 193.793 271.49 193.793V197.464H210.66V193.793C214.691 194.066 218.732 193.396 222.427 191.843C224.66 190.581 225.747 188.401 225.747 185.36C225.747 184.213 225.626 182.951 225.263 181.804C224.902 180.543 224.238 178.477 223.151 175.61L213.255 150.029H168.418L158.28 178.823C157.524 180.897 157.058 183.056 156.892 185.246ZM189.478 88.4836L171.314 141.539H210.238L190.021 88.4836H189.539H189.478Z" fill="white"/>
</g>
<defs>
<filter id="filter0_d_8280_2635" x="115.108" y="43.1101" width="797.046" height="176.156" filterUnits="userSpaceOnUse" color-interpolation-filters="sRGB">
<feFlood flood-opacity="0" result="BackgroundImageFix"/>
<feColorMatrix in="SourceAlpha" type="matrix" values="0 0 0 0 0 0 0 0 0 0 0 0 0 0 0 0 0 0 127 0" result="hardAlpha"/>
<feOffset dy="1.0338"/>
<feGaussianBlur stdDeviation="1.5507"/>
<feComposite in2="hardAlpha" operator="out"/>
<feColorMatrix type="matrix" values="0 0 0 0 0 0 0 0 0 0 0 0 0 0 0 0 0 0 1 0"/>
<feBlend mode="normal" in2="BackgroundImageFix" result="effect1_dropShadow_8280_2635"/>
<feBlend mode="normal" in="SourceGraphic" in2="effect1_dropShadow_8280_2635" result="shape"/>
</filter>
</defs>
</svg>
