<svg width="307" height="307" viewBox="0 0 307 307" fill="none" xmlns="http://www.w3.org/2000/svg">
<g clip-path="url(#clip0_8280_2638)">
<path d="M0 153.5V307H153.5H307V153.5V0H153.5H0V153.5ZM196.446 59.5921C197.162 62.321 243.553 247.988 243.553 248.158C243.553 248.261 234.616 248.329 223.667 248.329H203.78L199.414 229.465C197.026 219.13 194.979 210.295 194.877 209.852L194.706 209.101H152.681H110.656L106.972 225.065C104.926 233.832 102.879 242.632 102.402 244.645L101.549 248.329H81.9349C66.4143 248.329 62.3892 248.227 62.4916 247.885C62.5939 247.681 70.2348 217.424 79.513 180.721L96.3639 113.931H114.375C126.859 113.931 132.351 114.033 132.351 114.306C132.351 114.511 129.145 128.633 125.188 145.723C121.265 162.812 118.024 177.003 118.024 177.241C118.024 177.651 123.482 177.719 152.647 177.719C182.836 177.719 187.27 177.651 187.27 177.207C187.27 176.764 167.724 91.7589 167.281 90.2921C167.11 89.7463 164.313 89.7122 114.716 89.7122C72.9637 89.7122 62.3892 89.6099 62.4916 89.2688C62.5939 89.0641 64.4018 82.0031 66.5167 73.5777L70.3712 58.33H133.238H196.105L196.446 59.5921Z" fill="white"/>
</g>
<defs>
<clipPath id="clip0_8280_2638">
<rect width="307" height="307" fill="white"/>
</clipPath>
</defs>
</svg>
