<svg width="1446" height="414" viewBox="0 0 1446 414" fill="none" xmlns="http://www.w3.org/2000/svg">
<path d="M154.928 299.139L257.181 102.342L304.25 69L404.069 307.273L285.585 159.267L154.928 299.139Z" fill="#F9FAFB"/>
<path d="M241.763 262.546L283.151 297.513L436.53 155.201L285.585 329.229L241.763 262.546Z" fill="white"/>
<path fill-rule="evenodd" clip-rule="evenodd" d="M642.659 171.465L651.585 156.014H632.109L623.181 171.465L602.082 208.873L580.982 171.465L572.055 156.014H552.578L561.506 171.465L602.082 242.214L642.659 171.465ZM559.883 242.214H579.359L570.431 226.763L529.856 156.014L489.28 226.763L480.353 242.214H499.829L508.756 226.763L529.856 189.355L550.955 226.763L559.883 242.214ZM724.623 242.214H705.147L696.22 226.763L675.12 189.355L654.021 226.763L645.093 242.214H625.617L634.543 226.763L675.12 156.014L715.696 226.763L724.623 242.214ZM802.53 171.465V156.014H705.147V171.465H744.912V242.214H761.954V171.465H802.53ZM882.871 242.214H863.394L854.467 226.763L833.368 189.355L812.268 226.763L803.341 242.214H783.865L792.792 226.763L833.368 156.014L873.945 226.763L882.871 242.214ZM979.443 242.214L970.517 226.763L956.72 202.366C959.156 202.366 961.59 201.554 964.024 200.74C972.951 196.674 979.443 188.542 979.443 179.596C979.443 173.091 976.198 167.399 972.141 163.333C967.271 159.267 960.779 156.827 953.475 156.827H891.798V243.028H908.84V203.181H925.882C932.376 203.181 937.244 206.432 940.49 210.5L941.301 211.312L951.039 227.577L959.967 243.028L979.443 242.214ZM956.72 186.103C955.909 186.916 954.286 186.916 953.475 186.916H909.653V170.652H953.475C956.72 170.652 958.343 172.278 959.967 173.091C960.779 173.904 962.401 175.531 962.401 178.784C961.59 182.037 959.967 185.289 956.72 186.103Z" fill="#F9FAFB"/>
<path fill-rule="evenodd" clip-rule="evenodd" d="M1159.6 222.697V156.014H1152.3V222.697C1152.3 229.202 1147.43 234.082 1141.75 234.082H1063.84C1058.16 234.082 1053.29 229.202 1053.29 222.697V156.014H1045.99V222.697C1045.99 233.27 1054.1 242.214 1063.84 242.214H1141.75C1151.49 242.214 1159.6 234.082 1159.6 222.697ZM1291.07 242.214L1240.76 199.115L1291.07 156.014H1279.71L1235.08 194.235L1190.44 156.014H1179.08L1229.39 199.115L1179.08 242.214H1190.44L1235.08 203.993L1279.71 242.214H1291.07Z" fill="white"/>
</svg>
