<svg width="490" height="168" viewBox="0 0 490 168" fill="none" xmlns="http://www.w3.org/2000/svg">
<path d="M254.536 29.5385C254.342 28.1875 253.312 27.1582 251.959 27.1582H220.263C218.91 27.1582 217.75 28.2519 217.686 29.5385L208.473 132.987C208.28 134.466 209.569 135.817 211.05 135.817H226.254C227.607 135.817 228.767 134.724 228.831 133.308L229.797 119.284C229.862 118.64 230.313 118.126 231.021 118.126H241.329C241.973 118.126 242.489 118.64 242.553 119.284L243.519 133.308C243.584 134.659 244.743 135.817 246.096 135.817H261.3C262.911 135.817 264.07 134.466 263.877 132.987L254.536 29.5385ZM232.439 100.884C231.73 100.884 231.215 100.241 231.215 99.5334L235.016 48.7099C235.08 48.2596 235.402 48.0666 235.724 48.0666H236.24C236.691 48.0666 236.948 48.3239 236.948 48.7099L240.749 99.5334C240.814 100.241 240.234 100.884 239.525 100.884H232.439Z" fill="white"/>
<path d="M462.493 29.5385C462.428 28.1875 461.269 27.1582 459.916 27.1582H428.22C426.867 27.1582 425.707 28.2519 425.643 29.5385L416.43 132.987C416.237 134.466 417.526 135.817 419.007 135.817H434.211C435.564 135.817 436.724 134.724 436.788 133.308L437.754 119.284C437.819 118.64 438.27 118.126 438.978 118.126H449.286C449.93 118.126 450.446 118.64 450.51 119.284L451.476 133.308C451.541 134.659 452.7 135.817 454.053 135.817H469.257C470.868 135.817 472.027 134.466 471.834 132.987L462.493 29.5385ZM440.396 100.884C439.687 100.884 439.172 100.241 439.172 99.5334L442.973 48.7099C443.037 48.2596 443.359 48.0666 443.681 48.0666H444.197C444.648 48.0666 444.905 48.3239 444.905 48.7099L448.706 99.5334C448.771 100.241 448.191 100.884 447.482 100.884H440.396Z" fill="white"/>
<path d="M109.842 90.977V113.429C109.842 114.073 110.357 114.652 111.066 114.652H128.331C129.749 114.652 130.908 115.81 130.908 117.225V133.115C130.908 134.531 129.749 135.689 128.331 135.689H91.8679C90.4506 135.689 89.291 134.531 89.291 133.115V29.7315C89.291 28.3162 90.4506 27.1582 91.8679 27.1582H128.202C129.62 27.1582 130.779 28.3162 130.779 29.7315V45.5576C130.779 46.9729 129.62 48.1309 128.202 48.1309H110.937C110.293 48.1309 109.713 48.6456 109.713 49.3533V71.0336C109.713 71.677 110.228 72.256 110.937 72.256H124.724C126.141 72.256 127.3 73.414 127.3 74.8293V87.0527C127.3 88.468 126.141 89.626 124.724 89.626H110.937C110.357 89.819 109.842 90.3337 109.842 90.977Z" fill="white"/>
<path d="M323.855 27.1582H278.887C277.47 27.1582 276.311 28.3162 276.311 29.7315V45.5576C276.311 46.9729 277.47 48.1309 278.887 48.1309H289.904C290.548 48.1309 291.128 48.6456 291.128 49.3532V133.244C291.128 134.659 292.287 135.817 293.705 135.817H308.973C310.39 135.817 311.55 134.659 311.55 133.244V49.3532C311.55 48.7099 312.065 48.1309 312.774 48.1309H323.79C325.207 48.1309 326.367 46.9729 326.367 45.5576V29.7315C326.496 28.3162 325.336 27.1582 323.855 27.1582Z" fill="white"/>
<path d="M189.662 114.652H174.136C173.492 114.652 172.912 114.137 172.912 113.429V29.7315C172.912 28.3162 171.753 27.1582 170.335 27.1582H155.067C153.65 27.1582 152.49 28.3162 152.49 29.7315V133.18C152.49 134.595 153.65 135.753 155.067 135.753H189.727C191.144 135.753 192.304 134.595 192.304 133.18V117.289C192.239 115.874 191.08 114.652 189.662 114.652Z" fill="white"/>
<path d="M386.409 84.4792V83.8359C386.409 83.5785 386.602 83.3212 386.86 83.1925C392.4 81.0695 396.201 75.7299 396.201 69.5538V46.9085C396.394 35.9718 387.504 27.0938 376.552 27.0938H348.85C347.433 27.0938 346.273 28.2518 346.273 29.6671V133.115C346.273 134.531 347.433 135.689 348.85 135.689H364.119C365.536 135.689 366.695 134.531 366.695 133.115V95.4802C366.695 94.8369 367.211 94.2579 367.919 94.2579H371.463C373.846 94.2579 375.844 96.1879 375.844 98.6326V133.18C375.844 134.595 377.003 135.753 378.42 135.753H393.689C395.106 135.753 396.266 134.595 396.266 133.18V98.8256C396.266 92.5852 392.336 87.3099 386.924 85.1869C386.667 85.1225 386.409 84.8009 386.409 84.4792ZM375.844 72.3845C375.844 74.7648 373.911 76.7592 371.463 76.7592H367.919C367.275 76.7592 366.695 76.2445 366.695 75.5369V49.3531C366.695 48.7098 367.211 48.1308 367.919 48.1308H371.463C373.846 48.1308 375.844 50.0608 375.844 52.5055V72.3845Z" fill="white"/>
<path d="M68.4823 46.9085C68.4823 35.9718 59.5919 27.0938 48.5756 27.0938H20.8738C19.4565 27.0938 18.2969 28.2518 18.2969 29.6671V133.115C18.2969 134.531 19.4565 135.689 20.8738 135.689H54.5669C62.2332 135.689 68.4178 129.448 68.4178 121.857V95.7376C68.4178 89.4972 64.488 84.2219 59.0765 82.0989C58.8188 82.0345 58.6256 81.7129 58.6256 81.4555V80.8122C58.6256 80.5549 58.8188 80.2975 59.0765 80.1689C64.6169 78.0459 68.4178 72.7062 68.4178 66.5302L68.4823 46.9085ZM47.9958 110.406C47.9958 112.786 46.0631 114.78 43.615 114.78H40.0718C39.4276 114.78 38.8478 114.266 38.8478 113.558V91.1056C38.8478 90.4622 39.3631 89.8832 40.0718 89.8832H43.615C45.9987 89.8832 47.9958 91.8132 47.9958 94.2579V110.406ZM47.9958 67.8812C47.9958 70.2615 46.0631 72.2558 43.615 72.2558H40.0718C39.4276 72.2558 38.8478 71.7412 38.8478 71.0335V49.3531C38.8478 48.7098 39.3631 48.1308 40.0718 48.1308H43.615C45.9987 48.1308 47.9958 50.0608 47.9958 52.5055V67.8812Z" fill="white"/>
</svg>
