<svg width="1399" height="515" viewBox="0 0 1399 515" fill="none" xmlns="http://www.w3.org/2000/svg">
<path fill-rule="evenodd" clip-rule="evenodd" d="M80.0986 150.787H258.498V376.035H80.0986V150.787ZM123.309 341.837V191.562H167.171C182.555 191.562 194.667 194.85 203.177 201.755C211.688 208.662 216.27 218.855 216.27 232.336C216.27 238.915 214.633 245.491 211.688 251.409C208.414 256.999 203.506 261.273 197.613 263.904C204.814 265.221 211.362 269.824 214.961 276.072C218.889 282.648 220.854 290.21 220.526 297.775C220.526 312.243 216.598 323.095 208.414 330.329C200.232 337.563 188.448 341.508 173.39 341.508L123.309 341.837ZM150.477 275.414V318.49H171.099C176.336 318.819 181.246 316.846 184.846 313.229C188.12 308.955 189.757 303.365 189.43 297.775C189.757 292.183 188.448 286.265 185.502 281.333C182.555 277.387 177.973 275.085 173.062 275.414H150.477ZM150.477 255.026H166.517C171.753 255.355 176.664 253.382 180.264 249.765C183.537 245.819 185.502 240.559 184.846 235.296C185.174 229.706 183.537 224.116 179.938 219.842C176.01 216.225 170.445 214.581 165.206 214.91H150.477V255.026Z" fill="white"/>
<path d="M440.149 375.706H429.674V150.787H440.149V375.706ZM622.148 375.706H611.672V150.787H622.148V375.706ZM803.818 375.706H793.343V150.787H803.818V375.706ZM985.817 375.706H975.668V150.787H985.817V375.706ZM1168.14 375.706H1157.67V150.787H1168.14V375.706ZM389.739 316.846C385.811 323.753 379.92 329.343 373.045 333.288C364.208 338.549 353.733 340.851 343.586 340.522C327.874 340.522 315.107 335.59 305.614 326.054C296.121 316.517 291.211 303.036 291.211 285.278V240.887C291.211 223.459 295.795 209.977 304.96 200.44C314.125 190.904 326.237 185.972 341.294 186.301C356.678 186.301 368.136 190.247 376.318 197.81C384.503 205.372 388.757 216.225 389.413 230.364L389.085 231.021H369.445C369.117 221.486 366.826 214.252 362.243 209.649C357.661 205.043 350.787 202.413 341.949 202.413C333.765 202.084 325.582 205.701 320.344 212.279C315.107 218.855 312.488 228.391 312.488 240.887V285.607C312.488 298.433 315.435 308.297 321 314.873C326.565 321.449 335.075 325.397 343.912 325.068C349.805 325.397 355.37 324.082 360.606 321.449C364.208 319.148 367.482 315.859 369.445 312.243V277.716H343.912V262.589H390.394V316.846H389.739ZM505.616 286.922H543.588L525.256 221.157H524.602L505.616 286.922ZM548.496 303.365H501.034L490.231 341.18H468.956L514.781 191.233H535.075L580.577 341.18H559.3L548.496 303.365ZM672.558 191.233L707.581 313.558H708.236L743.262 191.233H770.103V341.18H749.481V283.634L751.118 226.089L750.463 225.76L714.783 341.18H701.036L665.028 226.089H664.702L666.338 283.634V341.18H645.716V191.233H672.558ZM899.399 341.18H878.779V191.233H899.399V341.18ZM1123.62 341.18H1102.67L1046.05 229.706H1045.39V341.18H1024.77V191.233H1045.39L1102.02 302.378H1102.67V191.233H1123.62V341.18ZM1297.77 317.832C1293.51 324.739 1287.95 330.329 1281.07 334.275C1272.23 339.536 1261.76 341.837 1251.61 341.508C1235.9 341.508 1223.46 336.905 1213.64 327.37C1204.15 317.832 1199.24 304.351 1199.24 286.594V241.545C1199.24 224.116 1203.82 210.635 1212.99 201.098C1222.15 191.562 1234.26 186.63 1248.99 186.63C1264.38 186.63 1275.84 190.576 1284.02 198.138C1292.2 205.701 1296.46 216.554 1297.11 230.692L1296.78 231.35H1277.14C1276.82 221.815 1274.53 214.91 1269.94 209.977C1265.36 205.043 1258.49 202.742 1249.65 202.742C1241.47 202.413 1233.28 206.03 1228.04 212.608C1222.81 219.184 1220.19 228.719 1220.19 241.216V285.936C1220.19 298.761 1223.13 308.626 1228.7 315.202C1234.26 321.78 1242.77 325.726 1251.61 325.397C1257.5 325.726 1263.07 324.41 1268.31 321.78C1271.91 319.476 1275.18 316.188 1277.14 312.571V278.373H1251.61V263.246H1297.77V317.832Z" fill="white"/>
</svg>
