<svg width="1227" height="625" viewBox="0 0 1227 625" fill="none" xmlns="http://www.w3.org/2000/svg">
<path d="M353.557 403.201H407.311V466.8C399.63 472.38 391.403 476.62 382.629 479.073C373.852 481.641 364.636 482.867 355.202 482.867C343.579 483.026 332.023 481.06 321.083 477.065C311.352 473.526 302.405 468.065 294.756 460.998C287.524 454.151 281.805 445.823 277.969 436.563C269.968 416.823 269.85 394.688 277.641 374.862C281.274 365.531 286.838 357.104 293.954 350.156C301.072 343.206 309.575 337.893 318.888 334.581C335.249 328.888 352.752 327.466 369.791 330.453C379.719 332.313 389.258 335.896 397.985 341.052C401.936 343.508 405.337 346.185 408.407 349.086L398.206 364.485C396.81 366.732 394.604 368.336 392.063 368.948C390.654 369.208 389.205 369.177 387.81 368.849C386.414 368.524 385.1 367.912 383.943 367.05C381.201 365.378 378.46 363.927 376.044 362.698C371.123 360.242 365.811 358.693 360.357 358.125C357.192 357.729 354.004 357.544 350.812 357.568C344.717 357.451 338.666 358.63 333.041 361.026C327.881 363.417 323.265 366.875 319.488 371.177C315.711 375.479 312.856 380.534 311.1 386.018C309.008 392.383 307.969 399.057 308.03 405.768C308.03 413.69 309.126 420.831 311.429 427.078C313.358 432.862 316.507 438.149 320.658 442.563C324.808 446.977 329.86 450.412 335.454 452.63C345.116 456.378 355.657 457.115 365.732 454.75C369.134 453.857 372.535 452.854 375.716 451.404V428.529H360.796C358.88 428.646 356.995 428.005 355.531 426.745C354.926 426.177 354.448 425.485 354.127 424.716C353.806 423.948 353.649 423.117 353.664 422.281V403.201H353.557ZM564.626 481.193H537.31C534.839 481.307 532.392 480.641 530.31 479.281C528.225 477.922 526.609 475.94 525.681 473.607L516.796 447.386H459.091L450.314 473.719C449.436 475.615 448.12 477.401 446.145 478.961C444.171 480.524 441.758 481.305 438.796 481.305H411.37L469.952 330.565H505.935L564.626 481.193ZM508.787 423.62L494.745 382.336C493.646 379.883 492.55 376.758 491.454 373.188C490.355 369.617 489.041 365.823 487.832 361.583C486.137 368.763 483.936 375.81 481.25 382.672L467.319 423.62H508.787ZM746.954 330.453V481.305H715.908V394.61L716.126 388.026C716.126 385.685 716.455 383.341 716.675 380.886L676.414 458.32C675.207 460.776 673.451 462.672 671.367 463.899C669.175 465.016 666.869 465.685 664.128 465.685H659.299C656.668 465.685 654.144 465.128 652.06 463.789C649.865 462.672 648.22 460.776 647.013 458.32L606.751 380.664L607.301 387.917C607.445 390.107 607.519 392.302 607.521 394.498V481.193H576.583V330.453H607.301C608.397 330.565 609.495 330.789 610.373 331.123C611.251 331.458 612.019 332.016 612.786 332.685C613.554 333.466 614.211 334.472 614.979 335.698L654.144 412.24C655.461 414.917 656.886 417.594 658.092 420.386L661.715 429.089C662.811 426.076 664.238 423.063 665.444 420.162C666.651 417.373 668.076 414.583 669.503 411.904L708.338 335.698C708.897 334.576 709.639 333.557 710.532 332.685C711.205 331.979 712.031 331.443 712.945 331.123C713.934 330.768 714.97 330.581 716.018 330.565L719.966 330.453H746.954ZM811.68 357.456V392.602H859.291V418.599H811.68V454.526H873.88V481.305H776.244V330.677H873.88V357.456H811.68ZM979.196 361.138C978.1 362.81 977.001 364.039 975.905 364.93C974.809 365.711 973.382 366.047 971.518 366.047C969.707 366.003 967.935 365.505 966.361 364.596C964.605 363.591 962.52 362.365 960.107 361.248C957.915 360.021 955.171 358.906 952.208 357.901C948.875 356.828 945.395 356.302 941.897 356.339C935.315 356.339 930.378 357.789 927.198 360.578C923.907 363.37 922.369 367.05 922.369 371.849C922.369 374.862 923.468 377.427 925.331 379.435C927.198 381.333 929.721 383.117 933.012 384.568C936.082 386.018 939.702 387.357 943.763 388.474L956.267 392.49C960.436 394.052 964.605 395.727 968.666 397.735C972.725 399.742 976.344 402.31 979.525 405.432C983.084 408.995 985.859 413.281 987.676 418.013C989.49 422.742 990.302 427.81 990.057 432.88C990.057 439.8 988.851 446.271 986.438 452.406C983.996 458.594 980.258 464.164 975.482 468.732C970.708 473.297 965.012 476.753 958.79 478.852C946.704 482.948 933.777 483.794 921.273 481.305C911.792 479.333 902.678 475.831 894.285 470.93C890.432 468.698 886.86 466 883.645 462.896L894.067 446.604C894.945 445.49 896.041 444.373 897.358 443.591C898.783 442.922 900.21 442.477 901.745 442.477C903.94 442.477 906.025 443.146 907.999 444.373L915.24 448.724C917.872 450.287 920.944 451.737 924.453 453.076C927.855 454.305 932.024 455.086 936.742 455.086C943.214 455.086 948.04 453.636 951.662 450.844C955.171 448.055 956.927 443.591 956.927 437.568C956.927 434.11 955.831 431.208 953.964 428.977C952.101 426.745 949.577 424.958 946.286 423.508C942.851 421.938 939.292 420.669 935.643 419.716L923.247 416.034C919.01 414.69 914.867 413.05 910.851 411.123C902.397 407.255 895.778 400.162 892.422 391.375C888.371 380.253 888.568 367.992 892.969 357.008C895.274 351.654 898.675 346.966 903.062 342.727C907.449 338.487 912.935 335.141 919.517 332.685C926.572 330.024 934.045 328.701 941.568 328.779C954.564 328.472 967.404 331.708 978.757 338.151C982.159 340.162 985.339 342.281 987.973 344.846L979.196 361.138Z" fill="white"/>
<path d="M170.905 143.454C179.874 143.309 188.827 144.283 197.564 146.355C204.075 147.862 210.226 150.668 215.664 154.612C220.272 158.182 223.671 162.422 225.756 167.443C229.183 175.9 229.801 185.264 227.511 194.11C226.526 197.234 224.988 200.135 222.904 202.925C220.929 205.603 218.188 208.169 214.897 210.4C211.606 212.632 207.766 214.64 203.158 216.314C211.524 217.891 219.242 221.969 225.319 228.029C230.145 233.385 232.448 240.303 232.448 248.894C232.532 255.062 231.252 261.169 228.71 266.771C226.166 272.37 222.42 277.318 217.749 281.253C212.92 285.38 206.998 288.505 199.867 290.958C192.036 293.32 183.898 294.448 175.731 294.305H115.066V143.566H170.795L170.905 143.454ZM150.171 207.053H168.492C172.33 207.053 175.842 206.718 179.022 206.16C182.095 205.603 184.837 204.71 186.921 203.259C189.116 201.92 190.761 200.024 191.968 197.68C193.064 195.114 193.613 192.102 193.613 188.531C193.613 184.961 193.174 181.948 192.186 179.605C191.374 177.334 189.97 175.329 188.128 173.803C186.004 172.246 183.57 171.18 180.999 170.679C177.64 169.996 174.22 169.659 170.795 169.675H150.171V207.053ZM174.853 267.974C179.572 267.974 183.412 267.417 186.264 266.3C189.226 265.185 191.529 263.623 193.174 261.727C194.93 259.829 196.026 257.709 196.686 255.366C197.882 250.597 197.806 245.59 196.465 240.861C195.758 238.683 194.468 236.751 192.735 235.282C190.672 233.596 188.28 232.378 185.714 231.711C182.862 230.819 179.133 230.484 174.745 230.484H150.281V267.974H174.964H174.853ZM763.524 143.454V294.195H732.478V207.722L732.697 201.139C732.697 198.908 733.028 196.453 733.246 193.998L692.984 271.544C691.778 273.888 690.022 275.784 687.94 277.011C685.745 278.128 683.44 278.909 680.698 278.909H675.872C673.238 278.909 670.715 278.24 668.63 277.011C666.435 275.784 664.79 273.888 663.584 271.432L623.324 193.775L623.871 201.139C624.013 203.294 624.087 205.452 624.092 207.611V294.305H593.154V143.566H623.871C624.97 143.566 626.066 143.9 626.944 144.124C627.822 144.57 628.589 145.128 629.357 145.797C630.124 146.578 630.784 147.471 631.552 148.81L670.497 225.24C673.404 230.685 675.969 236.312 678.175 242.088C679.271 239.075 680.588 236.175 681.794 233.162L685.963 225.017L724.8 148.81C725.358 147.687 726.099 146.668 726.993 145.797C727.652 145.05 728.48 144.476 729.406 144.124C730.394 143.769 731.432 143.581 732.478 143.566H763.524V143.454ZM828.25 294.195H792.925V143.454H828.25V294.195ZM989.844 143.454V294.195H971.523C969.197 294.248 966.887 293.831 964.721 292.966C962.605 291.891 960.736 290.367 959.235 288.505L887.709 198.573C888.037 201.251 888.258 203.817 888.258 206.383L888.476 213.413V294.195H857.43V143.566H875.862L879.699 143.677L882.554 144.458C883.429 144.905 884.2 145.351 884.967 146.02L887.491 148.921L959.566 239.41C958.848 234.086 958.52 228.716 958.578 223.343V143.566H989.844V143.454ZM1091.98 216.202H1145.84V279.802C1138.16 285.38 1129.83 289.62 1121.05 292.076C1112.27 294.753 1103.17 295.867 1093.62 295.867C1082.04 296.013 1070.52 294.05 1059.61 290.065C1049.88 286.526 1040.94 281.068 1033.29 274C1026.02 267.164 1020.26 258.834 1016.39 249.564C1008.39 229.824 1008.27 207.688 1016.06 187.862C1019.73 178.562 1025.32 170.173 1032.46 163.262C1039.6 156.351 1048.11 151.08 1057.42 147.806C1073.78 142.111 1091.28 140.691 1108.32 143.677C1118.24 145.5 1127.78 149.048 1136.52 154.166C1140.36 156.62 1143.87 159.298 1146.94 162.199L1136.74 177.708C1135.34 179.956 1133.14 181.559 1130.59 182.171C1129.17 182.429 1127.71 182.394 1126.29 182.069C1124.88 181.743 1123.54 181.133 1122.37 180.274C1119.62 178.601 1116.88 177.15 1114.47 175.923C1109.58 173.478 1104.31 171.929 1098.89 171.348C1095.72 170.954 1092.53 170.767 1089.34 170.791C1083.25 170.675 1077.2 171.853 1071.57 174.249C1066.31 176.481 1061.7 179.828 1058.08 184.068C1054.35 188.308 1051.5 193.329 1049.52 199.243C1047.47 205.613 1046.47 212.287 1046.56 218.992C1046.56 226.914 1047.66 234.055 1049.85 240.191C1051.78 245.976 1054.93 251.26 1059.08 255.674C1063.23 260.089 1068.28 263.526 1073.88 265.742C1083.53 269.526 1094.07 270.302 1104.16 267.974C1107.66 267.081 1110.96 266.078 1114.25 264.628V241.642H1099.11C1097.23 241.729 1095.39 241.091 1093.95 239.857C1093.33 239.299 1092.83 238.612 1092.49 237.843C1092.15 237.073 1091.98 236.238 1091.98 235.393V216.202ZM541.812 226.356C539.612 237.625 533.601 247.756 524.824 254.99C516.047 262.224 505.06 266.107 493.762 265.966H492.666C489.265 265.966 485.645 265.966 476.429 262.172C467.324 258.267 465.46 255.924 458.768 250.791C454.928 247.89 449.442 242.2 443.959 237.402L425.417 257.486C430.135 262.617 441.435 272.438 446.043 275.896L445.383 275.339C453.35 281.985 462.569 286.909 472.471 289.805C482.375 292.703 492.755 293.513 502.978 292.185C517.648 290.503 531.506 284.464 542.822 274.82C554.138 265.177 562.41 252.356 566.605 237.96L541.705 226.356H541.812Z" fill="white"/>
<path d="M457.005 185.627C465.405 176.096 477.066 170.187 489.607 169.108C502.148 168.03 514.618 171.864 524.472 179.825L512.843 188.082L566.379 212.517L560.894 154.162L547.073 163.87C532.789 149.794 513.645 141.981 493.755 142.112C470.279 142.112 449.434 152.712 435.503 169.448C434.953 170.229 393.049 221.22 375.824 238.068L372.861 240.635L372.315 241.081C370.877 242.34 369.415 243.567 367.925 244.763L364.634 247.441C364.326 247.643 364.035 247.867 363.756 248.11L360.686 250.453C360.412 250.702 360.118 250.926 359.808 251.123L356.845 253.131C356.606 253.341 356.349 253.527 356.078 253.689L353.226 255.474L352.566 255.921L350.153 257.371L349.275 257.929C344.57 260.732 339.565 262.977 334.355 264.623C330.846 265.74 328.102 266.297 322.508 266.297C316.079 266.042 309.768 264.482 303.94 261.711C298.113 258.939 292.89 255.01 288.576 250.156C284.263 245.302 280.948 239.619 278.824 233.443C276.7 227.267 275.815 220.721 276.214 214.191C277.292 202.478 282.449 191.543 290.758 183.359C299.064 175.175 309.975 170.281 321.52 169.56C328.701 169.206 335.875 170.383 342.583 173.015C349.288 175.648 355.381 179.678 360.465 184.846C362.11 186.408 375.824 201.025 378.676 204.595C383.943 199.016 396.34 184.511 396.779 183.953C394.363 180.829 384.051 170.006 383.394 169.225C375.889 160.743 366.697 153.979 356.428 149.381C346.158 144.784 335.044 142.458 323.825 142.558C304.884 142.704 286.692 150.097 272.868 163.267C259.044 176.438 250.604 194.419 249.226 213.633C248.703 224.544 250.496 235.442 254.484 245.586C258.471 255.729 264.562 264.88 272.334 272.417C280.11 279.956 289.388 285.701 299.543 289.266C309.697 292.831 320.484 294.13 331.175 293.076C334.687 292.63 337.757 291.961 340.498 291.289C344.778 290.287 349.057 287.943 349.167 287.943L349.825 287.719L352.566 286.492C352.945 286.331 353.31 286.146 353.665 285.935L356.627 284.485L357.723 283.927C360.357 282.477 363.209 280.914 366.172 279.016L367.378 278.347L370.669 276.115L372.204 275.224L375.495 272.88L377.03 271.763L380.432 269.198C380.739 268.995 381.031 268.771 381.31 268.529L381.859 268.084L387.014 263.841L388.22 262.727L392.279 259.379L394.035 257.817L394.802 257.148L397.875 254.247C407.043 245.376 415.791 236.067 424.095 226.353C434.407 213.968 445.486 199.128 457.005 185.627Z" fill="white"/>
</svg>
