<svg width="1412" height="593" viewBox="0 0 1412 593" fill="none" xmlns="http://www.w3.org/2000/svg">
<mask id="mask0_8280_2685" style="mask-type:luminance" maskUnits="userSpaceOnUse" x="87" y="99" width="1220" height="379">
<path d="M1306.38 99.8945H87.0098V477.152H1306.38V99.8945Z" fill="white"/>
</mask>
<g mask="url(#mask0_8280_2685)">
<path d="M114.5 99.8945C124.065 102.606 132.434 111.212 132.434 121.469V173.931C139.972 162.058 151.741 153.396 165.428 149.645C181.715 145.487 198.993 147.506 213.845 155.304C228.101 163.793 239.178 176.619 245.404 191.851C254.133 211.539 255.327 233.703 253.534 254.923C252.07 275.202 243.924 294.451 230.342 309.744C218.711 320.055 204.059 326.455 188.501 328.018C168.178 330.611 147.017 328.018 128.249 319.766C117.877 315.984 108.63 309.701 101.35 301.492C91.6168 287.456 86.6348 270.743 87.1259 253.744L87.3635 99.8945H114.5ZM161.723 187.843C152.396 189.729 144.388 195.859 139.844 203.994C133.359 217.417 130.872 232.38 132.672 247.144C133.629 258.58 135.781 270.957 143.789 279.8C157.18 295.596 185.632 294.536 197.705 277.795C206.074 266.478 207.867 251.977 208.226 238.42C208.226 223.446 205.357 207.177 194.239 195.977C186.11 187.489 173.078 185.367 161.723 187.725V187.843ZM264.293 100.484H289.397C300.156 100.838 310.2 109.562 310.796 120.408C311.036 188.786 310.558 257.163 311.036 325.541H264.293V100.366V100.484ZM597.468 152.475C605.87 155.127 613.657 159.386 620.386 165.01C627.113 170.634 632.65 177.512 636.68 185.249C647.439 205.291 648.873 228.279 647.918 250.325H532.435C532.794 261.88 535.544 274.258 544.391 282.393C554.193 291.824 570.094 292.65 582.646 288.405C589.22 286.519 593.644 281.095 598.185 276.616C601.893 272.843 607.391 271.899 612.293 271.899C623.292 271.899 634.409 271.664 645.767 271.899C643.037 281.914 638.457 291.347 632.258 299.722C619.758 315.263 601.541 325.306 581.57 327.664C559.812 330.376 535.903 328.252 517.732 314.93C508.633 307.846 501.134 298.963 495.721 288.852C490.307 278.741 487.095 267.627 486.291 256.221C483.662 232.052 485.096 206.234 496.931 184.542C501.755 175.712 508.483 168.033 516.642 162.044C524.799 156.056 534.19 151.904 544.151 149.881C561.857 146.227 580.215 147.12 597.468 152.475ZM543.674 193.737C535.784 200.457 532.915 210.95 532.435 220.853C555.031 220.971 577.625 220.735 600.219 220.971C600.059 213.254 598.007 205.691 594.241 198.925C592.285 195.773 589.695 193.05 586.632 190.921C583.569 188.792 580.096 187.303 576.428 186.546C565.192 184.188 552.281 185.838 543.674 193.62V193.737ZM322.393 151.65H368.777V263.766C368.777 272.136 371.525 281.449 378.938 286.4C392.088 296.187 412.53 294.654 423.887 282.865C428.908 277.441 430.464 269.778 430.464 262.705L430.583 172.399C430.701 161.788 440.147 152.121 450.906 151.767C459.273 151.532 467.761 151.767 476.249 151.65V254.923C476.99 270.113 473.824 285.239 467.044 298.897C463.458 305.265 458.437 310.688 452.1 314.461C435.827 324.241 417.064 329.247 398.009 328.891C378.954 328.538 360.396 322.836 344.509 312.456C335.375 306.049 328.848 296.646 326.098 285.93C323.403 276.618 322.115 266.964 322.272 257.282C322.153 222.149 322.272 186.899 322.272 151.65H322.393Z" fill="white"/>
<path d="M941.766 100.484H966.872C978.109 100.602 988.15 110.387 988.39 121.469L988.509 136.442C972.969 136.677 957.427 136.442 941.887 136.677C941.766 124.535 942.006 112.627 941.766 100.484ZM1167.71 293.003V100.484H1191.62C1199.99 100.484 1207.64 106.025 1211.46 113.099C1213.62 117.225 1213.62 122.059 1213.62 126.421C1213.5 135.027 1213.73 143.633 1213.5 152.121C1222.7 152.121 1231.79 152.004 1240.99 152.239C1240.99 160.138 1241.71 168.98 1235.97 175.346C1230.83 182.066 1221.75 184.306 1213.62 183.599V281.451C1213.38 286.402 1217.68 290.528 1222.46 291.117C1228.44 291.942 1234.66 291.354 1240.87 291.589C1240.75 302.79 1240.99 314.342 1240.75 325.777C1224.61 326.722 1208.48 326.25 1192.34 324.952C1188.58 324.772 1184.91 323.782 1181.58 322.051C1178.26 320.32 1175.36 317.888 1173.09 314.932C1169.1 308.32 1167.23 300.68 1167.71 293.003ZM766.392 151.532C780.737 155.54 794.964 163.086 803.331 175.582C815.876 195.068 821.822 217.98 820.307 241.013C819.949 264.473 813.852 288.995 797.833 307.032C787.462 319.311 772.598 327.064 756.469 328.608C739.495 330.141 720.844 326.957 708.292 315.049C704.347 311.513 701.837 307.269 698.609 303.259C698.849 324.835 698.609 346.409 698.609 367.864C698.506 373.45 696.29 378.794 692.398 382.849C688.506 386.907 683.218 389.384 677.569 389.794C669.56 390.029 661.67 389.675 653.659 389.794C653.419 354.189 653.419 318.586 653.54 282.865V229.342C652.606 213.05 655.982 196.799 663.342 182.184C667.886 174.403 674.939 167.448 683.307 162.968C695.651 155.615 709.384 150.82 723.667 148.874C737.953 146.928 752.49 147.872 766.392 151.65V151.532ZM727.42 187.136C718.455 188.904 710.802 194.917 706.14 202.698C700.464 214.197 697.91 226.952 698.728 239.715C698.728 252.921 700.761 267.303 709.726 277.795C721.801 293.828 749.774 294.773 762.687 278.974C772.729 267.068 774.88 250.916 774.522 235.826C774.042 221.678 771.294 206.352 760.773 195.742C752.405 186.9 739.015 184.778 727.299 187.136H727.42ZM1022.34 165.326C1038.42 154.504 1057.28 148.375 1076.73 147.642C1096.34 147.535 1115.55 153.11 1131.96 163.675C1142.49 170.748 1148.7 182.302 1151.81 194.091C1155.87 209.417 1155.04 225.333 1155.16 241.131V325.777C1146.55 325.777 1138.06 325.777 1129.57 325.542C1125.42 325.378 1121.41 324.017 1118.03 321.629C1114.65 319.241 1112.06 315.929 1110.57 312.102C1108.77 307.622 1109.13 302.671 1109.13 297.954V215.43C1109.13 208.121 1107.94 200.34 1102.92 194.681C1090.24 181.005 1065.5 180.77 1053.18 194.917C1046.85 202.462 1047.21 212.719 1047.45 221.914V325.659C1031.91 326.015 1016.36 325.659 1000.82 325.659V225.805C1000.17 211.918 1002.37 198.045 1007.28 185.014C1010.39 177.233 1015.53 170.159 1022.34 165.326ZM875.18 160.02C891.917 153.182 910.207 151.06 928.257 151.532V197.982C914.75 198.218 900.044 196.214 888.209 203.876C877.928 210.596 875.059 223.329 874.821 234.528V325.542C859.279 325.542 843.739 325.777 828.197 325.542V258.579C827.957 236.887 827.48 213.78 837.88 194.091C845.638 178.567 858.911 166.398 875.18 159.903V160.02ZM941.887 151.532H966.991C978.586 151.768 988.749 162.142 988.509 173.46V325.542C972.969 325.542 957.427 325.896 941.766 325.542C942.006 267.538 941.887 209.535 941.887 151.532ZM1244.94 342.99H1260.72V345.937H1254.38C1254.62 355.252 1254.38 364.446 1254.62 373.76L1251.39 373.879V345.937H1244.94V342.99ZM1263.94 342.872H1268.73C1272.31 351.833 1275.66 360.792 1279.61 369.516L1290.36 342.872H1295.03V373.879L1291.92 373.76V347.235C1287.74 355.959 1284.51 364.918 1280.92 373.879C1279.72 373.642 1277.81 373.879 1277.57 372.346C1273.87 364.092 1271.12 355.368 1267.05 347.235L1267.17 373.76L1263.94 373.642C1264.18 363.504 1263.94 353.128 1263.94 342.872ZM758.381 371.521C765.286 369.789 772.47 369.44 779.513 370.492C786.555 371.546 793.314 373.979 799.386 377.651C807.755 383.191 813.733 391.562 817.797 400.404C809.907 400.404 802.255 400.758 794.246 400.404C790.9 397.811 788.031 394.508 784.205 392.741C778.556 390.045 772.205 389.119 766.008 390.088C759.809 391.058 754.062 393.877 749.536 398.164C743.504 404.044 740.032 412.011 739.853 420.372C739.675 428.736 742.805 436.837 748.579 442.963C752.993 447.525 758.733 450.622 765.008 451.826C771.283 453.031 777.781 452.28 783.606 449.682C790.42 446.736 795.441 440.842 798.79 434.474H759.338V417.971H821.742C821.742 422.922 821.742 427.874 820.547 432.825C818.041 443.871 811.826 453.76 802.906 460.886C793.988 468.011 782.891 471.956 771.413 472.082H768.066C758.454 471.722 749.144 468.686 741.21 463.324C733.275 457.962 727.043 450.494 723.235 441.784C717.02 427.637 717.258 410.661 724.91 396.985C728.428 390.711 733.213 385.212 738.969 380.833C744.728 376.454 751.334 373.284 758.381 371.521ZM1153.25 385.077C1161.74 376.8 1172.82 371.598 1184.69 370.314C1196.56 369.03 1208.52 371.74 1218.64 378.005C1226.64 383.702 1232.85 391.505 1236.57 400.523C1228.56 400.758 1220.79 400.523 1212.66 400.523C1209.78 397.049 1206.12 394.285 1201.97 392.444C1197.82 390.601 1193.29 389.735 1188.75 389.91C1181.67 390.097 1174.86 392.684 1169.48 397.236C1164.11 401.789 1160.48 408.026 1159.22 414.905C1157.07 425.515 1160.66 437.423 1169.02 444.615C1178.83 453.808 1195.09 454.988 1206.32 447.561C1211.35 444.496 1214.93 439.663 1217.56 434.593H1178.11V418.087C1198.91 417.852 1219.71 418.087 1240.63 418.087C1241.39 428.068 1239.14 438.048 1234.14 446.761C1229.15 455.476 1221.65 462.532 1212.58 467.039C1203.52 471.544 1193.31 473.298 1183.23 472.077C1173.16 470.855 1163.68 466.713 1155.99 460.176C1150.19 455.204 1145.57 449.039 1142.45 442.113C1139.33 435.186 1137.79 427.668 1137.94 420.092C1137.94 407.123 1143.8 394.155 1153.25 385.077ZM869.083 371.993C881.994 404.649 894.546 437.54 907.338 470.314H886.416L878.526 449.801H841.706C838.94 456.573 836.347 463.413 833.935 470.314H813.612C826.523 437.658 839.196 404.765 852.225 372.109C857.845 372.109 863.345 372.228 868.962 371.993H869.083ZM860.355 400.286C856.051 410.542 852.346 421.036 848.162 431.409C856.051 431.528 864.062 431.409 872.071 431.762L860.355 400.286ZM912.477 372.109H938.42L963.524 443.198C972.371 419.62 980.379 395.688 988.988 372.109H1014.81V470.314H995.323C995.444 446.736 996.161 423.276 995.802 399.813L970.817 470.314H956.111L931.007 399.579C931.007 423.157 931.247 446.736 931.724 470.314H912.24C912.598 437.54 912.477 404.765 912.477 372.109ZM1024.49 371.993L1044.22 372.109C1044.22 404.765 1043.98 437.54 1044.22 470.196L1024.49 470.314C1024.73 437.54 1024.49 404.765 1024.49 371.993ZM1053.78 372.109H1072.31C1086.18 392.859 1099.45 413.961 1113.56 434.358V371.874C1119.89 372.109 1126.35 372.109 1132.68 371.874V470.314H1114.39C1100.8 448.775 1087.01 427.356 1073.03 406.063V470.314H1053.66C1054.02 437.54 1053.66 404.765 1053.66 372.109H1053.78Z" fill="white"/>
</g>
</svg>
