<svg width="1385" height="603" viewBox="0 0 1385 603" fill="none" xmlns="http://www.w3.org/2000/svg">
<path d="M224.313 397.881C224.313 370.132 224.604 342.382 224.313 314.935C224.313 309.446 226.045 307.922 230.943 307.922C262.935 307.922 294.93 307.922 326.631 307.922C337.007 307.922 336.72 317.375 339.026 323.779C341.042 329.877 341.621 336.587 341.621 343.297C341.333 371.047 341.908 398.797 341.621 426.243C341.333 453.078 329.225 472.596 306.456 484.183C300.98 486.929 294.93 488.756 288.588 488.756C269.564 488.756 250.542 488.453 231.808 488.756C225.754 488.756 224.604 486.319 224.892 480.525C224.314 453.384 224.313 425.631 224.313 397.881ZM263.8 383.855C263.8 402.761 263.8 421.973 263.8 440.879C263.8 444.54 263.8 447.895 268.413 447.895C274.752 447.895 281.381 448.807 287.722 446.98C295.217 445.149 301.846 437.83 301.846 429.901C302.134 399.712 302.134 369.522 301.846 339.33C301.846 329.268 293.776 321.339 284.266 321.033C279.365 320.73 274.752 321.339 269.854 320.73C264.954 320.424 263.8 322.557 263.8 327.437C263.8 346.346 263.8 365.252 263.8 383.855Z" fill="#F5F5F5"/>
<path d="M224.313 201.197C224.313 173.444 224.604 145.694 224.313 118.247C224.313 112.456 225.754 110.625 231.233 110.625C247.661 111.234 264.666 110.625 281.381 110.931C311.644 111.54 336.72 138.681 337.007 170.701C337.007 199.975 337.007 228.947 337.295 258.221C337.295 268.286 335.567 277.739 331.244 286.886C329.225 290.85 326.922 292.378 322.887 292.378C292.045 292.378 261.494 292.378 230.655 292.378C225.467 292.378 224.313 290.241 224.313 285.058C224.313 257.305 224.313 229.253 224.313 201.197ZM263.225 215.529C263.225 231.386 263.225 246.937 263.225 262.797C263.225 280.179 263.225 280.179 279.365 279.263C289.741 278.654 297.811 270.726 297.811 260.051C298.099 230.777 298.099 201.806 297.811 172.532C297.811 160.942 290.029 153.32 279.077 152.707C276.193 152.404 273.311 152.707 270.429 152.707C264.954 152.098 262.935 154.232 262.935 160.333C263.513 178.63 263.225 197.232 263.225 215.529Z" fill="#F5F5F5"/>
<path d="M889.519 373.796C889.519 391.484 889.519 409.478 889.519 427.165C889.519 457.049 867.904 484.799 841.387 488.763C811.124 493.339 783.742 475.346 775.097 444.547C773.656 439.361 773.365 433.569 773.365 428.078C773.365 390.875 773.365 353.366 773.365 316.16C773.365 309.453 775.384 307.013 781.726 307.319C789.508 307.622 797 307.622 804.782 307.319C810.545 307.013 812.277 309.147 812.277 315.248C811.99 352.451 811.989 389.35 811.989 426.553C811.989 438.752 818.906 446.987 829.283 447.596C841.675 448.511 850.32 439.973 850.611 425.944C850.611 396.057 850.611 365.868 850.611 335.985C850.611 328.968 850.898 321.652 850.611 314.636C850.32 309.147 852.626 307.319 857.527 307.319C866.172 307.319 874.82 307.622 883.465 307.319C888.366 307.319 890.094 309.147 890.094 314.636C889.519 334.154 889.519 353.975 889.519 373.796Z" fill="white"/>
<path d="M889.516 225.597C889.516 245.419 889.229 265.24 889.516 285.064C889.516 290.553 887.788 292.384 882.887 292.077C874.53 291.771 866.169 291.771 857.812 292.077C852.336 292.384 850.32 290.247 850.32 284.149C850.608 247.858 850.608 211.571 850.608 175.28C850.608 165.827 847.435 157.899 839.078 154.238C832.161 151.189 824.954 151.798 818.903 157.29C814.29 161.557 811.987 167.046 811.987 174.062C811.987 210.349 811.696 246.64 812.274 282.927C812.274 290.553 809.968 292.687 803.339 292.077C795.556 291.468 787.486 291.771 779.704 292.077C775.382 292.077 773.653 290.247 773.653 285.673C773.941 246.943 773.366 207.91 774.228 169.183C774.807 139.905 797.575 114.289 824.092 111.24C853.489 107.886 879.14 125.879 887.788 155.153C890.382 163.694 889.804 172.231 889.804 180.769C889.804 195.711 889.516 210.656 889.516 225.597Z" fill="white"/>
<path d="M751.175 396.973C750.022 410.696 752.616 427.166 749.156 443.326C743.971 467.723 720.049 489.069 696.414 489.375C667.592 489.678 646.551 475.043 637.619 447.902C633.871 436.922 634.446 425.335 634.734 414.051C634.734 411.003 634.734 407.954 634.734 404.902C634.446 400.634 636.465 398.804 640.21 398.804C649.433 398.804 658.947 398.804 668.17 398.804C672.205 398.804 673.646 400.634 673.646 404.598C673.355 411.918 673.355 419.234 673.355 426.553C673.355 439.361 680.85 447.596 692.092 447.596C703.618 447.902 711.688 439.668 711.688 426.553C711.688 410.087 711.688 393.618 711.688 377.152C711.401 355.197 703.618 337.203 687.191 323.786C682.869 320.125 678.834 316.467 674.508 312.808C673.067 311.587 671.339 310.978 672.205 308.844C672.78 307.317 674.508 307.623 675.949 307.623C693.242 307.623 710.535 307.929 727.828 307.623C732.154 307.623 735.035 309.756 737.342 313.418C746.565 328.056 750.888 344.522 751.463 362.21C751.463 372.578 751.175 383.556 751.175 396.973Z" fill="white"/>
<path d="M636.178 205.152C636.178 192.041 635.312 178.62 636.465 165.509C638.194 139.284 658.947 116.411 684.022 111.531C708.232 106.958 734.46 120.681 745.699 143.551C752.616 157.275 752.041 171.913 751.753 186.552C751.753 189.601 751.753 192.65 751.753 195.699C752.041 200.272 750.025 201.797 745.699 201.797C737.054 201.494 728.406 201.494 719.761 201.797C714.861 201.797 712.845 199.969 712.845 194.784C713.132 188.077 713.132 181.06 712.845 174.353C712.554 161.239 704.772 152.701 693.533 152.701C682.294 152.701 674.221 161.239 674.511 174.353C674.799 194.481 672.492 214.911 675.665 235.038C678.256 250.895 685.463 264.01 696.993 274.378C701.89 278.951 707.078 283.222 711.979 287.489C712.845 288.404 713.995 289.013 713.42 290.538C712.845 292.066 711.692 292.066 710.538 292.066C692.667 292.066 674.511 292.066 656.64 292.066C652.605 292.066 650.589 289.32 648.858 286.271C639.347 271.326 635.6 254.251 635.6 236.563C635.6 226.195 635.6 215.826 635.6 205.458C635.6 205.152 635.89 205.152 636.178 205.152Z" fill="white"/>
<path d="M368.712 201.503C368.712 173.753 368.712 146.004 368.712 118.557C368.712 112.762 370.153 110.935 375.628 110.935C405.026 111.238 434.137 111.238 463.535 110.935C468.723 110.935 470.164 112.762 470.164 117.948C469.876 127.095 469.876 136.245 470.164 145.394C470.451 151.186 468.148 152.711 462.959 152.711C447.107 152.408 431.255 152.711 415.403 152.408C409.349 152.408 408.199 154.847 408.199 160.639C408.486 197.845 408.486 234.745 408.199 271.948C408.199 277.436 409.64 279.573 415.115 279.573C431.255 279.267 447.395 279.573 463.247 279.267C467.569 279.267 470.742 279.573 470.742 285.671C470.742 291.466 468.148 292.381 463.535 292.381C434.137 292.381 405.026 292.381 375.628 292.381C370.44 292.381 368.712 290.55 368.712 284.756C368.712 256.7 368.712 229.256 368.712 201.503Z" fill="#F5F5F5"/>
<path d="M915.457 201.503C915.457 173.753 915.457 146.004 915.457 118.557C915.457 113.068 916.61 110.935 922.374 110.935C951.771 111.238 981.46 111.238 1010.86 110.935C1016.05 110.935 1017.49 112.762 1017.49 117.948C1017.2 127.095 1017.2 136.245 1017.49 145.395C1017.77 151.186 1015.47 153.017 1010.28 152.711C995.293 152.408 980.594 152.711 965.608 152.711C955.231 152.711 955.231 152.711 955.231 163.385C955.231 199.676 955.231 235.963 954.944 272.254C954.944 278.049 956.672 279.267 961.573 279.267C978 278.961 994.14 279.267 1010.57 278.961C1015.47 278.961 1017.49 280.182 1017.49 285.671C1017.49 291.16 1015.18 292.075 1010.86 292.075C981.46 292.075 951.771 291.769 922.374 292.075C916.898 292.075 915.457 289.941 915.457 284.453C915.457 256.7 915.457 228.95 915.457 201.503Z" fill="white"/>
<path d="M535.298 222.242C535.298 201.812 535.011 181.075 535.298 160.642C535.298 154.241 533.282 152.41 527.516 152.713C519.158 153.02 510.801 152.713 502.44 153.02C498.118 153.02 496.39 151.495 496.677 146.615C496.965 136.856 496.965 127.403 496.965 117.644C496.965 112.462 498.984 111.24 503.306 111.24C536.739 111.24 570.172 111.24 603.317 111.24C608.218 111.24 610.237 112.765 609.946 118.257C609.659 127.71 609.659 137.163 609.946 146.309C610.237 151.189 608.218 152.713 603.895 152.713C596.4 152.713 588.906 153.02 581.701 152.713C576.513 152.41 574.785 154.544 574.785 160.339C575.072 201.506 574.785 242.676 575.072 283.843C575.072 290.553 573.057 292.687 567.003 292.384C558.933 292.078 550.575 292.078 542.505 292.384C537.317 292.687 535.586 290.859 535.586 285.064C535.586 263.716 535.298 242.979 535.298 222.242Z" fill="#F5F5F5"/>
<path d="M1109.72 222.849C1109.72 243.279 1109.43 263.406 1109.72 283.837C1109.72 290.241 1107.7 292.378 1101.94 292.072C1094.15 291.765 1086.08 291.462 1078.3 292.072C1071.96 292.378 1070.81 289.632 1070.81 283.534C1071.1 242.67 1070.81 201.806 1071.1 160.942C1071.1 153.929 1069.08 152.098 1062.74 152.404C1054.38 152.707 1046.02 152.404 1037.66 152.404C1033.05 152.404 1031.32 150.574 1031.61 145.388C1031.9 135.935 1031.9 126.482 1031.61 117.335C1031.61 112.456 1033.34 110.625 1037.95 110.625C1071.67 110.625 1105.68 110.625 1139.41 110.625C1143.44 110.625 1145.46 111.843 1145.46 116.723C1145.17 126.179 1144.88 135.632 1145.17 144.779C1145.46 150.574 1142.86 152.404 1137.96 152.098C1130.76 151.792 1123.55 152.098 1116.35 152.098C1111.45 152.098 1109.72 153.929 1109.72 159.417C1109.72 180.763 1109.72 201.806 1109.72 222.849Z" fill="white"/>
<path d="M368.709 398.201C368.709 370.448 368.997 342.698 368.709 315.251C368.709 309.153 370.725 307.629 375.913 307.629C405.024 307.629 434.134 307.629 462.957 307.629C467.567 307.629 470.161 308.544 470.161 314.339C470.161 319.828 467.854 321.352 463.244 321.046C447.392 320.743 431.54 321.046 415.688 320.743C410.212 320.743 408.193 321.961 408.193 328.366C408.481 365.568 408.481 403.08 408.193 440.283C408.193 446.381 409.924 448.211 415.688 447.905C431.54 447.602 447.392 447.905 463.244 447.905C468.433 447.905 470.736 449.433 470.449 455.225C469.874 464.375 469.874 473.521 470.161 482.671C470.161 487.245 468.433 488.769 464.107 488.769C434.709 488.769 405.024 488.466 375.626 488.769C369.86 488.769 368.997 486.33 368.997 480.841C368.709 453.7 368.419 425.95 368.709 398.201Z" fill="#F5F5F5"/>
<path d="M954.947 405.507C954.947 430.514 954.947 455.824 954.947 480.831C954.947 486.626 953.503 489.066 947.74 488.76C938.804 488.457 929.872 488.457 921.224 488.76C916.901 488.76 915.173 487.541 915.173 482.662C915.173 426.244 915.173 369.829 915.173 313.414C915.173 308.535 916.901 306.704 921.511 306.704C951.2 306.704 981.173 307.01 1010.86 306.704C1016.05 306.704 1017.2 309.45 1017.2 314.326C1017.2 319.512 1015.18 320.73 1010.57 320.73C994.718 320.427 978.869 321.037 963.017 320.427C956.963 320.427 954.656 321.952 954.656 328.965C955.522 354.887 955.235 380.197 954.947 405.507Z" fill="white"/>
<path d="M535.301 398.194C535.301 370.444 535.588 342.998 535.301 315.248C535.301 309.147 536.742 307.013 542.508 307.319C551.153 307.622 559.801 307.319 568.446 307.319C572.769 307.319 574.788 308.844 574.788 314.027C574.5 369.832 574.5 425.638 574.788 481.447C574.788 487.238 572.769 489.069 567.583 488.763C558.935 488.46 550.29 488.46 541.642 488.763C536.454 489.069 535.301 486.935 535.301 481.75C535.301 454 535.301 426.25 535.301 398.194Z" fill="#F5F5F5"/>
<path d="M1070.52 398.197C1070.52 371.36 1070.52 344.219 1070.52 317.385C1070.52 307.319 1070.52 307.319 1080.32 307.319C1088.1 307.319 1095.6 307.625 1103.38 307.319C1107.99 307.319 1109.72 309.15 1109.72 314.03C1109.72 370.141 1109.72 426.25 1109.72 482.362C1109.72 486.938 1108.57 488.766 1103.96 488.766C1095.02 488.463 1086.09 488.463 1077.44 488.766C1071.68 489.072 1070.81 486.326 1070.81 481.144C1070.81 453.697 1070.52 425.947 1070.52 398.197Z" fill="white"/>
<path d="M1226.44 231.08C1226.44 277.739 1226.44 322.87 1226.44 368.614C1222.41 367.089 1220.39 363.734 1218.09 361.294C1199.93 342.388 1181.77 323.479 1163.9 304.88C1161.6 302.44 1158.71 300.609 1162.75 296.339C1182.64 275.908 1202.23 255.172 1222.12 234.435C1222.99 233.52 1224.43 232.911 1226.44 231.08Z" fill="white"/>
<path d="M120.552 370.447C120.552 323.179 120.552 277.13 120.552 231.389C123.146 230.777 124.299 232.914 125.452 234.132C144.761 254.259 163.786 274.387 183.382 294.208C187.417 298.479 188.283 300.918 183.673 305.492C164.073 325.619 144.761 346.05 125.452 366.48C124.299 367.701 122.858 368.617 120.552 370.447Z" fill="white"/>
</svg>
