<svg width="1491" height="489" viewBox="0 0 1491 489" fill="none" xmlns="http://www.w3.org/2000/svg">
<mask id="mask0_8280_2713" style="mask-type:luminance" maskUnits="userSpaceOnUse" x="72" y="119" width="1419" height="253">
<path d="M1490.8 119H72.2905V371.764H1490.8V119Z" fill="white"/>
</mask>
<g mask="url(#mask0_8280_2713)">
<path d="M549.842 202.908C554.393 206.929 559.197 210.954 564 214.975C560.966 217.24 557.68 219.25 554.645 221.513C560.714 231.319 560.966 243.89 555.91 254.2C550.348 264.005 539.224 269.536 528.099 269.536C523.296 269.788 518.24 267.778 513.688 270.542C511.665 271.297 508.631 274.313 511.919 275.824C515.458 277.332 519.503 276.074 523.296 275.572C534.166 273.559 546.555 273.309 556.163 279.343C567.793 287.641 566.276 307.251 554.393 314.543C534.42 327.366 507.115 325.104 487.647 312.028C491.946 307.001 496.245 301.972 500.542 297.195C511.413 306.749 527.847 309.514 540.741 302.474C543.775 300.966 544.786 297.195 543.269 294.178C542.51 292.92 541.247 291.663 539.73 291.159C528.099 287.64 516.218 292.92 504.586 290.909C498.267 290.405 491.187 286.634 490.681 279.595C489.418 272.051 495.991 266.771 501.807 263.503C487.395 255.457 482.591 234.086 492.957 221.01C504.335 206.175 526.076 204.667 542.258 211.708L549.842 202.908ZM516.723 224.531C506.863 228.302 505.346 242.886 512.425 249.673C516.975 254.2 524.054 254.703 529.869 252.942C538.719 249.673 540.993 236.85 535.937 229.559C531.892 223.273 523.296 222.017 516.723 224.531ZM1433.71 211.456C1436.24 208.69 1439.02 205.673 1441.55 202.908C1446.1 206.929 1450.9 210.954 1455.7 214.975C1452.67 217.24 1449.38 219.25 1446.35 221.513C1451.66 230.313 1452.67 241.377 1448.88 250.932C1444.83 260.486 1436.24 267.274 1425.87 268.782C1420.56 269.788 1415.25 268.782 1409.94 268.782C1406.91 269.788 1402.36 270.542 1402.11 274.565C1405.14 277.834 1409.69 276.326 1413.48 275.824C1424.35 273.559 1436.49 273.057 1446.6 278.84C1458.23 285.628 1458.49 304.487 1448.37 312.783C1438.26 321.081 1425.11 323.595 1412.47 323.093C1400.59 322.589 1388.96 318.818 1379.1 312.028C1383.4 307.001 1387.69 302.224 1391.74 297.195C1399.32 303.732 1409.18 307.001 1419.05 306.247C1424.61 305.493 1431.69 304.989 1434.97 299.457C1436.74 295.182 1432.7 290.909 1428.65 290.657C1416.26 288.897 1403.37 294.178 1391.23 289.903C1385.67 288.647 1381.88 283.618 1381.88 277.834C1381.63 271.046 1387.95 266.519 1393 263.503C1378.59 255.709 1373.79 234.086 1384.16 221.01C1396.04 206.175 1417.78 204.416 1433.71 211.456ZM1408.17 224.531C1397.3 228.804 1397.05 246.405 1406.91 251.686C1413.48 255.205 1423.34 254.451 1427.64 247.663C1431.18 241.377 1431.18 232.577 1425.87 227.296C1421.57 222.771 1413.99 222.267 1408.17 224.531ZM725.3 215.981C738.194 203.912 759.684 205.171 773.084 215.981C784.967 206.175 803.423 204.416 816.569 212.713C824.154 217.742 827.693 227.044 827.693 235.844C827.693 254.2 827.693 272.555 827.693 290.909H807.468C807.468 274.063 807.468 257.719 807.468 240.873C807.468 235.844 806.709 230.063 802.664 226.794C795.079 221.01 782.945 223.525 778.14 231.571C777.635 251.434 778.14 271.045 777.888 290.909H757.662C757.662 272.555 757.915 254.2 757.662 235.844C757.915 225.033 744.01 220.758 735.92 225.536C732.886 227.548 728.082 229.811 728.082 234.086C727.828 252.942 728.082 271.801 728.082 290.909H707.855V209.194H721.761L725.3 215.981ZM845.897 222.017C860.814 204.667 888.877 202.908 906.827 216.736C918.456 225.788 922.755 242.132 918.456 255.959C897.726 255.959 877.247 255.959 856.515 255.959C857.275 264.005 861.825 271.801 869.409 274.313C880.027 278.086 893.175 277.08 902.528 269.536C905.057 274.313 907.838 279.343 910.367 284.372C898.483 292.418 883.567 293.172 869.663 291.914C856.01 290.657 842.61 281.103 838.059 267.526C833.003 252.44 834.773 234.086 845.897 222.017ZM870.169 225.033C863.088 227.296 859.043 234.336 857.274 241.377C871.432 241.377 885.589 241.377 899.748 241.377C898.484 236.096 897.22 230.817 892.67 227.548C886.349 223.021 877.499 222.771 870.169 225.033ZM1045.63 212.21C1060.04 206.427 1076.22 205.925 1091.13 210.952C1099.73 213.971 1105.55 222.267 1107.06 231.067C1110.1 245.4 1107.82 259.732 1109.34 274.063C1109.84 279.091 1112.12 283.618 1115.66 286.886C1112.12 292.166 1105.55 293.172 1099.73 291.914C1095.18 290.657 1092.65 286.634 1090.38 283.114C1084.81 289.401 1075.97 291.914 1067.88 292.418C1059.03 292.67 1049.67 290.909 1043.1 284.372C1036.27 277.582 1035.26 266.519 1038.04 257.467C1040.82 248.417 1049.17 242.634 1058.02 239.617C1067.88 236.598 1078.24 235.844 1088.61 237.605C1087.85 232.577 1085.82 227.296 1080.77 225.536C1070.91 221.765 1059.53 223.273 1049.93 227.044C1048.41 222.267 1046.89 217.24 1045.63 212.21ZM1062.31 255.709C1055.23 259.982 1054.73 273.057 1063.07 276.074C1069.9 278.086 1078.49 277.834 1084.31 272.805C1089.62 267.526 1088.35 259.48 1088.61 252.44C1079.76 251.182 1069.9 250.932 1062.31 255.709ZM1139.93 215.981C1152.57 203.912 1174.31 205.171 1187.46 215.981C1199.34 206.175 1217.8 204.416 1230.69 212.713C1238.28 217.742 1242.07 227.044 1241.82 235.844C1242.07 254.2 1241.82 272.555 1241.82 291.159H1221.59C1221.59 274.565 1221.59 257.971 1221.59 241.125C1221.59 236.096 1220.83 230.313 1216.79 226.794C1209.2 221.01 1197.07 223.525 1192.01 231.571C1191.5 251.434 1192.01 271.045 1191.76 290.909H1171.53C1171.28 272.555 1171.79 254.2 1171.28 235.844C1171.28 225.033 1157.37 220.758 1149.28 225.536C1146.25 227.548 1141.45 229.811 1141.45 234.086C1141.45 252.942 1141.45 271.801 1141.45 290.909H1121.22C1121.22 263.755 1121.22 236.348 1121.22 209.194H1135.13C1137.15 211.456 1138.66 213.719 1139.93 215.981ZM1314.88 216.485C1324.74 206.679 1340.42 205.673 1353.06 209.696C1364.44 213.467 1372.02 224.781 1372.53 236.85C1373.03 254.955 1372.53 273.057 1372.78 291.159H1352.55C1352.55 275.068 1352.55 258.978 1352.55 242.886C1352.55 236.6 1351.04 229.308 1345.22 226.04C1335.87 221.263 1324.49 224.279 1317.41 231.319C1317.16 251.182 1317.41 271.045 1317.41 290.909H1297.18C1297.18 263.755 1297.18 236.348 1297.18 209.194H1311.85C1312.61 211.708 1313.62 213.971 1314.88 216.485ZM447.45 209.194H479.052C479.052 236.348 479.052 263.755 479.052 290.909H458.573C458.573 268.782 458.573 246.909 458.573 224.781H447.45C447.701 219.754 447.45 214.473 447.45 209.194ZM660.831 209.194H692.433V290.909H671.954C671.954 268.782 671.954 246.909 671.954 224.781C668.415 224.781 664.624 224.781 660.831 224.781V209.194ZM1249.91 209.194H1281.51C1281.51 236.348 1281.51 263.755 1281.51 290.909H1261.28C1261.28 268.782 1261.28 246.909 1261.28 224.781H1250.16C1249.91 219.502 1249.91 214.473 1249.91 209.194ZM956.634 188.827C968.768 179.524 984.948 176.508 1000.12 177.512C1010.23 178.266 1020.09 181.787 1028.44 188.325C1025.4 193.604 1022.62 199.135 1019.59 204.416C1009.47 197.627 997.337 193.102 985.202 196.119C972.056 198.381 961.69 209.696 958.908 222.519C956.128 234.84 956.634 248.667 963.458 259.732C973.319 275.824 997.085 280.097 1012.51 269.536C1012.51 262.244 1012.51 254.703 1012.51 247.411H996.074C996.074 241.627 996.074 236.096 996.074 230.313C1008.71 230.313 1021.1 230.313 1033.49 230.313C1033.49 247.159 1033.49 263.755 1033.49 280.601C1020.85 289.401 1005.17 292.67 990.258 292.67C975.595 292.92 959.919 287.891 950.061 276.578C936.913 262.749 933.627 242.382 936.407 223.777C938.178 210.198 945.508 197.375 956.634 188.827ZM364.27 179.02C375.9 178.77 387.277 178.016 398.908 178.016C409.02 178.266 419.638 180.027 427.728 186.312C435.566 192.598 438.6 203.662 435.818 213.217C433.796 220.004 427.982 224.279 422.167 227.548C430.005 230.313 437.589 235.342 440.876 243.136C445.679 254.2 444.921 268.28 436.324 277.332C427.477 286.886 414.329 290.657 401.942 290.657C389.299 290.909 376.405 290.657 363.765 290.657L364.27 179.02ZM385.254 195.112C385.254 203.912 385.254 212.965 385.254 221.765C393.092 222.017 401.688 223.021 409.02 219.502C417.364 215.731 418.627 202.152 410.537 197.627C402.953 193.604 393.85 195.112 385.254 195.112ZM385.254 237.605C385.254 249.925 385.254 262.244 385.254 274.313C394.104 274.817 403.205 275.572 411.549 272.555C425.454 268.28 425.96 243.89 412.054 239.617C403.71 236.598 394.356 237.354 385.254 237.605ZM447.701 179.272H479.052C479.052 185.056 479.052 191.089 479.052 196.873C468.434 196.873 458.068 196.873 447.45 196.873C447.45 191.089 447.701 185.056 447.701 179.272ZM570.321 179.02C598.132 179.02 626.195 179.02 654.258 179.02C654.258 184.804 654.258 190.839 654.258 196.873H629.228C629.228 228.05 629.228 259.732 629.228 290.909C622.15 290.909 615.071 290.909 607.991 290.909C607.991 259.48 607.991 228.05 607.991 196.873H570.321V179.02ZM660.831 196.873C660.831 191.089 660.831 185.056 660.831 179.272C671.197 179.272 681.815 179.272 692.181 179.272V196.873C681.815 196.873 671.197 196.873 660.831 196.873ZM1250.16 179.272C1260.52 179.272 1271.14 179.272 1281.76 179.272C1281.76 185.056 1281.76 191.089 1281.76 196.873C1271.4 196.873 1260.78 196.873 1250.41 196.873C1250.16 191.089 1250.16 185.056 1250.16 179.272Z" fill="white"/>
<path d="M178.813 119.44C244.626 113.795 302.462 163.075 308.139 229.747C311.515 269.262 295.559 308.015 265.49 333.342C222.383 369.654 160.25 370.568 116.067 335.935C63.9073 294.895 54.3964 218.763 94.8968 165.821C115.148 139.274 145.675 122.492 178.813 119.44ZM179.734 123.56C116.221 128.747 68.817 185.197 73.8788 249.582C78.9425 313.966 134.63 362.025 198.143 356.838C261.808 351.649 309.06 295.352 303.996 230.815C301.083 194.199 281.292 161.244 250.763 141.41C229.745 127.832 204.893 121.576 179.734 123.56Z" fill="white"/>
<path d="M172.546 129.654C227.621 121.111 280.396 155.591 295.429 210.058C303.714 240.114 299.265 273.985 282.083 300.073C266.436 307.245 248.791 308.465 231.916 307.702C203.69 306.329 176.076 298.853 147.694 298.091C131.739 297.632 115.325 299.769 100.444 306.329C64.3923 256.592 74.9765 186.563 124.069 150.099C138.183 139.419 154.904 132.553 172.546 129.654ZM189.115 131.79C186.814 138.656 184.666 145.521 182.365 152.54C175.155 152.54 167.945 152.387 160.735 152.692C166.563 156.964 172.394 161.236 178.223 165.661C176.076 172.526 173.774 179.392 171.627 186.409C177.456 182.138 183.286 177.867 189.115 173.594C194.946 177.867 200.774 182.138 206.605 186.409C204.457 179.544 202.156 172.526 200.008 165.661C205.836 161.389 211.667 157.117 217.496 152.692C210.285 152.54 203.075 152.692 195.865 152.692C193.564 145.521 191.264 138.656 189.115 131.79ZM138.95 158.795C138.183 162.304 137.722 165.813 136.955 169.322L126.369 170.695L135.728 175.882C135.113 179.392 134.501 183.054 133.888 186.409C136.495 183.97 139.104 181.528 141.711 178.935C144.778 180.612 147.848 182.442 151.07 183.97C149.536 180.765 148 177.408 146.466 174.205C149.075 171.763 151.682 169.17 154.137 166.728C150.609 167.186 147.081 167.644 143.551 168.102C142.017 165.356 140.483 162.151 138.95 158.795ZM234.679 168.559L224.093 167.186C226.7 169.78 229.155 172.221 231.764 174.662C230.23 177.867 228.696 181.222 227.161 184.427L236.519 179.392C239.128 181.833 241.735 184.427 244.344 186.868C243.575 183.358 243.117 179.697 242.502 176.187C245.572 174.509 248.639 172.679 251.861 171L241.275 169.627C240.508 166.118 240.047 162.457 239.281 159.1C237.747 162.151 236.213 165.356 234.679 168.559ZM105.353 183.97C105.505 186.104 105.66 188.241 105.812 190.377L99.829 192.819L105.966 194.344C106.12 196.479 106.272 198.615 106.426 200.752C107.5 198.92 108.575 197.09 109.8 195.412L115.937 196.785L111.949 191.903L115.325 186.409L109.342 188.85C108.114 187.173 106.733 185.495 105.353 183.97ZM268.736 188.85L262.906 186.409L266.281 191.903C264.9 193.58 263.52 195.106 262.139 196.785L268.276 195.412L271.652 200.752L272.11 194.344L278.247 192.819L272.418 190.377L272.879 183.97L268.736 188.85ZM121.614 199.988C114.864 201.82 108.421 206.091 105.045 212.347C104.739 234.316 105.045 256.287 104.893 278.409C109.955 281.918 115.477 284.359 121.46 285.885C128.364 287.715 135.422 287.258 142.478 286.801C149.536 286.342 156.746 284.512 161.962 279.629C170.091 272.458 172.546 259.795 168.251 249.725C165.951 244.081 160.887 240.114 155.519 237.673C160.887 234.316 165.03 228.519 164.723 221.959C164.875 210.21 154.752 199.988 143.551 198.768C136.341 198.006 128.824 198.006 121.614 199.988ZM151.989 198.311C159.968 201.209 165.184 208.533 167.945 216.313C171.473 216.313 175.001 216.313 178.529 216.313C178.529 239.81 178.529 263.457 178.529 286.953H196.632C196.632 263.457 196.632 239.81 196.632 216.313C200.008 216.313 203.383 216.313 206.605 216.313C211.973 208.228 219.49 201.361 228.696 198.311C203.075 198.463 177.456 198.311 151.989 198.311ZM230.997 200.752C221.178 204.261 213.201 211.278 208.599 220.739C203.536 230.961 202.769 242.708 204.457 253.846C205.99 264.373 211.206 274.29 219.644 280.85C227.621 287.105 238.053 289.088 247.718 288.326C257.537 287.562 267.815 284.817 275.64 278.409C275.64 264.373 275.64 250.336 275.64 236.148C265.821 236.148 256.004 236.148 246.184 236.148C246.184 241.487 246.184 246.979 246.184 252.319H257.69C257.69 257.66 257.69 263.152 257.69 268.491C251.707 272.61 243.73 272.61 236.98 270.171C229.615 267.271 224.554 259.947 223.02 252.319C221.484 244.538 221.945 236.453 224.86 229.129C227.621 222.416 233.298 216.925 240.354 215.55C249.1 213.263 258.15 217.077 264.748 222.721C267.355 217.686 269.809 212.651 272.571 207.617C261.526 197.395 244.803 196.174 230.997 200.752Z" fill="white"/>
<path d="M126.35 218.758C130.952 213.112 141.538 214.028 144.605 221.047C145.833 224.861 144.145 230.201 139.85 231.269C134.94 232.642 129.878 231.878 124.815 232.031C125.123 227.759 123.741 222.725 126.35 218.758ZM124.815 246.678C131.106 246.983 137.701 245.762 143.684 248.203C152.43 251.713 151.816 266.817 143.072 269.868C137.089 270.632 130.491 271.089 124.815 268.19C124.815 261.171 124.815 253.849 124.815 246.678ZM159.486 303.282C191.549 306.485 223.46 315.181 255.829 311.367C263.499 310.604 271.016 308.774 278.38 305.875C272.704 313.349 266.721 320.521 259.204 326.167C253.222 327.233 247.239 326.624 241.408 326.013C224.072 323.726 207.503 318.384 190.936 312.892C180.504 309.689 170.225 305.721 159.486 303.282ZM138.468 310.146C152.276 310.451 165.469 315.181 178.662 319.453C200.447 326.472 221.926 335.016 244.936 336.846C235.119 342.338 224.839 346.763 213.794 349.204C212.261 349.661 211.033 348.441 209.652 347.984C195.998 340.355 182.959 331.659 169.306 323.573C159.486 317.927 149.361 312.74 138.468 310.146ZM121.287 328.454C130.952 329.065 140.771 330.438 149.515 334.709C159.486 339.135 168.23 345.543 177.129 351.646C156.879 349.052 137.549 341.117 121.287 328.454Z" fill="white"/>
</g>
</svg>
