<svg width="1630" height="492" viewBox="0 0 1630 492" fill="none" xmlns="http://www.w3.org/2000/svg">
<path d="M0 235.559V3.1771H100.759C118.46 3.1771 133.325 5.55993 145.352 10.3256C157.456 15.0912 166.571 21.8236 172.698 30.5228C178.901 39.222 182.002 49.472 182.002 61.2726C182.002 69.8205 180.111 77.612 176.329 84.647C172.622 91.682 167.403 97.5823 160.67 102.348C153.938 107.038 146.071 110.291 137.069 112.106V114.376C147.054 114.754 156.132 117.288 164.301 121.978C172.471 126.592 178.977 132.984 183.818 141.154C188.659 149.248 191.08 158.779 191.08 169.748C191.08 182.456 187.751 193.765 181.095 203.675C174.514 213.584 165.133 221.376 152.955 227.049C140.776 232.722 126.252 235.559 109.383 235.559H0ZM63.0881 185.179H92.5897C103.18 185.179 111.123 183.213 116.418 179.279C121.713 175.27 124.361 169.37 124.361 161.578C124.361 156.132 123.113 151.517 120.616 147.735C118.12 143.953 114.565 141.078 109.95 139.112C105.412 137.145 99.9273 136.161 93.4975 136.161H63.0881V185.179ZM63.0881 97.1284H88.9588C94.4809 97.1284 99.36 96.2585 103.596 94.5187C107.832 92.7789 111.123 90.2826 113.468 87.0298C115.888 83.7014 117.099 79.6544 117.099 74.8888C117.099 67.7025 114.527 62.2182 109.383 58.4359C104.239 54.578 97.7336 52.6491 89.8665 52.6491H63.0881V97.1284Z" fill="white"/>
<path d="M350.956 3.1771H414.044V152.047C414.044 169.748 409.808 185.066 401.336 198.001C392.939 210.861 381.214 220.808 366.161 227.843C351.107 234.803 333.633 238.282 313.738 238.282C293.693 238.282 276.143 234.803 261.089 227.843C246.036 220.808 234.311 210.861 225.914 198.001C217.593 185.066 213.433 169.748 213.433 152.047V3.1771H276.521V146.6C276.521 153.787 278.11 160.217 281.287 165.89C284.464 171.488 288.851 175.875 294.449 179.052C300.122 182.229 306.552 183.818 313.738 183.818C321 183.818 327.43 182.229 333.028 179.052C338.626 175.875 343.013 171.488 346.19 165.89C349.367 160.217 350.956 153.787 350.956 146.6V3.1771Z" fill="white"/>
<path d="M660.978 90.3204H596.982C596.529 85.0252 595.318 80.2217 593.352 75.91C591.46 71.5982 588.813 67.8916 585.409 64.7901C582.08 61.613 578.033 59.1924 573.268 57.5282C568.502 55.7883 563.093 54.9184 557.042 54.9184C546.451 54.9184 537.488 57.4904 530.15 62.6342C522.888 67.7781 517.366 75.1535 513.584 84.7605C509.877 94.3674 508.024 105.903 508.024 119.368C508.024 133.589 509.915 145.504 513.697 155.111C517.555 164.642 523.115 171.828 530.377 176.669C537.639 181.435 546.376 183.818 556.588 183.818C562.413 183.818 567.632 183.099 572.247 181.662C576.861 180.149 580.87 177.993 584.274 175.194C587.678 172.395 590.439 169.029 592.557 165.096C594.751 161.086 596.226 156.586 596.982 151.593L660.978 152.047C660.222 161.881 657.461 171.904 652.695 182.116C647.93 192.252 641.159 201.632 632.384 210.256C623.685 218.804 612.906 225.688 600.046 230.907C587.186 236.127 572.247 238.736 555.226 238.736C533.894 238.736 514.756 234.16 497.812 225.007C480.943 215.854 467.591 202.389 457.758 184.612C447.999 166.836 443.12 145.088 443.12 119.368C443.12 93.4975 448.113 71.7117 458.098 54.0107C468.083 36.2341 481.548 22.807 498.492 13.7296C515.437 4.57654 534.348 0 555.226 0C569.902 0 583.404 2.0046 595.734 6.01379C608.065 10.023 618.882 15.8855 628.186 23.6013C637.491 31.2415 644.979 40.6593 650.653 51.8548C656.326 63.0503 659.768 75.8721 660.978 90.3204Z" fill="white"/>
<path d="M689.601 235.559V3.1771H752.689V97.1284H755.866L825.762 3.1771H899.289L820.769 106.66L901.105 235.559H825.762L773.567 148.416L752.689 175.648V235.559H689.601Z" fill="white"/>
<path d="M481.268 328.797C480.663 321.232 477.827 315.332 472.758 311.096C467.766 306.859 460.163 304.741 449.951 304.741C443.446 304.741 438.113 305.536 433.952 307.124C429.868 308.637 426.842 310.717 424.875 313.365C422.908 316.012 421.887 319.038 421.811 322.442C421.66 325.241 422.152 327.775 423.286 330.045C424.497 332.238 426.388 334.243 428.96 336.058C431.532 337.798 434.822 339.387 438.832 340.824C442.841 342.261 447.606 343.547 453.128 344.682L472.191 348.767C485.051 351.49 496.057 355.083 505.21 359.546C514.363 364.009 521.852 369.267 527.677 375.318C533.502 381.294 537.775 388.027 540.499 395.516C543.298 403.004 544.735 411.174 544.81 420.025C544.735 435.305 540.915 448.24 533.35 458.831C525.786 469.421 514.968 477.477 500.898 482.999C486.904 488.521 470.073 491.282 450.405 491.282C430.208 491.282 412.583 488.294 397.529 482.318C382.551 476.342 370.902 467.152 362.581 454.746C354.336 442.264 350.175 426.303 350.1 406.862H410.011C410.389 413.973 412.167 419.949 415.344 424.79C418.521 429.632 422.984 433.3 428.733 435.797C434.558 438.293 441.479 439.541 449.497 439.541C456.23 439.541 461.865 438.709 466.404 437.045C470.943 435.381 474.385 433.073 476.73 430.123C479.075 427.173 480.285 423.807 480.361 420.025C480.285 416.469 479.113 413.368 476.843 410.72C474.65 407.997 471.019 405.576 465.95 403.458C460.882 401.265 454.036 399.222 445.413 397.331L422.265 392.338C401.69 387.875 385.464 380.424 373.588 369.985C361.787 359.471 355.924 345.136 356 326.981C355.924 312.23 359.858 299.333 367.801 288.289C375.819 277.169 386.901 268.507 401.047 262.304C415.268 256.101 431.57 253 449.951 253C468.711 253 484.937 256.139 498.629 262.418C512.321 268.696 522.873 277.547 530.287 288.969C537.775 300.316 541.558 313.592 541.633 328.797H481.268Z" fill="white"/>
<path d="M562.455 307.011V256.177H764.427V307.011H694.531V488.559H632.351V307.011H562.455Z" fill="white"/>
<path d="M819.204 488.559H751.123L827.828 256.177H914.063L990.767 488.559H922.687L871.853 320.173H870.038L819.204 488.559ZM806.496 396.877H934.487V444.08H806.496V396.877Z" fill="white"/>
<path d="M1013.15 488.559V256.177H1076.24V350.128H1079.41L1149.31 256.177H1222.84L1144.32 359.66L1224.65 488.559H1149.31L1097.11 401.416L1076.24 428.648V488.559H1013.15Z" fill="white"/>
<path d="M1241.56 488.559V256.177H1409.04V307.011H1304.65V346.951H1400.41V397.785H1304.65V437.726H1408.58V488.559H1241.56Z" fill="white"/>
<path d="M1565.6 328.797C1564.99 321.232 1562.15 315.332 1557.09 311.096C1552.09 306.859 1544.49 304.741 1534.28 304.741C1527.77 304.741 1522.44 305.536 1518.28 307.124C1514.19 308.637 1511.17 310.717 1509.2 313.365C1507.23 316.012 1506.21 319.038 1506.14 322.442C1505.99 325.241 1506.48 327.775 1507.61 330.045C1508.82 332.238 1510.71 334.243 1513.29 336.058C1515.86 337.798 1519.15 339.387 1523.16 340.824C1527.17 342.261 1531.93 343.547 1537.46 344.682L1556.52 348.767C1569.38 351.49 1580.38 355.083 1589.54 359.546C1598.69 364.009 1606.18 369.267 1612 375.318C1617.83 381.294 1622.1 388.027 1624.83 395.516C1627.62 403.004 1629.06 411.174 1629.14 420.025C1629.06 435.305 1625.24 448.24 1617.68 458.831C1610.11 469.421 1599.3 477.477 1585.23 482.999C1571.23 488.521 1554.4 491.282 1534.73 491.282C1514.53 491.282 1496.91 488.294 1481.86 482.318C1466.88 476.342 1455.23 467.152 1446.91 454.746C1438.66 442.264 1434.5 426.303 1434.43 406.862H1494.34C1494.72 413.973 1496.49 419.949 1499.67 424.79C1502.85 429.632 1507.31 433.3 1513.06 435.797C1518.88 438.293 1525.81 439.541 1533.82 439.541C1540.56 439.541 1546.19 438.709 1550.73 437.045C1555.27 435.381 1558.71 433.073 1561.06 430.123C1563.4 427.173 1564.61 423.807 1564.69 420.025C1564.61 416.469 1563.44 413.368 1561.17 410.72C1558.98 407.997 1555.35 405.576 1550.28 403.458C1545.21 401.265 1538.36 399.222 1529.74 397.331L1506.59 392.338C1486.02 387.875 1469.79 380.424 1457.91 369.985C1446.11 359.471 1440.25 345.136 1440.33 326.981C1440.25 312.23 1444.18 299.333 1452.13 288.289C1460.15 277.169 1471.23 268.507 1485.37 262.304C1499.59 256.101 1515.9 253 1534.28 253C1553.04 253 1569.26 256.139 1582.96 262.418C1596.65 268.696 1607.2 277.547 1614.61 288.969C1622.1 300.316 1625.88 313.592 1625.96 328.797H1565.6Z" fill="white"/>
</svg>
