<svg width="1181" height="364" viewBox="0 0 1181 364" fill="none" xmlns="http://www.w3.org/2000/svg">
<path fill-rule="evenodd" clip-rule="evenodd" d="M434.434 175.108C434.434 152.471 441.27 134 454.944 119.695C468.616 105.39 486.172 98.2382 507.612 98.2382C525.89 98.2382 541.42 103.377 554.198 113.654C566.98 123.931 574.884 137.819 577.904 155.318H551.314C548.843 145.041 543.723 136.986 535.956 131.153C528.193 125.32 518.745 122.403 507.612 122.403C493.045 122.403 481.603 127.16 473.29 136.673C464.978 146.187 460.817 158.998 460.817 175.108C460.817 191.218 464.978 204.065 473.29 213.648C481.603 223.23 493.045 228.021 507.612 228.021C518.745 228.021 528.193 225.105 535.956 219.272C543.723 213.439 548.843 205.384 551.314 195.107H577.904C574.884 212.606 566.98 226.494 554.198 236.771C541.42 247.048 525.89 252.187 507.612 252.187C486.172 252.187 468.616 245.034 454.944 230.73C441.27 216.425 434.434 197.885 434.434 175.108ZM667.406 198.44L638.957 202.815C625.626 204.898 618.962 210.037 618.962 218.23C618.962 227.674 625.285 232.396 637.926 232.396C647.411 232.396 654.692 229.827 659.775 224.689C664.862 219.55 667.406 213.092 667.406 205.315V198.44ZM632.98 251.77C620.334 251.77 610.922 248.784 604.74 242.812C598.553 236.84 595.46 228.924 595.46 219.064C595.46 200.176 609.137 188.788 636.482 184.899L667.406 180.524V178.858C667.406 165.664 659.779 159.068 644.522 159.068C631.195 159.068 623.636 164.414 621.846 175.108H597.936C599.035 164.554 603.4 155.839 611.027 148.964C618.653 142.09 630.023 138.652 645.139 138.652C660.397 138.652 671.903 142.193 679.67 149.276C687.433 156.359 691.317 166.289 691.317 179.066V228.855C691.317 237.604 692.348 244.409 694.41 249.27H671.112C670.976 249.27 670.803 248.749 670.599 247.708C670.395 246.666 670.186 244.965 669.981 242.604C669.777 240.243 669.672 237.743 669.672 235.104C662.387 246.215 650.159 251.77 632.98 251.77ZM745.77 249.27H721.241V93.0303H745.77V249.27ZM874.849 202.398H793.423C794.386 211.009 797.479 217.849 802.698 222.918C807.922 227.987 814.795 230.521 823.311 230.521C828.948 230.521 834.031 229.133 838.569 226.355C843.102 223.578 846.332 219.828 848.258 215.106H872.991C869.693 226.077 863.543 234.931 854.544 241.667C845.542 248.402 834.926 251.77 822.694 251.77C806.755 251.77 793.868 246.423 784.043 235.729C774.218 225.036 769.303 211.495 769.303 195.107C769.303 179.136 774.255 165.734 784.148 154.901C794.041 144.069 806.823 138.652 822.489 138.652C838.156 138.652 850.833 143.964 860.522 154.589C870.211 165.213 875.053 178.58 875.053 194.69L874.849 202.398ZM822.489 158.859C814.795 158.859 808.404 161.151 803.316 165.734C798.233 170.317 795.072 176.428 793.836 184.066H850.729C849.63 176.428 846.609 170.317 841.658 165.734C836.711 161.151 830.32 158.859 822.489 158.859ZM946.413 227.188V248.645C943.387 249.478 939.127 249.895 933.63 249.895C912.745 249.895 902.298 239.271 902.298 218.022V160.943H886.013V141.152H902.298V113.029H926.831V141.152H946.826V160.943H926.831V215.522C926.831 223.994 930.814 228.23 938.786 228.23L946.413 227.188ZM1033.23 198.44L1004.79 202.815C991.454 204.898 984.791 210.037 984.791 218.23C984.791 227.674 991.109 232.396 1003.75 232.396C1013.23 232.396 1020.52 229.827 1025.6 224.689C1030.69 219.55 1033.23 213.092 1033.23 205.315V198.44ZM998.804 251.77C986.162 251.77 976.751 248.784 970.564 242.812C964.382 236.84 961.289 228.924 961.289 219.064C961.289 200.176 974.961 188.788 1002.31 184.899L1033.23 180.524V178.858C1033.23 165.664 1025.6 159.068 1010.35 159.068C997.018 159.068 989.46 164.414 987.675 175.108H963.764C964.863 164.554 969.224 155.839 976.851 148.964C984.477 142.09 995.851 138.652 1010.97 138.652C1026.22 138.652 1037.73 142.193 1045.49 149.276C1053.26 156.359 1057.14 166.289 1057.14 179.066V228.855C1057.14 237.604 1058.17 244.409 1060.23 249.27H1036.94C1036.8 249.27 1036.63 248.749 1036.43 247.708C1036.22 246.666 1036.01 244.965 1035.81 242.604C1035.6 240.243 1035.5 237.743 1035.5 235.104C1028.21 246.215 1015.98 251.77 998.804 251.77Z" fill="white"/>
<path d="M299.543 42.0879C273.828 42.0893 245.931 48.1544 224.155 57.188C198.854 67.6839 170.44 83.0534 150.108 102.82C159.226 97.0464 170.24 91.6624 183.265 87.198C202.93 80.458 240.828 65.2401 262.874 83.3091C284.921 101.379 284.192 142.23 278.917 172.95C273.642 203.67 262.862 243.582 233.712 253.124C204.562 262.666 173.929 236.993 154.602 217.497C148.003 210.841 140.77 203.575 134.309 195.703C149.774 221.164 176.919 242.367 193.064 256.054C248.204 302.8 276.851 322.481 299.011 313.288C341.337 295.73 356.684 242.999 365.732 201.041C374.781 159.083 387.996 93.6294 361.788 63.2841C348.699 48.128 325.211 42.0879 299.551 42.0879H299.543Z" fill="white"/>
<mask id="mask0_8280_2733" style="mask-type:alpha" maskUnits="userSpaceOnUse" x="118" y="42" width="262" height="276">
<path d="M229.288 54.8447C246.975 48.9379 271.181 42.0886 294.804 42.0879C296.601 42.0879 298.391 42.1276 300.178 42.2097C294.043 43.1627 288.044 44.2829 282.38 45.2521C255.881 49.7865 217.418 60.7242 208.31 90.7146C199.203 120.705 224.861 152.663 246.344 174.721C267.826 196.779 299.998 220.822 327.059 212.644C354.121 204.465 363.717 163.862 369.62 143.456C374.115 127.913 376.114 113.912 376.363 101.762C377.231 105.008 377.906 108.451 378.37 112.136C381.454 136.624 375.465 171.231 370.108 195.061C359.552 242.008 339.782 302.675 294.06 314.972C248.338 327.268 203.1 285.122 174.816 253.446C146.533 221.771 110.258 181.569 120.529 135.898C125.904 111.987 161.164 77.5997 229.288 54.8447Z" fill="white"/>
</mask>
<g mask="url(#mask0_8280_2733)">
<path d="M103.448 13.7969V335.636H437.226V13.7969H103.448Z" fill="white"/>
</g>
<mask id="mask1_8280_2733" style="mask-type:alpha" maskUnits="userSpaceOnUse" x="137" y="176" width="195" height="147">
<path d="M308.226 213.668C345.124 218.437 333.343 290.483 308.226 313.025C301.977 318.633 280.26 328.966 267.053 316.375C231.069 310.972 197.494 278.846 174.817 253.449C162.46 239.609 148.576 224.141 137.715 207.299C142.5 208.407 145.987 195.585 150.531 196.473C186.301 203.462 192.765 197.855 215.396 176.28C217.823 173.965 262.539 193.733 264.147 191.051C277.738 202.061 293.198 211.261 308.226 213.668Z" fill="white"/>
</mask>
<g mask="url(#mask1_8280_2733)">
<path d="M103.448 81.0937V84.8155C104.969 83.6312 106.471 82.4873 107.942 81.3867C113.142 77.4973 118.59 73.3 124.283 69.1699C117.017 72.6393 110.052 76.7011 103.448 81.0937ZM258.586 117.059C265.264 137.495 280.752 176.995 258.122 198.571C235.491 220.146 187.526 217.272 151.756 210.282C136.334 207.269 118.966 203.121 103.448 196.952V309.755C111.671 311.832 119.784 313.727 127.554 315.549C176.292 326.977 248.935 338.061 288.12 302.894C327.306 267.726 309.731 205.765 291.27 160.387C281.899 137.352 266.453 104.874 248.022 85.8607C245.248 82.9996 242.409 80.4553 239.495 78.1853C246.817 88.583 253.5 101.494 258.586 117.059Z" fill="white"/>
</g>
</svg>
