<svg width="571" height="372" viewBox="0 0 571 372" fill="none" xmlns="http://www.w3.org/2000/svg">
<g clip-path="url(#clip0_8280_2746)">
<path d="M337.28 0H246.467L262.28 187.699H291.773H321.265L337.28 0Z" fill="white"/>
<path d="M452.849 73.0713C391.633 73.0713 352.426 89.0487 345.892 134.202H421.553C423.961 122.74 434.278 118.92 452.849 118.92C476.923 118.92 482.77 127.603 482.77 144.622V149.138C361.712 143.233 335.919 168.936 335.919 212.005C335.919 250.212 363.776 268.274 415.706 268.274C448.722 268.274 470.388 257.159 482.77 244.655V263.064H567.372V144.622C567.372 83.4913 513.377 73.0713 452.849 73.0713ZM482.77 212.353C473.483 221.036 459.039 227.288 440.812 227.288C429.807 227.288 417.082 224.857 417.082 210.616C417.082 191.513 440.468 190.123 482.77 192.208V212.353Z" fill="white"/>
<path d="M239.019 187.692C243.834 101.553 176.771 73.0713 121.401 73.0713C61.9042 73.0713 0 99.1212 0 170.673C0 242.224 62.592 268.274 123.121 268.274C174.363 268.274 224.575 251.254 236.268 200.543H158.887C152.009 210.616 140.66 217.215 123.121 217.215C98.0148 217.215 84.9462 205.059 80.4758 187.692H239.019ZM121.401 124.13C143.067 124.13 154.416 134.55 159.231 151.569H80.8197C85.6341 135.592 97.3269 124.13 121.401 124.13Z" fill="white"/>
<path d="M92.2593 333.837H52.5937V348.984H71.0227C69.2673 353.59 64.7918 357.841 55.2264 357.841C43.2916 357.841 35.4813 351.553 35.4813 339.683C35.4813 327.901 41.5365 321.613 53.4713 321.613C62.3347 321.613 66.81 324.447 69.5308 329.407H90.9433C86.9941 313.817 71.3733 307.439 53.5591 307.439C33.8139 307.439 14.4199 316.032 14.4199 339.683C14.4199 363.422 33.5507 372.014 55.1387 372.014C78.9205 372.014 94.629 361.031 92.2593 333.837ZM188.674 370.685H210.35L181.917 308.68H155.118L126.774 370.685H148.449L152.311 361.119H184.725L188.674 370.685ZM158.102 346.769L166.923 324.359H170.376L179.021 346.769H158.102ZM450.61 356.425H409.98V346.06H447.276V331.71H409.98V323.03H449.733V308.68H389.181V370.685H450.61V356.425ZM536.721 331.976C526.191 330.913 518.556 330.559 518.556 326.307C518.556 322.764 522.943 321.524 531.368 321.524C539.354 321.524 544.268 323.384 544.268 327.636H565.417C565.417 316.918 557.695 307.439 531.631 307.439C507.761 307.439 497.845 314.703 497.845 327.282C497.845 339.683 504.515 343.669 523.382 346.592C541.021 349.338 546.988 349.072 546.988 353.235C546.988 356.69 542.074 357.93 533.826 357.93C525.225 357.93 518.205 356.336 518.205 350.578H496.441C496.441 363.599 506.708 372.014 532.684 372.014C556.818 372.014 569.366 365.903 569.366 351.021C569.366 335.342 555.94 334.014 536.721 331.976Z" fill="white"/>
<path d="M292 349.432L306.393 308.686H336.756V370.691H315.958L315.921 330.387L301.178 370.691H282.786L268.043 330.387V370.691H247.245V308.686H277.608L292 349.432Z" fill="white"/>
<path fill-rule="evenodd" clip-rule="evenodd" d="M320.252 242.007C314.577 239.054 308.512 236.938 302.243 235.725C308.512 234.511 314.577 232.395 320.252 229.442C322.94 228.06 324.463 225.734 324.463 222.786C324.463 219.082 321.867 216.124 318.209 215.524C316.654 215.287 315.212 214.561 314.092 213.447C312.99 212.315 312.27 210.859 312.036 209.289C311.442 205.595 308.503 202.974 304.845 202.974C301.925 202.974 299.625 204.511 298.257 207.226C295.331 212.96 293.235 219.088 292.032 225.423C290.835 219.088 288.743 212.958 285.821 207.223C284.453 204.508 282.153 202.971 279.233 202.971C275.566 202.971 272.636 205.591 272.043 209.286C271.809 210.856 271.089 212.312 269.987 213.444C268.866 214.559 267.424 215.285 265.869 215.52C262.211 216.12 259.616 219.088 259.616 222.782C259.616 225.731 261.139 228.057 263.826 229.439C269.501 232.392 275.566 234.508 281.835 235.721C275.566 236.935 269.501 239.051 263.826 242.004C261.139 243.386 259.616 245.708 259.616 248.657C259.616 252.361 262.211 255.319 265.869 255.922C267.424 256.157 268.866 256.884 269.987 257.998C271.088 259.131 271.808 260.587 272.043 262.157C272.636 265.851 275.576 268.472 279.233 268.472C282.153 268.472 284.453 266.935 285.821 264.22C288.747 258.49 290.843 252.367 292.046 246.036C293.247 252.366 295.343 258.49 298.267 264.22C299.635 266.935 301.935 268.472 304.854 268.472C308.522 268.472 311.451 265.851 312.045 262.157C312.282 260.588 313.001 259.133 314.101 257.998C315.222 256.885 316.664 256.159 318.219 255.922C321.876 255.319 324.472 252.354 324.472 248.657C324.463 245.712 322.94 243.389 320.252 242.007Z" fill="white"/>
</g>
<defs>
<clipPath id="clip0_8280_2746">
<rect width="571" height="372" fill="white"/>
</clipPath>
</defs>
</svg>
