<svg width="1449" height="429" viewBox="0 0 1449 429" fill="none" xmlns="http://www.w3.org/2000/svg">
<mask id="mask0_8280_2755" style="mask-type:luminance" maskUnits="userSpaceOnUse" x="11" y="34" width="1430" height="333">
<path d="M1440.43 34.0625H11.1694V366.688H1440.43V34.0625Z" fill="white"/>
</mask>
<g mask="url(#mask0_8280_2755)">
<g filter="url(#filter0_d_8280_2755)">
<path d="M163.249 136.681L236.043 170.485C234.334 169.346 199.713 146.109 189.046 127.719C178.077 108.896 178.882 94.9533 188.139 81.4781C197.398 68.0029 220.344 59.511 255.231 61.7512C290.121 63.9914 328.498 74.5245 357.28 100.336C357.28 100.336 332.725 56.8363 270.228 44.6656C207.731 32.4951 159.625 57.0703 131.882 82.2477C124.535 88.935 120.745 95.2867 119.503 101.372C120.075 119.895 163.249 136.681 163.249 136.681Z" fill="white"/>
<path d="M188.139 304.958C178.848 291.485 178.077 277.542 189.046 258.717C200.016 239.893 236.112 215.92 236.112 215.92L163.249 249.757C163.249 249.757 120.04 266.541 119.503 285.064C120.745 291.149 124.535 297.503 131.882 304.19C159.625 329.367 207.697 353.908 270.195 341.737C332.725 329.599 357.28 286.102 357.28 286.102C328.498 311.914 290.121 322.478 255.231 324.686C220.344 326.926 197.398 318.467 188.139 304.958Z" fill="white"/>
<path d="M163.22 249.762L236.083 215.925C236.083 215.925 256.781 204.891 256.781 193.96C256.781 193.725 256.781 193.456 256.747 193.223C256.747 192.989 256.781 192.722 256.781 192.487C256.781 181.554 236.083 170.519 236.083 170.519L236.016 170.486L163.22 136.683C163.22 136.683 120.046 119.932 119.476 101.409C116.021 118.227 132.057 132.772 145.273 145.242C162.952 161.861 170.803 178.377 170.668 193.223C170.803 208.068 162.952 224.586 145.273 241.236C132.057 253.675 116.021 268.22 119.476 285.071C120.013 266.547 163.22 249.762 163.22 249.762Z" fill="white"/>
<g opacity="0.9">
<path d="M347.979 202.971C347.979 206.536 349.774 209.207 353.363 210.923C356.954 212.703 361.441 213.594 366.964 213.663C372.418 213.733 377.801 213.458 383.048 212.978C388.296 212.43 393.266 211.881 397.89 211.195C402.585 210.51 405.209 210.168 405.9 210.168C406.382 220.107 404.38 227.166 399.961 231.28C395.545 235.392 386.639 237.447 373.246 237.447C354.814 237.447 341.282 233.746 332.584 226.275C323.954 218.805 319.606 205.986 319.606 187.617C319.606 178.432 320.779 170.686 323.127 164.38C325.474 158.005 328.926 153.207 333.482 149.85C338.038 146.56 343.078 144.161 348.67 142.79C354.261 141.418 360.819 140.732 368.276 140.732C382.565 140.732 393.128 143.748 399.824 149.781C406.59 155.812 409.971 165.41 409.971 178.568C409.971 183.641 409.006 187.617 407.004 190.701C405.07 193.717 402.448 195.774 399.342 196.802C396.164 197.829 392.367 198.584 387.951 199.064C383.532 199.544 379.114 199.681 374.834 199.475C370.484 199.27 365.86 199.475 360.819 200.092C355.85 200.641 351.5 201.599 347.979 202.971ZM347.081 184.943C349.015 183.574 352.259 182.683 356.677 182.202C361.096 181.722 365.238 181.517 369.103 181.447C372.969 181.38 376.421 180.556 379.39 179.048C382.357 177.472 383.809 175.073 383.738 171.782C383.738 168.836 381.392 166.368 376.629 164.38C370.07 161.639 363.649 161.434 357.436 163.694C348.807 166.779 345.355 173.84 347.081 184.943Z" fill="white"/>
<path d="M521.383 173.432V235.946C517.378 236.151 513.858 236.151 511.028 235.876C508.129 235.602 505.437 234.916 502.813 233.888C500.19 232.861 498.325 231.148 497.084 228.816C495.84 226.486 495.358 223.538 495.427 219.975V182.892V182.55V173.982C493.701 165.619 485.83 162.329 471.884 164.042C464.636 164.933 460.425 165.619 459.252 166.099C459.597 168.018 459.803 170.35 459.803 172.954V219.975C459.942 223.538 459.321 226.486 458.077 228.816C456.836 231.148 454.902 232.861 452.349 233.888C449.793 234.916 447.102 235.602 444.202 235.876C441.303 236.151 437.851 236.22 433.846 235.946V152.322C433.846 144.85 445.928 140.875 470.021 140.327C504.193 139.436 521.315 150.47 521.383 173.432Z" fill="white"/>
<path d="M611.891 103.59C613.617 104.823 615.757 105.645 618.379 105.989C621.003 106.331 623.351 106.536 625.49 106.536C627.63 106.536 629.701 106.88 631.635 107.497C633.567 108.113 635.087 109.621 636.191 112.02C637.295 114.419 637.848 117.914 637.848 122.507V223.814C637.709 223.952 637.158 224.569 636.191 225.802C635.224 227.037 634.328 227.995 633.498 228.75C632.67 229.503 631.221 230.464 629.011 231.697C626.802 232.932 624.386 233.823 621.762 234.509C619.14 235.192 615.549 235.811 611.062 236.427C606.574 236.975 601.465 237.319 595.874 237.319C578.133 237.319 565.361 233.479 557.628 225.871C549.897 218.263 546.032 205.583 546.032 187.83C546.032 180.975 546.928 174.805 548.793 169.391C550.656 163.977 553.072 159.521 556.11 156.094C559.148 152.668 562.737 149.788 566.948 147.526C571.09 145.263 575.303 143.619 579.582 142.728C583.862 141.837 588.28 141.356 592.907 141.356C601.811 141.356 608.094 142.728 611.96 145.469V103.59H611.891ZM611.891 189.407V165.004C610.371 164.524 608.714 164.113 606.988 163.771C605.194 163.427 602.985 163.155 600.361 163.016C597.739 162.811 595.184 162.88 592.836 163.085C590.491 163.291 588.004 163.977 585.519 165.143C582.965 166.306 580.826 167.814 578.961 169.666C577.097 171.584 575.648 174.189 574.473 177.548C573.3 180.906 572.747 184.881 572.747 189.474C572.747 193.794 573.438 197.631 574.818 200.785C576.199 204.006 577.925 206.474 579.927 208.187C581.93 209.901 584.415 211.203 587.384 212.025C590.351 212.849 592.975 213.396 595.323 213.602C597.669 213.807 600.224 213.738 602.985 213.396C605.747 213.122 607.679 212.849 608.785 212.641C609.889 212.436 610.856 212.163 611.821 211.958H612.029C611.96 212.094 611.96 204.553 611.891 189.407Z" fill="white"/>
<path d="M662.368 188.369C662.229 187.684 662.16 186.792 662.091 185.629C662.023 184.463 662.229 182.269 662.644 178.91C663.058 175.62 663.68 172.399 664.645 169.383C665.543 166.368 667.2 163.008 669.477 159.307C671.756 155.673 674.655 152.521 678.038 149.848C681.421 147.243 686.046 144.981 691.776 143.267C697.507 141.485 704.134 140.594 711.52 140.594C716.697 140.594 721.461 141.005 725.88 141.829C730.228 142.651 734.025 143.748 737.202 145.119C740.377 146.488 743.207 148.204 745.692 150.259C748.177 152.316 750.25 154.371 751.837 156.359C753.425 158.347 754.806 160.746 755.91 163.489C757.014 166.229 757.844 168.628 758.395 170.616C758.948 172.604 759.362 174.934 759.638 177.677C759.844 180.35 759.983 182.405 760.052 183.777C760.121 185.148 760.121 186.931 760.052 188.986C759.983 191.11 759.983 192.276 759.983 192.481C759.983 194.333 759.915 195.977 759.775 197.485C759.638 198.993 759.293 201.324 758.74 204.545C758.189 207.766 757.359 210.646 756.324 213.114C755.288 215.649 753.631 218.392 751.423 221.338C749.144 224.286 746.522 226.822 743.484 228.81C740.446 230.798 736.441 232.511 731.54 233.882C726.639 235.254 721.116 235.939 715.04 235.939C708.69 235.939 703.03 235.526 698.058 234.704C693.088 233.882 688.878 232.855 685.426 231.552C681.974 230.25 678.936 228.468 676.312 226.136C673.69 223.875 671.619 221.476 670.03 219.078C668.442 216.679 667.061 213.73 666.026 210.165C664.99 206.603 664.231 203.243 663.68 199.953C663.127 196.663 662.713 192.892 662.368 188.369ZM688.117 189.946C688.462 193.922 688.946 197.143 689.568 199.473C690.188 201.805 691.362 204.134 693.02 206.397C694.675 208.658 697.23 210.371 700.543 211.4C703.857 212.428 708.137 212.977 713.314 212.977C717.319 212.977 720.839 212.359 723.669 211.057C726.57 209.824 728.71 208.385 730.091 206.739C731.471 205.162 732.575 203.174 733.405 200.913C734.233 198.651 734.646 196.938 734.786 195.772C734.923 194.606 734.992 193.373 734.992 192.001C734.992 191.865 734.992 191.318 734.992 190.221C734.992 189.124 734.992 188.233 734.992 187.478C734.992 186.725 734.923 185.629 734.786 184.119C734.646 182.611 734.441 181.378 734.164 180.281C733.887 179.185 733.474 177.882 732.921 176.444C732.37 174.934 731.748 173.701 730.989 172.604C730.228 171.507 729.263 170.411 728.02 169.245C726.776 168.081 725.466 167.19 723.946 166.435C722.428 165.682 720.634 165.066 718.492 164.652C716.352 164.174 714.005 163.969 711.52 163.969C706.895 163.969 702.959 164.585 699.784 165.888C696.54 167.121 694.192 168.628 692.675 170.274C691.155 171.918 690.05 174.112 689.223 176.786C688.393 179.459 687.979 181.583 687.911 183.022C687.842 184.532 687.911 186.381 687.979 188.711C688.117 189.261 688.117 189.741 688.117 189.946Z" fill="white"/>
<path d="M847.911 140.668C847.774 140.873 847.843 142.106 847.98 144.3C848.188 146.493 848.119 148.551 847.911 150.536C847.703 152.524 847.221 154.718 846.531 156.98C845.84 159.243 844.46 161.093 842.32 162.464C840.178 163.835 837.419 164.521 834.104 164.521C829.272 164.521 825.544 164.727 822.851 165.068C820.229 165.41 817.813 166.301 815.742 167.673C813.671 169.044 812.29 170.963 811.6 173.498C810.909 176.036 810.564 179.462 810.564 183.78V238.752C808.493 237.244 805.732 236.079 802.348 235.257C798.965 234.365 796.067 233.749 793.719 233.269C791.372 232.791 789.232 231.486 787.437 229.226C785.572 226.963 784.676 223.742 784.676 219.491V173.498C784.676 172.815 784.676 171.854 784.745 170.688C784.813 169.455 785.021 167.809 785.366 165.685C785.712 163.561 786.263 161.436 787.092 159.31C787.92 157.186 789.093 154.992 790.75 152.73C792.338 150.469 794.341 148.412 796.618 146.699C798.897 144.986 801.864 143.545 805.524 142.381C809.183 141.215 813.186 140.668 817.742 140.668C825.475 140.668 831.204 140.668 834.863 140.668C838.523 140.668 840.594 140.668 840.939 140.668C841.284 140.668 841.975 140.668 842.942 140.668C843.769 140.668 845.495 140.668 847.911 140.668Z" fill="white"/>
<path d="M894.994 273.918C892.923 272.411 890.162 271.519 886.78 271.247C883.397 270.972 880.497 270.834 878.151 270.834C875.804 270.834 873.664 269.601 871.867 267.132C870.004 264.666 869.106 260.621 869.106 255.001V153.694C869.245 153.556 869.796 152.939 870.763 151.706C871.73 150.471 872.628 149.582 873.456 148.896C874.284 148.21 875.735 147.25 877.943 145.948C880.151 144.715 882.568 143.687 885.192 143.002C887.816 142.316 891.405 141.699 895.892 141.081C900.38 140.533 905.489 140.189 911.08 140.189C928.821 140.189 941.592 144.029 949.326 151.637C957.057 159.245 960.924 171.925 960.924 189.678C960.924 198.247 959.544 205.718 956.782 212.024C954.021 218.329 950.292 223.127 945.597 226.556C940.904 229.913 936.001 232.381 930.755 233.958C925.509 235.535 919.917 236.288 914.049 236.288C906.11 236.288 899.758 235.466 894.994 233.889V273.918ZM894.994 188.034V212.435C896.859 212.984 898.862 213.464 900.933 213.806C903.072 214.148 905.765 214.423 908.94 214.697C912.184 214.903 915.153 214.561 917.915 213.67C920.676 212.779 923.298 211.407 925.854 209.694C928.407 207.981 930.41 205.238 931.928 201.467C933.448 197.699 934.207 193.174 934.207 187.896C934.207 183.578 933.516 179.741 932.067 176.587C930.617 173.366 928.96 170.898 927.027 169.184C925.095 167.471 922.608 166.169 919.501 165.347C916.395 164.456 913.773 163.976 911.702 163.77C909.631 163.565 907.006 163.701 903.9 164.043C900.793 164.387 898.862 164.592 898.171 164.728C897.481 164.867 896.445 165.072 895.065 165.414H894.857C894.857 165.414 894.857 172.955 894.994 188.034Z" fill="white"/>
<path d="M1011.18 143.962C1016.84 141.701 1026.3 140.535 1039.55 140.535C1046.04 140.535 1051.57 141.632 1056.12 143.825C1060.75 146.019 1064.06 148.487 1066.13 151.297C1068.2 154.107 1069.79 157.328 1070.9 160.893C1072 164.525 1072.62 167.198 1072.69 168.981C1072.83 170.763 1072.83 172.271 1072.69 173.504V236.017C1055.36 238.278 1046.73 233 1046.73 220.047C1046.73 215.247 1046.73 208.941 1046.73 201.128C1046.87 184.06 1046.04 173.71 1044.32 169.941C1042.59 166.238 1037.14 164.252 1028.09 164.045C1022.43 164.045 1016.77 165.074 1011.11 167.129V220.047C1011.32 226.899 1009.18 231.425 1004.62 233.549C1000.07 235.673 993.577 236.495 985.153 236.017V102.014C987.224 103.521 989.986 104.413 993.369 104.687C996.752 104.96 999.651 105.098 1002 105.098C1004.35 105.098 1006.49 106.331 1008.28 108.8C1010.15 111.268 1011.04 115.311 1011.04 120.931V143.962H1011.18Z" fill="white"/>
<path d="M1101.64 130.87C1099.01 128.13 1097.63 124.84 1097.63 121.069C1097.63 117.299 1099.01 114.078 1101.71 111.337C1104.4 108.663 1107.64 107.292 1111.51 107.292C1115.3 107.292 1118.55 108.663 1121.31 111.337C1124 114.009 1125.39 117.232 1125.39 121.069C1125.39 124.84 1124 128.061 1121.31 130.803C1118.62 133.475 1115.37 134.846 1111.51 134.846C1107.71 134.846 1104.4 133.544 1101.64 130.87ZM1124.28 157.808C1124.28 152.188 1123.38 148.143 1121.52 145.677C1119.65 143.209 1117.58 141.976 1115.24 141.976C1112.89 141.976 1109.99 141.838 1106.61 141.563C1103.22 141.29 1100.46 140.399 1098.39 138.891V235.879C1106.81 236.359 1113.3 235.537 1117.86 233.413C1122.42 231.287 1124.56 226.833 1124.35 219.908V157.808H1124.28Z" fill="white"/>
<path d="M1237.44 173.432V235.946C1233.44 236.151 1229.91 236.151 1227.08 235.876C1224.19 235.602 1221.49 234.916 1218.87 233.888C1216.25 232.861 1214.38 231.148 1213.14 228.816C1211.9 226.486 1211.41 223.538 1211.48 219.975V182.892V182.55V173.982C1209.76 165.619 1201.89 162.329 1187.94 164.042C1180.69 164.933 1176.48 165.619 1175.31 166.099C1175.65 168.018 1175.86 170.35 1175.86 172.954V219.975C1176 223.538 1175.38 226.486 1174.14 228.816C1172.89 231.148 1170.96 232.861 1168.4 233.888C1165.85 234.916 1163.16 235.602 1160.26 235.876C1157.36 236.151 1153.91 236.22 1149.9 235.946V152.322C1149.9 144.85 1161.99 140.875 1186.08 140.327C1220.18 139.436 1237.3 150.47 1237.44 173.432Z" fill="white"/>
<path d="M1268.9 164.726C1268.9 164.382 1268.83 163.904 1268.69 163.355C1268.56 162.807 1268.56 161.641 1268.63 159.995C1268.69 158.351 1268.83 156.774 1269.18 155.266C1269.45 153.759 1270.08 152.113 1270.91 150.194C1271.8 148.275 1272.91 146.698 1274.36 145.396C1275.81 144.094 1277.74 142.997 1280.22 142.037C1282.71 141.147 1285.61 140.667 1288.99 140.667C1290.03 140.667 1291.62 140.667 1293.82 140.667C1296.79 140.529 1299.9 140.529 1303.07 140.667C1306.25 140.804 1309.43 140.94 1312.6 141.078C1315.78 141.284 1318.88 141.764 1321.85 142.517C1324.82 143.341 1327.72 144.299 1330.41 145.465C1333.1 146.629 1335.59 148.275 1337.87 150.332C1340.15 152.457 1342.08 154.855 1343.74 157.596C1345.39 160.339 1346.71 163.696 1347.6 167.741C1348.5 171.717 1348.98 176.241 1348.98 181.313V182.546V183.781V185.151V186.386V187.757V189.126V190.703V192.417V194.13V196.187V198.928V200.299C1348.98 205.03 1348.43 209.278 1347.4 213.118C1346.36 216.956 1345.05 220.04 1343.53 222.508C1341.94 224.907 1340.01 227.032 1337.73 228.883C1335.45 230.733 1333.24 232.035 1331.24 232.926C1329.24 233.817 1326.89 234.503 1324.27 234.983C1321.65 235.531 1319.57 235.805 1318.13 235.942C1316.67 236.08 1314.95 236.147 1313.02 236.147H1289.13C1288.79 236.147 1288.23 236.147 1287.54 236.08C1286.85 236.011 1285.54 235.874 1283.68 235.531C1281.74 235.256 1279.95 234.845 1278.22 234.228C1276.5 233.681 1274.56 232.721 1272.42 231.418C1270.28 230.116 1268.49 228.539 1266.97 226.757C1265.45 224.974 1264.21 222.645 1263.17 219.835C1262.14 216.956 1261.59 213.735 1261.59 210.239C1261.59 203.933 1262.41 198.655 1264 194.335C1265.59 190.018 1268.07 186.728 1271.32 184.398C1274.63 182.068 1278.29 180.422 1282.3 179.531C1286.3 178.639 1291.2 178.159 1297 178.159C1307.01 178.159 1313.84 177.476 1317.5 176.171C1321.16 174.869 1322.96 172.814 1322.96 170.071C1322.96 166.164 1319.16 163.56 1311.64 162.189C1304.11 160.819 1296.1 160.545 1287.61 161.297C1279.19 161.916 1272.91 163.08 1268.9 164.726ZM1323.72 190.634C1323.23 191.184 1322.61 191.869 1321.71 192.691C1320.82 193.513 1318.88 194.543 1315.91 195.845C1312.95 197.147 1309.77 197.831 1306.6 197.831C1300.94 197.831 1296.38 198.517 1292.86 199.888C1289.34 201.26 1287.61 203.178 1287.61 205.714C1287.61 208.662 1288.85 210.925 1291.41 212.432C1293.96 213.94 1299 214.693 1306.6 214.693C1309.7 214.693 1312.12 214.693 1313.78 214.626C1315.43 214.557 1317.02 214.146 1318.47 213.324C1319.92 212.499 1320.89 211.747 1321.51 211.061C1322.06 210.375 1322.54 208.937 1322.96 206.674C1323.37 204.411 1323.58 202.287 1323.65 200.232C1323.65 198.175 1323.72 194.954 1323.72 190.634Z" fill="white"/>
</g>
</g>
</g>
<defs>
<filter id="filter0_d_8280_2755" x="115.899" y="39.3865" width="1236.19" height="309.7" filterUnits="userSpaceOnUse" color-interpolation-filters="sRGB">
<feFlood flood-opacity="0" result="BackgroundImageFix"/>
<feColorMatrix in="SourceAlpha" type="matrix" values="0 0 0 0 0 0 0 0 0 0 0 0 0 0 0 0 0 0 127 0" result="hardAlpha"/>
<feOffset dy="1.0338"/>
<feGaussianBlur stdDeviation="1.5507"/>
<feComposite in2="hardAlpha" operator="out"/>
<feColorMatrix type="matrix" values="0 0 0 0 0 0 0 0 0 0 0 0 0 0 0 0 0 0 1 0"/>
<feBlend mode="normal" in2="BackgroundImageFix" result="effect1_dropShadow_8280_2755"/>
<feBlend mode="normal" in="SourceGraphic" in2="effect1_dropShadow_8280_2755" result="shape"/>
</filter>
</defs>
</svg>
