<svg width="1449" height="451" viewBox="0 0 1449 451" fill="none" xmlns="http://www.w3.org/2000/svg">
<g clip-path="url(#clip0_8280_2774)">
<path d="M1079.01 66.2404L1128.25 64.8311V170.534C1128.25 173.353 1128.25 174.762 1129.66 176.172C1132.47 177.581 1133.88 178.99 1136.69 178.99H1145.13V188.856H1084.64V178.99H1093.08C1095.89 178.99 1098.71 177.581 1101.52 176.172C1102.93 173.353 1104.33 170.534 1104.33 167.715V93.0186C1104.33 88.7904 1102.93 84.5623 1100.11 81.7436C1095.89 78.9248 1091.67 77.5154 1087.45 77.5154H1077.61H1029.77V156.44C1029.77 162.078 1031.18 167.715 1034 171.944C1036.81 176.172 1041.03 177.581 1046.66 177.581C1052.28 177.581 1057.91 174.762 1062.13 169.125C1067.76 160.669 1069.17 150.803 1069.17 140.937H1077.61C1077.61 157.85 1073.39 169.125 1066.35 177.581C1059.32 186.037 1049.47 190.265 1039.62 188.856C1031.18 188.856 1022.74 186.037 1015.71 180.4C1010.08 174.762 1007.27 166.306 1007.27 157.85V77.5154H986.164V69.0592C994.605 67.6498 1003.05 63.4217 1008.67 56.3748C1017.11 45.0998 1021.33 29.5967 1021.33 15.5029H1029.77V66.2404H1079.01Z" fill="white"/>
<path d="M391.089 4.22852H540.21L544.43 54.966H534.583C531.769 33.8254 530.362 29.5973 523.328 21.141C514.887 14.0941 500.819 14.0941 488.158 14.0941H450.175C447.361 14.0941 444.548 15.5035 443.141 16.9129C441.734 19.7316 440.327 21.141 440.327 23.9598V87.3816H457.209C465.65 87.3816 474.09 84.5629 478.311 77.516C483.938 69.0598 488.158 59.1941 486.751 47.9191H495.192V138.119H486.751C486.751 122.616 483.938 112.75 478.311 105.704C472.684 101.475 464.243 98.6566 455.802 98.6566H440.327V170.535C440.327 173.354 441.734 174.763 443.141 177.582C445.954 178.991 448.768 180.4 452.988 180.4H482.531C514.887 180.4 534.583 169.125 538.803 128.254H548.651L545.837 190.266H391.089V180.4H399.53C403.751 180.4 407.971 180.4 410.785 177.582C413.598 176.172 413.598 173.354 413.598 169.125V25.3691C413.598 22.5504 412.191 19.7316 410.785 18.3223C407.971 15.5035 405.157 14.0941 402.344 14.0941H391.089V4.22852Z" fill="white"/>
<path d="M537.396 66.2402H604.922V74.6965C599.295 74.6965 595.075 74.6965 589.447 77.5152C588.041 78.9246 586.634 80.334 586.634 83.1527C586.634 84.5621 586.634 87.3809 588.041 88.7902L620.397 162.078L649.94 91.609C649.94 90.1996 649.94 88.7902 649.94 87.3809C649.94 80.334 644.313 77.5152 631.651 76.1059V66.2402H682.296V74.6965C678.076 74.6965 673.855 76.1059 669.635 78.9246C666.821 81.7434 664.008 84.5621 662.601 88.7902L617.583 193.084H610.549L562.718 85.9715C561.312 83.1527 559.905 80.334 555.684 77.5152C550.057 76.1059 543.023 74.6965 537.396 74.6965V66.2402Z" fill="white"/>
<path d="M770.924 80.3346C759.67 69.0596 745.602 62.0127 728.72 62.0127C713.246 62.0127 697.771 69.0596 687.923 80.3346C665.415 108.522 665.415 147.985 687.923 174.763C697.771 186.038 713.246 193.085 728.72 193.085C739.975 193.085 749.822 190.266 758.263 184.628C766.704 178.991 775.145 171.944 779.365 162.078C784.992 150.803 787.806 139.528 786.399 126.844C789.213 109.931 782.179 93.0189 770.924 80.3346ZM754.043 170.535C748.415 178.991 738.568 184.628 728.72 184.628C718.873 184.628 709.025 178.991 704.805 170.535C699.178 160.669 694.957 146.575 694.957 126.844C694.957 107.113 697.771 93.0189 704.805 84.5627C710.432 76.1064 718.873 70.4689 728.72 70.4689C738.568 70.4689 748.415 74.6971 754.043 83.1533C759.67 91.6096 763.89 105.703 763.89 124.025C763.89 146.575 759.67 160.669 754.043 170.535Z" fill="white"/>
<path d="M828.603 2.81836V171.943C828.603 173.353 830.01 176.172 831.416 177.581C834.23 178.99 837.044 180.4 839.857 180.4H848.298V190.265H787.806V180.4H794.84C797.653 180.4 801.874 178.99 803.28 177.581C804.687 174.762 806.094 171.943 806.094 169.125V28.1871C806.094 23.959 804.687 21.1402 801.874 18.3215C799.06 15.5027 794.84 14.0934 790.619 14.0934H779.365V4.22773L828.603 2.81836Z" fill="white"/>
<path d="M890.502 63.4219V145.166C890.502 153.622 893.316 162.078 897.536 167.716C903.163 173.353 910.197 176.172 917.231 176.172C927.079 176.172 935.52 171.944 942.553 164.897C949.587 156.441 953.808 146.575 952.401 135.3V88.7906C952.401 84.5625 950.994 81.7437 948.181 78.925C942.554 76.1062 936.926 74.6969 931.299 74.6969V66.2406L974.91 63.4219V164.897C974.91 169.125 976.317 173.353 979.13 176.172C981.944 178.991 986.164 180.4 990.385 180.4H998.825V188.856H956.621L953.808 164.897C948.181 171.944 939.74 178.991 931.299 184.628C924.265 188.856 917.231 191.675 908.79 191.675C898.943 191.675 887.688 187.447 880.654 180.4C873.62 173.353 869.4 160.669 869.4 142.347V88.7906C869.4 84.5625 867.993 80.3344 863.773 77.5156C858.146 74.6969 852.519 74.6969 846.891 74.6969V66.2406C848.298 66.2406 890.502 63.4219 890.502 63.4219Z" fill="white"/>
<path d="M1114.18 7.04688C1118.4 7.04688 1121.22 8.45625 1124.03 11.275C1126.84 14.0938 1128.25 18.3219 1128.25 22.55C1128.25 26.7781 1126.84 29.5969 1124.03 32.4156C1118.4 38.0531 1108.56 38.0531 1102.93 32.4156C1100.11 28.1875 1098.71 23.9594 1098.71 18.3219C1101.52 12.6844 1107.15 8.45625 1114.18 7.04688Z" fill="white"/>
<path d="M1250.64 80.3346C1239.39 69.0596 1225.32 62.0127 1208.44 62.0127C1192.96 62.0127 1177.49 69.0596 1167.64 80.3346C1145.13 108.522 1145.13 147.985 1167.64 174.763C1177.49 186.038 1192.96 193.085 1208.44 193.085C1219.69 193.085 1229.54 190.266 1237.98 184.628C1246.42 178.991 1254.86 171.944 1259.08 162.078C1264.71 150.803 1267.52 139.528 1266.12 126.844C1268.93 109.931 1261.9 93.0189 1250.64 80.3346ZM1233.76 170.535C1228.13 178.991 1218.29 184.628 1208.44 184.628C1198.59 184.628 1188.74 178.991 1184.52 170.535C1178.9 160.669 1174.67 146.575 1174.67 126.844C1174.67 107.113 1177.49 93.0189 1184.52 84.5627C1190.15 76.1064 1198.59 70.4689 1208.44 71.8783C1218.29 71.8783 1228.13 76.1064 1233.76 84.5627C1239.39 93.0189 1243.61 107.113 1243.61 125.435C1243.61 146.575 1240.79 160.669 1233.76 170.535Z" fill="white"/>
<path d="M1264.71 66.2406L1305.51 63.4219C1308.32 71.8781 1308.32 81.7438 1309.73 90.2C1313.95 81.7438 1320.98 74.6969 1329.42 70.4688C1336.46 66.2406 1346.3 63.4219 1354.74 63.4219C1361.78 63.4219 1368.81 64.8313 1375.85 67.65C1381.47 71.8781 1385.69 76.1063 1388.51 83.1531C1391.32 91.6094 1392.73 98.6562 1392.73 107.112V167.716C1392.73 170.534 1394.13 174.763 1395.54 177.581C1398.36 180.4 1402.58 180.4 1405.39 180.4H1409.61V190.266H1354.74V180.4H1356.15C1360.37 180.4 1364.59 180.4 1368.81 177.581C1371.63 176.172 1373.03 171.944 1371.63 169.125V115.569C1371.63 107.112 1370.22 97.2469 1366 90.2C1361.78 81.7438 1353.34 77.5156 1343.49 78.925C1333.64 78.925 1325.2 83.1531 1318.17 90.2C1312.54 98.6562 1308.32 109.931 1309.73 121.206V166.306C1309.73 169.125 1311.13 173.353 1312.54 176.172C1315.35 178.991 1319.57 178.991 1322.39 178.991H1325.2V188.856H1270.34V178.991H1273.15C1275.96 178.991 1280.18 178.991 1283 176.172C1285.81 174.762 1285.81 171.944 1285.81 169.125V90.2C1285.81 85.9719 1284.4 81.7437 1281.59 77.5156C1278.78 74.6969 1273.15 73.2875 1268.93 73.2875H1263.3L1264.71 66.2406Z" fill="white"/>
<path d="M600.702 229.728L611.956 209.997H620.397L624.617 287.513H616.177C609.143 264.963 602.109 249.46 592.261 239.594C582.414 228.319 568.346 221.272 552.871 219.863C541.616 219.863 530.362 222.681 521.921 229.728C512.074 236.775 505.04 246.641 500.819 257.916C495.192 273.419 492.379 290.331 493.785 307.244C492.379 324.156 495.192 339.66 500.819 355.163C505.04 366.438 510.667 376.303 520.515 383.35C528.955 388.988 538.803 393.216 550.057 391.806C562.718 393.216 575.38 387.578 585.227 379.122C593.668 370.666 597.888 357.981 597.888 345.297V326.975C597.888 324.156 596.482 321.338 595.075 319.928C592.261 318.519 588.041 317.11 583.82 317.11H566.939V310.063H647.126V319.928H641.499C637.279 319.928 634.465 319.928 631.651 322.747C628.838 324.156 628.838 326.975 628.838 329.794V404.491H618.99C616.177 393.216 613.363 381.941 609.143 370.666C603.516 380.531 595.075 388.988 585.227 394.625C575.38 400.263 565.532 403.081 554.278 403.081C538.803 403.081 521.921 398.853 509.26 390.397C465.65 362.21 451.582 305.835 476.904 260.735C485.345 245.231 496.599 232.547 510.667 224.091C523.328 215.635 538.803 211.406 554.278 209.997C562.718 209.997 569.752 211.406 578.193 214.225C585.227 217.044 593.668 222.681 600.702 229.728Z" fill="white"/>
<path d="M1195.78 388.987C1191.56 388.987 1188.74 388.987 1185.93 386.169C1183.12 383.35 1183.12 380.531 1183.12 376.303V315.7C1183.12 307.244 1181.71 300.197 1177.49 291.74C1174.67 286.103 1170.45 280.465 1164.83 276.237C1159.2 273.419 1152.17 270.6 1143.73 272.009C1135.28 272.009 1125.44 274.828 1118.4 279.056C1109.96 284.694 1104.34 290.331 1098.71 298.787C1098.71 290.331 1097.3 280.465 1094.49 272.009L1053.69 274.828V283.284H1060.72C1064.94 283.284 1069.17 284.694 1073.39 287.512C1076.2 290.331 1077.61 294.559 1077.61 298.787V379.122C1077.61 381.94 1076.2 384.759 1074.79 386.169C1071.98 387.578 1069.17 388.987 1064.94 388.987H1055.1H1043.84C1041.03 388.987 1038.22 387.578 1036.81 386.169C1035.4 384.759 1034 381.94 1035.4 380.531V274.828L991.791 276.237V286.103H997.419C1001.64 286.103 1005.86 287.512 1010.08 290.331C1012.89 293.15 1014.3 297.378 1014.3 301.606V379.122C1014.3 381.94 1012.89 384.759 1011.49 387.578C1008.67 388.987 1005.86 390.397 1003.05 390.397H983.351C979.13 390.397 974.91 388.987 972.096 387.578C970.689 386.169 969.283 383.35 969.283 380.531V319.928C969.283 307.244 966.469 295.969 958.028 286.103C950.994 279.056 942.554 274.828 932.706 276.237C924.265 276.237 915.824 279.056 908.79 283.284C900.35 288.922 894.722 295.969 889.095 304.425C887.688 295.969 882.061 288.922 876.434 283.284C870.807 279.056 862.366 276.237 855.332 276.237C846.891 276.237 839.857 277.647 832.823 281.875C824.383 287.512 817.349 294.559 813.128 301.606C813.128 293.15 811.721 284.694 808.908 274.828H773.738V283.284C777.958 283.284 783.586 284.694 787.806 287.512C790.62 290.331 792.026 293.15 790.62 297.378V377.712C790.62 380.531 789.213 383.35 787.806 384.759C784.992 386.169 782.179 387.578 779.365 387.578H772.331C769.518 387.578 766.704 387.578 763.89 386.169C761.077 386.169 758.263 383.35 756.856 381.94C754.043 379.122 754.043 374.894 754.043 370.665V303.015C754.043 294.559 749.822 284.694 742.788 279.056C732.941 272.009 721.687 269.19 709.025 269.19C694.957 269.19 682.296 272.009 671.042 280.465C661.194 287.512 656.974 295.969 656.974 304.425C656.974 308.653 658.381 312.881 661.194 315.7C664.008 318.519 668.228 319.928 672.449 319.928C676.669 319.928 679.483 318.519 682.296 315.7C685.11 312.881 686.517 310.062 686.517 305.834C686.517 303.015 685.11 298.787 682.296 295.969C680.889 294.559 679.483 291.74 679.483 290.331C679.483 287.512 680.889 286.103 685.11 283.284C690.737 280.465 697.771 279.056 704.805 279.056C711.839 279.056 718.873 281.875 724.5 286.103C730.127 290.331 732.941 295.969 732.941 303.015V324.156C711.839 325.565 692.144 331.203 672.449 341.069C656.974 349.525 649.94 360.8 649.94 373.484C649.94 381.94 652.754 388.987 659.788 394.625C668.228 400.262 678.076 403.081 687.923 403.081C696.364 403.081 703.398 401.672 710.432 398.853C718.873 394.625 725.907 388.987 732.941 380.531C735.754 388.987 737.161 391.806 741.382 396.034C745.602 398.853 756.856 398.853 763.89 398.853C766.704 398.853 768.111 398.853 770.924 398.853H832.823V388.987H825.789C821.569 388.987 818.755 388.987 814.535 386.169C813.128 384.759 811.721 380.531 811.721 377.712V328.384C811.721 317.109 815.942 305.834 822.976 297.378C828.603 290.331 835.637 287.512 844.078 287.512C851.112 287.512 856.739 290.331 860.959 295.969C865.18 304.425 867.993 312.881 867.993 322.747V379.122C867.993 381.94 866.587 384.759 865.18 386.169C862.366 387.578 858.146 388.987 855.332 388.987H848.298V398.853H911.604V388.987H903.163C900.35 388.987 896.129 388.987 894.722 386.169C893.316 384.759 891.909 380.531 891.909 377.712V324.156C891.909 317.109 894.722 310.062 897.536 304.425C900.35 298.787 903.163 294.559 907.384 291.74C911.604 288.922 917.231 287.512 922.858 287.512C929.892 287.512 935.52 290.331 939.74 294.559C943.96 300.197 946.774 308.653 946.774 315.7V377.712C946.774 380.531 945.367 383.35 943.96 386.169C941.147 387.578 936.926 388.987 932.706 388.987H927.079V398.853H1059.32H1117V388.987H1111.37C1107.15 388.987 1104.34 388.987 1101.52 386.169C1098.71 383.35 1098.71 380.531 1098.71 376.303V331.203C1098.71 319.928 1101.52 308.653 1108.56 300.197C1114.18 293.15 1124.03 287.512 1133.88 288.922C1142.32 288.922 1152.17 293.15 1156.39 300.197C1160.61 308.653 1162.01 317.109 1162.01 325.565V379.122C1162.01 381.94 1160.61 384.759 1159.2 387.578C1154.98 390.397 1150.76 390.397 1146.54 390.397H1145.13V400.262H1200V390.397H1195.78V388.987ZM720.28 380.531C713.246 387.578 703.398 391.806 693.551 391.806C687.923 391.806 683.703 390.397 679.483 386.169C675.262 381.94 673.855 376.303 673.855 370.665C673.855 362.209 676.669 353.753 683.703 348.115C693.551 341.069 709.025 336.84 731.534 332.612V349.525C732.941 360.8 728.721 372.075 720.28 380.531Z" fill="white"/>
<path d="M1018.52 217.044C1022.74 217.044 1025.55 218.453 1028.37 221.272C1034 226.91 1034 235.366 1028.37 241.003C1022.74 246.641 1012.89 246.641 1007.27 241.003C1004.45 236.775 1003.05 232.547 1003.05 226.91C1005.86 221.272 1011.49 217.044 1018.52 217.044Z" fill="white"/>
<path d="M1347.71 264.963C1346.3 263.553 1344.9 262.144 1342.08 260.735C1339.27 259.325 1336.46 259.325 1332.24 259.325C1323.8 259.325 1299.88 272.01 1291.44 281.875C1285.81 279.056 1280.18 276.238 1274.56 273.419C1268.93 272.01 1263.3 270.6 1256.27 270.6C1243.61 270.6 1229.54 274.828 1219.69 283.285C1211.25 290.331 1205.62 301.606 1205.62 312.881C1205.62 319.928 1207.03 326.975 1211.25 332.613C1215.47 338.25 1221.1 343.888 1228.13 348.116C1221.1 349.525 1215.47 353.753 1209.84 359.391C1205.62 363.619 1204.22 369.256 1204.22 373.485C1204.22 379.122 1207.03 384.76 1211.25 388.988C1216.88 393.216 1223.91 397.444 1230.95 398.853C1222.51 400.263 1214.06 403.081 1208.44 408.719C1204.22 412.947 1201.4 417.175 1201.4 422.813C1201.4 429.86 1205.62 436.906 1212.66 441.135C1221.1 448.181 1235.17 451 1254.86 451C1277.37 451 1294.25 445.363 1306.91 435.497C1315.35 428.45 1319.57 418.585 1319.57 408.719C1319.57 400.263 1315.35 391.806 1308.32 386.169C1301.29 380.531 1288.63 377.713 1273.15 377.713H1240.79C1235.17 377.713 1229.54 377.713 1225.32 374.894C1222.51 373.485 1221.1 370.666 1221.1 366.438C1221.1 362.21 1222.51 359.391 1226.73 356.572C1233.76 353.753 1239.39 352.344 1246.42 353.753H1260.49C1268.93 353.753 1277.37 350.935 1284.4 346.706C1291.44 343.888 1298.47 338.25 1302.69 331.203C1306.91 325.566 1308.32 318.519 1308.32 311.472C1308.32 307.244 1308.32 303.016 1306.91 298.788C1305.51 294.56 1302.69 288.922 1298.47 284.694C1305.51 279.056 1312.54 274.828 1319.57 272.01C1320.98 272.01 1322.39 273.419 1323.8 276.238C1325.2 280.466 1326.61 281.875 1328.02 283.285C1333.64 288.922 1342.08 288.922 1347.71 283.285C1354.74 279.056 1353.34 270.6 1347.71 264.963ZM1264.71 398.853C1273.15 398.853 1280.18 398.853 1287.22 401.672C1291.44 403.081 1295.66 405.9 1298.47 408.719C1301.29 411.538 1301.29 415.766 1301.29 418.585C1301.29 424.222 1297.07 429.86 1290.03 435.497C1280.18 441.135 1267.52 443.953 1256.27 442.544C1246.42 442.544 1236.57 441.135 1226.73 435.497C1222.51 432.678 1218.29 427.041 1218.29 421.403C1218.29 414.356 1222.51 408.719 1228.13 404.491C1237.98 400.263 1249.23 398.853 1264.71 398.853ZM1277.37 338.25C1275.96 339.66 1275.96 339.66 1274.56 341.069C1263.3 349.525 1247.83 349.525 1237.98 338.25C1232.35 331.203 1229.54 321.338 1230.95 312.881C1230.95 304.425 1233.76 295.969 1237.98 288.922C1242.2 283.285 1249.23 280.466 1257.68 280.466C1264.71 280.466 1271.74 283.285 1277.37 288.922C1283 295.969 1285.81 304.425 1284.4 312.881C1285.81 321.338 1283 331.203 1277.37 338.25Z" fill="white"/>
<path d="M310.902 379.121H305.275V370.665H312.309C313.716 372.075 313.716 372.075 313.716 373.484C316.529 377.712 313.716 379.121 310.902 379.121ZM320.749 374.893C320.749 373.484 319.343 369.256 317.936 369.256C316.529 367.846 312.309 367.846 309.495 367.846H301.054V394.625H306.682V384.759H309.495L315.122 394.625H320.749L315.122 384.759C319.343 381.94 320.749 379.121 320.749 374.893ZM310.902 401.671C299.648 401.671 291.207 391.806 291.207 381.94C291.207 370.665 301.054 362.209 310.902 362.209C320.75 362.209 330.597 372.075 330.597 381.94C330.597 391.806 322.156 401.671 310.902 401.671ZM310.902 355.162C296.834 355.162 285.58 366.437 285.58 380.531C285.58 394.625 296.834 405.9 310.902 405.9C324.97 405.9 336.224 394.625 336.224 380.531C336.224 366.437 323.563 355.162 310.902 355.162Z" fill="white"/>
<path d="M43.6106 23.9597C164.595 -40.8716 320.749 28.1878 332.004 193.085C108.323 209.997 80.1873 108.522 43.6106 23.9597Z" fill="white"/>
<path d="M43.6106 377.712C164.595 442.543 320.749 373.484 333.411 209.997C108.323 190.265 80.1873 293.15 43.6106 377.712Z" fill="white"/>
<path d="M291.207 76.106C232.121 -0.000239164 126.612 -22.5502 43.6106 23.9591C77.3737 100.065 102.696 188.856 268.698 194.493C288.393 159.259 296.834 116.978 291.207 76.106ZM84.4077 293.15C90.0349 293.15 94.2553 294.559 98.4756 294.559C163.188 294.559 223.68 262.143 260.257 207.178C160.375 212.815 113.95 249.459 84.4077 293.15Z" fill="white"/>
</g>
<defs>
<clipPath id="clip0_8280_2774">
<rect width="1449" height="451" fill="white"/>
</clipPath>
</defs>
</svg>
