<svg width="1235" height="685" viewBox="0 0 1235 685" fill="none" xmlns="http://www.w3.org/2000/svg">
<path d="M168.965 433.586H346.93V372.689H235.393V336.608H316.8V277.118H235.393V238.574H339.356V177.501H168.965V433.586Z" fill="white"/>
<path d="M527.886 298.768V257.056H380.405V306.865H443.484V307.568L373.355 391.523V433.587H524.188V383.427H455.82V382.897L527.886 298.768Z" fill="white"/>
<path d="M667.256 257.056V345.762C667.256 357.378 664.968 366.001 660.561 371.811C656.157 377.617 650.341 380.434 643.294 380.434C635.011 380.434 629.021 377.794 625.497 372.161C621.972 366.528 620.211 357.552 620.211 344.882V257.056H555.895V360.368C555.895 411.762 576.687 437.283 618.45 437.283C627.964 437.283 636.774 435.523 645.055 431.651C653.338 427.778 660.561 422.148 666.553 414.755H667.256V433.587H731.924V257.056H667.256Z" fill="white"/>
<path d="M886.625 257.055V274.303H886.098C873.586 260.399 857.374 253.359 837.64 253.359C827.068 253.359 817.024 255.647 807.685 260.223C798.347 264.8 790.418 270.96 783.723 278.703C777.025 286.622 771.563 296.128 767.687 307.391C763.81 318.657 761.873 330.8 761.873 343.649C761.873 359.841 765.044 374.624 771.739 387.649C778.434 400.672 787.775 411.058 799.932 418.625C811.913 426.194 825.658 429.89 840.989 429.89C860.723 429.89 876.405 423.73 887.683 411.411H888.21V427.427C888.21 435.697 884.334 442.563 876.935 447.842C869.358 453.299 858.786 455.939 845.217 455.939C836.936 455.939 827.95 454.706 818.257 451.889C808.567 449.075 800.638 445.73 794.295 441.683L780.022 492.37C791.122 498.356 802.399 502.403 813.677 504.866C824.952 507.332 838.17 508.562 853.322 508.562C867.77 508.562 880.633 506.979 891.911 503.812C903.189 500.643 912.527 496.066 919.928 490.26C927.327 484.627 933.319 477.411 938.078 468.962C942.658 460.515 946.007 451.186 948.119 441.33C950.059 431.474 951.117 420.211 951.117 407.889V257.055H886.625ZM858.256 373.217C849.269 373.217 841.868 370.401 835.879 364.594C829.887 358.785 826.892 351.218 826.892 341.889C826.892 332.736 829.887 325.343 835.879 319.36C841.868 313.377 849.445 310.384 858.256 310.384C867.067 310.384 874.468 313.377 880.457 319.36C886.449 325.343 889.444 332.736 889.444 341.889C889.444 351.218 886.449 358.785 880.457 364.594C874.468 370.401 867.067 373.217 858.256 373.217Z" fill="white"/>
<path d="M990.931 433.587H1055.25V257.056H990.931V433.587Z" fill="white"/>
<path d="M1080.61 234.405C1101.59 234.405 1118.6 217.418 1118.6 196.463C1118.6 175.508 1101.59 158.521 1080.61 158.521C1059.63 158.521 1042.63 175.508 1042.63 196.463C1042.63 217.418 1059.63 234.405 1080.61 234.405Z" fill="white"/>
</svg>
