<svg width="1449" height="250" viewBox="0 0 1449 250" fill="none" xmlns="http://www.w3.org/2000/svg">
<g clip-path="url(#clip0_8280_2838)">
<path fill-rule="evenodd" clip-rule="evenodd" d="M0.16118 116.917C0.16118 116.917 -2.45792 104.518 13.4194 97.6655C29.2968 90.813 35.8222 86.894 40.41 80.2945C44.9978 73.6955 46.5515 48.3344 56.9829 33.3397C67.4147 18.345 79.8786 9.2119 94.8639 6.10375C109.85 2.99556 130.153 4.67353 148.37 13.6152C166.588 22.5568 176.033 35.9468 182.463 35.6877C188.893 35.4287 223.505 31.1944 232.655 30.9917C241.805 30.789 242.697 46.1385 243.073 53.526C243.448 60.9135 242.643 87.0515 240.705 88.7465C238.766 90.441 221.709 48.1543 219.397 47.4223C217.085 46.6903 236.64 100.735 236.918 104.71C237.196 108.685 236.992 120.757 235.024 121.146C233.055 121.535 216.855 98.752 210.401 84.5175C203.947 70.283 202.77 58.357 200.458 59.6355C198.145 60.9135 203.029 85.6945 211.822 102.361C220.615 119.028 236.005 136.028 236.918 158.708C237.831 181.389 234.276 201.835 219.397 217.871C200.595 238.136 168.269 247.63 143.162 249.33C118.055 251.031 108.932 249.217 109.542 246.982C110.153 244.747 119.624 239.358 122.327 228.671C124.617 219.617 123.955 206.553 121.854 205.664C119.753 204.774 122.791 214.893 115.225 226.79C107.659 238.688 100.921 243.407 85.3932 246.042C73.1532 248.125 35.4383 243.288 20.0491 231.019C4.65998 218.749 1.44323 208.664 2.05562 199.086C2.66801 189.509 8.15966 186.283 9.63223 185.471C11.1048 184.66 12.7356 207.814 31.887 208.479C48.5928 209.059 58.2012 195.314 61.7185 185.471C65.139 175.899 65.2025 167.025 64.5589 153.072C64.1257 143.686 57.3094 117.728 55.0898 117.858C52.8696 117.987 57.1313 135.6 57.9307 148.849C58.7302 162.098 58.6989 163.984 56.9834 163.872C55.2684 163.759 38.0653 147.391 26.6788 141.805C15.2923 136.219 9.60389 131.766 5.37103 127.249C2.74928 124.32 0.952181 120.757 0.16118 116.917ZM63.1417 73.718C63.6974 70.0915 66.7106 68.273 71.665 68.5545C76.6189 68.836 95.3819 72.192 103.39 69.495C111.398 66.798 121.914 57.096 130.854 50.2435C139.793 43.3907 147.212 36.5381 151.688 38.0359C156.163 39.5336 158.068 44.6182 152.635 56.8145C147.203 69.0105 130.043 101.421 125.171 105.65C120.3 109.878 108.642 112.086 99.1285 108.933C89.6142 105.78 77.4679 95.261 72.1379 89.687C66.8078 84.1125 62.6291 77.0685 63.1417 73.718ZM127.538 30.9917C131.912 29.6572 134.372 28.8239 139.849 30.0513C148.023 31.8814 151.072 32.2868 153.581 28.6437C156.089 25.0006 151.596 19.3642 143.163 16.9035C134.73 14.4429 126.499 14.1727 117.12 21.1322C114.002 23.4408 111.833 27.5682 109.544 30.9917C106.442 35.6258 104.921 41.358 107.65 43.1992C110.217 44.9334 112.715 42.3602 117.594 38.0358C120.834 35.1585 123.537 32.2136 127.538 30.9917ZM79.0047 23.9478C87.7652 23.9478 94.8673 32.3545 94.8673 42.7263C94.8673 53.098 87.7652 61.5105 79.0047 61.5105C70.2442 61.5105 63.1422 53.104 63.1422 42.7263C63.1422 32.3489 70.2438 23.9478 79.0047 23.9478ZM391.746 51.1835C391.746 51.1835 399.35 44.3874 413.528 44.607C427.706 44.8266 435.202 44.9561 440.991 49.3031C446.781 53.65 447.546 54.7085 450.937 52.5915C454.328 50.474 457.52 40.2488 460.877 28.6438C464.234 17.0388 467.086 8.2548 463.247 5.6365C459.408 3.01821 440.691 7.82685 424.893 11.2673C409.096 14.7076 381.944 19.6852 369.492 19.719C357.038 19.7528 353.255 17.2134 350.552 19.719C347.85 22.2247 356.091 50.3055 357.655 72.7775C359.219 95.25 361.662 185.854 360.97 206.131C360.278 226.408 358.176 235.467 362.864 237.59C367.551 239.713 392.973 237.832 397.43 238.063C401.887 238.294 406.113 234.679 405.953 232.426C405.794 230.174 396.176 206.604 392.695 186.88C389.214 167.155 387.891 141.326 389.381 138.049C390.87 134.772 397.837 131.084 405.006 132.88C412.176 134.676 414.558 142.301 418.737 142.745C422.916 143.191 426.035 142.193 426.313 132.88C426.591 123.567 428.099 99.3605 426.313 96.7255C424.526 94.09 420.438 94.214 417.317 96.7255C414.196 99.2365 409.159 103.905 400.271 103.302C391.383 102.7 388.33 101.534 387.96 97.6655C387.59 93.7975 391.746 51.1835 391.746 51.1835ZM474.142 68.087C476.716 70.1145 482.329 67.3775 484.558 69.962C486.786 72.547 486.48 113.117 480.294 151.197C474.107 189.278 461.871 228.4 463.72 234.774C465.568 241.148 493.023 246.436 497.339 243.694C501.652 240.952 510.177 176.035 512.018 172.797C513.864 169.559 539.946 164.801 541.852 167.628C543.757 170.455 551.285 237.59 556.054 242.286C560.823 246.982 589.961 238.159 592.046 235.242C594.125 232.325 571.219 150.144 569.487 101.748C567.76 53.3855 566.068 51.713 568.365 50.2435C570.663 48.7737 581.262 49.9674 581.63 47.4223C581.992 44.8772 579.739 18.0072 575.471 17.371C571.199 16.7347 472.61 32.6247 470.348 36.1552C468.086 39.6856 470.802 65.4575 474.142 68.087ZM514.857 71.37C517.462 70.5365 532.939 65.4745 535.217 68.087C537.5 70.6995 539.117 120.408 537.113 123.493C535.103 126.579 517.928 128.669 516.752 126.309C515.571 123.95 513.909 72.7775 513.909 72.7775C513.909 72.7775 512.256 72.2085 514.857 71.37ZM899.834 68.087C902.409 70.1145 908.022 67.3775 910.25 69.962C912.478 72.547 912.17 113.117 905.987 151.197C899.799 189.278 887.562 228.4 889.413 234.774C891.259 241.148 918.716 246.436 923.028 243.694C927.345 240.952 935.865 176.035 937.711 172.797C939.552 169.559 965.635 164.801 967.54 167.628C969.446 170.455 976.978 237.59 981.747 242.286C986.516 246.982 1015.65 238.159 1017.73 235.242C1019.82 232.325 996.907 150.144 995.18 101.748C993.448 53.3855 991.761 51.713 994.064 50.2435C996.366 48.7737 1006.96 49.9674 1007.32 47.4223C1007.68 44.8772 1005.43 18.0072 1001.16 17.371C996.892 16.7347 898.306 32.6247 896.048 36.1552C893.785 39.6856 896.494 65.4575 899.834 68.087ZM940.55 71.37C943.15 70.5365 958.638 65.4745 960.91 68.087C963.183 70.7 964.811 120.408 962.806 123.494C960.796 126.579 943.627 128.669 942.441 126.309C941.255 123.95 939.602 72.7775 939.602 72.7775C939.602 72.7775 937.955 72.209 940.55 71.37ZM1327.87 68.087C1330.45 70.1145 1336.06 67.3775 1338.29 69.962C1340.52 72.547 1340.21 113.117 1334.03 151.197C1327.85 189.278 1315.61 228.4 1317.46 234.774C1319.3 241.148 1346.76 246.436 1351.07 243.694C1355.39 240.952 1363.91 176.035 1365.76 172.797C1367.6 169.559 1393.68 164.801 1395.59 167.628C1397.5 170.455 1405.02 237.59 1409.79 242.286C1414.56 246.982 1443.7 238.159 1445.78 235.242C1447.86 232.325 1424.95 150.144 1423.23 101.748C1421.49 53.3855 1419.81 51.713 1422.1 50.2435C1424.4 48.7737 1435 49.9674 1435.36 47.4223C1435.72 44.8772 1433.47 18.0072 1429.21 17.371C1424.94 16.7347 1326.35 32.6247 1324.08 36.1552C1321.82 39.6856 1324.54 65.4575 1327.87 68.087ZM1368.6 71.37C1371.19 70.5365 1386.68 65.4745 1388.96 68.087C1391.24 70.6995 1392.86 120.408 1390.85 123.493C1388.85 126.579 1371.67 128.669 1370.49 126.309C1369.31 123.95 1367.65 72.7775 1367.65 72.7775C1367.65 72.7775 1366 72.2085 1368.6 71.37H1368.6ZM1143 197.364C1131.14 218.181 1105.53 230.507 1083.54 233.835C1061.59 237.162 1035.34 224.668 1026.25 210.827C1018.39 198.856 1019.11 186.497 1020.42 179.757C1020.43 179.466 1020.48 179.179 1020.57 178.901C1020.59 178.816 1020.62 178.743 1020.64 178.664C1020.78 178.056 1020.91 177.504 1021.03 177.02C1021.55 175.211 1022.29 173.473 1023.24 171.845C1033.05 150.781 1051.62 152.932 1060.34 156.361C1071.42 160.719 1076.44 171.339 1076.44 180.539C1076.44 187.014 1072.66 192.902 1066.76 195.641L1066.97 195.804C1066.97 195.804 1057.92 201.503 1064.6 208.479C1071.28 215.456 1083.81 216.041 1092.54 213.175C1101.26 210.309 1114.93 195.139 1113.85 177.96C1112.76 160.781 1098.95 144.952 1074.07 138.517C1048.55 131.917 1041.93 125.718 1033.82 114.102C1025.71 102.486 1026.52 77.26 1035.25 60.57C1043.97 43.8807 1058.76 28.824 1093.46 27.7485C1127.95 26.6787 1139.83 46.6847 1141.79 56.347C1143.75 66.0375 1140.95 76.877 1131.84 85.9255C1124.08 93.6285 1118.58 92.502 1118.58 92.502L1118.55 92.457C1118.17 92.4855 1117.79 92.502 1117.4 92.502C1110.57 92.513 1104.42 88.4185 1101.84 82.146C1099.26 75.8735 1100.75 68.6725 1105.63 63.932C1106.12 62.4845 1106.48 60.998 1106.27 60.103C1105.76 57.8955 1098.96 52.2425 1094.43 51.651C1089.88 51.054 1081.55 51.3525 1075.02 57.2875C1068.48 63.2225 1064.82 71.4825 1070.76 84.518C1076.7 97.553 1095.44 98.8255 1114.79 107.998C1134.36 117.267 1141.57 126.737 1149.36 139.924C1156.38 151.816 1153.9 178.22 1143 197.364ZM1155.52 5.1634L1160.73 0L1198.62 16.9035C1198.62 16.9035 1222.9 137.249 1226.55 137.109C1230.2 136.968 1247.73 61.2795 1251.65 44.1395C1254.73 30.62 1255.84 13.39 1259.22 11.7402C1262.6 10.0903 1296.17 7.7479 1297.57 10.7998C1298.98 13.8517 1295 20.6536 1293.31 27.7034C1292.78 29.9387 1285.5 86.9445 1293.79 143.212C1302.08 199.481 1309.72 218.417 1306.57 223.974C1303.42 229.549 1264.11 227.893 1262.54 223.035C1260.96 218.175 1265.25 187.786 1264.43 173.264C1263.61 158.743 1260.21 126.703 1258.74 127.249C1257.28 127.796 1234.07 224.054 1230.34 226.79C1226.61 229.527 1223.23 226.322 1223.23 226.322C1223.23 226.322 1199.14 140.369 1195.3 141.332C1191.45 142.295 1200.11 234.436 1197.19 237.122C1194.26 239.809 1158.56 243.147 1158.37 238.063C1158.16 233.001 1164.68 143.652 1163.71 96.01C1163.06 64.2975 1155.53 5.1634 1155.53 5.1634H1155.52ZM594.894 212.708C594.894 212.708 627.735 222.792 632.3 220.686C636.865 218.58 636.131 156.721 637.034 147.908C637.937 139.096 636.865 134.462 639.406 135.229C641.947 135.994 667.855 177.363 675.388 190.635C682.926 203.906 695.366 227.719 698.115 229.138C700.864 230.557 722.073 229.701 724.158 227.73C726.247 225.76 726.053 222.567 726.053 222.567C726.053 222.567 722.411 155.758 720.848 116.917C719.28 78.076 725.537 20.0005 721.319 16.4361C717.101 12.8719 692.647 17.2695 689.59 20.6592C686.538 24.0489 690.657 82.9015 691.486 107.998C692.314 133.094 693.5 146.332 691.014 146.501C688.533 146.67 665.652 109.49 658.342 89.2135C651.033 68.9375 643.778 38.0414 640.82 35.2148C637.868 32.3881 611.845 33.8577 610.52 35.6877C609.195 37.5177 607.215 42.8388 607.682 44.1395C608.143 45.4402 606.863 131.551 602.943 163.405C599.028 195.258 594.894 212.708 594.894 212.708ZM739.308 63.8585C739.293 67.8395 737.392 73.78 745.937 74.658C754.482 75.5365 780.063 65.683 787.13 69.022C794.196 72.361 800.027 107.475 800.389 136.169C800.751 164.863 798.275 233.395 802.756 236.182C807.242 238.969 843.02 237.73 844.425 233.834C845.824 229.938 830.208 177.24 828.798 123.494C827.384 69.748 825.206 62.6985 828.798 60.57C832.386 58.4415 882.337 51.769 884.669 50.2435C887.364 48.4809 887.83 14.0037 882.778 11.7402C878.67 9.8989 845.71 18.0804 821.697 20.1919C799.63 22.1289 746.687 21.6785 741.203 25.3554C735.72 29.0322 738.588 38.4638 738.831 47.4223C739.074 56.381 739.332 57.9405 739.313 63.8585H739.308Z" fill="white"/>
</g>
<defs>
<clipPath id="clip0_8280_2838">
<rect width="1449" height="250" fill="white"/>
</clipPath>
</defs>
</svg>
