<svg width="1698" height="352" viewBox="0 0 1698 352" fill="none" xmlns="http://www.w3.org/2000/svg">
<path d="M1381.07 84.8828C1381.07 98.7665 1381.07 112.423 1381.07 126.305C1410.91 126.305 1441.02 126.305 1470.87 126.305C1470.87 172.735 1470.87 219.164 1470.87 265.593C1486.77 265.593 1502.66 265.593 1518.55 265.593C1518.55 219.164 1518.55 172.735 1518.55 126.305C1548.41 126.305 1578.5 126.305 1608.36 126.305C1608.36 112.423 1608.36 98.7665 1608.36 84.8828C1532.76 84.8828 1456.91 84.8828 1381.07 84.8828Z" fill="white"/>
<path d="M370.229 190.039C392.382 190.039 414.293 190.039 436.445 190.039C425.369 174.561 414.052 159.314 402.975 143.836C392.14 159.314 381.063 174.79 370.229 190.039Z" fill="white"/>
<path d="M77.897 79.8848C77.897 141.79 77.897 203.697 77.897 265.375C347.343 265.375 616.788 265.375 886.233 265.375C893.699 254.905 901.163 244.436 908.628 233.966C951.007 233.966 993.385 233.966 1035.76 233.966C1043.47 244.436 1050.94 254.905 1058.64 265.375C1076.7 265.375 1094.76 265.375 1113.06 265.375C1068.03 203.469 1023.24 141.563 977.975 79.8848C677.95 79.8848 377.923 79.8848 77.897 79.8848ZM193.958 240.794C172.769 239.202 150.857 233.739 134.484 220.538C106.071 197.779 105.348 151.349 132.798 127.679C149.172 113.113 172.046 106.741 193.958 105.147C225.503 102.871 259.455 106.741 284.978 126.086C279.439 132.687 273.902 139.287 268.605 145.888C246.932 128.362 216.834 126.77 189.866 129.728C174.936 131.322 159.045 136.783 150.616 149.302C136.892 169.785 143.393 203.469 170.121 211.89C199.016 220.538 232.004 219.628 259.213 206.882C259.213 200.283 259.213 193.455 258.972 186.626C237.06 186.626 215.148 186.626 193.236 186.626C193.236 178.433 193.236 170.239 193.236 161.818C224.54 161.818 255.843 161.818 287.145 161.818C287.145 180.709 287.145 199.827 287.386 218.717C261.38 238.745 226.224 243.07 193.958 240.794ZM472.073 238.974C466.295 231.008 460.274 222.814 454.496 214.848C420.544 214.848 386.592 214.848 352.641 214.848C346.861 223.042 341.323 231.008 335.303 239.202C324.708 239.202 313.874 239.202 303.278 239.202C336.748 193 368.291 145.66 403.206 100.368C438.603 145.66 471.11 193 505.062 239.202C494.226 238.974 483.149 238.974 472.073 238.974ZM719.847 238.974C709.975 238.974 700.102 238.974 689.989 238.974C689.989 212.572 689.989 186.172 689.989 159.771C669.041 178.206 648.813 197.779 627.142 215.759C605.231 197.096 583.56 178.206 561.648 159.542C561.648 185.944 561.648 212.572 561.648 238.974C551.535 238.974 541.661 238.974 531.789 238.745C532.03 193.682 531.789 148.391 532.03 103.327C538.291 104.92 543.829 107.651 548.404 111.975C574.651 134.963 601.137 157.722 627.625 180.709C653.389 157.495 679.154 134.507 704.677 111.293C708.771 106.969 714.308 104.92 719.847 103.327C720.088 148.391 719.847 193.682 719.847 238.974ZM914.166 132.004C875.399 132.004 836.872 132.004 798.105 132.004C798.105 140.881 798.105 149.756 798.105 158.633C830.611 158.633 863.118 158.633 895.625 158.633C889.845 166.827 884.308 175.248 878.528 183.441C851.801 183.441 824.832 183.441 798.105 183.441C798.105 193.455 798.105 203.469 798.105 213.483C817.849 213.483 837.835 213.483 857.82 213.483C851.801 222.131 846.021 230.552 840.002 238.974C815.923 238.745 792.084 238.974 768.006 238.745C768.006 194.593 768.006 150.44 768.006 106.285C822.664 106.285 877.324 106.285 931.984 106.285C926.205 114.935 920.185 123.356 914.166 132.004ZM937.041 193.909C948.358 177.751 959.916 161.818 971.232 145.888C983.031 161.818 994.589 177.978 1006.15 193.909C983.273 193.909 960.157 193.909 937.041 193.909Z" fill="white"/>
<path d="M1337.72 182.527C1363.24 162.726 1363.24 119.938 1336.28 101.275C1315.81 87.1642 1289.33 85.3442 1264.76 84.8881C1221.18 84.6608 1177.84 84.8881 1134.26 84.8881C1134.26 144.973 1134.26 205.286 1134.26 265.371C1150.15 265.371 1166.04 265.371 1181.93 265.371C1181.93 243.978 1181.93 222.584 1181.93 200.963C1204.81 200.963 1227.92 200.963 1250.8 200.963C1271.51 222.357 1291.97 243.978 1312.68 265.371C1332.67 265.371 1352.89 265.371 1372.89 265.371C1350.97 242.612 1329.3 219.624 1307.15 196.865C1317.74 193.224 1329.05 189.81 1337.72 182.527ZM1289.09 161.817L1181.93 162.044V125.628L1289.09 125.401C1299.68 125.401 1308.35 133.595 1308.35 143.608C1308.35 153.623 1299.68 161.817 1289.09 161.817Z" fill="white"/>
</svg>
