<svg width="1191" height="465" viewBox="0 0 1191 465" fill="none" xmlns="http://www.w3.org/2000/svg">
<path d="M372.441 225.744H231.775V273.271H312.779C305.07 288.931 294.863 300.458 282.232 307.777C269.598 315.1 254.112 318.829 235.698 318.829C207.437 318.829 183.6 309.949 164.329 292.118C145.06 274.286 135.426 252.592 135.426 226.896C135.426 202.081 144.703 180.998 163.33 163.709C181.957 146.42 204.867 137.607 232.417 137.607C264.031 137.607 291.653 149.54 315.418 173.337L352.888 138.149C335.758 120.59 318.274 108.183 300.43 100.929C279.235 92.3865 256.467 88.1152 232.129 88.1152C192.092 88.1152 158.549 99.5731 131.427 122.556C131.571 123.302 131.428 124.183 130.999 124.861C130.857 126.624 129.358 127.912 127.432 128.048C127.36 128.048 127.288 128.048 127.147 128.048C123.221 131.166 119.937 134.896 116.868 138.895C116.226 145.066 109.804 149.471 105.734 154.082C104.951 155.505 104.165 156.996 103.307 158.353C101.025 162.149 99.7408 166.151 98.4543 170.286C97.2423 174.149 95.6015 177.812 94.1738 181.541C91.1053 189.336 89.8907 197.473 87.3229 205.404C85.9646 209.609 84.1825 213.811 83.8949 218.286C83.6099 222.693 83.7537 226.965 82.9679 231.303C82.896 231.573 82.8267 231.846 82.6829 232.049C87.1072 260.253 96.7416 287.913 114.585 311.167C130.501 331.846 154.337 346.152 179.032 355.71C204.795 365.677 234.271 367.304 261.605 363.102C288.084 358.966 313.562 348.593 331.547 329.135C349.819 309.407 362.024 285.813 368.803 260.387C369.16 259.032 370.087 258.287 371.158 258.084C372.372 251.101 373.014 244.049 373.014 236.863L372.441 225.744Z" fill="white"/>
<path d="M371.676 254.141C369.321 271.091 363.326 287.429 353.835 303.025C341.132 323.838 324.716 339.77 304.59 350.685C284.463 361.667 260.77 367.093 233.649 367.093C204.602 367.093 178.765 361.125 155.999 349.125C142.939 342.211 131.376 333.668 121.457 323.432C119.315 321.262 140.797 328.245 174.127 330.754C200.748 332.787 236.076 331.499 265.336 323.701C295.096 315.77 322.931 299.565 341.846 284.176C361.757 267.974 371.892 252.717 371.676 254.141Z" fill="white"/>
<path d="M192.828 362.619C180.911 360.314 166.208 355.906 151.15 347.23C134.092 337.399 123.744 326.075 116.677 318.347C112.109 313.263 105.045 305.465 98.2637 293.601C91.3409 281.396 86.4159 268.042 83.6324 253.533C78.8512 228.719 80.9208 204.313 89.8439 180.447C96.1222 163.566 105.115 148.853 116.677 136.31C124.386 128.04 132.095 122.006 132.095 122.006C132.095 122.006 126.384 146.141 121.959 176.651C115.679 219.906 126.384 258.889 126.384 258.889C133.807 287.228 145.796 307.295 150.863 315.296C164.996 337.466 181.052 352.922 192.828 362.619Z" fill="white"/>
<path d="M469.093 259.768H396.378L380.047 302.797H356.446L422.724 137.924H442.748L509.146 302.797H485.661L469.093 259.768ZM403.293 241.875H462.299L432.736 164.761L403.293 241.875Z" fill="white"/>
<path d="M562.071 137.924L618.811 272.449L675.552 137.924H705.233V302.797H682.347V238.593L684.493 169.292L627.514 302.797H609.991L553.13 169.631L555.394 238.593V302.797H532.508V137.924H562.071Z" fill="white"/>
<path d="M762.809 285.019H862.106V302.797H735.75V286.492L830.874 155.817H737.3V137.924H858.29V153.892L762.809 285.019Z" fill="white"/>
<path d="M916.343 302.797H893.456V137.924H916.343V302.797Z" fill="white"/>
<path d="M1017.07 201.11L1058.67 137.924H1085.61L1030.78 219.682L1086.92 302.797H1059.74L1017.07 238.48L974.157 302.797H947.098L1003.36 219.682L948.41 137.924H975.231L1017.07 201.11Z" fill="white"/>
<path d="M469.093 259.768H396.378L380.047 302.797H356.446L422.724 137.924H442.748L509.146 302.797H485.661L469.093 259.768ZM403.293 241.875H462.299L432.736 164.761L403.293 241.875Z" stroke="white" stroke-width="0.838528"/>
<path d="M562.071 137.924L618.811 272.449L675.552 137.924H705.233V302.797H682.347V238.593L684.493 169.292L627.514 302.797H609.991L553.13 169.631L555.394 238.593V302.797H532.508V137.924H562.071Z" stroke="white" stroke-width="0.838528"/>
<path d="M762.809 285.019H862.106V302.797H735.75V286.492L830.874 155.817H737.3V137.924H858.29V153.892L762.809 285.019Z" stroke="white" stroke-width="0.838528"/>
<path d="M916.343 302.797H893.456V137.924H916.343V302.797Z" stroke="white" stroke-width="0.838528"/>
<path d="M1017.07 201.11L1058.67 137.924H1085.61L1030.78 219.682L1086.92 302.797H1059.74L1017.07 238.48L974.157 302.797H947.098L1003.36 219.682L948.41 137.924H975.231L1017.07 201.11Z" stroke="white" stroke-width="0.838528"/>
<path d="M940.454 126.346C940.097 122.143 934.674 98.1426 906.053 98.1426C878.578 98.1426 872.582 126.346 872.582 126.346C875.224 123.295 887.498 115.634 906.482 115.634C925.538 115.634 937.815 123.295 940.454 126.346Z" fill="white"/>
</svg>
