<svg width="1604" height="440" viewBox="0 0 1604 440" fill="none" xmlns="http://www.w3.org/2000/svg">
<path d="M375.639 233.418C375.639 238.567 374.052 242.658 370.916 245.71C367.761 248.743 363.748 250.279 358.875 250.279C349.356 250.279 343.336 244.418 340.76 232.688L339.603 227.436C336.896 220.565 332.015 217.129 324.959 217.129C323.549 217.129 322.261 217.26 321.105 217.542L296.632 218.15C295.061 217.734 293.442 217.527 291.816 217.532C285.124 217.532 280.634 220.678 278.321 226.959L276.388 234.532C273.7 245.036 268.23 250.288 260.027 250.288C255.137 250.288 251.198 248.734 248.174 245.607C245.15 242.49 243.637 238.352 243.637 233.194C243.637 229.665 244.226 226.267 245.383 223.018L284.489 110.99C289.884 95.5153 298.564 87.7734 310.502 87.7734C322.317 87.7734 330.596 94.7476 335.356 108.706L373.51 222.072C374.921 226.238 375.639 230.03 375.639 233.418ZM325.351 171.146L315.522 142.874C314.244 139.065 312.07 137.165 308.98 137.165C306.665 137.165 304.93 138.728 303.772 141.845L292.413 171.755C292.037 172.657 291.841 173.623 291.835 174.601C291.835 177.315 293.253 179.655 296.082 181.622C298.9 183.597 301.859 184.571 304.948 184.571H312.265C315.606 184.571 318.715 183.55 321.599 181.519C324.492 179.497 325.948 176.979 325.948 173.992C325.93 173.014 325.728 172.048 325.351 171.146ZM560.728 231.536C560.728 237.378 559.15 241.965 556.005 245.289C552.859 248.612 548.716 250.279 543.572 250.279C534.584 250.279 528.994 243.276 526.81 229.281L518.326 175.237C517.692 171.024 516.403 168.919 514.481 168.919C512.558 168.919 511.008 171.362 509.851 176.257C504.205 200.729 499.585 217.991 495.983 228.054C493.971 233.678 491.392 239.079 488.282 244.174C485.837 248.256 481.021 250.297 473.825 250.297C468.318 250.297 464.174 249.005 461.403 246.421C458.64 243.838 456.101 239.083 453.805 232.136L436.072 178.298C434.794 174.488 433.374 172.588 431.834 172.588C430.416 172.588 429.127 174.638 427.971 178.72L420.084 227.174C417.508 242.583 411.535 250.279 402.164 250.279C397.143 250.279 393.129 248.65 390.114 245.392C387.099 242.134 385.588 237.565 385.588 231.725C385.588 229.954 385.971 226.294 386.745 220.716L401.585 112.834C403.9 96.2454 412.757 87.9512 428.176 87.9512C440.888 87.9512 448.858 95.0659 452.069 109.295L472.5 169.311C473.143 173.112 474.684 175.013 477.119 175.013C479.304 175.013 480.899 172.915 481.935 168.703L496.001 109.099C499.342 94.991 507.173 87.9418 519.502 87.9418C527.22 87.9418 533.567 90.0575 538.57 94.2608C543.964 98.876 547.11 105.466 548.005 114.013L559.757 222.98C560.409 228.963 560.728 231.808 560.728 231.536ZM664.719 231.35C664.719 237.594 663.823 241.788 662.022 243.969C659.576 246.683 654.574 248.041 646.995 248.041H600.562C591.573 248.041 585.47 246.412 582.268 243.163C579.049 239.905 577.443 233.943 577.443 225.265V115.427C577.443 106.206 579.087 99.6623 582.362 95.796C585.629 91.9204 591.826 89.9921 600.953 89.9921H645.837C653.416 89.9921 658.429 91.4337 660.864 94.2702C662.665 96.2922 663.562 100.58 663.562 107.077C663.562 113.171 662.665 117.112 660.864 118.872C658.671 121.044 653.668 122.261 645.837 122.523L621.749 123.337C613.144 122.944 608.84 126.511 608.84 134.047V139.701C608.84 147.781 612.891 151.815 620.973 151.815H642.179C649.758 151.815 654.76 153.248 657.206 156.084C658.989 158.124 659.893 162.328 659.893 168.693C659.893 174.928 658.989 179.066 657.206 181.097C654.76 183.813 649.758 185.17 642.179 185.17H624.456C615.849 185.17 611.547 188.82 611.547 196.142V202.04C611.547 207.207 613.405 210.867 617.129 213.029C619.947 214.527 623.363 215.06 627.349 214.649H646.995C654.695 214.649 659.716 216.016 662.022 218.721C663.823 220.78 664.719 224.994 664.719 231.359V231.35ZM959.19 180.302C959.19 203.36 953.471 221.183 942.045 233.803C930.62 246.412 915.014 252.712 895.23 252.712C875.325 252.712 859.617 246.412 848.128 233.803C836.63 221.183 830.879 203.36 830.879 180.302V107.47C830.879 99.4752 832.299 94.111 835.126 91.4055C837.441 89.0932 841.669 87.9418 847.847 87.9418C854.269 87.9418 858.572 89.112 860.756 91.4055C863.574 93.9893 865.003 99.3347 865.003 107.47V176.435C865.003 204.369 875.083 218.338 895.256 218.338C915.286 218.338 925.301 204.369 925.301 176.435V107.47C925.301 99.4752 926.634 94.111 929.352 91.4055C931.655 89.0932 935.964 87.9418 942.252 87.9418C948.541 87.9418 952.85 89.112 955.166 91.4055C957.845 94.1204 959.203 99.4752 959.203 107.47L959.19 180.302ZM1077.04 213.451L1054.3 188.231C1054.3 188.231 1052.59 186.677 1051.81 185.282C1058.64 184.982 1073.89 176.557 1078.88 166.915C1083.63 157.703 1085.9 149.372 1085.9 139.205C1085.9 124.433 1081 112.628 1071.25 103.819C1061.1 94.5978 1046.99 89.9732 1028.87 89.9732H1002.28C993.157 89.9732 986.959 91.911 983.685 95.768C980.411 99.6249 978.781 106.178 978.781 115.399V230.329C978.781 237.93 979.933 243.079 982.236 245.785C984.552 248.499 989.055 249.857 995.732 249.857C1002.41 249.857 1006.81 248.528 1008.93 245.897C1011.05 243.239 1012.17 238.061 1012.31 230.329L1013.07 197.789C1013.2 193.717 1013.46 191.826 1015.39 191.826C1017.7 191.826 1019.7 195.186 1024.64 202.067L1052.58 238.483C1058.98 246.89 1065.09 251.083 1070.87 251.083C1075.62 251.083 1079.54 249.474 1082.62 246.216C1085.71 242.948 1087.24 239.016 1087.24 234.42C1087.24 228.036 1083.85 221.043 1077.04 213.451ZM1028.5 161.775C1019.11 161.926 1014.3 155.279 1014.04 141.845C1013.78 129.366 1018.87 123.122 1029.27 123.122C1043.39 123.122 1050.45 129.366 1050.45 141.845C1050.45 154.876 1043.14 161.495 1028.5 161.775ZM1460.47 213.451L1437.73 188.231C1437.73 188.231 1436.02 186.677 1435.24 185.282C1442.09 184.982 1457.32 176.557 1462.31 166.915C1467.06 157.703 1469.32 149.372 1469.32 139.205C1469.32 124.433 1464.43 112.628 1454.68 103.819C1444.53 94.5978 1430.4 89.9732 1412.3 89.9732H1385.71C1376.59 89.9732 1370.39 91.911 1367.11 95.768C1363.84 99.6343 1362.21 106.178 1362.21 115.399V230.329C1362.21 237.93 1363.36 243.079 1365.66 245.785C1367.98 248.499 1372.48 249.857 1379.16 249.857C1385.84 249.857 1390.25 248.528 1392.36 245.897C1394.48 243.239 1395.61 238.061 1395.74 230.329L1396.5 197.789C1396.63 193.717 1396.89 191.826 1398.82 191.826C1401.13 191.826 1403.14 195.186 1408.05 202.067L1435.99 238.483C1442.42 246.89 1448.52 251.083 1454.3 251.083C1459.06 251.083 1462.97 249.474 1466.06 246.216C1469.14 242.948 1470.68 239.016 1470.68 234.42C1470.68 228.036 1467.27 221.043 1460.47 213.451ZM1411.92 161.775C1402.54 161.926 1397.73 155.279 1397.47 141.845C1397.21 129.366 1402.3 123.122 1412.7 123.122C1426.82 123.122 1433.88 129.366 1433.88 141.845C1433.88 154.876 1426.56 161.495 1411.92 161.775ZM1242.1 176.838C1242.1 199.071 1235.72 217.289 1222.94 231.452C1210.14 245.635 1193.29 252.721 1172.36 252.721C1151.29 252.721 1134.07 244.99 1120.73 229.534C1107.36 214.078 1100.69 193.866 1100.69 168.908C1100.69 143.277 1107.49 122.972 1121.1 107.985C1134.73 93.0064 1153.08 85.5078 1176.21 85.5078C1192.01 85.5078 1205.33 89.0372 1216.11 96.0862C1226.24 102.593 1231.32 110.054 1231.32 118.46C1231.32 122.804 1229.9 126.67 1227.08 130.05C1224.25 133.438 1220.92 135.132 1217.05 135.132C1214.36 135.132 1208.64 132.558 1199.91 127.41C1191.17 122.261 1182.89 119.677 1175.05 119.677C1163.49 119.677 1154.36 124.021 1147.6 132.69C1140.86 141.377 1137.49 153.248 1137.49 168.3C1137.49 183.756 1140.89 195.973 1147.7 204.913C1154.51 213.862 1163.62 218.347 1175.05 218.347C1189.96 218.347 1199.47 211.298 1203.58 197.189C1204.46 193.931 1204.93 191.966 1204.93 191.293C1204.93 188.024 1202.42 186.415 1197.4 186.415H1186.61C1179.04 186.415 1174.14 185.122 1171.97 182.539C1170.3 180.508 1169.47 176.23 1169.47 169.714C1169.47 163.217 1170.3 158.948 1171.97 156.908C1174.16 154.192 1179.04 152.835 1186.61 152.835H1218.22C1226.69 152.835 1232.79 154.708 1236.51 158.433C1240.23 162.159 1242.1 168.291 1242.1 176.838ZM1343.96 231.35C1343.96 237.594 1343.06 241.788 1341.26 243.969C1338.83 246.683 1333.82 248.041 1326.25 248.041H1279.81C1270.83 248.041 1264.72 246.412 1261.51 243.163C1258.3 239.905 1256.7 233.943 1256.7 225.265V115.427C1256.7 106.206 1258.33 99.6623 1261.6 95.796C1264.88 91.9204 1271.08 89.9921 1280.2 89.9921H1325.09C1332.66 89.9921 1337.68 91.4337 1340.11 94.2702C1341.91 96.2922 1342.81 100.58 1342.81 107.077C1342.81 113.171 1341.91 117.112 1340.11 118.872C1337.92 121.044 1332.91 122.261 1325.09 122.523L1301 123.337C1292.39 122.944 1288.09 126.511 1288.09 134.047V139.701C1288.09 147.781 1292.13 151.815 1300.23 151.815H1321.42C1328.99 151.815 1334 153.248 1336.45 156.084C1338.23 158.124 1339.14 162.328 1339.14 168.693C1339.14 174.928 1338.23 179.066 1336.45 181.097C1334 183.813 1328.99 185.17 1321.42 185.17H1303.7C1295.09 185.17 1290.78 188.82 1290.78 196.142V202.04C1290.78 207.207 1292.65 210.867 1296.37 213.029C1299.19 214.527 1302.61 215.06 1306.59 214.649H1326.25C1333.95 214.649 1338.97 216.016 1341.26 218.721C1343.06 220.78 1343.96 224.994 1343.96 231.359V231.35ZM197.4 152.03C202.73 152.03 208.06 152.012 213.388 152.03C215.433 152.03 217.458 151.965 219.483 152.143C231.99 153.237 238.131 158.761 239.177 171.202C240.726 189.831 236.703 207.151 225.242 222.26C213.388 237.874 197.4 246.383 178.212 249.034C157.968 251.795 138.638 249.445 121.399 237.528C100.997 223.42 90.8794 203.256 88.7612 178.944C87.7441 167.28 87.8838 155.541 90.8328 144.017C98.1683 115.352 120.047 94.0268 154.16 89.3741C168.906 87.3707 183.54 87.7827 197.839 92.3792C205.399 94.8131 212.436 98.2862 218.448 103.557C223.683 108.144 226.736 113.77 225.932 121.035C224.868 130.63 215.965 136.574 206.724 133.888C201.077 132.24 195.991 129.376 190.671 126.988C182.962 123.506 175.02 121.231 166.451 121.371C148.849 121.671 135.063 131.556 130.052 148.426C125.646 163.264 126.095 178.261 131.974 192.593C140.588 213.563 159.975 220.818 180.88 214.714C192.109 211.429 197.466 202.751 199.771 191.891C200.696 187.538 199.258 185.684 194.628 185.404C189.832 185.113 184.996 185.488 180.171 185.582C164.678 185.871 161.373 182.53 161.747 166.877C161.971 157.413 164.902 154.221 174.572 153.528C182.178 152.985 189.785 152.788 197.4 152.432V152.03Z" fill="white"/>
<path d="M388.424 351.083L361.069 337.546L339.229 358.89L343.616 328.624L316.615 314.386L346.668 309.209L351.828 279.065L366.025 306.139L396.218 301.739L374.919 323.644L388.415 351.074L388.424 351.083ZM1173.29 351.083L1200.63 337.546L1222.49 358.89L1218.11 328.624L1245.09 314.386L1215.03 309.209L1209.87 279.065L1195.68 306.139L1165.5 301.739L1186.79 323.644L1173.29 351.083Z" fill="white"/>
<path d="M647.61 338.416C646.686 335.654 646.387 332.499 646.387 329.316C646.36 318.644 646.434 307.991 646.407 297.347C646.396 289.933 649.085 288.547 655.88 289.193C659.529 289.53 661.097 291.093 661.255 294.847C661.47 299.78 661.367 304.742 661.396 309.685C661.442 316.285 661.516 322.876 661.536 329.465C661.554 331.273 661.946 332.996 662.44 334.709C664.195 340.756 668.498 344.005 674.751 344.005C681.135 344.005 685.326 340.868 687.137 334.756C688.041 331.665 688.182 328.502 688.209 325.329C688.256 316.06 688.256 306.793 688.294 297.544C688.294 296.533 688.294 295.502 688.433 294.501C688.956 290.813 690.478 289.408 694.137 289.109H694.519C701.127 288.782 703.152 290.457 703.199 297.029C703.292 308.066 703.199 319.112 703.078 330.149C703.094 334.869 702.057 339.532 700.044 343.798C696.153 351.83 689.722 356.417 680.987 357.841C677.361 358.443 673.668 358.525 670.019 358.083C658.53 356.679 650.756 349.921 647.61 338.416ZM444.022 295.015C446.59 292.291 450.351 290.288 454.7 289.493C460.664 288.397 466.572 288.678 472.284 290.822C475.038 291.851 477.519 293.331 479.256 295.849C480.871 298.189 480.824 300.604 479.555 303.038C478.332 305.407 476.119 305.875 473.749 305.809C470.902 305.716 468.383 304.405 465.722 303.591C462.895 302.711 460.104 302.196 457.192 303.413C455.176 304.255 454.28 305.782 454.047 307.804C453.814 309.863 454.514 311.576 456.24 312.756C456.969 313.242 457.808 313.571 458.629 313.926C461.653 315.218 464.705 316.435 467.729 317.764C470.753 319.084 473.591 320.704 476.073 322.941C483.372 329.56 484.706 340.316 479.181 348.525C476.549 352.43 473.077 355.406 468.635 356.876C458.489 360.209 448.679 359.292 439.394 353.805C438.637 353.343 437.936 352.797 437.303 352.177C434.671 349.649 434.017 346.588 435.493 343.92C436.247 342.573 437.427 341.518 438.847 340.918C440.266 340.317 441.843 340.208 443.331 340.605C445.777 341.177 448.129 342.15 450.518 342.994C453.272 343.967 456.043 344.912 459.003 344.847C461.83 344.79 464.182 343.77 465.471 341.009C467.038 337.647 466.096 333.987 463.017 331.965C460.849 330.644 458.542 329.57 456.138 328.764C451.872 327.172 447.662 325.44 443.911 322.754C440.737 320.489 438.694 317.511 438.078 313.738C436.939 306.811 438.339 300.577 444.022 295.015ZM1086.43 294.978C1088.99 292.244 1092.75 290.251 1097.1 289.455C1103.07 288.351 1108.98 288.631 1114.69 290.775C1117.44 291.804 1119.93 293.284 1121.66 295.811C1123.28 298.151 1123.23 300.558 1121.97 302.991C1120.73 305.369 1118.52 305.838 1116.15 305.762C1113.31 305.669 1110.78 304.368 1108.14 303.544C1105.29 302.664 1102.51 302.149 1099.6 303.375C1097.59 304.218 1096.69 305.744 1096.45 307.757C1096.21 309.816 1096.92 311.529 1098.65 312.709C1099.37 313.196 1100.21 313.523 1101.04 313.88C1104.06 315.171 1107.12 316.389 1110.13 317.718C1113.16 319.038 1116.01 320.656 1118.48 322.894C1125.78 329.513 1127.11 340.269 1121.6 348.479C1118.96 352.383 1115.49 355.359 1111.05 356.83C1100.89 360.172 1091.08 359.245 1081.79 353.768C1081.04 353.302 1080.33 352.753 1079.71 352.13C1077.07 349.603 1076.42 346.541 1077.9 343.874C1078.65 342.529 1079.83 341.474 1081.25 340.874C1082.66 340.274 1084.24 340.164 1085.73 340.559C1088.17 341.13 1090.53 342.103 1092.92 342.956C1095.68 343.929 1098.45 344.865 1101.41 344.809C1104.23 344.743 1106.59 343.723 1107.87 340.971C1109.45 337.601 1108.5 333.931 1105.42 331.918C1103.25 330.597 1100.94 329.524 1098.54 328.716C1094.27 327.125 1090.06 325.394 1086.31 322.707C1083.14 320.442 1081.1 317.465 1080.47 313.691C1079.34 306.764 1080.75 300.54 1086.43 294.978ZM586.487 292.442C589.108 296.345 587.411 301.269 583.22 302.682C580.736 303.525 578.105 303.553 575.492 303.675C572.393 303.815 571.637 304.396 571.077 307.438C570.769 309.105 570.722 310.818 570.685 312.522C570.479 324.167 570.311 335.813 570.125 347.459C570.116 348.114 570.116 348.769 570.097 349.415C569.929 357.072 568.576 358.805 559.933 358.121C556.704 357.859 555.266 356.436 554.772 353.234C554.539 351.699 554.566 350.108 554.585 348.554C554.763 336.374 554.977 324.214 555.155 312.044C555.209 310.347 555.137 308.648 554.94 306.962C554.519 303.871 553.698 303.198 550.627 303.067C548.416 302.973 546.167 303.198 544.01 302.598C541.519 301.906 539.437 300.745 538.765 297.918C537.822 293.827 539.586 290.709 543.618 289.437C545.383 288.884 547.202 288.688 549.023 288.706C558.542 288.837 568.071 288.987 577.592 289.146C579.42 289.184 581.222 289.511 582.976 290.073C584.335 290.539 585.545 291.355 586.487 292.442ZM889.963 290.551C891.801 290.953 892.836 292.264 893.405 294.089C894.001 295.942 894.001 297.862 894.014 299.744C894.052 315.967 894.065 332.181 894.065 348.403C894.065 349.921 894.078 351.456 893.871 352.954C893.444 355.996 892.021 357.419 888.967 357.915C887.712 358.096 886.457 358.144 885.189 358.056C881.586 357.859 879.898 356.37 879.318 352.814C879.098 351.181 878.998 349.535 879.02 347.889C878.983 331.796 878.974 315.705 878.945 299.602C878.945 299.097 878.89 298.582 878.899 298.077C879.216 291.131 883.196 288.36 889.963 290.551ZM1022.44 319.683C1021.28 301.429 1008.22 288.013 988.421 288.977C976.569 289.558 967.588 295.062 962.335 305.678C957.34 315.742 957.03 326.451 960.316 337.133C961.39 340.812 963.176 344.24 965.583 347.217C967.99 350.196 970.966 352.665 974.33 354.479C980.658 357.963 987.554 358.832 994.658 358.103C1004.19 357.129 1011.56 352.448 1017.1 344.21C1021.64 336.908 1023 328.483 1022.44 319.683ZM977.099 336.094C972.907 327.256 973.114 318.213 978.173 309.863C984.022 300.202 998.268 300.726 1003.48 310.762C1008.01 319.449 1007.27 328.352 1004.25 334.54C997.22 346.71 982.12 346.691 977.099 336.094ZM820.668 318.195C819.315 305.182 810.654 294.173 798.753 290.935C788.954 288.275 778.911 289.146 768.952 289.764C765.191 289.998 763.184 292.451 762.653 296.289C762.363 298.377 762.279 300.502 762.27 302.608C762.232 316.987 762.232 331.347 762.241 345.727C762.241 347.44 762.325 349.152 762.465 350.876C762.821 355.537 764.687 357.523 769.261 358.056C771.08 358.272 772.928 358.299 775.028 358.43C779.629 358.421 784.492 358.468 789.364 358.374C803.961 358.065 815.246 349.592 819.296 335.832C820.907 330.101 821.373 324.107 820.668 318.195ZM802.337 333.183C799.696 340.783 791.044 345.483 783.241 343.658C780.722 343.059 779.014 341.485 778.389 338.977C778.034 337.436 777.855 335.859 777.857 334.278C777.81 331.367 777.959 328.455 777.959 325.562C777.959 322.651 777.893 319.758 777.846 316.847H777.996C777.95 314.993 777.81 313.14 777.893 311.295C778.108 305.913 781.142 303.151 786.555 303.244C796.457 303.413 801.965 308.14 803.485 317.942C804.278 323.091 804.074 328.221 802.337 333.183Z" fill="white"/>
<path d="M782.458 159.697C787.115 161.608 791.473 163.048 795.505 165.128C807.153 171.155 813.5 180.892 815.04 193.942C818.979 227.362 798.063 246.207 767.039 249.343C749.361 251.121 731.526 250.878 713.746 251.028C712.938 251.034 712.132 251 711.328 250.925C697.31 249.792 692.092 244.568 691.7 230.451C690.664 192.097 689.693 153.752 688.909 115.399C688.508 96.1801 695.107 89.1777 714.156 88.8595C728.959 88.6255 743.762 87.7361 758.574 88.6068C765.304 89.0047 771.909 90.6025 778.08 93.3249C790.95 98.9604 798.772 108.584 800.303 122.738C801.889 137.539 798.11 150.092 784.343 157.994C783.885 158.265 783.549 158.714 782.458 159.697Z" fill="white"/>
<path d="M749.107 218.589C734.277 218.814 731.271 215.968 730.478 201.916C729.545 185.329 733.736 180.919 750.228 181.631C755.035 181.836 759.869 182.295 764.424 184.214C772.021 187.435 775.39 192.789 775.063 201.383C774.765 209.209 770.864 214.349 763.239 216.876C758.329 218.523 753.243 218.796 749.107 218.589ZM727.212 134.523C727.044 123.496 730.655 119.807 741.51 119.62C745.551 119.555 749.537 119.667 753.373 121.193C760.168 123.889 763.658 129 763.434 136.05C763.219 143.099 758.731 148.622 751.777 150.681C746.149 152.339 740.577 151.412 735.099 150.213C731.794 149.502 729.638 147.181 728.462 143.828C727.352 140.683 727.576 137.472 727.212 134.523Z" fill="black"/>
</svg>
