<svg width="1445" height="447" viewBox="0 0 1445 447" fill="none" xmlns="http://www.w3.org/2000/svg">
<path d="M110.956 104.99C114.491 104.99 117.438 102.056 117.438 98.5362V79.7622C117.438 76.242 114.491 73.3086 110.956 73.3086C107.421 73.3086 104.475 76.242 104.475 79.7622V98.5362C104.475 102.056 107.421 104.99 110.956 104.99Z" fill="white"/>
<path d="M84.834 122.101C88.3693 122.101 91.3155 119.168 91.3155 115.648V96.8735C91.3155 93.3534 88.3693 90.4199 84.834 90.4199C81.2987 90.4199 78.3525 93.3534 78.3525 96.8735V115.648C78.3525 119.265 81.2987 122.101 84.834 122.101Z" fill="white"/>
<path d="M84.834 78.6862C88.3693 78.6862 91.3155 75.7527 91.3155 72.2326V72.4282C91.3155 68.9081 88.3693 65.9746 84.834 65.9746C81.2987 65.9746 78.3525 68.9081 78.3525 72.4282V72.2326C78.3525 75.7527 81.2987 78.6862 84.834 78.6862Z" fill="white"/>
<path d="M137.079 127.186C140.614 127.186 143.56 124.253 143.56 120.733V120.928C143.56 117.408 140.614 114.475 137.079 114.475C133.543 114.475 130.597 117.408 130.597 120.928V120.733C130.499 124.253 133.445 127.186 137.079 127.186Z" fill="white"/>
<path d="M189.224 175.294C185.689 175.294 182.743 178.228 182.743 181.748V185.072C182.547 188.495 179.699 191.135 176.262 191.135C172.726 191.135 169.78 188.201 169.78 184.681V168.449C169.78 164.929 166.834 161.996 163.299 161.996C159.763 161.996 156.817 164.929 156.817 168.449V168.841C156.817 172.361 153.871 175.294 150.336 175.294C146.8 175.294 143.854 172.361 143.854 168.841V141.657C143.854 138.137 140.908 135.204 137.373 135.204C133.838 135.204 130.891 138.137 130.891 141.657V152.022C130.793 155.64 127.552 158.476 124.41 158.476C120.875 158.476 117.928 155.542 117.928 152.022V122.786C117.928 119.265 114.982 116.332 111.447 116.332C107.912 116.332 104.966 119.265 104.966 122.786V148.209C104.966 151.729 102.019 154.662 98.4841 154.662C94.9488 154.662 92.0026 151.729 92.0026 148.209V139.115C92.0026 135.595 89.0565 132.661 85.5212 132.661C81.9859 132.661 79.0397 135.595 79.0397 139.115V158.671C79.0397 162.191 76.0936 165.125 72.5583 165.125C69.0229 165.125 66.0768 162.191 66.0768 158.671V131.488C66.0768 127.968 63.1307 125.035 59.5954 125.035C56.06 125.035 53.1139 127.968 53.1139 131.488V173.143C53.1139 176.663 50.1678 179.596 46.6325 179.596C43.0971 179.596 40.151 176.663 40.151 173.143V162.191C40.151 158.671 37.2049 155.738 33.6695 155.738C30.1342 155.738 27.1881 158.671 27.1881 162.191V192.699C27.1881 196.219 24.242 199.153 20.7066 199.153C17.1713 199.153 14.2252 196.219 14.2252 192.699V182.628C14.2252 179.108 11.2791 176.174 7.74372 176.174C4.20838 176.174 1.26226 179.108 1.26226 182.628L1.16406 192.699V305.245L99.0733 361.47L196.884 305.148V181.845C195.706 178.228 192.858 175.294 189.224 175.294ZM143.953 285.689H113.215V262.319H82.4769V285.689H51.7391V212.744H82.4769V237.19H113.215V212.647H143.953V285.689Z" fill="white"/>
<path d="M378.787 170.419V220.706H332.491V170.419H297.418V303.122H332.491V250.041H378.787V303.122H415.263V170.419H378.787Z" fill="white"/>
<path d="M526.093 303.122H562.569L523.287 170.419H505.049H486.811H468.574L429.292 303.122H465.768L472.782 280.772H519.078L526.093 303.122ZM479.797 254.231L496.632 199.753L513.467 254.231H479.797Z" fill="white"/>
<path d="M792.646 303.122H829.121L789.84 170.419H771.602H753.364H735.126L695.845 303.122H732.32L739.335 280.772H785.631L792.646 303.122ZM746.35 254.231L763.185 199.753L780.019 254.231H746.35Z" fill="white"/>
<path d="M667.787 236.072C681.816 233.278 688.831 226.294 688.831 209.531V202.547C688.831 177.403 671.996 170.419 643.938 170.419H641.132H621.491H576.598V303.122H621.491H641.132H650.952C679.01 303.122 690.234 294.741 690.234 269.597V262.613C690.234 245.85 681.816 237.469 667.787 236.072ZM611.67 199.753H643.938C649.549 199.753 653.758 203.944 653.758 209.531V213.722C653.758 219.31 649.549 223.5 643.938 223.5H611.67V199.753ZM655.161 264.01C655.161 269.597 650.952 273.788 645.34 273.788H611.67V247.247H645.34C650.952 247.247 655.161 251.438 655.161 257.025V264.01Z" fill="white"/>
<path d="M838.942 303.122V170.419H897.865L935.743 270.994H937.146L935.743 170.419H972.219V303.122H910.491L874.015 201.15H872.612L874.015 303.122H838.942Z" fill="white"/>
<path d="M1024.13 273.788V247.247H1080.24V223.5H1024.13V199.753H1085.85V170.419H1024.13H1000.28H989.054V303.122H1000.28H1024.13H1087.26V273.788H1024.13Z" fill="white"/>
<path d="M1199.49 250.041C1212.12 247.247 1217.73 240.263 1217.73 222.103V203.944C1214.92 180.197 1205.1 170.419 1163.01 170.419H1102.69V303.122H1139.17V268.2H1167.22C1175.64 268.2 1179.85 275.185 1179.85 282.169V301.725H1216.33V275.185C1216.33 264.01 1207.91 254.231 1196.68 252.835H1192.48V251.438L1199.49 250.041ZM1181.25 222.103C1181.25 234.675 1177.04 237.469 1171.43 237.469H1139.17V201.15H1165.82C1178.45 201.15 1181.25 206.738 1181.25 215.119V222.103Z" fill="white"/>
<path d="M1355.21 238.866C1355.21 236.072 1355.21 230.485 1355.21 226.294C1355.21 223.5 1355.21 217.913 1355.21 215.119V212.325C1353.81 194.166 1343.99 178.8 1329.96 174.61L1325.75 173.213C1320.14 171.816 1315.93 170.419 1310.32 170.419H1296.29H1293.49H1290.68H1276.65C1271.04 170.419 1265.43 171.816 1261.22 173.213L1257.01 174.61C1242.98 178.8 1233.16 194.166 1231.76 212.325V215.119C1231.76 217.913 1231.76 223.5 1231.76 226.294C1231.76 231.881 1231.76 236.072 1231.76 238.866C1231.76 238.866 1231.76 238.866 1231.76 240.263V241.66C1231.76 244.453 1231.76 248.644 1231.76 252.835C1231.76 255.628 1231.76 259.819 1231.76 262.613V265.406C1233.16 282.169 1242.98 294.741 1257.01 298.931L1261.22 300.328C1266.83 301.725 1271.04 303.122 1276.65 303.122H1290.68H1293.49H1296.29H1310.32C1315.93 303.122 1321.54 301.725 1325.75 300.328L1329.96 298.931C1343.99 294.741 1353.81 282.169 1355.21 265.406V262.613C1355.21 259.819 1355.21 255.628 1355.21 252.835C1355.21 248.644 1355.21 243.056 1355.21 241.66C1355.21 241.66 1355.21 241.66 1355.21 238.866ZM1318.74 233.278V241.66V244.453C1318.74 247.247 1318.74 248.644 1318.74 251.438V258.422C1318.74 261.216 1318.74 262.613 1317.34 265.406C1315.93 269.597 1313.13 272.391 1308.92 273.788C1299.1 275.185 1289.28 275.185 1279.46 273.788C1275.25 272.391 1273.85 269.597 1271.04 265.406C1269.64 262.613 1269.64 261.216 1269.64 258.422V251.438C1269.64 248.644 1269.64 247.247 1269.64 244.453V241.66V233.278V230.485C1269.64 227.691 1269.64 226.294 1269.64 223.5V216.516C1269.64 213.722 1269.64 212.325 1271.04 209.531C1272.44 205.341 1275.25 202.547 1279.46 201.15C1289.28 199.753 1299.1 199.753 1308.92 201.15C1313.13 202.547 1314.53 205.341 1317.34 209.531C1318.74 212.325 1318.74 213.722 1318.74 216.516V223.5C1318.74 226.294 1318.74 227.691 1318.74 230.485V233.278Z" fill="white"/>
<path d="M1393.09 203.944H1384.68V180.197H1376.26V173.213H1401.51V180.197H1393.09V203.944ZM1445 203.944H1436.58V180.197L1428.17 203.944H1421.15L1412.73 180.197L1414.14 203.944H1405.72V173.213H1418.35L1423.96 192.769L1429.57 173.213H1443.6L1445 203.944Z" fill="white"/>
</svg>
