<svg width="1102" height="341" viewBox="0 0 1102 341" fill="none" xmlns="http://www.w3.org/2000/svg">
<path d="M72.7534 140.663H103.781V166.238L154.066 167.304V24.5098C154.066 23.4441 152.996 21.3129 151.926 21.3129H106.99C104.85 21.3129 104.85 22.3785 104.85 24.5098V92.7098H72.7534V24.5098C72.7534 22.3785 71.6835 21.3129 70.6136 21.3129H25.6777C24.6078 21.3129 23.5379 22.3785 23.5379 24.5098V165.172L72.7534 166.238V140.663ZM269.616 23.4441C269.616 22.3785 268.546 21.3129 267.476 21.3129H218.26C217.19 21.3129 216.12 21.3129 216.12 23.4441L174.394 168.369L311.342 171.566L269.616 23.4441ZM230.029 144.925L242.868 62.8723L255.707 144.925H230.029ZM504.994 169.435L526.392 137.466L542.441 176.894L593.796 177.96L556.349 94.841L604.495 24.5098C605.565 22.3785 604.495 21.3129 603.425 21.3129H552.07C551 21.3129 549.93 22.3785 549.93 22.3785L504.994 93.7754V23.4441C504.994 22.3785 503.924 21.3129 502.854 21.3129H461.128C460.058 21.3129 458.988 22.3785 458.988 24.5098V175.829L504.994 176.894V169.435ZM746.792 152.385C746.792 76.7254 662.27 104.432 662.27 74.5941C662.27 66.0691 669.759 61.8066 679.388 61.8066C691.157 61.8066 702.926 67.1348 713.625 78.8567C713.625 79.9223 714.695 79.9223 715.765 78.8567V77.791L739.303 45.8223C740.373 44.7566 740.373 42.6254 739.303 41.5598C725.394 23.4441 703.996 13.8535 681.528 13.8535C650.501 13.8535 616.264 28.7723 616.264 78.8567C616.264 157.713 701.856 126.81 701.856 158.779C701.856 168.369 693.297 173.697 682.598 173.697C668.689 173.697 653.711 166.238 639.802 147.057C638.732 145.991 637.662 145.991 636.592 147.057L614.124 179.025L741.443 182.222C744.652 172.632 746.792 163.041 746.792 152.385ZM851.643 23.4441C851.643 22.3785 850.573 21.3129 849.503 21.3129H800.287C799.217 21.3129 798.148 21.3129 798.148 23.4441L752.142 183.288L897.649 186.485L851.643 23.4441ZM812.056 144.925L824.895 62.8723L837.734 144.925H812.056ZM988.59 107.629L1001.43 189.682L1054.92 190.747L1102 24.5098C1102 22.3785 1102 21.3129 1100.93 21.3129H1057.06C1055.99 21.3129 1054.92 22.3785 1054.92 23.4441L1031.39 120.416L1012.13 23.4441C1012.13 22.3785 1011.06 21.3129 1009.99 21.3129H969.332C968.262 21.3129 967.192 22.3785 967.192 23.4441L947.934 120.416L924.396 23.4441C924.396 22.3785 923.326 21.3129 922.256 21.3129H877.32C876.25 21.3129 875.181 22.3785 876.25 24.5098L922.256 187.55L976.821 188.616L988.59 107.629ZM436.52 159.844H435.451C429.031 169.435 418.332 174.763 407.633 173.697C383.025 173.697 372.326 149.188 372.326 118.285C372.326 89.5129 381.955 63.9379 408.703 63.9379C419.402 63.9379 430.101 69.266 436.52 77.791H437.59V24.5098C437.59 23.4441 436.52 22.3785 435.451 21.3129C425.821 18.116 416.192 17.0504 406.563 17.0504C353.068 17.0504 318.831 63.9379 318.831 122.547C318.831 139.597 322.041 157.713 328.46 173.697L437.59 176.894L436.52 159.844ZM81.3126 220.585C81.3126 221.65 82.3825 222.716 83.4524 222.716H128.388C129.458 222.716 130.528 221.65 130.528 220.585V175.829L80.2427 174.763L81.3126 220.585ZM2.13981 222.716H47.0757C48.1456 222.716 49.2155 221.65 49.2155 220.585V172.632L0 171.566V220.585C0 221.65 1.0699 222.716 2.13981 222.716ZM140.157 222.716H185.093C186.163 222.716 187.233 221.65 187.233 220.585L192.583 195.01H243.938L249.287 220.585C249.287 221.65 250.357 222.716 251.427 222.716H296.363C297.433 222.716 298.503 221.65 297.433 219.519L285.664 179.025L148.716 175.829L135.878 219.519C136.948 221.65 138.017 222.716 140.157 222.716ZM533.882 221.65C533.882 222.716 534.951 223.782 536.021 223.782H583.097C584.167 223.782 585.237 222.716 584.167 220.585L569.188 187.55L517.833 186.485L533.882 221.65ZM436.52 222.716H478.247C479.316 222.716 480.386 221.65 480.386 220.585V184.354L434.381 183.288V220.585C434.381 221.65 435.45 222.716 436.52 222.716ZM586.307 196.075C602.355 217.388 628.033 230.175 654.781 230.175C681.528 230.175 707.206 217.388 717.905 190.747L590.586 187.55L586.307 191.813C585.237 192.879 585.237 195.01 586.307 196.075ZM721.115 222.716H766.05C767.12 222.716 768.19 221.65 768.19 220.585L773.54 195.01H824.895L830.245 220.585C830.245 221.65 831.315 222.716 832.384 222.716H877.32C878.39 222.716 879.46 221.65 878.39 219.519L870.901 193.944L725.394 190.747L716.835 219.519C718.975 221.65 720.045 222.716 721.115 222.716ZM982.171 220.585C982.171 221.65 983.241 222.716 984.311 222.716H1022.83C1023.9 222.716 1024.97 221.65 1024.97 220.585L1031.39 198.207L977.891 197.141L982.171 220.585ZM908.348 222.716H946.864C947.934 222.716 949.004 221.65 949.004 220.585L953.283 196.075L898.718 195.01L906.208 220.585C906.208 222.716 906.208 222.716 908.348 222.716ZM383.025 231.241C392.654 231.241 402.284 230.175 410.843 226.979C411.913 226.979 412.983 225.913 412.983 223.782V182.222L303.852 179.025C317.761 210.994 348.788 231.241 383.025 231.241ZM68.4738 286.654H51.3553V279.194C51.3553 278.129 50.2854 277.063 49.2155 277.063H44.9359C43.866 275.997 42.7961 277.063 42.7961 278.129V313.294C42.7961 314.36 43.866 315.425 44.9359 315.425H48.1456C49.2155 315.425 50.2854 314.36 50.2854 313.294V302.638H46.0058V291.982H67.4039V314.36C67.4039 321.819 63.1243 326.082 53.4951 326.082H39.5864C29.9573 326.082 25.6777 321.819 25.6777 314.36V277.063C25.6777 269.604 29.9573 265.341 39.5864 265.341H53.4951C63.1243 265.341 67.4039 269.604 67.4039 277.063V286.654H68.4738ZM251.427 326.082L249.287 316.491H234.309L232.169 326.082H215.05L231.099 265.341H252.497L268.546 326.082H251.427ZM237.518 304.769H247.148L242.868 282.391L237.518 304.769ZM432.241 326.082H417.262V265.341H435.451L446.15 297.31L456.849 265.341H475.037V326.082H460.058V287.719L452.569 313.294H440.8L432.241 287.719V326.082ZM626.963 265.341H644.082V326.082H626.963V265.341ZM824.895 265.341H840.944V326.082H825.965L812.056 294.113V326.082H796.008V265.341H810.986L824.895 297.31V265.341ZM1035.67 286.654H1018.55V279.194C1018.55 278.129 1017.48 277.063 1016.41 277.063H1013.2C1012.13 277.063 1011.06 278.129 1011.06 279.194V314.36C1011.06 315.425 1012.13 316.491 1013.2 316.491H1016.41C1017.48 316.491 1018.55 315.425 1018.55 314.36V303.704H1013.2V293.047H1035.67V315.425C1035.67 322.885 1031.39 327.147 1021.76 327.147H1007.85C998.219 327.147 993.94 322.885 993.94 315.425V277.063C993.94 269.604 998.219 265.341 1007.85 265.341H1021.76C1031.39 265.341 1035.67 269.604 1035.67 277.063V286.654Z" fill="white"/>
</svg>
