<svg width="1037" height="518" viewBox="0 0 1037 518" fill="none" xmlns="http://www.w3.org/2000/svg">
<g clip-path="url(#clip0_8280_2992)">
<path d="M904.264 183.372C900.116 180.264 895.968 176.12 892.846 173.012C887.661 167.832 883.524 164.724 880.413 164.724C873.154 164.724 870.043 165.76 866.921 173.012C863.81 181.3 861.736 181.3 856.551 205.128H888.709L904.264 183.372ZM866.932 223.776C862.794 223.776 857.609 223.776 851.377 223.776L825.452 322.196C820.267 346.024 811.971 364.672 800.564 377.104C789.157 389.536 781.898 394.716 766.343 394.716C750.788 394.716 751.825 394.716 745.603 391.608C738.344 388.5 733.159 385.392 733.159 379.176C733.159 373.996 733.159 367.78 735.233 364.682C737.296 361.574 744.555 359.502 748.714 360.538C752.851 361.585 760.121 365.718 762.195 368.826C764.269 371.945 769.454 374.006 772.565 374.006C775.676 374.006 776.713 370.898 778.787 365.718C780.861 360.538 782.935 353.286 783.972 343.962C800.574 271.442 807.833 233.11 807.833 230.002C807.833 226.894 804.712 223.786 798.5 218.606C796.426 215.498 794.352 213.426 794.352 211.354C794.352 209.282 798.5 207.21 798.5 207.21C807.833 206.174 810.944 208.246 814.055 207.21C817.166 206.174 818.203 202.03 818.203 200.994C823.388 181.31 822.341 174.058 835.822 159.554C849.313 145.05 866.932 144.014 885.608 144.014C892.857 144.014 900.116 145.05 906.348 150.23C910.486 154.374 916.718 163.698 920.856 170.95C923.967 171.986 930.189 174.058 934.337 174.058C939.522 175.094 935.384 183.382 935.384 184.418L925.014 202.03C926.051 205.138 927.088 206.174 928.125 207.21C930.199 208.246 932.273 209.282 935.384 209.282C936.421 209.282 940.569 209.282 940.569 210.318C940.569 211.354 942.643 214.462 942.643 214.462C942.643 216.534 942.643 217.57 940.569 219.642C939.522 221.714 933.31 221.714 932.273 221.714C925.014 223.786 919.829 224.822 918.782 226.894C917.745 228.966 912.56 248.65 905.301 286.982C904.264 289.054 903.227 291.116 905.301 292.162C907.375 293.198 908.412 291.116 909.449 291.116C910.486 291.116 918.771 291.116 922.93 293.188C925.004 294.234 923.967 299.414 923.967 300.44C923.967 301.466 921.903 305.62 918.782 311.836C914.634 318.052 910.486 321.16 905.301 324.268C900.116 327.376 894.931 328.412 888.709 328.412C881.45 328.412 877.291 328.412 870.043 321.16C862.784 314.944 863.81 305.62 864.858 295.26L882.476 226.884L866.932 223.776ZM206.363 161.616C205.326 166.796 192.882 165.76 189.771 167.832C187.697 170.94 184.586 176.12 183.549 182.336C164.883 260.036 155.55 299.404 155.55 300.44C155.55 303.548 156.587 307.692 158.661 308.728C160.735 310.8 167.994 313.908 167.994 318.052C167.994 322.186 159.698 323.232 150.365 326.34C141.032 328.412 138.958 329.448 125.477 327.376C113.033 326.34 89.1817 322.196 89.1817 315.98C89.1817 309.764 102.663 308.728 104.737 305.62C106.811 302.512 110.959 296.296 113.033 289.044L138.958 182.336C138.958 181.3 143.106 171.976 137.921 167.832C132.736 163.688 128.588 160.58 128.588 157.472C128.588 154.364 135.847 151.256 146.217 150.22C156.587 149.184 162.809 149.184 169.031 149.184C175.253 149.184 181.475 149.184 190.808 150.22C198.067 153.328 207.4 155.4 206.363 161.616ZM435.54 229.992C441.762 221.704 447.984 217.56 459.391 211.344C470.798 205.128 481.168 205.128 493.612 205.128C511.241 205.128 519.537 210.308 528.87 216.524C538.203 223.776 543.388 231.028 544.425 243.46C545.462 252.784 545.462 263.144 542.351 273.504C539.24 283.864 536.129 292.152 529.907 299.404C523.685 307.692 515.399 313.898 507.093 320.124C498.797 325.304 490.501 326.34 477.02 328.412C462.502 329.448 445.91 324.268 437.614 317.006C428.281 309.764 423.096 300.43 422.059 287.998C421.022 277.638 421.022 264.17 424.133 254.846C424.133 253.81 425.17 252.774 425.17 250.702C424.133 247.594 423.096 244.486 421.022 244.486C417.911 244.486 412.726 245.522 408.578 244.486C404.43 243.45 401.319 243.45 399.245 243.45C394.06 243.45 383.69 261.062 377.468 272.458C371.246 283.864 366.061 302.502 358.802 323.222C358.802 324.258 350.506 327.355 345.321 328.402C340.136 329.438 334.951 328.402 332.877 328.402C327.692 326.33 324.581 325.294 323.544 323.222C321.47 321.15 321.47 305.61 323.544 299.394C328.729 279.71 338.062 260.026 337.025 252.774C333.914 240.342 319.396 239.306 318.359 239.306C317.322 239.306 316.285 239.306 315.248 238.27L297.619 239.306C297.619 258.99 292.434 273.494 282.064 281.782C270.657 290.07 256.139 295.25 236.436 295.25C231.251 295.25 234.362 301.466 242.658 303.538C250.954 306.646 256.139 306.646 262.361 307.682C270.657 309.754 277.916 312.862 285.175 318.042C292.434 323.222 296.582 333.582 296.582 341.87C296.582 354.302 287.249 368.806 273.768 378.13C260.287 387.454 245.769 391.598 231.251 391.598C212.585 391.598 199.104 386.418 187.697 380.202C176.29 373.996 170.068 367.78 170.068 358.456C170.068 349.142 171.105 342.916 176.29 338.782C181.475 334.638 184.586 329.458 195.993 324.278C192.882 318.062 191.845 318.062 189.771 312.882C187.697 306.656 185.623 302.522 191.845 296.296C198.067 290.08 199.104 290.08 208.437 282.828C201.178 279.72 194.956 259 194.956 251.748C194.956 236.208 198.067 227.92 211.548 215.488C225.029 203.056 236.436 204.092 250.954 204.092C261.324 204.092 272.731 209.272 278.953 212.38C283.101 212.38 287.249 209.272 291.397 208.236C293.471 207.2 297.619 206.164 301.767 204.092C302.804 204.092 322.507 216.524 323.544 217.56C323.544 217.56 323.544 218.596 324.581 218.596L325.618 217.56C334.951 209.272 343.247 204.092 352.58 204.092C359.839 204.092 366.061 206.164 370.209 209.272C374.357 213.416 373.32 216.524 373.32 223.776C373.32 224.812 378.505 227.92 377.468 228.956C380.579 225.848 384.727 221.704 388.875 216.524C395.097 208.236 405.467 203.056 411.689 203.056C417.911 203.056 423.096 207.2 426.207 211.344C430.355 216.524 433.466 223.776 435.54 229.992ZM264.435 235.172C265.472 232.064 264.435 229.992 264.435 227.92C263.398 225.848 262.361 224.812 260.287 223.776C256.139 222.74 250.954 226.884 243.695 236.208C236.436 245.532 232.288 254.856 230.214 266.252C229.177 269.36 230.214 271.432 230.214 273.504C231.251 275.566 232.288 276.612 235.399 277.638C240.584 278.684 246.806 274.53 253.028 265.206C258.213 254.856 262.361 245.532 264.435 235.172ZM259.25 352.24C259.25 346.024 255.102 341.88 247.843 338.772C239.547 336.7 238.51 336.7 225.029 336.7C218.807 338.772 210.511 342.916 206.363 346.024C203.252 349.132 198.067 353.266 198.067 356.384C198.067 359.492 200.141 364.672 205.326 367.78C210.511 371.924 216.733 371.924 227.103 371.924C236.436 371.924 242.658 367.78 247.843 363.626C254.065 361.564 259.25 357.42 259.25 352.24ZM493.612 223.776C489.464 223.776 485.316 226.884 480.131 232.064C475.983 237.244 472.872 245.532 468.724 254.856C464.576 263.144 463.539 269.36 461.465 281.792C459.391 294.224 462.502 308.728 464.576 310.8C466.65 312.872 470.798 312.872 472.872 312.872C478.057 311.826 481.168 309.764 486.353 303.548C491.538 297.332 492.575 294.234 496.723 285.936C500.871 277.648 502.945 269.36 503.982 257.964C503.982 245.532 500.871 223.776 493.612 223.776ZM650.199 224.812C650.199 228.956 650.199 237.244 650.199 241.388C650.199 245.532 650.199 248.64 641.903 248.64C634.644 248.64 633.596 243.46 632.57 239.316C631.543 235.172 632.57 232.064 630.496 228.956C628.422 225.848 623.237 222.74 617.015 222.74C610.793 222.74 606.645 224.812 600.423 229.992C595.238 236.208 598.349 239.316 602.486 243.46C606.634 247.604 619.089 251.748 624.274 254.856C630.496 259 637.755 262.108 641.903 269.36C646.04 277.648 646.04 281.792 646.04 292.152C646.04 302.512 637.744 312.872 628.411 320.124C619.089 327.366 602.486 328.412 589.005 328.412C582.783 328.412 569.313 326.34 550.636 322.186C551.684 308.718 552.71 299.404 552.71 295.25C553.758 287.998 551.673 283.854 553.758 283.854C559.98 282.828 563.091 286.972 566.202 290.08C569.323 293.188 571.387 296.296 573.461 299.404C575.535 302.512 579.693 304.584 581.757 307.692C583.831 310.8 594.201 310.8 597.312 308.728C602.497 305.62 608.729 299.414 608.729 296.296C608.729 293.188 607.682 291.116 601.47 286.982C596.285 282.838 593.174 280.756 586.952 277.658C580.73 274.55 572.444 267.298 569.333 261.082C565.185 255.902 564.148 250.722 564.148 245.542C564.148 236.218 566.212 224.822 574.518 216.534C582.814 208.246 587.999 203.066 609.766 204.102C619.099 205.138 637.765 210.318 647.108 210.318C650.199 218.596 650.199 219.632 650.199 224.812ZM778.787 249.676C778.787 259 777.75 274.54 774.649 283.864C771.528 293.188 763.232 303.548 757.01 309.764C749.751 317.006 742.492 320.124 734.196 325.304C725.9 329.448 714.493 331.52 699.975 330.484C685.457 329.438 676.124 321.16 667.828 312.872C659.532 304.584 656.421 295.26 656.421 283.864C656.421 274.54 658.495 265.206 661.606 256.918C664.717 248.63 669.902 240.342 677.161 232.054C683.393 224.802 691.679 218.586 701.012 214.442C710.345 210.298 720.715 207.19 733.169 207.19C746.65 207.19 758.047 211.334 765.316 218.586C772.565 225.848 778.787 238.28 778.787 249.676ZM738.344 228.956C737.296 224.812 736.27 223.776 734.196 223.776C730.058 223.776 723.826 227.92 718.641 233.1C714.493 238.28 709.308 243.46 705.16 251.748C701.012 260.036 698.938 268.334 696.864 276.612C694.79 284.89 696.864 305.62 697.901 307.692C698.948 309.764 701.012 312.872 704.133 312.872C708.271 312.872 714.503 309.764 719.688 304.584C724.873 299.404 729.011 292.152 733.169 283.864C736.28 275.566 738.354 273.504 739.391 262.098C739.381 248.64 739.381 233.1 738.344 228.956ZM518.5 0C861.747 0 1037 136.752 1037 259C1037 381.248 831.674 518 522.648 518C213.622 518 1.03667 389.536 -0.000334308 259C-1.03733 128.464 175.253 0 518.5 0ZM520.574 35.224C192.882 35.224 18.6657 159.544 21.7767 266.252C24.8877 372.96 225.029 481.74 520.574 481.74C816.119 481.74 1013.15 360.528 1013.15 259C1013.15 157.472 849.303 35.224 520.574 35.224ZM1012.11 79.772C1017.3 73.556 1020.41 65.268 1020.41 55.944C1020.41 35.224 1003.81 18.648 983.065 18.648C974.769 18.648 967.51 21.756 961.288 25.9C990.324 23.828 1004.84 30.044 1004.84 43.512C1004.84 56.98 1000.69 51.8 1000.69 63.196C1000.7 68.376 1004.85 74.592 1012.11 79.772ZM998.631 91.168C994.483 83.916 991.372 79.772 989.298 76.664C986.187 73.556 983.076 71.484 977.891 67.34C975.817 73.556 974.78 77.7 973.753 80.808C972.706 83.916 970.632 85.988 967.521 90.132C972.706 93.24 978.928 94.276 985.15 94.276C988.261 94.276 993.446 93.24 998.631 91.168ZM951.966 77.7C955.077 74.592 957.151 69.412 957.151 64.232C958.198 58.016 957.151 46.62 955.077 31.08C948.855 37.296 944.707 46.62 944.707 56.98C944.707 64.232 947.818 71.484 951.966 77.7ZM983.076 0C1013.15 0 1037 23.828 1037 53.872C1037 83.916 1013.15 107.744 983.076 107.744C953.013 107.744 929.152 83.916 929.152 53.872C929.152 23.828 953.003 0 983.076 0ZM975.817 40.404V51.8C982.039 50.764 985.15 48.692 985.15 44.548C985.15 40.404 982.039 39.368 975.817 40.404Z" fill="white"/>
</g>
<defs>
<clipPath id="clip0_8280_2992">
<rect width="1037" height="518" fill="white"/>
</clipPath>
</defs>
</svg>
