<svg width="1412" height="469" viewBox="0 0 1412 469" fill="none" xmlns="http://www.w3.org/2000/svg">
<path d="M794.906 72.9426C792.456 63.8232 786.548 58.1907 777.41 56.2864C765.727 53.7651 753.884 55.2001 741.771 54.8648V161.736C753.305 161.239 764.475 162.782 775.539 160.649C784.838 158.852 791.232 153.462 794.166 144.262C795.639 139.565 796.387 134.672 796.385 129.751C796.467 114.794 796.467 99.8316 796.385 84.8649C796.407 80.844 795.909 76.8371 794.906 72.9426ZM781.366 131.346C781.03 147.588 776.817 151.369 760.573 150.967C759.953 151.065 759.319 151.029 758.715 150.86C758.111 150.691 757.552 150.393 757.073 149.988V66.8407C757.611 66.5188 757.975 66.1165 758.419 66.0897C777.019 64.7486 781.299 68.517 781.555 87.0642C781.635 101.87 781.635 116.608 781.366 131.346Z" fill="white"/>
<path d="M729.753 161.253C730.669 159.214 729.943 157.484 729.565 155.767C723.213 126.102 716.834 96.4424 710.428 66.7865C707.628 53.8719 707.534 53.8987 693.254 55.4409L670.657 161.172C675.209 161.774 679.815 161.855 684.385 161.413C687.077 152.777 687.225 143.524 690.186 135.007H711.383C714.074 143.913 713.98 153.005 717.036 161.521C721.49 161.614 725.689 162.031 729.753 161.253ZM691.801 124.158L699.27 84.1804C699.122 82.1554 699.069 80.1571 701.181 78.9636C701.835 80.1448 702.027 81.5255 701.719 82.8393L709.525 123.541C703.59 124.507 698.127 123.836 691.787 124.131L691.801 124.158Z" fill="white"/>
<path d="M853.033 160.849C853.383 157.697 853.813 154.492 852.562 150.831H827.206C825.86 142.784 826.183 116.512 827.61 112.061C828.054 111.972 828.503 111.914 828.955 111.886H839.722C848.86 111.886 849.022 111.684 847.488 102.418C847.488 102.217 847.259 102.043 846.788 101.278H826.95V65.6855H853.019C852.615 61.7427 853.611 58.4705 852.387 55.252H811.675V160.983C818.551 161.989 847.232 161.895 853.033 160.849Z" fill="white"/>
<path d="M643.35 163.465C652.017 162.258 657.064 157.537 658.639 148.968C659.37 144.784 659.717 140.542 659.675 136.294C659.675 111.055 659.675 85.8164 659.675 60.5772C659.675 58.8606 660.24 56.9831 658.639 55.2129H645.435C644.426 58.056 644.83 60.309 644.817 62.5084C644.817 87.305 644.897 112.128 644.817 136.885C644.749 150.296 643.215 151.824 630.443 153.742C630.155 153.829 629.876 153.942 629.608 154.077C629.095 157.314 629.128 160.614 629.702 163.84C634.248 164.322 638.837 164.196 643.35 163.465Z" fill="white"/>
<path d="M802.132 234.221C812.819 230.627 815.147 223.17 815.834 214.802C816.169 210.57 815.838 206.312 814.851 202.182C812.724 193.103 806.923 187.886 797.988 186.09C786.494 183.836 774.893 185.298 763.13 184.855V291.633C773.736 291.633 783.816 291.874 793.856 291.552C801.244 291.311 808.028 288.87 812.698 282.742C819.427 273.944 819.736 263.657 818.323 253.318C817.111 244.601 812.32 238.123 802.132 234.221ZM777.584 222.286C777.584 213.877 777.584 205.454 777.584 196.577C782.989 195.803 788.486 195.947 793.842 197.006C798.781 197.783 801.702 200.895 802.523 205.857C802.523 206.072 802.59 206.3 802.617 206.514C804.205 224.27 800.302 231.995 778.123 228.789C777.22 226.697 777.598 224.458 777.584 222.286ZM803.613 270.484C803.271 272.932 802.15 275.205 800.416 276.972C798.682 278.74 796.425 279.905 793.977 280.301C788.863 281.414 783.775 280.837 778.123 281.065V241.154C782.236 240.681 786.391 240.681 790.504 241.154C797.799 241.959 802.375 246.129 803.734 253.224C804.803 258.927 804.762 264.783 803.613 270.47V270.484Z" fill="white"/>
<path d="M871.471 234.14C881.12 231.095 884.095 224.752 884.996 216.973C885.429 213.41 885.429 209.808 884.996 206.245C883.489 194.081 877.634 187.872 865.576 185.78C856.007 184.117 846.358 185.23 836.761 184.935C835.254 184.935 833.585 184.532 832.63 185.712V291.605C843.396 291.605 853.732 291.914 863.988 291.511C871.659 291.216 878.604 288.333 882.924 281.654C888.805 272.534 889.303 262.396 887.365 251.975C885.791 243.594 880.959 237.961 871.471 234.14ZM847.313 196.321C853.463 195.583 859.698 196.072 865.657 197.756C866.959 198.148 868.144 198.857 869.102 199.82C870.061 200.782 870.764 201.966 871.148 203.268C873.217 209.474 873.04 216.206 870.65 222.297C869.061 226.321 865.643 228.439 861.337 229.003C856.677 229.473 851.989 229.581 847.313 229.325V196.321ZM872.695 271.609C872.256 273.692 871.214 275.601 869.698 277.101C868.181 278.6 866.257 279.624 864.163 280.045C858.712 281.386 853.221 281.224 847.393 280.702V241.207C851.73 240.62 856.126 240.62 860.462 241.207C863.394 241.441 866.171 242.613 868.382 244.546C870.593 246.478 872.12 249.07 872.736 251.935C874.415 258.388 874.405 265.161 872.709 271.609H872.695Z" fill="white"/>
<path d="M643.888 291.019V241.56C646.66 241.56 648.867 241.734 651.048 241.56C654.304 241.239 655.973 242.499 656.673 245.718C657.575 249.848 658.853 253.911 660.011 258.001C663.16 269.146 666.337 280.277 669.526 291.529H683.281C683.537 288.967 682.554 286.929 681.934 284.823C677.978 270.863 674.034 256.889 669.957 242.968C669.109 240.071 668.974 238.14 672.258 236.505C676.673 234.292 678.987 230.148 680.333 225.427C682.251 218.269 682.454 210.763 680.926 203.513C679.095 194.126 673.16 188.56 663.994 186.536C652.528 184.001 640.913 185.194 629.19 185.114V291.743C634.13 291.569 638.706 292.28 643.888 291.019ZM644.076 195.896C651.707 195.802 659.957 193.764 664.6 201.113C666.856 204.637 668.079 208.719 668.132 212.899C668.184 217.079 667.063 221.191 664.896 224.77C660.226 232.816 651.801 230.429 644.076 230.939V195.896Z" fill="white"/>
<path d="M729.94 188.987C729.322 186.064 728.245 184.589 725.123 184.964C723.558 185.043 721.99 185.043 720.425 184.964C714.585 184.964 714.557 184.964 713.265 190.999C706.644 221.951 700.04 252.907 693.455 283.869C692.957 286.216 691.638 288.495 692.445 291.084C694.518 292.29 696.793 291.688 698.972 291.7C705.702 291.7 705.594 291.7 707.047 285.129C708.501 278.559 709.094 271.584 711.435 265.107H732.565C735.027 274.079 735.257 283.091 738.271 291.648C742.767 291.648 746.952 292.13 751.232 291.245C751.322 290.299 751.322 289.347 751.232 288.402C744.117 255.259 737.02 222.121 729.94 188.987ZM713.144 254.204C715.419 238.983 718.245 224.7 721.219 210.471H722.566L730.64 253.386C724.745 254.686 719.282 253.788 713.144 254.204Z" fill="white"/>
<path d="M928.145 185.389C927.969 189.104 927.377 192.363 928.845 196.118H946.058V291.012C951.28 292.22 955.869 291.616 961.536 291.536V195.983H977.968C979.018 189.989 979.018 189.989 977.793 185.402L928.145 185.389Z" fill="white"/>
<path d="M902.681 185.474V291.42H916.705V185.112C911.819 185.045 907.257 184.482 902.681 185.474Z" fill="white"/>
<path d="M874.446 335.3C871.93 326.113 865.753 320.857 856.708 319.019C845.229 316.685 833.6 318.041 821.716 317.678V424.522C833.116 424.04 844.272 425.569 855.363 423.477C864.985 421.653 871.378 415.939 874.204 406.472C875.708 401.552 876.51 396.446 876.587 391.303C876.712 377.24 876.712 363.177 876.587 349.113C876.477 344.436 875.757 339.792 874.446 335.3ZM860.988 395.81C861.005 398.262 860.779 400.711 860.315 403.118C859.171 408.644 855.927 412.171 850.127 413.23C845.667 413.826 841.159 413.987 836.668 413.713V329.533C841.823 328.071 846.91 328.755 851.903 329.734C856.547 330.646 859.251 333.918 860.194 338.398C860.817 341.453 861.133 344.562 861.136 347.679C861.176 363.757 861.109 379.77 861.015 395.81H860.988Z" fill="white"/>
<path d="M977.86 332.736C976.773 329.312 974.84 326.216 972.239 323.73C969.638 321.243 966.453 319.447 962.975 318.506C955.19 316.247 946.913 316.294 939.154 318.64C936.128 319.513 933.335 321.05 930.983 323.139C928.63 325.227 926.778 327.815 925.561 330.71C923.838 334.595 922.795 338.746 922.479 342.981C921.672 352.369 922.25 361.757 922.035 369.803C922.035 377.287 922.035 383.522 922.035 389.772C921.87 396.023 922.659 402.264 924.377 408.279C928.065 419.49 936.14 424.654 947.485 425.444C959.033 426.303 969.435 424.211 975.936 413.28C976.795 411.719 977.495 410.075 978.022 408.373C979.729 403.303 980.585 397.988 980.553 392.642C980.553 378.14 980.553 363.643 980.553 349.151C980.624 343.565 979.711 338.009 977.86 332.736ZM964.335 404.698C962.679 410.827 958.709 413.71 951.953 413.898C944.807 414.099 940.567 411.323 938.427 405.274C937.388 401.843 936.934 398.262 937.082 394.68C937 386.633 937.082 378.587 937.082 370.541C937.082 363.165 937.082 355.789 937.082 348.413C937.055 345.955 937.168 343.496 937.418 341.051C938.764 330.214 949.087 324.837 958.817 329.906C960.203 330.654 961.41 331.692 962.356 332.95C963.301 334.206 963.963 335.652 964.294 337.188C965.188 340.657 965.613 344.228 965.559 347.809C965.559 363.231 965.559 378.655 965.559 394.077C965.63 397.656 965.218 401.228 964.335 404.698Z" fill="white"/>
<path d="M804.462 317.849C800.398 317.577 796.32 317.645 792.269 318.05C791.111 319.914 791.367 321.739 791.367 323.508C791.367 344.278 791.367 365.047 791.367 385.816C791.502 391.198 791.168 396.583 790.37 401.908C788.944 410.129 784.314 414.098 776.804 413.978C769.564 413.857 765.257 409.955 763.817 402.029C763.016 397.181 762.655 392.27 762.74 387.358C762.785 366.589 762.785 345.82 762.74 325.051C762.74 322.878 763.278 320.612 761.973 318.144C757.76 317.56 753.483 317.601 749.282 318.265C748.523 319.526 748.223 321.008 748.434 322.463C748.434 345.02 748.434 367.576 748.434 390.133C748.381 395.5 748.946 400.854 750.117 406.092C752.808 417.747 759.39 423.715 771.219 425.391C775.666 425.979 780.177 425.889 784.597 425.123C793.924 423.62 799.993 418.337 802.779 409.405C804.757 402.757 805.701 395.846 805.579 388.913C805.579 367.026 805.579 345.14 805.579 323.2C805.592 321.47 806.251 319.579 804.462 317.849Z" fill="white"/>
<path d="M670.172 372.622C663.847 366.627 657.131 361.021 650.537 355.308C647.441 352.626 644.575 349.729 643.417 345.76C642.004 340.918 641.641 335.97 645.356 331.839C648.72 328.097 653.228 327.816 657.791 328.687C662.757 329.6 665.476 333.06 666.808 337.633C667.723 340.757 668.289 343.989 669.056 347.396C673.55 346.498 677.723 346.055 681.478 343.721C680.877 338.975 679.618 334.336 677.736 329.935C673.698 320.735 666.082 317.463 656.728 317.006C647.065 316.524 638.41 318.617 632.624 327.239C631.861 328.347 631.28 329.57 630.901 330.86C627.482 343.292 628.411 354.785 638.518 364.146C640.321 365.822 642.206 367.404 644.023 369.067C650.483 374.928 657.387 380.306 663.35 386.703C665.727 389.116 667.452 392.09 668.365 395.347C669.278 398.604 669.349 402.039 668.571 405.331C667.548 410.373 664.533 413.056 659.486 413.82C653.376 414.745 648.424 411.889 645.45 405.773C643.269 401.321 643.027 396.386 641.708 391.356C637.589 392.009 633.535 393.023 629.595 394.387C628.909 415.241 643.054 428.478 662.569 425.232C675.005 423.154 682.555 414.249 683.174 401.642C683.712 389.707 678.437 380.441 670.172 372.622Z" fill="white"/>
<path d="M688.367 318.066C688.731 321.809 687.587 325.255 689.336 328.93H706.536V424.146C711.459 424.634 716.418 424.634 721.34 424.146C721.34 417.508 721.34 411.299 721.34 405.089V366.963C721.34 360.485 721.34 354.007 721.34 347.53C721.408 341.388 720.99 335.205 721.623 329.171C727.746 328.286 733.157 329.492 738.594 328.272C739.338 324.908 739.316 321.421 738.528 318.066H688.367Z" fill="white"/>
<path d="M892.143 424.39C897.082 424.39 901.658 425.114 906.126 423.947V318.082H892.143V424.39Z" fill="white"/>
<path d="M591.924 405.329C590.713 416.715 590.713 416.715 579.811 415.911C575.774 415.83 571.319 418.151 568.129 413.698C564.697 406.872 565.626 400.14 568.492 393.421C576.568 393.542 569.839 399.227 571.628 401.708C574.912 404.043 578.129 406.43 580.282 409.943C584.818 411.485 588.653 411.914 588.007 405.155C585.222 402.218 581.278 400.274 580.161 396.143C582.852 391.57 590.349 397.981 591.413 390.671C592.839 382.411 592.058 374.203 591.883 365.057H570.619C569.408 359.693 575.639 357.412 573.701 351.968C566.971 348.588 559.515 350.801 552.275 350.533L551.468 342.594C548.776 344.217 544.658 341.038 542.854 345.276C535.139 354.924 526.235 363.566 516.354 370.998C530.27 374.351 524.254 385.871 527.754 392.884C534.483 395.566 541.306 392.334 548.291 395.566C542.167 409.433 527.363 412.035 513.811 420.672C536.69 425.003 546.528 409.943 559.26 399.764C559.853 425.057 559.947 425.15 584.185 424.36C586.546 424.434 588.908 424.273 591.237 423.876C596.62 422.536 598.357 418.217 599.151 413.309C600.08 407.636 596.822 405.718 591.924 405.329ZM553.675 380.68C552.773 384.985 550.512 387.386 545.883 386.997C542.653 386.715 539.247 387.761 535.99 385.656C532.976 382.116 535.143 377.61 534.375 373.586C538.763 371.025 543.904 372.607 548.48 371.051C554.172 372.178 554.658 375.946 553.675 380.68ZM557.053 365.392C550.552 364.748 543.944 366.076 537.511 364.252C541.764 351.605 551.67 358.888 558.56 356.608C560.767 361.235 559.3 363.448 557.053 365.392ZM562.288 385.803C562.436 371.239 562.436 371.239 582.382 373.532C583.809 378.012 584.091 381.579 582.194 385.602C575.676 387.266 568.851 387.335 562.302 385.803H562.288Z" fill="white"/>
<path d="M451.835 342.583L463.22 342.462C468.604 341.04 475.131 344.554 479.761 339.096C481.982 328.715 480.407 303.181 466.168 302.377C456.814 303.289 447.084 301.143 438.201 305.837C431.27 317.907 431.579 330.231 435.967 342.583H451.835Z" fill="white"/>
<path d="M551.695 342.137L551.373 342.07V342.539C551.476 342.483 551.574 342.42 551.668 342.352L551.695 342.137Z" fill="white"/>
<path d="M575.451 342.088C578.91 343.107 584.293 340.881 589.435 342.436C594.966 344.112 598.196 339.526 598.371 334.309C598.695 324.56 599.3 314.609 593.66 305.77C584.791 301.251 577.147 302.968 565.788 302.324C556.367 303.411 549.463 307.527 551.495 339.526L551.738 342.128C559.476 343.992 567.093 339.619 575.451 342.088Z" fill="white"/>
<path d="M600.147 64.3193C600.081 57.9357 597.725 53.0542 591.224 50.9084C574.886 40.4346 566.313 40.8637 554.093 52.7994C547.363 58.566 546.166 66.3309 546.179 74.5518C546.179 88.2308 546.381 101.924 546.072 115.602C545.924 121.999 547.781 128.691 544.268 135.357C532.452 132.5 520.675 132.246 508.805 132.406C501.241 132.513 494 135.933 486.342 134.244C486.478 113.041 486.72 91.8383 486.72 70.6358C486.72 59.0757 480.865 50.6134 470.569 46.0939C461.054 41.8964 451.296 41.6683 443.073 49.7819C431.849 55.5218 431.446 65.9018 431.446 76.4964C431.446 143.085 431.446 209.693 431.446 276.318C431.446 283.412 431.324 290.533 434.783 297.078C435.696 297.086 436.603 297.226 437.475 297.494C445.613 297.297 453.747 297.109 461.875 296.93C474.485 296.662 484.445 307.659 484.983 320.118C485.411 320.954 485.668 321.865 485.737 322.8H545.95V319.877C547.619 312.595 550.365 299.761 558.723 298.178C566.69 296.676 590.013 299.21 597.268 300.108C599.313 296.864 600.928 293.497 600.215 289.501C603.323 285.316 602.247 280.435 602.261 275.835C602.332 209.353 602.332 142.871 602.261 76.3891C602.153 72.272 603.405 67.8597 600.147 64.3193ZM509.127 272.321C513.973 269.237 519.141 270.726 524.201 271.597C526.799 277.994 520.608 282.903 523.34 288.361C526.517 288.2 529.02 289.702 531.415 291.486C534.013 291.486 538.575 290.6 537.081 294.53C535.44 298.848 531.132 297.212 528.01 294.53C524.511 293.631 520.877 292.907 519.935 288.535C515.965 285.545 514.121 289.796 511.376 291.017C506.961 296.461 501.807 298.499 493.744 294.744C498.159 289.863 503.542 290.212 507.714 288.213C513.448 283.466 506.813 277.86 509.127 272.321ZM444.312 72.5938C444.622 62.0126 451.014 55.7632 459.708 56.1386C467.931 56.4874 473.786 62.3881 473.961 72.3121C474.351 94.8424 474.082 117.386 474.082 139.755C463.921 145.12 454.177 149.599 444.15 160.099C444.15 144.396 444.15 132.473 444.15 120.537C444.177 104.565 443.854 88.5661 444.312 72.5938ZM466.639 280.999C454.702 279.818 448.82 270.699 451.324 256.336C463.315 256.564 474.93 259.353 486.518 261.861C485.777 275.352 478.456 282.179 466.639 280.999ZM567.995 280.757C556.421 282.796 548.763 276.734 546.126 262.733C557.532 259.235 569.323 257.132 581.238 256.47C584.388 270.002 579.489 278.732 567.995 280.757ZM560.203 141.016C560.001 118.124 559.866 95.2179 559.53 72.3256C559.45 67.3099 561.764 63.3805 564.106 59.3305L568.507 55.7498C574.294 56.1923 580.094 56.5947 585.169 59.9205C585.169 62.0261 585.263 64.0778 587.86 64.735C590.094 94.2388 588.452 123.89 588.762 153.461C588.851 154.393 588.594 155.325 588.038 156.08C587.482 156.834 586.666 157.358 585.747 157.552C579.26 148.956 569.839 144.838 560.203 141.016Z" fill="white"/>
<path d="M509.505 412.398C507.674 411.661 503.192 412.975 504.322 410.239C507.89 401.603 499.073 399.806 496.772 394.549C495.197 393.584 493.57 392.711 492.061 391.638C489.559 389.869 486.88 388.956 484.673 391.638C482.143 394.723 485.103 396.561 486.948 398.478C490.218 401.898 494.108 404.862 497.15 410.253C497.317 410.999 497.317 411.773 497.15 412.52H477.809C476.464 404.661 476.988 396.815 477.352 388.219L505.467 386.73C506.355 381.674 504.996 378.603 499.087 378.778C492.157 378.979 485.211 378.778 477.944 378.778C476.908 371.067 476.518 364.764 478.361 357.32C486.086 357.32 493.529 357.32 500.972 357.32C504.148 357.32 508.293 357.884 508.428 353.19C508.562 348.496 504.39 348.979 501.174 348.925C487.54 348.657 473.92 348.483 460.287 348.281H457.595L443.463 348.871C440.435 348.993 437.595 349.555 437.77 353.418C437.946 357.28 441.216 357.079 443.988 357.32C451.821 358.004 459.909 355.818 467.903 359.011C468.065 365.715 469.963 372.22 466.289 378.818C460.421 378.818 454.768 378.671 449.116 378.818C446.115 378.926 441.66 377.477 441.458 382.533C441.216 388.434 446.155 387.106 449.695 387.361C455.656 387.79 461.807 386.328 468.429 388.862C467.931 396.614 469.465 403.95 467.339 411.808C463.987 412.077 461.242 412.439 458.483 412.492C451.862 412.613 445.24 412.492 438.618 412.64C436.183 412.64 433.719 413.405 433.504 416.355C433.221 420.016 435.671 421.13 438.887 421.182C440.785 421.182 442.669 421.182 444.567 421.182C463.961 421.182 483.354 421.264 502.748 421.102C505.776 421.102 509.477 422.725 511.806 419.144C515.345 415.577 512.989 413.766 509.505 412.398Z" fill="white"/>
</svg>
