<svg width="1332" height="257" viewBox="0 0 1332 257" fill="none" xmlns="http://www.w3.org/2000/svg">
<g clip-path="url(#clip0_13075_3)">
<path d="M240.231 87.28H291.611V150.52C291.611 157.18 289.671 162.45 285.821 166.3C281.971 170.15 276.811 172.08 270.401 172.08C263.991 172.08 258.971 170.17 255.051 166.3C251.151 162.45 249.191 157.2 249.191 150.52V142.94H224.881V148.46C224.881 158.46 226.771 166.9 230.571 173.8C234.371 180.7 239.701 185.93 246.601 189.48C253.501 193.03 261.491 194.83 270.571 194.83C279.651 194.83 287.761 193.04 294.541 189.48C301.321 185.92 306.601 180.69 310.401 173.8C314.201 166.9 316.091 158.46 316.091 148.46V65.73H240.231V87.27V87.28Z" fill="white"/>
<path d="M431.64 142.1C431.64 148.2 430.53 153.48 428.27 157.95C426.02 162.43 422.7 165.91 418.27 168.38C413.84 170.85 408.46 172.08 402.14 172.08C395.82 172.08 390.28 170.85 385.84 168.38C381.4 165.91 378.04 162.4 375.77 157.85C373.47 153.3 372.33 148.05 372.33 142.09V65.73H347.85V140.71C347.85 151.63 349.96 161.14 354.15 169.25C358.34 177.36 364.47 183.65 372.5 188.13C380.54 192.61 390.44 194.86 402.16 194.86C413.88 194.86 423.76 192.61 431.82 188.13C439.86 183.65 445.94 177.36 450 169.25C454.07 161.14 456.13 151.63 456.13 140.71V65.73H431.65V142.09H431.63L431.64 142.1Z" fill="white"/>
<path d="M562.35 123.15C555.57 120.05 547.7 118.14 538.72 117.46L527.68 116.42C521.48 115.96 516.93 114.27 514.07 111.34C511.19 108.41 509.76 105 509.76 101.08C509.76 97.86 510.56 94.88 512.18 92.12C513.78 89.36 516.2 87.18 519.42 85.56C522.64 83.96 526.66 83.14 531.48 83.14C536.3 83.14 540.71 84.04 543.97 85.8C547.24 87.59 549.71 89.94 551.38 92.87C553.05 95.8 553.87 98.99 553.87 102.43H577.84C577.84 94.27 575.95 87.18 572.15 81.13C568.35 75.1 563.02 70.41 556.12 67.09C549.22 63.77 541.01 62.08 531.47 62.08C521.93 62.08 514.25 63.65 507.4 66.82C500.57 69.99 495.24 74.47 491.44 80.25C487.64 86.06 485.75 92.98 485.75 101.02C485.75 111.69 489.33 120.29 496.53 126.8C503.72 133.29 513.33 137.06 525.42 138.08L536.46 138.95C544.4 139.65 550.26 141.35 554.04 144.03C557.84 146.74 559.73 150.32 559.73 154.8C559.73 158.36 558.76 161.55 556.8 164.36C554.84 167.17 551.86 169.44 547.84 171.16C543.82 172.88 538.81 173.75 532.83 173.75C526.17 173.75 520.8 172.78 516.7 170.82C512.61 168.86 509.65 166.32 507.81 163.15C505.97 159.98 505.05 156.74 505.05 153.42H481.08C481.08 161.36 483.09 168.45 487.11 174.69C491.13 180.96 496.97 185.87 504.62 189.43C512.27 192.99 521.67 194.78 532.81 194.78C543.15 194.78 552.16 193.11 559.81 189.77C567.46 186.43 573.35 181.76 577.49 175.73C581.63 169.7 583.69 162.71 583.69 154.79C583.69 147.34 581.83 140.95 578.1 135.67C574.37 130.39 569.12 126.18 562.34 123.08L562.36 123.13L562.35 123.15Z" fill="white"/>
<path d="M596.32 87.28H632.69V191.57H657.19V87.28H693.56V65.74H596.32V87.28Z" fill="white"/>
<path d="M833.059 123.15C826.279 120.05 818.409 118.14 809.429 117.46L798.389 116.42C792.189 115.96 787.639 114.27 784.779 111.34C781.899 108.41 780.469 105 780.469 101.08C780.469 97.86 781.269 94.88 782.889 92.12C784.489 89.36 786.909 87.18 790.129 85.56C793.349 83.96 797.369 83.14 802.189 83.14C807.009 83.14 811.419 84.04 814.679 85.8C817.949 87.59 820.419 89.94 822.089 92.87C823.759 95.8 824.579 98.99 824.579 102.43H848.549C848.549 94.27 846.659 87.18 842.859 81.13C839.059 75.1 833.729 70.41 826.829 67.09C819.929 63.75 811.719 62.08 802.179 62.08C792.639 62.08 784.959 63.65 778.109 66.82C771.279 69.99 765.949 74.47 762.149 80.25C758.349 86.06 756.459 92.98 756.459 101.02C756.459 111.69 760.039 120.29 767.239 126.8C774.429 133.29 784.039 137.06 796.129 138.08L807.169 138.95C815.109 139.65 820.969 141.35 824.749 144.03C828.549 146.74 830.439 150.32 830.439 154.8C830.439 158.36 829.469 161.55 827.509 164.36C825.549 167.17 822.569 169.44 818.549 171.16C814.529 172.88 809.519 173.75 803.539 173.75C796.879 173.75 791.509 172.78 787.409 170.82C783.309 168.86 780.359 166.32 778.519 163.15C776.679 159.98 775.759 156.74 775.759 153.42H751.789C751.789 161.36 753.799 168.45 757.819 174.69C761.839 180.96 767.679 185.87 775.329 189.43C782.979 192.99 792.379 194.78 803.519 194.78C813.859 194.78 822.869 193.11 830.519 189.77C838.169 186.43 844.059 181.76 848.199 175.73C852.339 169.7 854.399 162.71 854.399 154.79C854.399 147.34 852.539 140.95 848.809 135.67C845.079 130.39 839.829 126.18 833.049 123.08L833.069 123.13L833.059 123.15Z" fill="white"/>
<path d="M906.531 65.74H882.051V191.57H903.061H906.531H957.401V170.03H906.531V65.74Z" fill="white"/>
<path d="M1078.01 145.12C1076.12 150.35 1073.36 154.99 1069.73 159.09C1066.12 163.18 1061.74 166.35 1056.63 168.65C1051.52 170.95 1045.73 172.09 1039.29 172.09C1032.85 172.09 1027.04 170.95 1021.88 168.65C1016.7 166.35 1012.32 163.16 1008.68 159.09C1005.05 155.02 1002.31 150.35 1000.4 145.12C998.51 139.89 997.57 134.35 997.57 128.49C997.57 122.17 998.51 116.36 1000.4 111.09C1002.29 105.82 1005.05 101.22 1008.68 97.29C1012.29 93.39 1016.69 90.34 1021.88 88.17C1027.06 85.99 1032.85 84.9 1039.29 84.9C1045.73 84.9 1051.35 85.99 1056.53 88.17C1061.71 90.35 1066.09 93.4 1069.73 97.29C1073.36 101.19 1076.1 105.79 1078.01 111.09C1079.9 116.37 1080.84 122.18 1080.84 128.49C1080.84 134.35 1079.9 139.89 1078.01 145.12ZM1089.05 82.63C1083.48 76.43 1076.56 71.45 1068.27 67.72C1059.99 63.99 1050.33 62.13 1039.31 62.13C1028.29 62.13 1018.44 63.99 1010.16 67.72C1001.88 71.45 994.95 76.43 989.38 82.63C983.81 88.83 979.62 95.75 976.89 103.4C974.13 111.05 972.75 118.72 972.75 126.42V130.22C972.75 137.24 974.11 144.5 976.79 152.03C979.5 159.56 983.57 166.58 989.02 173.06C994.49 179.55 1001.37 184.8 1009.72 188.84C1018.05 192.86 1027.9 194.87 1039.29 194.87C1050.68 194.87 1060.36 192.86 1068.69 188.84C1077.02 184.82 1083.92 179.57 1089.39 173.06C1094.84 166.57 1098.93 159.55 1101.62 152.03C1104.33 144.5 1105.66 137.24 1105.66 130.22V126.42C1105.66 118.72 1104.28 111.05 1101.52 103.4C1098.76 95.75 1094.59 88.83 1089.03 82.63H1089.05Z" fill="white"/>
<path d="M1119.32 87.28H1155.69V191.57H1180.19V87.28H1216.56V65.74H1119.32V87.28Z" fill="white"/>
<path d="M1326.16 135.73C1322.43 130.45 1317.18 126.24 1310.4 123.14C1303.62 120.04 1295.75 118.13 1286.77 117.45L1275.73 116.41C1269.53 115.95 1264.98 114.26 1262.12 111.33C1259.24 108.4 1257.81 104.99 1257.81 101.07C1257.81 97.8499 1258.61 94.8699 1260.23 92.1099C1261.83 89.3499 1264.25 87.1699 1267.47 85.5499C1270.69 83.9499 1274.71 83.1299 1279.53 83.1299C1284.35 83.1299 1288.76 84.0299 1292.02 85.7899C1295.29 87.5799 1297.76 89.9299 1299.43 92.8599C1301.1 95.7899 1301.92 98.9799 1301.92 102.42H1325.89C1325.89 94.2599 1324 87.1699 1320.2 81.1199C1316.4 75.0899 1311.07 70.3999 1304.17 67.0799C1297.27 63.7399 1289.06 62.0699 1279.52 62.0699C1269.98 62.0699 1262.3 63.6399 1255.45 66.8099C1248.62 69.9799 1243.29 74.4599 1239.49 80.2399C1235.69 86.0499 1233.8 92.9699 1233.8 101.01C1233.8 111.68 1237.38 120.28 1244.58 126.79C1251.77 133.28 1261.38 137.05 1273.47 138.07L1284.51 138.94C1292.45 139.64 1298.31 141.34 1302.09 144.02C1305.89 146.73 1307.78 150.31 1307.78 154.79C1307.78 158.35 1306.81 161.54 1304.85 164.35C1302.89 167.16 1299.91 169.43 1295.89 171.15C1291.87 172.87 1286.86 173.74 1280.88 173.74C1274.22 173.74 1268.85 172.77 1264.75 170.81C1260.65 168.85 1257.7 166.31 1255.86 163.14C1254.02 159.97 1253.1 156.73 1253.1 153.41H1229.13C1229.13 161.35 1231.14 168.44 1235.16 174.68C1239.18 180.95 1245.02 185.86 1252.67 189.42C1260.32 192.98 1269.72 194.77 1280.86 194.77C1291.2 194.77 1300.21 193.1 1307.86 189.76C1315.51 186.42 1321.4 181.75 1325.54 175.72C1329.68 169.69 1331.74 162.7 1331.74 154.78C1331.74 147.33 1329.88 140.94 1326.15 135.66L1326.17 135.71L1326.16 135.73Z" fill="white"/>
<path d="M137.08 125.47V173.85C137.08 203.64 114.17 229.25 84.3899 230.7C60.3899 231.86 39.4999 217.68 30.6799 197.11L15.4499 205.56C10.9499 208.05 9.43985 213.81 12.1299 218.17C26.5099 241.45 52.2499 256.99 81.6499 256.99C126.74 256.99 163.3 220.44 163.3 175.38V104.1L143.11 115.28C139.38 117.34 137.08 121.26 137.08 125.52V125.47Z" fill="white"/>
<path d="M26.22 131.47V83.11C26.22 53.32 49.13 27.71 78.89 26.26C102.89 25.1 123.78 39.28 132.6 59.81L147.83 51.36C152.33 48.87 153.84 43.11 151.15 38.75C136.76 15.51 111.02 0 81.65 0C36.56 0 0 36.55 0 81.61V152.86L20.19 141.68C23.92 139.62 26.22 135.7 26.22 131.44V131.46V131.47Z" fill="white"/>
<path d="M81.5497 166.01L68.3297 141.83C68.3297 141.83 68.3097 141.81 68.2797 141.78L44.0897 128.57C44.0897 128.57 44.0197 128.42 44.0897 128.38L68.2797 115.17C68.2797 115.17 68.2997 115.15 68.3297 115.12L81.5497 90.94C81.5497 90.94 81.6997 90.87 81.7397 90.94L94.9597 115.12C94.9597 115.12 94.9797 115.14 95.0097 115.17L119.2 128.38C119.2 128.38 119.27 128.53 119.2 128.57L95.0097 141.78C95.0097 141.78 94.9897 141.8 94.9597 141.83L81.7397 166.01C81.7397 166.01 81.5897 166.08 81.5497 166.01Z" fill="white"/>
</g>
<defs>
<clipPath id="clip0_13075_3">
<rect width="1331.72" height="256.99" fill="white"/>
</clipPath>
</defs>
</svg>
