<svg width="1083" height="401" viewBox="0 0 1083 401" fill="none" xmlns="http://www.w3.org/2000/svg">
<path d="M105.865 233.644H134.172C135.745 233.644 138.103 233.642 139.676 234.421C142.034 235.979 144.394 239.093 143.607 241.428C140.462 256.997 136.531 272.567 133.385 287.358C131.812 292.807 127.095 295.921 121.59 295.921H91.7105C87.7795 295.921 84.6348 293.586 84.6348 289.693V288.914C84.6348 286.579 85.4209 283.465 86.2071 281.13C89.3519 268.674 91.7105 255.44 94.8568 242.984C94.8568 237.535 100.36 233.644 105.865 233.644ZM895.318 108.31C899.249 107.532 903.18 107.532 907.113 107.532H966.872C968.445 107.532 970.803 109.088 971.589 110.645V113.759L945.64 226.637C944.854 229.751 941.709 232.865 938.565 232.086H926.77C924.41 232.086 922.052 229.751 922.838 226.637C925.984 214.96 928.343 202.505 931.487 190.828C932.274 188.491 932.274 186.935 930.701 184.6C929.915 183.042 927.557 183.042 925.984 183.042H900.821C897.677 183.042 895.318 179.151 896.891 176.037C900.035 169.03 905.54 162.803 912.616 158.91C918.907 155.796 926.77 155.019 933.846 155.019C936.992 155.019 939.351 152.683 940.137 150.347C941.71 142.563 944.068 135.556 944.854 127.772C945.64 124.658 942.496 122.322 940.137 122.322H907.899C904.754 122.322 902.394 123.879 900.821 126.215C900.035 126.993 900.035 128.55 899.249 130.107L878.019 223.523C878.019 225.858 876.447 228.193 874.088 229.751C872.514 230.53 870.942 231.307 868.583 230.53H848.925C846.567 230.53 844.208 228.193 844.208 225.858C844.208 225.079 844.208 224.302 844.994 223.523C851.284 197.056 857.575 170.587 863.078 144.898C864.652 137.113 866.225 129.329 870.156 123.101C874.874 115.316 885.096 109.088 895.318 108.31ZM786.021 123.879C783.662 124.658 781.302 126.215 780.516 129.329L764.004 201.726C763.218 205.619 761.646 208.732 761.646 212.624C761.646 214.96 764.004 216.517 766.363 216.517H801.746C804.106 215.738 806.465 213.403 807.251 211.068L811.968 190.049C812.756 187.714 811.182 184.6 808.037 184.6H781.302C778.944 184.6 775.799 182.265 776.585 179.928C777.371 176.037 779.73 172.144 782.876 169.03C789.166 162.024 798.601 158.132 808.037 157.354C811.182 157.354 815.115 157.354 818.259 155.796C819.832 155.019 820.618 153.461 821.404 151.904C821.404 144.898 822.978 138.67 824.55 132.442C824.55 130.107 825.336 127.772 824.55 126.215C822.978 123.879 820.618 123.879 818.259 123.879H786.021ZM775.013 108.31C780.516 107.532 786.021 107.532 791.524 107.532H847.353C849.711 107.532 852.07 109.867 852.07 112.202C852.07 112.981 851.284 114.538 851.284 115.316C848.925 124.658 847.353 133.221 844.994 142.563C844.208 147.233 842.634 151.904 840.276 155.796C837.917 162.024 831.626 166.695 825.336 169.809C830.054 173.701 833.2 179.151 833.986 185.379C834.772 189.27 833.2 193.163 833.2 197.056C831.626 204.84 830.054 211.846 826.123 218.852C820.618 228.193 810.396 233.644 799.388 233.644H730.192C727.834 233.644 726.261 232.086 725.475 229.751C725.475 228.193 726.261 226.637 726.261 225.079C732.552 198.612 738.842 172.144 744.347 144.898C745.919 140.227 745.919 134.778 748.278 130.107C750.636 123.879 754.569 118.43 760.072 114.538C764.004 111.424 769.508 109.088 775.013 108.31ZM655.493 108.31C659.426 107.532 663.357 107.532 667.288 107.532H727.047C729.406 107.532 730.98 108.31 731.766 110.645C732.552 111.424 731.766 112.981 731.766 113.759C723.116 150.347 715.253 186.935 706.603 223.523C705.817 226.637 705.817 229.751 702.672 232.086C701.1 233.644 697.954 233.644 695.595 233.644H685.373C683.015 232.865 681.442 230.53 682.228 228.193C689.306 197.056 697.168 165.138 704.245 133.999C705.031 131.664 705.031 130.107 705.031 127.772C705.031 126.993 704.245 125.436 703.459 124.658C700.314 123.101 694.809 124.658 694.023 128.55L682.228 178.372C681.442 182.265 677.51 183.821 673.579 183.821H663.357C660.998 183.821 658.64 180.707 659.426 178.372C663.357 162.024 666.502 145.676 670.434 129.329C671.22 127.772 670.434 125.436 668.862 124.658C665.715 123.101 661.784 123.879 660.212 126.993C659.426 128.55 658.64 130.885 658.64 132.442C651.562 163.581 644.485 195.498 636.622 226.637C635.836 229.751 632.691 232.865 629.546 232.865H608.316C605.956 232.865 603.597 229.751 604.383 227.416L625.613 133.999C627.974 126.215 631.904 119.208 638.982 113.759C644.485 110.645 649.99 109.088 655.493 108.31ZM535.975 107.532C540.693 106.753 546.197 107.532 550.915 107.532H606.743C608.316 107.532 610.674 109.088 611.46 110.645C612.247 112.981 611.461 115.316 610.674 117.652C602.811 154.24 594.161 190.049 585.512 225.858C584.725 228.972 582.367 232.086 579.222 232.865H566.642C563.495 232.865 561.923 229.751 562.709 227.416L569.786 196.277C570.572 193.942 571.359 190.828 571.359 187.714C571.359 185.379 569 183.821 566.642 183.821H540.693C537.548 183.821 535.975 179.928 536.762 177.593C540.693 168.252 548.556 161.246 557.992 158.132C563.495 156.575 569 156.575 574.503 156.575C577.65 156.575 580.008 154.24 580.794 151.904C582.367 144.119 584.725 137.113 585.512 129.329C586.299 126.993 583.939 123.879 580.794 123.879H547.77C544.624 123.879 540.693 126.215 539.906 129.329C531.257 162.024 524.18 193.942 516.318 226.637C515.531 229.751 512.385 232.865 509.24 232.865H488.01C484.865 232.865 482.505 229.751 483.292 227.416C489.583 197.833 496.66 169.03 503.736 140.227C504.523 136.335 505.309 131.664 507.668 127.772C510.027 122.322 513.958 117.652 518.676 114.538C524.18 110.645 529.684 108.31 535.975 107.532ZM436.9 107.532H459.703C462.061 107.532 465.208 109.867 464.421 112.981L445.55 197.056C444.764 198.612 444.764 200.947 445.55 203.284C446.336 204.84 447.122 205.619 449.481 205.619H475.43C478.574 205.619 481.719 208.732 480.147 211.846C477.788 218.074 473.857 223.523 468.352 226.637C462.848 230.53 454.986 232.865 447.908 232.865H410.951C407.807 232.865 405.448 230.53 406.234 227.416C414.884 189.27 424.32 151.126 432.183 112.981C432.183 110.645 434.542 108.31 436.9 107.532ZM334.68 108.31C337.825 107.532 341.757 107.532 344.902 107.532H407.02C409.379 107.532 410.951 109.088 411.739 111.424C411.739 112.981 411.739 114.538 410.951 116.095C403.089 151.904 394.44 187.714 386.576 223.523C385.79 225.858 385.79 228.193 384.218 230.53C382.645 232.086 380.285 232.865 378.713 232.865H366.919C364.56 232.865 362.201 229.751 362.988 227.416C366.132 214.96 368.491 203.284 371.637 190.828C372.423 187.714 370.851 184.6 367.705 184.6H340.971C337.825 184.6 336.252 180.707 337.039 178.372C339.368 172.937 343.034 168.165 347.704 164.493C352.375 160.822 357.898 158.367 363.774 157.354C367.705 156.575 370.851 156.575 374.782 156.575C377.927 156.575 380.285 154.24 381.073 151.904C381.073 144.898 382.645 137.892 384.218 130.885C384.218 129.329 385.004 127.772 384.218 126.215C383.432 124.658 381.073 123.879 378.713 123.879H346.474C343.33 123.879 340.185 126.993 339.397 130.107C332.321 162.803 324.458 194.719 317.381 226.637C316.595 229.751 313.45 232.865 310.305 232.865H289.075C286.715 232.865 284.356 230.53 285.142 227.416C291.433 197.833 298.509 168.252 305.586 139.449C306.373 135.556 307.159 130.885 309.519 127.772C311.878 123.101 314.236 119.208 318.167 116.095C322.1 111.424 328.389 109.088 334.68 108.31ZM249.759 107.532H283.57C287.501 107.532 290.647 110.645 290.647 114.538C290.647 115.316 289.861 116.873 289.861 117.652C286.715 130.885 284.356 143.341 281.211 156.575C279.639 164.36 274.92 171.365 269.417 176.037C260.767 183.042 250.545 187.714 239.537 191.605C230.888 193.942 222.238 196.277 212.802 197.833C212.016 197.833 211.23 198.612 210.444 198.612C209.657 199.391 210.444 200.17 211.23 200.17C213.588 200.947 215.947 200.947 219.093 200.947C226.957 202.505 234.819 204.84 241.896 208.732C245.827 211.068 249.759 213.403 252.904 217.295C258.409 223.523 261.554 232.086 260.767 240.649C258.409 256.219 254.476 271.009 250.545 286.579C249.759 290.472 246.613 293.586 243.468 295.142C241.11 295.921 238.751 295.921 236.391 295.921H208.871C204.939 295.921 201.008 292.028 201.794 288.135L208.871 257.775C209.657 252.326 211.23 246.877 210.444 240.649C209.657 235.979 208.085 230.53 204.153 226.637C199.435 222.744 193.931 219.63 187.641 218.074C182.136 216.517 175.847 215.738 170.342 213.403C167.983 212.624 165.625 211.068 164.051 208.732C160.906 204.061 160.906 197.833 163.265 193.942C164.837 191.605 167.197 190.049 169.556 188.491C174.273 186.156 178.991 186.156 184.495 184.6C194.717 183.042 204.153 181.486 213.588 177.593C219.879 174.479 225.383 171.365 229.315 165.138C230.888 163.581 231.674 161.246 231.674 158.91C234.819 145.676 237.965 130.885 241.11 116.095C241.896 112.202 245.827 109.088 249.759 107.532ZM132.598 108.31C134.172 107.532 135.745 107.532 138.103 107.532H166.411C170.342 107.532 173.487 111.424 172.7 115.316C169.556 130.885 165.625 146.455 162.478 162.024C160.906 167.473 156.189 170.587 150.684 170.587H121.59C119.232 170.587 116.087 169.809 114.515 166.695C113.728 165.138 113.728 162.803 113.728 161.246L123.163 118.43C123.163 116.873 123.95 115.316 124.737 114.538C126.309 111.424 129.454 109.088 132.598 108.31Z" fill="white"/>
<path d="M762.443 251.544H793.109C792.322 253.879 792.323 256.214 791.535 258.549H769.518C768.732 262.442 767.946 266.335 767.16 269.449H788.39C787.604 271.784 787.604 274.119 786.818 276.454H765.587L763.229 288.132H786.031C785.245 290.467 785.245 292.802 784.459 295.138H753.793C756.152 281.126 759.296 266.335 762.443 251.544ZM588.669 295.916C591.813 281.126 594.958 266.335 597.318 251.544H605.966C609.113 262.442 611.471 274.119 614.616 285.018C621.693 274.119 628.77 262.442 635.846 251.544H644.496C641.351 266.335 638.206 281.126 635.846 295.916H627.984C630.343 285.796 631.915 275.677 634.274 264.777C627.984 274.898 622.479 285.018 616.188 295.916H609.113C606.754 285.796 605.18 275.677 602.822 264.777C600.463 274.898 598.891 285.018 596.53 295.916H588.669ZM427.475 295.916C436.911 281.126 446.347 266.335 454.996 251.544H463.646C466.791 266.335 470.722 281.126 473.868 295.916H465.218L462.858 284.24H447.919C449.491 281.905 451.064 279.568 451.85 277.233H461.286C459.713 271.784 458.927 266.335 457.355 260.886C454.996 264 453.424 267.891 451.064 271.005C445.56 279.568 440.842 288.132 435.338 296.695C432.98 295.916 429.834 295.916 427.475 295.916ZM912.626 253.879C921.276 249.986 931.498 250.765 940.148 253.1C939.362 255.435 939.362 257.772 938.575 260.886C932.284 258.549 924.421 257.772 917.345 259.328C914.199 260.107 911.84 262.442 911.84 265.556C911.84 267.114 912.627 268.67 914.199 269.449C918.918 270.226 923.635 269.449 928.353 270.226C930.712 271.005 933.07 271.784 934.643 274.119C936.217 275.677 936.217 278.791 936.217 280.347C935.431 284.24 934.643 288.132 931.498 290.467C928.353 293.581 924.421 295.138 919.704 295.138C912.626 295.916 906.337 295.137 899.26 293.581C900.046 291.245 900.046 288.91 900.832 285.796C905.551 287.353 911.054 288.132 916.559 288.132C918.918 288.132 921.276 288.132 923.635 286.575C925.995 285.018 927.567 282.682 927.567 280.347C927.567 278.791 926.781 277.233 925.207 277.233C920.49 276.454 914.987 277.233 910.268 276.454C907.123 275.677 904.765 274.119 903.977 271.005C903.191 264.777 906.337 256.993 912.626 253.879ZM303.239 251.544C309.53 250.765 316.605 250.765 322.896 253.1C322.11 255.435 322.11 257.772 321.324 260.107C315.819 257.772 309.53 256.993 303.239 258.549C300.094 259.328 296.947 260.886 294.589 263.221C290.658 267.114 289.872 273.34 289.872 278.791C289.872 281.905 291.444 285.018 293.803 287.353C297.734 289.689 302.452 289.689 307.169 288.91L309.53 275.677H318.178C316.605 281.904 315.819 288.132 314.247 294.359C306.383 296.695 297.734 297.473 289.872 295.138C283.581 293.581 280.436 287.353 280.436 281.126C280.436 274.119 282.008 266.335 286.725 260.886C291.444 255.435 296.947 253.1 303.239 251.544ZM130.251 183.038C135.755 182.261 142.045 183.817 145.977 187.71C149.122 190.824 151.481 195.494 151.481 199.386C151.481 204.835 149.122 210.284 145.191 214.177C142.831 216.512 138.9 218.07 135.755 218.849C128.678 219.626 120.815 216.512 117.67 210.284C115.311 206.393 114.525 201.721 115.311 197.051C116.098 190.045 122.387 184.596 130.251 183.038Z" fill="white"/>
</svg>
