<svg width="410" height="113" viewBox="0 0 410 113" fill="none" xmlns="http://www.w3.org/2000/svg">
<g clip-path="url(#clip0_10512_204)">
<path d="M163.744 88.2393C162.077 88.2393 160.59 87.8615 159.662 86.9238C158.735 85.9862 158.182 84.6705 158.182 83.173V27.6647C158.182 26.1669 158.735 24.8515 159.662 23.9137C160.59 22.9759 161.89 22.5981 163.744 22.5981C165.412 22.5981 166.713 22.9759 167.826 23.9137C168.753 24.8515 169.307 26.1669 169.307 27.6647V83.1796C169.307 84.6773 168.753 85.9928 167.826 86.9305C166.713 87.8684 165.419 88.2462 163.744 88.2462V88.2393ZM185.622 39.4773C183.581 39.4773 181.914 38.9173 180.613 37.7907C179.312 36.6641 178.759 34.9775 178.759 33.1022C178.759 31.2266 179.312 29.7289 180.613 28.6023C181.914 27.4758 183.581 26.7268 185.622 26.7268C187.663 26.7268 189.331 27.2869 190.631 28.6023C191.932 29.7289 192.672 31.2266 192.672 33.1022C192.672 34.9775 191.932 36.4752 190.631 37.7907C189.517 38.9173 187.663 39.4773 185.622 39.4773ZM185.809 88.2393C184.141 88.2393 182.654 87.8615 181.727 86.9238C180.8 85.9862 180.246 84.6705 180.246 83.173V49.7857C180.246 48.2879 180.8 46.9724 181.727 46.0348C182.654 45.0969 183.955 44.7191 185.809 44.7191C187.476 44.7191 188.777 45.0969 189.891 46.0348C190.818 46.9724 191.372 48.2879 191.372 49.7857V83.173C191.372 84.6705 190.818 85.9862 189.891 86.9238C188.777 87.8615 187.483 88.2393 185.809 88.2393ZM222.708 88.2393C216.031 88.2393 211.395 84.4884 208.8 76.7976L199.903 50.9122C199.716 50.3524 199.716 49.9746 199.716 49.4145C199.716 48.099 200.269 46.9791 201.383 46.0414C202.497 45.1038 204.165 44.726 206.019 44.726C207.133 44.726 208.06 44.9149 208.8 45.4747C209.541 46.0348 210.101 46.7902 210.468 47.5392L219.926 75.3001C220.3 76.7976 220.853 77.7355 221.227 78.3022C221.6 78.8687 222.154 79.2398 222.708 79.2398C223.261 79.2398 223.821 78.862 224.188 78.3022C224.555 77.7421 225.115 76.6155 225.489 75.3001L234.947 47.5392C235.321 46.6013 235.874 45.8525 236.614 45.4747C237.355 44.9149 238.282 44.726 239.396 44.726C241.25 44.726 242.918 45.1038 244.031 46.0414C245.145 46.9791 245.699 47.917 245.699 49.4145C245.699 49.7923 245.699 50.3524 245.512 50.9122L236.614 76.7976C234.02 84.4884 229.384 88.2393 222.708 88.2393ZM272.032 88.2393C267.21 88.2393 262.948 87.3017 259.425 85.615C255.905 83.9286 253.123 81.3041 251.083 78.1133C249.227 74.9223 248.301 71.1714 248.301 66.6715C248.301 59.7296 250.342 54.2921 254.238 50.3524C258.318 46.4124 263.881 44.537 271.298 44.537C275.747 44.537 279.83 45.2858 283.164 46.6013C286.687 48.099 289.282 49.9746 291.322 52.6055C293.362 55.0409 294.29 58.043 294.29 61.234C294.29 64.0472 293.362 66.1117 291.695 67.6092C290.028 69.1069 287.615 69.8626 284.465 69.8626H259.06C259.06 73.0536 260.174 75.489 262.394 77.1754C264.623 78.6731 267.957 79.6108 272.219 79.6108C276.854 79.6108 280.564 78.6731 283.898 76.6087C285.754 75.4821 287.052 74.9223 288.16 74.9223C289.088 74.9223 290.016 75.3001 290.941 76.2377C291.869 77.1754 292.422 78.3022 292.422 79.4287C292.422 80.7442 291.869 81.8641 290.755 82.6198C288.346 84.4951 285.565 85.8108 282.41 86.7484C279.076 87.6861 275.735 88.2462 272.025 88.2462L272.032 88.2393ZM280.937 62.1717C281.865 62.1717 282.604 61.9828 282.977 61.6118C283.35 61.234 283.532 60.6742 283.532 59.7363C283.532 57.6721 282.417 56.1743 280.195 55.0478C277.976 53.921 275.008 53.3611 271.298 53.3611C267.591 53.3611 264.623 54.1099 262.401 55.7965C260.174 57.2943 259.246 59.5474 259.246 62.1717H280.944H280.937ZM326.552 88.2393C318.397 88.2393 311.905 86.7416 307.449 83.5508C303.001 80.3598 300.774 76.0488 300.774 70.2335C300.774 67.2314 301.7 64.6071 303.742 62.1717C305.782 59.7363 308.377 57.6721 311.711 56.1677V55.9788C308.93 54.6631 306.89 52.9767 305.223 50.7302C303.742 48.4768 302.814 46.2303 302.814 43.606C302.814 38.1685 304.854 34.0398 309.119 31.2266C313.199 28.2245 319.128 26.7268 326.548 26.7268C333.964 26.7268 339.901 28.2245 343.976 31.2266C348.057 34.2287 350.278 38.3508 350.278 43.606C350.278 46.2303 349.537 48.4837 347.87 50.7302C346.203 52.9833 344.163 54.67 341.381 55.9788V56.1677C344.715 57.6652 347.497 59.7297 349.35 62.1717C351.393 64.6071 352.319 67.2383 352.319 70.2335C352.319 76.0488 350.092 80.3598 345.457 83.5508C341.008 86.7416 334.703 88.2393 326.54 88.2393H326.552ZM326.552 51.8567C330.449 51.8567 333.417 51.1077 335.639 49.7923C337.865 48.2948 338.973 46.2303 338.973 43.7881C338.973 41.164 337.858 39.2884 335.639 37.973C333.409 36.6573 330.449 35.9085 326.366 35.9085C322.285 35.9085 319.322 36.6573 317.095 37.973C314.866 39.2884 313.759 41.346 313.759 43.7881C313.759 46.2303 314.874 48.2879 317.095 49.7923C319.504 51.1077 322.659 51.8567 326.552 51.8567ZM326.552 79.2398C331.188 79.2398 334.897 78.4911 337.306 76.9865C339.901 75.489 341.199 73.2356 341.199 70.4224C341.199 67.2314 339.901 64.796 337.306 63.1096C334.711 61.4229 331.188 60.4853 326.552 60.4853C321.917 60.4853 318.397 61.4229 315.802 63.1096C313.207 64.796 311.905 67.2383 311.905 70.4224C311.905 73.2356 313.207 75.489 315.615 76.9865C318.21 78.4842 321.917 79.2398 326.552 79.2398ZM384.222 88.2393C376.064 88.2393 369.575 86.7416 365.119 83.5508C360.671 80.3598 358.442 76.0488 358.442 70.2335C358.442 67.2314 359.37 64.6071 361.41 62.1717C363.452 59.7363 366.047 57.6721 369.381 56.1677V55.9788C366.6 54.6631 364.56 52.9767 362.893 50.7302C361.41 48.4768 360.484 46.2303 360.484 43.606C360.484 38.1685 362.524 34.0398 366.786 31.2266C370.869 28.2245 376.798 26.7268 384.215 26.7268C391.632 26.7268 397.568 28.2245 401.644 31.2266C405.727 34.2287 407.948 38.3508 407.948 43.606C407.948 46.2303 407.207 48.4837 405.54 50.7302C403.873 52.9833 401.83 54.67 399.049 55.9788V56.1677C402.385 57.6652 405.167 59.7297 407.02 62.1717C409.061 64.6071 409.989 67.2383 409.989 70.2335C409.989 76.0488 407.762 80.3598 403.124 83.5508C398.862 86.7416 392.373 88.2393 384.208 88.2393H384.222ZM384.222 51.8567C388.116 51.8567 391.084 51.1077 393.306 49.7923C395.536 48.2948 396.643 46.2303 396.643 43.7881C396.643 41.164 395.528 39.2884 393.306 37.973C391.08 36.6573 388.119 35.9085 384.036 35.9085C379.953 35.9085 376.992 36.6573 374.763 37.973C372.536 39.2884 371.429 41.346 371.429 43.7881C371.429 46.2303 372.544 48.2879 374.763 49.7923C377.358 51.1077 380.326 51.8567 384.222 51.8567ZM384.222 79.2398C388.858 79.2398 392.567 78.4911 394.973 76.9865C397.568 75.489 398.87 73.2356 398.87 70.4224C398.87 67.2314 397.568 64.796 394.973 63.1096C392.381 61.4229 388.858 60.4853 384.222 60.4853C379.587 60.4853 376.064 61.4229 373.469 63.1096C370.877 64.796 369.575 67.2383 369.575 70.4224C369.575 73.2356 370.877 75.489 373.283 76.9865C375.878 78.4842 379.587 79.2398 384.222 79.2398Z" fill="white"/>
<path d="M41.1674 55.7979H14.0938C6.30317 55.7979 0 49.4227 0 41.5429V14.1599C0 1.59163 15.0209 -4.78359 23.9187 4.21593L51.179 31.7878C59.8968 40.6053 53.587 55.7979 41.1674 55.7979Z" fill="white"/>
<path d="M99.2112 113H68.9827C61.939 113 56.1895 107.185 56.1895 100.061V70.0535C56.1895 62.9296 61.939 57.1143 68.9827 57.1143H99.3912C110.704 57.1143 116.266 71.1803 107.922 79.0598C104.587 82.2509 104.587 87.6884 107.922 91.0614C116.08 98.9412 110.704 113.007 99.2046 113.007L99.2112 113Z" fill="white"/>
<path d="M35.6847 59.6172L32.0028 63.3411C29.795 65.574 26.2199 65.574 24.0121 63.3411L20.3303 59.6172C18.7428 58.0116 16.595 57.1143 14.3539 57.1143H9.88498C4.42891 57.1076 0 61.5871 0 67.1123V84.6796C0 99.8518 12.2662 112.805 27.267 113C42.6348 113.203 55.2611 100.56 55.0745 85.0572V67.1123C55.0745 61.5871 50.6456 57.1143 45.1894 57.1143H41.6678C39.4265 57.1143 37.2722 58.0183 35.6914 59.6172H35.6847Z" fill="white"/>
<path d="M111.631 15.5899V10.0917C111.631 4.56652 107.202 0.09375 101.747 0.09375H66.2619C60.7991 0.09375 56.377 4.57328 56.377 10.0917V15.5899C56.377 18.2412 57.4174 20.7846 59.2717 22.66C62.1533 25.5743 62.1533 30.3036 59.2717 33.2246C57.4174 35.1002 56.377 37.6434 56.377 40.2948V45.793C56.377 51.3182 60.8059 55.791 66.2619 55.791H101.747C107.209 55.791 111.631 51.3115 111.631 45.793V40.2948C111.631 37.6434 110.591 35.1002 108.737 33.2246C105.855 30.3102 105.855 25.5812 108.737 22.66C110.591 20.7846 111.631 18.2412 111.631 15.5899Z" fill="white"/>
</g>
<defs>
<clipPath id="clip0_10512_204">
<rect width="410" height="113" fill="white"/>
</clipPath>
</defs>
</svg>
