<svg width="1139" height="355" viewBox="0 0 1139 355" fill="none" xmlns="http://www.w3.org/2000/svg">
<g clip-path="url(#clip0_8280_3057)">
<path d="M422.426 12.2031H443.436L484.352 107.609L526.373 12.2031H547.384V134.234H533.008V32.1719L489.881 134.234H481.035L437.907 32.1719V134.234H423.532V12.2031H422.426Z" fill="white"/>
<path d="M617.05 12.2031H630.32L682.294 134.234H665.707L653.543 104.281H592.722L580.558 134.234H563.971L617.05 12.2031ZM623.685 31.0625L598.251 90.9688H648.013L623.685 31.0625Z" fill="white"/>
<path d="M756.385 34.3906C751.962 26.625 743.115 23.2969 734.269 23.2969C722.104 23.2969 708.835 28.8438 708.835 43.2656C708.835 54.3594 715.47 59.9062 734.269 65.4531C751.962 72.1094 769.655 77.6562 769.655 102.062C769.655 126.469 748.644 137.562 726.528 137.562C712.152 137.562 697.776 133.125 688.93 120.922L701.094 110.938C706.623 119.813 716.575 124.25 726.528 124.25C738.692 124.25 753.068 116.484 753.068 103.172C753.068 88.75 743.115 85.4219 720.999 78.7656C703.305 73.2187 691.141 65.4531 691.141 45.4844C691.141 22.1875 711.046 9.98438 732.057 9.98438C745.327 9.98438 757.491 13.3125 766.337 24.4063L756.385 34.3906Z" fill="white"/>
<path d="M879.131 37.7188C871.39 27.7344 860.332 23.2969 849.274 23.2969C822.734 23.2969 802.829 47.7031 802.829 74.3281C802.829 102.062 821.628 125.359 849.274 125.359C863.65 125.359 875.814 119.813 884.66 108.719L895.719 117.594C884.66 132.016 869.179 138.672 849.274 138.672C814.993 138.672 787.348 112.047 787.348 74.3281C787.348 38.8281 812.782 9.98438 849.274 9.98438C865.861 9.98438 881.343 15.5312 892.401 28.8438L879.131 37.7188Z" fill="white"/>
<path d="M907.883 73.2187C907.883 36.6094 934.423 8.875 970.915 8.875C1007.41 8.875 1033.95 36.6094 1033.95 73.2187C1033.95 109.828 1007.41 137.562 970.915 137.562C934.423 137.562 907.883 110.937 907.883 73.2187ZM1018.47 73.2187C1018.47 45.4844 998.561 22.1875 970.915 22.1875C942.163 22.1875 923.364 44.375 923.364 73.2187C923.364 100.953 943.269 124.25 970.915 124.25C999.666 124.25 1018.47 102.062 1018.47 73.2187Z" fill="white"/>
<path d="M1139 26.625H1099.19V135.344H1084.81V26.625H1045V12.2031H1140.11V26.625H1139Z" fill="white"/>
<path d="M525.267 332.813C510.891 340.578 495.41 343.906 479.928 343.906C442.33 343.906 414.685 318.391 414.685 279.563C414.685 240.734 443.436 215.219 479.928 215.219C495.41 215.219 510.891 219.656 523.055 230.75L511.997 241.844C504.256 232.969 490.987 227.422 478.822 227.422C451.177 227.422 430.166 248.5 430.166 278.453C430.166 307.297 450.071 329.484 479.928 329.484C489.881 329.484 500.939 327.266 509.786 322.828V285.109H482.14V271.797H524.161V332.813H525.267Z" fill="white"/>
<path d="M594.934 219.656H608.204L660.178 341.688H643.59L631.426 310.625H570.606L558.442 340.578H541.854L594.934 219.656ZM601.569 237.406L576.135 297.312H625.897L601.569 237.406Z" fill="white"/>
<path d="M676.766 219.656H697.776L738.692 315.063L780.713 219.656H801.724V341.688H787.348V239.625L744.221 341.688H735.374L692.247 239.625V341.688H677.871V219.656H676.766Z" fill="white"/>
<path d="M831.581 219.656H845.957V341.688H831.581V219.656Z" fill="white"/>
<path d="M876.92 219.656H894.613L965.386 320.609V219.656H979.762V341.688H962.068L891.296 240.734V341.688H876.92V219.656Z" fill="white"/>
<path d="M1113.57 332.813C1099.19 340.578 1083.71 343.906 1068.23 343.906C1030.63 343.906 1002.98 318.391 1002.98 279.563C1002.98 240.734 1031.73 215.219 1068.23 215.219C1083.71 215.219 1099.19 219.656 1111.35 230.75L1100.3 241.844C1092.56 232.969 1079.29 227.422 1067.12 227.422C1039.48 227.422 1018.46 248.5 1018.46 278.453C1018.46 307.297 1038.37 329.484 1068.23 329.484C1078.18 329.484 1089.24 327.266 1098.08 322.828V285.109H1070.44V271.797H1112.46V332.813H1113.57Z" fill="white"/>
<path d="M174.931 138.284C174.931 146.05 176.037 154.925 178.248 162.69C183.777 153.815 191.518 144.941 199.259 138.284C199.259 114.988 213.635 93.9092 235.751 86.1436C240.174 95.0186 250.127 99.4561 258.973 96.1279C265.608 93.9092 271.138 88.3624 272.243 81.7062C282.196 78.3781 287.725 67.2842 284.408 57.2998C281.09 47.3154 270.032 41.7688 260.079 43.9875C254.55 39.55 247.915 37.331 241.28 39.5497C232.434 42.8779 225.799 51.7529 228.01 61.7372C195.942 73.9404 174.931 103.894 174.931 138.284Z" fill="white"/>
<path d="M310.948 30.6748L24.5388 30.6748V138.284C15.6922 144.941 9.05701 152.706 3.52789 162.69C1.31622 154.925 0.210541 147.159 0.210541 138.284V5.15932L336.381 5.15932V138.284C336.381 182.659 299.889 219.269 255.656 219.269C239.069 219.269 222.481 213.722 209.211 204.847C210.317 195.972 213.635 187.097 219.164 180.44C242.386 200.409 277.773 198.19 297.677 174.894C306.524 164.909 310.948 151.597 310.948 138.284V30.6748Z" fill="white"/>
<path d="M174.931 209.284C174.931 164.909 211.423 128.299 255.656 128.299C272.244 128.299 288.831 133.846 302.101 142.721C300.995 151.596 297.677 160.471 292.148 167.127C268.926 147.159 233.539 149.377 213.635 172.674C193.73 195.971 195.941 231.471 219.164 251.44C224.693 255.878 230.222 259.206 235.751 261.424C240.174 252.549 250.127 248.112 258.973 251.44C265.608 253.659 271.138 259.206 272.244 265.862C282.196 269.19 288.831 280.284 285.513 290.268C282.196 300.253 271.138 306.909 261.185 303.581C255.656 308.018 249.021 310.237 242.386 308.018C233.539 304.69 226.905 295.815 229.116 285.831C195.942 274.737 174.931 243.675 174.931 209.284Z" fill="white"/>
<path d="M161.661 209.284C161.661 201.518 160.555 192.643 158.343 184.878C152.814 193.753 145.074 202.628 137.333 209.284C137.333 232.581 122.957 253.659 100.841 261.424C96.4174 252.549 86.465 248.112 77.6183 251.44C70.9834 253.659 65.4541 259.206 64.3483 265.862C54.3959 269.19 47.7611 280.284 51.0786 290.268C54.3961 300.253 65.4541 306.909 75.4066 303.581C80.9357 308.018 87.5708 310.237 94.2057 308.018C103.052 304.69 109.687 295.815 107.476 285.831C139.545 274.737 161.661 243.675 161.661 209.284Z" fill="white"/>
<path d="M161.661 138.284C161.661 103.894 139.545 72.8309 107.476 61.7371C109.687 51.7527 103.052 42.8777 94.2057 39.5496C87.5708 37.3309 79.8299 39.5499 75.4066 43.9874C65.4541 40.6593 54.3961 46.2059 51.0786 57.2997C47.7611 67.2841 53.2901 78.378 64.3483 81.7061C66.56 92.7998 77.6183 99.456 87.5707 97.2373C93.0998 96.1279 98.6291 91.6904 100.841 86.1435C129.592 97.2373 143.968 129.409 134.016 158.253C122.957 187.097 90.8883 201.519 62.1369 191.534C55.5019 189.315 49.9728 185.987 45.5495 181.55C40.0204 188.206 36.7029 197.081 35.5971 205.956C72.0894 231.471 122.957 222.597 148.391 185.987C156.132 171.565 161.661 154.925 161.661 138.284Z" fill="white"/>
<path d="M0.210541 209.284C0.210541 164.909 36.7026 128.3 80.9357 128.3C97.523 128.3 114.111 133.847 127.38 142.722C126.275 151.597 122.957 160.471 117.428 167.128C94.2058 147.159 58.8193 149.378 38.9144 172.675C30.0678 182.659 25.6444 195.972 25.6444 209.284V316.893L312.053 316.893V209.284C320.9 202.628 327.535 194.862 333.064 184.878C335.276 192.643 336.381 200.409 336.381 209.284V349.065L0.210541 349.065V209.284Z" fill="white"/>
</g>
<defs>
<clipPath id="clip0_8280_3057">
<rect width="1139" height="355" fill="white"/>
</clipPath>
</defs>
</svg>
