<svg width="1644" height="514" viewBox="0 0 1644 514" fill="none" xmlns="http://www.w3.org/2000/svg">
<path d="M855.518 0V97.9812H1045.46V159.019H900.21V224.875H1023.11V285.912H900.21V354.981H1045.46V414.412H855.518V514H841.153V0H855.518Z" fill="white"/>
<path d="M268.147 292.338V97.9814H331.992V414.413H274.532L199.514 295.55L151.631 220.056V414.413H89.3823V97.9814H145.246L146.843 99.5877L215.476 205.6L268.147 292.338Z" fill="white"/>
<path d="M368.703 414.413V97.9814H576.198V159.019H430.951V224.875H555.448V285.913H430.951V354.981H576.198V414.413H368.703Z" fill="white"/>
<path d="M601.736 159.019V97.9814H810.827V159.019H739.002V414.413H675.157V159.019H601.736Z" fill="white"/>
<path d="M1256.14 292.338V99.5879H1319.99V414.413H1262.53L1187.51 297.157L1139.63 221.663V414.413H1075.78V99.5879H1133.24L1134.84 101.194L1203.47 207.207L1256.14 292.338Z" fill="white"/>
<path d="M1345.53 99.5879H1554.62V160.625H1482.79V414.413H1418.95V160.625H1345.53V99.5879Z" fill="white"/>
</svg>
