<svg width="912" height="403" viewBox="0 0 912 403" fill="none" xmlns="http://www.w3.org/2000/svg">
<path fill-rule="evenodd" clip-rule="evenodd" d="M219.632 318.897C211.427 315.25 207.703 305.564 211.357 297.372L339.047 11.1839C342.702 2.99009 352.404 -0.7278 360.607 2.91978C368.813 6.56564 372.537 16.2531 368.885 24.4451L241.193 310.635C237.54 318.827 227.838 322.547 219.632 318.897Z" fill="white"/>
<path fill-rule="evenodd" clip-rule="evenodd" d="M273.311 318.897C265.107 315.25 261.383 305.564 265.036 297.372L360.886 82.4683C364.539 74.2762 374.239 70.5584 382.445 74.2059C390.65 77.857 394.374 87.5427 390.72 95.7347L294.873 310.635C291.22 318.827 281.517 322.547 273.311 318.897Z" fill="white"/>
<path fill-rule="evenodd" clip-rule="evenodd" d="M326.991 318.897C318.786 315.25 315.063 305.564 318.716 297.372L381.178 155.675C384.832 147.483 394.534 143.765 402.74 147.413C410.943 151.062 414.667 160.75 411.013 168.942L348.553 310.635C344.899 318.827 335.197 322.546 326.991 318.897Z" fill="white"/>
<path fill-rule="evenodd" clip-rule="evenodd" d="M380.015 318.898C371.811 315.25 368.087 305.565 371.74 297.373L401.472 230.843C405.124 222.651 414.826 218.933 423.032 222.581C431.237 226.232 434.96 235.918 431.307 244.11L401.577 310.636C397.924 318.828 388.222 322.547 380.015 318.898Z" fill="white"/>
<path fill-rule="evenodd" clip-rule="evenodd" d="M541.492 318.898C533.287 315.25 529.562 305.565 533.217 297.373L562.945 230.843C566.6 222.651 576.302 218.933 584.507 222.581C592.713 226.232 596.433 235.918 592.783 244.11L563.05 310.636C559.4 318.828 549.698 322.547 541.492 318.898Z" fill="white"/>
<path fill-rule="evenodd" clip-rule="evenodd" d="M595.171 318.898C586.967 315.25 583.241 305.565 586.896 297.373L616.625 230.843C620.28 222.651 629.982 218.933 638.186 222.581C646.393 226.232 650.113 235.918 646.463 244.11L616.73 310.636C613.08 318.828 603.378 322.547 595.171 318.898Z" fill="white"/>
<path fill-rule="evenodd" clip-rule="evenodd" d="M648.197 318.898C639.992 315.25 636.267 305.565 639.922 297.373L669.65 230.843C673.305 222.651 683.007 218.933 691.212 222.581C699.418 226.232 703.138 235.918 699.489 244.11L669.755 310.636C666.105 318.828 656.403 322.547 648.197 318.898Z" fill="white"/>
<path fill-rule="evenodd" clip-rule="evenodd" d="M433.041 318.897C424.836 315.25 421.113 305.564 424.766 297.372L552.456 11.1839C556.111 2.99009 565.813 -0.7278 574.016 2.91978C582.222 6.56564 585.946 16.2531 582.294 24.4451L454.602 310.635C450.949 318.827 441.247 322.547 433.041 318.897Z" fill="white"/>
<path fill-rule="evenodd" clip-rule="evenodd" d="M487.158 318.897C478.953 315.25 475.228 305.564 478.883 297.372L606.573 11.1839C610.226 2.99009 619.927 -0.7278 628.133 2.91978C636.338 6.56564 640.063 16.2531 636.408 24.4451L508.716 310.635C505.066 318.827 495.364 322.547 487.158 318.897Z" fill="white"/>
<path fill-rule="evenodd" clip-rule="evenodd" d="M772.139 401.516V385.922H740.329V401.516H730.355V362.461H740.329V378.255H772.139V362.461H782.113V401.516H772.139Z" fill="white"/>
<path fill-rule="evenodd" clip-rule="evenodd" d="M354.482 401.516V362.461H398.667V370.144L364.454 370.127V378.247L396.091 378.238V385.921L364.454 385.916V393.82L398.667 393.835V401.516H354.482Z" fill="white"/>
<path fill-rule="evenodd" clip-rule="evenodd" d="M322.758 401.516V385.922H290.952V401.516H280.975V362.461H290.952V378.255H322.758V362.461H332.732V401.516H322.758Z" fill="white"/>
<path fill-rule="evenodd" clip-rule="evenodd" d="M10.249 365.581V401.515H0.275391V362.462H20.3634L45.2193 398.79V395.871V362.462H55.1929V401.515H45.2038C45.0956 401.519 35.0276 401.515 35.0276 401.515L10.249 365.581Z" fill="white"/>
<path fill-rule="evenodd" clip-rule="evenodd" d="M500.473 365.581V401.515H490.501V362.462H510.589L535.443 398.79V395.871V362.462H545.417V401.515H535.428C535.319 401.519 525.251 401.515 525.251 401.515L500.473 365.581Z" fill="white"/>
<path fill-rule="evenodd" clip-rule="evenodd" d="M235.194 401.523V370.523L216.31 370.52V362.451H264.807V370.503L245.922 370.523V401.523H235.194Z" fill="white"/>
<path fill-rule="evenodd" clip-rule="evenodd" d="M818.542 401.523V370.523L799.659 370.52V362.451H848.157V370.503L829.273 370.523V401.523H818.542Z" fill="white"/>
<path fill-rule="evenodd" clip-rule="evenodd" d="M567.291 401.536V362.438H578.019L578.072 393.677L608.389 393.667L608.384 401.536H567.291Z" fill="white"/>
<path fill-rule="evenodd" clip-rule="evenodd" d="M623.688 362.398H634.415V401.603H623.688V362.398Z" fill="white"/>
<path fill-rule="evenodd" clip-rule="evenodd" d="M161.998 370.109V383.222L184.094 383.212C187.052 383.212 189.463 380.804 189.463 377.848V375.526C189.463 372.566 187.052 370.162 184.094 370.162L161.998 370.109ZM187.814 401.548L180.408 391.18L161.974 391.166L161.967 401.561H151.193V362.398L188.946 362.414C194.703 362.414 199.394 367.097 199.394 372.849V380.75C199.394 388.01 191.732 391.131 191.732 391.131L199.246 401.553L187.814 401.548Z" fill="white"/>
<path fill-rule="evenodd" clip-rule="evenodd" d="M431.33 370.109V383.222L453.422 383.212C456.382 383.212 458.793 380.804 458.793 377.848V375.526C458.793 372.566 456.382 370.162 453.422 370.162L431.33 370.109ZM457.146 401.548L449.738 391.18L431.306 391.166L431.299 401.561H420.523V362.398L458.274 362.414C464.035 362.414 468.722 367.097 468.722 372.849V380.75C468.722 388.01 461.064 391.131 461.064 391.131L468.576 401.553L457.146 401.548Z" fill="white"/>
<path fill-rule="evenodd" clip-rule="evenodd" d="M93.0576 370.32C89.2739 370.32 86.1944 373.395 86.1944 377.176V386.812C86.1944 390.593 89.2739 393.668 93.0576 393.668H113.417C117.206 393.668 120.285 390.593 120.285 386.812V377.176C120.285 373.395 117.206 370.32 113.417 370.32H93.0576ZM88.0373 401.726C81.947 401.726 76.9902 396.774 76.9902 390.689V373.35C76.9902 367.266 81.947 362.316 88.0373 362.316H118.575C124.665 362.316 129.625 367.266 129.625 373.35V390.689C129.625 396.774 124.665 401.726 118.575 401.726H88.0373Z" fill="white"/>
<path fill-rule="evenodd" clip-rule="evenodd" d="M667.122 401.715C661.032 401.715 656.075 396.765 656.075 390.684V373.34C656.075 367.257 661.032 362.312 667.122 362.312H697.66C702.828 362.312 707.333 365.99 708.435 370.984L698.678 374.23C697.545 371.855 695.164 370.312 692.5 370.312H672.143C668.359 370.312 665.279 373.388 665.279 377.168V386.804C665.279 390.585 668.359 393.662 672.143 393.662H692.5C696.291 393.662 699.369 390.585 699.369 386.804V386.564C699.369 386.071 698.968 385.67 698.477 385.67H682.341L682.406 380.225H708.671L708.71 390.684C708.71 396.765 703.75 401.715 697.66 401.715H667.122Z" fill="white"/>
<path fill-rule="evenodd" clip-rule="evenodd" d="M910.657 374.451V373.779C910.657 367.468 905.482 362.305 899.162 362.305H876.769C870.447 362.305 865.273 367.468 865.273 373.779V374.657C865.273 380.97 870.447 386.133 876.769 386.133L897.908 386.162C900.254 386.162 902.176 387.793 902.176 390.136C902.176 392.482 900.254 394.397 897.908 394.397H878.977C876.631 394.397 874.709 392.766 874.709 390.42C874.709 390.149 874.744 389.88 874.794 389.623L865.194 389.647L865.196 390.321C865.215 396.633 870.4 401.783 876.721 401.764L899.497 401.703C905.82 401.684 910.978 396.505 910.961 390.194L910.958 389.318C910.94 383.003 906.837 378.644 900.515 378.658L878.284 378.478C877.926 378.478 877.584 378.423 877.253 378.337C875.402 377.874 874.016 376.206 874.016 374.216C874.016 373.024 874.514 371.946 875.312 371.171C876.09 370.373 877.169 369.873 878.366 369.873H896.91C899.256 369.873 901.178 371.79 901.178 374.136C901.178 374.245 901.154 374.347 901.147 374.451H910.657Z" fill="white"/>
</svg>
