<svg width="1120" height="324" viewBox="0 0 1120 324" fill="none" xmlns="http://www.w3.org/2000/svg">
<g opacity="0.9">
<path d="M109.079 108.202C115.693 108.202 126.484 108.202 133.098 108.202C134.077 109.178 134.49 109.67 135.748 110.925C157.904 136.655 180.176 162.301 202.662 188.032C203.325 189.021 203.985 190.011 204.647 191C204.976 190.67 205.307 190.67 205.969 190.341C205.969 162.961 205.969 135.911 205.969 108.532C213.906 108.532 221.18 108.532 228.786 108.532C228.786 148.777 228.786 189.351 228.786 230.255C222.173 230.255 214.656 230.255 208.042 230.255C206.697 228.915 206.135 228.155 204.462 226.487C180.653 199.108 158.351 173.517 134.872 146.467C134.21 145.808 133.55 145.148 132.228 143.828C132.228 172.858 132.228 201.227 132.228 230.255C124.291 230.255 116.684 230.255 109.079 230.255C109.079 189.351 109.079 148.777 109.079 108.202Z" fill="white"/>
<path d="M977.447 230.912C972.818 229.921 967.857 229.262 963.228 227.943C933.136 220.026 916.271 196.604 917.925 165.596C919.247 135.577 939.089 113.806 969.511 108.198C991.998 103.91 1013.16 108.858 1034 117.435C1036.31 118.424 1038.62 119.414 1040.94 120.403C1041.27 120.403 1041.6 120.733 1042.26 121.063C1038.62 127.33 1034.66 133.598 1031.35 139.537C1023.08 136.238 1015.15 132.278 1006.88 129.64C995.636 126.011 984.061 125.022 972.157 128.321C952.315 133.928 941.072 149.103 941.403 169.884C941.734 189.017 954.3 204.192 973.811 208.48C993.651 213.098 1011.51 207.161 1028.04 196.934C1030.36 195.615 1032.34 193.965 1034.66 192.646C1034.66 192.646 1034.99 192.646 1035.65 192.646C1038.96 197.924 1042.26 203.862 1045.57 209.799C1043.91 211.118 1041.93 212.109 1040.28 213.098C1026.72 221.345 1012.17 227.613 996.296 229.921C995.967 229.921 995.305 230.251 994.974 230.581C989.022 230.912 983.07 230.912 977.447 230.912Z" fill="white"/>
<path d="M588.257 218.709C581.643 218.709 575.691 218.709 569.74 218.709C569.74 187.371 569.74 156.364 569.74 124.695C576.022 124.695 583.52 124.695 589.803 124.695C590.946 126.73 590.902 126.345 591.564 127.664C600.492 143.829 609.422 159.991 618.35 176.155C619.012 177.146 619.672 178.465 620.664 180.115C621.326 178.794 621.988 177.805 622.648 177.146C631.578 160.982 640.506 144.487 649.433 128.323C650.756 125.685 650.862 125.798 651.693 124.695C657.551 124.695 666.299 124.695 671.92 124.695C671.92 156.033 671.92 187.041 671.92 218.379C665.968 218.379 659.685 218.379 653.402 218.379C653.402 199.576 653.402 181.104 653.402 162.301C653.071 162.301 652.74 161.971 652.409 161.971C641.828 180.774 631.247 199.576 620.334 219.039C609.422 199.906 599.17 181.104 588.588 162.301C588.257 162.301 587.926 162.301 587.595 162.301C588.257 181.434 588.257 199.906 588.257 218.709Z" fill="white"/>
<path d="M501.3 123.377C511.221 123.707 521.142 125.356 530.07 129.974C547.597 138.881 556.855 157.684 553.88 178.136C550.573 202.216 536.022 216.402 511.882 219.041C500.969 220.36 490.057 219.699 479.476 216.731C461.949 211.454 450.045 196.609 449.052 178.467C448.721 171.869 448.721 164.941 450.375 158.673C455.335 138.881 467.875 129.974 487.301 124.924C493.251 123.375 496.245 123.211 501.3 123.377ZM533.046 172.199C533.046 155.044 518.827 141.52 501.3 141.52C483.443 141.85 469.886 155.044 469.886 171.869C469.886 188.692 483.774 202.216 501.3 202.216C519.158 202.216 533.046 189.022 533.046 172.199Z" fill="white"/>
<path d="M296.58 123.375C306.5 123.705 316.09 125.354 325.019 129.643C342.546 138.22 351.805 157.023 349.158 177.805C346.182 201.554 331.302 216.069 307.162 219.038C295.918 220.359 284.675 219.698 273.763 216.399C256.898 211.121 244.663 196.278 244.001 178.464C243.67 170.877 244.001 162.63 245.986 155.373C251.276 137.229 265.495 128.323 283.353 124.695C287.982 124.035 290.903 123.375 296.58 123.375ZM328.326 171.866C328.326 155.043 314.107 141.519 296.58 141.519C278.723 141.519 264.835 155.043 264.835 172.196C264.835 189.35 278.723 202.545 296.91 202.545C314.436 202.215 328.326 188.691 328.326 171.866Z" fill="white"/>
<path d="M787.545 219.036C780.931 219.036 772.318 219.036 766.366 219.036C765.349 216.891 764.873 215.644 764.211 214.325C761.519 208.237 758.826 201.552 756.434 195.945C753.503 195.945 753.459 195.945 750.152 195.945C738.485 195.945 730.767 195.945 719.189 195.945C716.542 195.945 718.083 195.945 716.648 195.945C713.438 202.171 709.662 210.269 707.015 215.876C706.686 216.866 706.621 217.01 705.759 218.706C698.64 218.706 691.08 218.706 684.466 218.706C685.128 217.056 685.459 216.067 686.119 214.748C699.016 185.718 711.543 158.346 724.109 129.317C725.432 126.678 725.686 126.069 726.404 124.362C727.064 124.362 735.391 124.362 735.391 124.362C740.021 124.362 741.695 124.365 745.086 124.363C747.311 127.991 749.611 132.609 751.595 136.897C762.839 162.628 774.413 188.359 785.655 213.759C786.458 215.57 786.812 216.404 787.545 219.036ZM722.825 177.801C731.424 177.801 739.691 177.801 748.288 177.801C743.99 167.906 740.021 158.34 735.391 147.783C731.424 158.34 727.125 167.906 722.825 177.801Z" fill="white"/>
<path d="M348.17 124.692C355.444 124.692 363.591 124.692 370.536 124.692C371.198 126.18 371.422 126.731 371.979 127.991C380.576 147.454 388.844 166.586 397.111 186.049C397.442 187.039 398.103 188.028 398.765 189.678C399.425 188.028 400.087 187.039 400.747 185.718C409.015 166.257 417.613 147.124 425.55 127.661C426.527 125.265 426.525 125.574 427.133 124.362C433.475 124.362 443.076 124.362 449.69 124.362C448.366 127.331 447.375 129.971 446.383 132.609C434.478 160.318 422.574 187.698 410.668 215.408C409.833 217.353 410.28 216.397 409.089 218.706C404.255 218.706 393.539 218.706 388.91 218.706C388.194 217.018 388.493 217.891 387.852 216.397C374.955 186.379 362.009 156.75 349.112 126.731C348.541 125.401 348.835 126.069 348.17 124.692Z" fill="white"/>
<path d="M810.16 142.837C798.917 142.837 788.335 142.837 777.423 142.837C777.423 136.898 777.423 130.961 777.423 125.023C806.191 125.023 834.961 125.023 864.062 125.023C864.062 130.631 864.062 136.57 864.062 142.507C853.149 142.507 842.566 142.507 831.325 142.507C831.325 167.908 831.325 192.978 831.325 218.378C824.048 218.378 817.435 218.378 810.16 218.378C810.16 193.637 810.16 168.567 810.16 142.837Z" fill="white"/>
<path d="M880.241 218.707C880.241 187.369 880.241 156.362 880.241 125.023C887.186 125.023 894.13 125.023 901.075 125.023C901.075 156.362 901.075 187.369 901.075 218.707C894.13 218.707 887.517 218.707 880.241 218.707Z" fill="white"/>
</g>
</svg>
