<svg width="1291" height="428" viewBox="0 0 1291 428" fill="none" xmlns="http://www.w3.org/2000/svg">
<path d="M456.394 86.0199C458.853 85.9154 461.312 85.8108 463.844 85.7031C470.677 86.8204 470.677 86.8204 475.181 91.1979C476.514 93.2753 477.846 95.3526 479.218 97.4931C480.012 98.6782 480.805 99.8635 481.623 101.085C484.391 105.235 487.08 109.43 489.764 113.635C491.821 116.838 493.878 120.039 495.936 123.241C497.022 124.933 498.108 126.625 499.227 128.369C505.469 138.067 511.767 147.728 518.06 157.393C522.155 163.688 526.252 169.984 530.472 176.471C531.177 146.886 531.881 117.302 532.607 86.8204C543.179 86.8204 553.75 86.8204 564.641 86.8204C564.641 137.537 564.641 188.253 564.641 240.506C532.607 240.506 532.607 240.506 525.016 233.077C523.244 229.79 521.596 226.434 520.061 223.03C518.195 219.479 516.32 215.932 514.439 212.39C513.552 210.634 512.664 208.876 511.751 207.067C508.021 200.012 503.628 193.761 498.973 187.276C490.457 175.365 482.867 163.295 474.948 150.856C474.242 180.441 473.538 210.025 472.812 240.506C462.241 240.506 451.67 240.506 440.779 240.506C440.73 220.783 440.691 201.06 440.668 181.337C440.656 172.18 440.641 163.023 440.617 153.866C440.595 145.036 440.582 136.206 440.576 127.375C440.572 124 440.564 120.624 440.552 117.248C440.537 112.534 440.535 107.822 440.536 103.109C440.532 100.422 440.526 97.734 440.522 94.965C440.987 84.0709 446.67 86.301 456.394 86.0199Z" fill="#FEFEFE"/>
<path d="M30.75 86.8203C40.6159 86.8203 50.4828 86.8203 60.6478 86.8203C68.2832 94.9012 72.4721 100.816 77.7318 110.3C80.2712 114.426 82.8659 118.513 85.4637 122.603C87.9933 126.605 90.4633 130.639 92.9311 134.68C101.822 148.791 111.189 162.595 120.443 176.47C121.148 146.886 121.854 117.301 122.58 86.8203C132.446 86.8203 142.311 86.8203 152.478 86.8203C154.613 88.9548 154.613 88.9548 154.869 94.965C154.865 97.6525 154.86 100.34 154.855 103.109C154.855 104.588 154.855 106.066 154.856 107.589C154.854 112.498 154.838 117.406 154.822 122.316C154.817 125.71 154.814 129.105 154.812 132.5C154.804 141.451 154.783 150.403 154.759 159.354C154.737 168.482 154.727 177.611 154.717 186.739C154.694 204.661 154.658 222.584 154.613 240.506C149.431 240.699 144.256 240.84 139.072 240.953C137.608 241.012 136.143 241.072 134.635 241.134C127.821 241.244 123.564 241.202 117.913 237.205C114.52 232.771 112.163 228.337 109.766 223.297C107.739 219.606 105.704 215.921 103.66 212.24C102.606 210.266 101.554 208.291 100.469 206.256C94.0442 194.734 86.6223 183.855 79.3337 172.868C74.5769 165.604 69.8201 158.34 64.9191 150.856C64.2146 180.44 63.5091 210.025 62.7829 240.506C52.2126 240.506 41.6412 240.506 30.75 240.506C30.75 189.79 30.75 139.074 30.75 86.8203Z" fill="#FEFEFE"/>
<path d="M398.601 102.163C413.492 116.391 425.4 132.096 426.547 153.282C427.058 178.569 425.179 197.851 408.211 217.827C391.374 235.121 372.573 244.365 348.147 245.71C327.473 244.856 308.617 237.274 293.424 223.43C290.583 220.987 290.583 220.987 287.684 218.494C272.797 201.201 266.538 181.521 267.138 158.836C269.943 133.955 280.056 114.688 299.43 98.9608C330.637 77.1566 369.413 77.1754 398.601 102.163ZM312.069 129.103C303.741 139.644 300.485 151.844 298.896 164.998C300.899 180.437 304.487 191.975 316.915 202.085C330.42 212.002 341.004 214.171 357.491 212.757C370.683 210.324 377.928 203.919 386.438 193.831C395.867 179.922 395.765 165.002 393.796 148.722C389.477 136.282 382.894 127.703 371.639 120.84C350.613 110.929 329.217 112.716 312.069 129.103Z" fill="#FEFEFE"/>
<path d="M818.776 86.8203C829.343 86.8203 839.921 86.8203 850.802 86.8203C863.45 117.713 875.307 148.892 887.088 180.124C887.706 181.769 888.323 183.412 888.963 185.107C890.177 188.339 891.401 191.573 892.615 194.807C895.401 202.192 898.197 209.568 901.069 216.919C902.543 220.674 902.543 220.674 904.038 224.506C904.895 226.684 905.762 228.862 906.64 231.106C908.471 236.237 908.471 236.237 908.471 240.506C897.189 240.506 885.917 240.506 874.299 240.506C865.759 222.629 865.759 222.629 865.759 210.622C846.022 211.327 826.286 212.031 805.965 212.757C802.432 221.21 798.909 229.662 795.279 238.372C793.144 240.506 793.144 240.506 785.936 240.714C782.956 240.7 779.975 240.674 776.995 240.64C775.478 240.63 773.96 240.62 772.4 240.61C768.639 240.584 764.878 240.547 761.117 240.506C762.58 231.593 765.398 223.693 768.693 215.292C769.224 213.904 769.766 212.516 770.33 211.086C772.053 206.66 773.787 202.238 775.532 197.816C776.659 194.911 777.797 192.007 778.935 189.102C780.615 184.784 782.306 180.467 783.996 176.152C788.375 164.967 792.688 153.761 797.002 142.549C801.229 131.559 805.532 120.596 809.834 109.633C810.701 107.417 811.568 105.2 812.468 102.917C814.57 97.551 816.673 92.1856 818.776 86.8203ZM833.721 133.779C828.085 148.572 822.45 163.365 816.64 178.605C828.617 178.605 840.603 178.605 852.948 178.605C847.301 163.812 841.666 149.021 835.856 133.779C835.152 133.779 834.447 133.779 833.721 133.779Z" fill="#FEFEFE"/>
<path d="M1083.58 86.8203C1111.77 86.8203 1139.96 86.8203 1169.01 86.8203C1169.01 97.3862 1169.01 107.952 1169.01 118.839C1151.38 118.839 1133.77 118.839 1115.62 118.839C1115.62 126.587 1115.62 134.334 1115.62 142.318C1133.23 142.318 1150.85 142.318 1169.01 142.318C1169.01 152.883 1169.01 163.45 1169.01 174.335C1151.38 174.335 1133.77 174.335 1115.62 174.335C1115.62 185.607 1115.62 196.876 1115.62 208.488C1133.23 208.488 1150.85 208.488 1169.01 208.488C1169.01 219.054 1169.01 229.62 1169.01 240.506C1140.82 240.506 1112.63 240.506 1083.58 240.506C1083.58 189.79 1083.58 139.074 1083.58 86.8203Z" fill="#FEFEFE"/>
<path d="M175.967 86.8203C204.157 86.8203 232.346 86.8203 261.39 86.8203C261.39 97.3862 261.39 107.952 261.39 118.839C243.771 118.839 226.152 118.839 208.001 118.839C208.001 126.587 208.001 134.334 208.001 142.318C225.619 142.318 243.238 142.318 261.39 142.318C261.39 152.883 261.39 163.45 261.39 174.335C243.771 174.335 226.152 174.335 208.001 174.335C208.001 185.607 208.001 196.876 208.001 208.488C225.619 208.488 243.238 208.488 261.39 208.488C261.39 219.054 261.39 229.62 261.39 240.506C233.2 240.506 205.011 240.506 175.967 240.506C175.967 189.79 175.967 139.074 175.967 86.8203Z" fill="#FEFEFE"/>
<path d="M624.438 86.8206C635.006 86.8206 645.584 86.8206 656.465 86.8206C660.8 95.4714 664.268 102.97 667.336 111.968C668.127 114.281 668.918 116.594 669.731 118.977C670.966 122.607 670.966 122.607 672.223 126.309C673.925 131.285 675.627 136.26 677.328 141.234C678.152 143.622 678.965 146.009 679.81 148.469C684.015 160.693 688.383 172.851 692.772 185.008C701.952 163.865 709.626 142.331 717.169 120.571C718.697 116.186 720.225 111.805 721.764 107.424C722.653 104.848 723.552 102.273 724.474 99.6189C726.945 93.2242 726.945 93.2242 731.215 86.8206C738.173 86.1953 738.173 86.1953 746.432 86.4204C750.539 86.5071 750.539 86.5071 754.723 86.5955C756.836 86.6697 758.939 86.7441 761.117 86.8206C759.827 100.131 755.817 111.824 751.276 124.358C750.507 126.525 749.737 128.692 748.935 130.924C746.464 137.841 743.982 144.748 741.489 151.657C739.864 156.217 738.227 160.778 736.601 165.34C733.437 174.182 730.272 183.022 727.096 191.861C721.287 208.054 715.576 224.278 709.864 240.506C699.286 240.506 688.719 240.506 677.827 240.506C667.932 214.411 658.557 188.173 649.377 161.819C647.632 156.808 645.876 151.798 644.12 146.787C643.557 145.17 642.993 143.551 642.408 141.883C637.932 129.141 633.217 116.497 628.286 103.921C625.956 97.8648 624.438 93.3756 624.438 86.8206Z" fill="#FEFEFE"/>
<path d="M1173.28 86.8209C1201.58 84.2594 1201.58 84.2594 1209.22 89.4974C1212.07 94.141 1213.95 98.8372 1215.99 103.897C1218.19 108.152 1220.48 112.348 1222.79 116.549C1226.29 122.965 1229.68 129.441 1233.07 135.915C1236.55 129.334 1240.02 122.752 1243.49 116.171C1244.47 114.307 1245.45 112.445 1246.47 110.526C1247.89 107.822 1247.89 107.822 1249.34 105.064C1250.22 103.41 1251.08 101.756 1251.98 100.051C1254.27 95.6652 1256.49 91.2442 1258.7 86.8209C1269.27 86.8209 1279.85 86.8209 1290.73 86.8209C1288.8 98.4487 1285.93 105.2 1280.05 114.895C1255.14 157.98 1244.3 190.591 1248.03 240.507C1237.45 240.507 1226.88 240.507 1215.99 240.507C1215.94 235.595 1215.88 230.683 1215.83 225.623C1215.74 220.826 1215.64 216.029 1215.55 211.232C1215.49 207.918 1215.44 204.604 1215.42 201.29C1215.36 196.503 1215.26 191.72 1215.16 186.935C1215.16 185.471 1215.14 184.007 1215.14 182.5C1214.82 171.474 1211.11 164.161 1205.31 155.125C1200.46 146.092 1195.71 137.002 1190.98 127.904C1189.49 125.044 1188 122.187 1186.5 119.334C1184.31 115.184 1182.14 111.026 1179.99 106.865C1178.7 104.401 1177.41 101.936 1176.08 99.3967C1173.28 93.2245 1173.28 93.2245 1173.28 86.8209Z" fill="#FEFEFE"/>
<path d="M1000.29 86.8203C1010.87 86.8203 1021.44 86.8203 1032.33 86.8203C1032.33 127.675 1032.33 168.53 1032.33 210.622C1046.43 210.622 1060.52 210.622 1075.04 210.622C1075.04 220.484 1075.04 230.346 1075.04 240.506C1050.37 240.506 1025.71 240.506 1000.29 240.506C1000.29 189.79 1000.29 139.074 1000.29 86.8203Z" fill="#FEFEFE"/>
<path d="M919.146 86.8203C929.714 86.8203 940.291 86.8203 951.184 86.8203C951.184 127.675 951.184 168.53 951.184 210.622C964.569 210.622 977.954 210.622 991.751 210.622C991.751 220.484 991.751 230.346 991.751 240.506C967.798 240.506 943.836 240.506 919.146 240.506C919.146 189.79 919.146 139.074 919.146 86.8203Z" fill="#FEFEFE"/>
<path d="M946.903 281.063C961.144 290.115 968.416 301.075 972.535 317.35C975.028 331.098 970.963 343.868 963.995 355.771C951.91 369.211 940.465 375.573 922.561 377.05C908.59 377.218 896.333 372.915 885.971 363.459C875.534 352.564 870.43 340.238 869.823 325.121C870.874 309.878 876.401 297.221 887.64 286.799C905.848 272.533 926.126 271.069 946.903 281.063ZM890.404 301.824C883.706 313.325 882.861 325.72 884.974 338.694C888.735 349.529 894.555 356.003 904.732 361.241C916.567 365.662 926.571 364.932 938.319 360.623C948.539 355.616 953.655 349.012 957.589 338.694C960.96 325.819 959.497 317.289 954.121 305.126C948.366 295.631 940.313 290.96 929.822 287.466C914.183 285.849 900.917 289.379 890.404 301.824Z" fill="#FEFEFE"/>
<path d="M611.628 276.793C663.586 276.793 663.586 276.793 677.827 289.599C690.518 302.863 693.954 314.512 693.585 332.54C691.873 345.602 685.728 357.415 676.093 366.442C655.999 379.042 635.081 374.981 611.628 374.981C611.628 342.578 611.628 310.177 611.628 276.793ZM624.439 289.599C624.439 313.549 624.439 337.499 624.439 362.173C649.507 362.94 649.507 362.94 671.421 352.968C679.908 341.564 681.804 331.347 679.962 317.349C677.111 307.656 673.058 301.686 665.417 295.069C653.04 289.97 653.04 289.97 624.439 289.599Z" fill="#FEFEFE"/>
<path d="M457.861 276.793C462.09 276.793 466.318 276.793 470.675 276.793C470.717 278.946 470.759 281.1 470.803 283.319C470.965 291.324 471.155 299.328 471.352 307.331C471.433 310.793 471.508 314.253 471.575 317.715C471.673 322.696 471.796 327.676 471.925 332.658C471.95 334.2 471.975 335.745 472 337.334C472.229 345.171 472.614 351.317 477.081 357.905C482.797 362.348 485.874 362.165 493.231 361.907C500.441 360.696 500.441 360.696 504.171 356.693C508.046 349.527 507.961 342.818 507.997 334.867C508.03 333.273 508.064 331.679 508.097 330.037C508.199 324.963 508.258 319.889 508.314 314.814C508.392 309.717 508.478 304.62 508.575 299.522C508.634 296.353 508.679 293.184 508.712 290.016C508.878 279.164 508.878 279.164 511.25 276.793C514.808 276.707 518.37 276.702 521.928 276.793C522.087 287.502 522.203 298.211 522.28 308.92C522.313 312.56 522.356 316.2 522.411 319.839C522.489 325.085 522.525 330.329 522.553 335.575C522.587 337.19 522.619 338.806 522.654 340.469C522.658 353.154 519.793 361.929 510.85 371.379C500.43 377.627 491.48 377.746 479.884 375.781C470.342 371.822 464.691 366.521 459.463 357.638C455.796 348.475 455.612 340.9 455.984 331.198C456.035 329.644 456.084 328.089 456.137 326.488C456.3 321.528 456.48 316.571 456.66 311.612C456.774 308.249 456.887 304.884 456.997 301.52C457.273 293.277 457.563 285.035 457.861 276.793Z" fill="#FEFEFE"/>
<path d="M1087.85 276.794C1093.58 280.372 1098.58 284.304 1102.81 289.602C1102.81 291.715 1102.81 293.827 1102.81 296.004C1099.27 297.414 1095.75 298.823 1092.12 300.273C1090.24 298.468 1088.34 296.664 1086.39 294.804C1080.73 289.962 1080.73 289.962 1073.18 290.001C1071.67 290.574 1070.17 291.146 1068.64 291.735C1067.74 297.689 1067.74 297.689 1068.64 304.543C1072.08 308.794 1075.15 311.737 1079.31 315.216C1083.02 318.399 1086.71 321.602 1090.39 324.821C1092.23 326.384 1094.06 327.946 1095.96 329.556C1100.91 334.679 1102.99 338.293 1104.94 345.099C1104.7 358.149 1101.04 363.939 1092.12 372.847C1084.16 377.751 1078.4 377.669 1069.33 376.425C1060.96 373.993 1054.77 368.977 1049.41 362.175C1047.95 357.48 1047.95 357.48 1047.27 353.637C1050.81 352.228 1054.33 350.82 1057.96 349.368C1059.67 351.943 1059.67 351.943 1061.43 354.571C1067.52 361.137 1070.5 361.808 1079.31 362.175C1084.18 361.411 1084.18 361.411 1087.85 360.041C1089.18 347.996 1089.18 347.996 1083.85 337.761C1081.66 335.899 1079.43 334.083 1077.18 332.291C1073.46 329.115 1069.77 325.911 1066.1 322.687C1064.26 321.123 1062.43 319.561 1060.54 317.95C1053.42 310.604 1051.55 305.085 1051.55 294.937C1054.41 284.938 1058.06 282.647 1066.5 276.794C1073.58 273.256 1080.53 274.625 1087.85 276.794Z" fill="#FEFEFE"/>
<path d="M231.492 276.794C237.211 280.389 242.222 284.303 246.441 289.601C246.441 291.714 246.441 293.827 246.441 296.004C242.918 297.414 239.393 298.822 235.763 300.273C235.322 298.909 234.882 297.544 234.428 296.138C231.74 291.068 231.74 291.068 225.219 290.001C218.592 289.187 218.592 289.187 212.272 291.736C212.272 297.37 212.272 303.006 212.272 308.811C213.434 309.301 214.596 309.791 215.792 310.296C222.31 313.911 227.312 318.48 232.826 323.486C235.907 326.252 235.907 326.252 239.049 329.073C245.951 336.103 248.185 340.371 249.645 350.035C248.199 360.687 244.271 366.348 235.763 372.847C226.039 377.301 218.851 377.731 208.535 374.981C200.349 369.947 196.231 365.873 190.916 357.906C193.052 351.502 193.052 351.502 196.789 349.367C201.594 349.367 201.594 349.367 206.8 354.437C208.605 356.286 210.411 358.135 212.272 360.04C218.471 362.307 221.46 362.63 227.755 360.707C231.689 358.168 231.689 358.168 233.494 354.17C233.699 346.786 231.146 342.763 227.221 336.56C221.433 330.665 215.938 326.397 208.001 323.753C200.499 316.656 196.572 309.286 196.121 298.939C196.658 289.95 199.104 285.123 205.866 278.928C213.601 272.853 222.528 273.901 231.492 276.794Z" fill="#FEFEFE"/>
<path d="M336.802 276.51C339.098 276.506 341.394 276.504 343.759 276.501C346.176 276.51 348.593 276.518 351.084 276.526C353.5 276.518 355.917 276.51 358.408 276.501C360.704 276.504 363 276.506 365.365 276.51C368.549 276.513 368.549 276.513 371.797 276.517C376.71 276.793 376.71 276.793 378.846 278.928C378.846 282.45 378.846 285.971 378.846 289.6C371.798 289.6 364.751 289.6 357.49 289.6C357.49 317.776 357.49 345.952 357.49 374.981C353.262 374.981 349.034 374.981 344.677 374.981C344.677 346.806 344.677 318.63 344.677 289.6C337.629 289.6 330.582 289.6 323.321 289.6C323.321 275.311 323.974 276.524 336.802 276.51Z" fill="#FEFEFE"/>
<path d="M781.406 276.527C786.738 276.794 786.738 276.794 788.873 278.928C789.09 281.866 789.155 284.813 789.155 287.758C789.155 289.632 789.166 291.505 789.177 293.435C789.166 295.471 789.166 297.508 789.155 299.607C789.166 301.683 789.166 303.759 789.166 305.899C789.166 310.299 789.166 314.698 789.155 319.099C789.144 325.859 789.155 332.618 789.166 339.378C789.166 343.642 789.166 347.906 789.155 352.17C789.166 354.206 789.166 356.243 789.177 358.34C789.166 360.214 789.155 362.087 789.155 364.017C789.155 365.675 789.155 367.332 789.144 369.039C788.873 372.847 788.873 372.847 786.738 374.981C783.183 375.068 779.618 375.072 776.063 374.981C775.705 361.342 775.358 347.701 775.033 334.06C774.925 329.416 774.806 324.772 774.676 320.128C774.502 313.469 774.34 306.808 774.188 300.149C774.134 298.058 774.069 295.968 774.014 293.815C773.971 291.892 773.928 289.969 773.884 287.988C773.841 286.287 773.798 284.585 773.754 282.831C774.036 276.644 775.218 276.836 781.406 276.527Z" fill="#FEFEFE"/>
<path d="M1122.02 276.793C1136.97 276.793 1151.93 276.793 1166.87 276.793C1166.87 285.246 1166.87 293.698 1166.87 302.407C1159.12 302.407 1151.36 302.407 1143.37 302.407C1143.37 296.771 1143.37 291.137 1143.37 285.33C1141.26 285.33 1139.15 285.33 1136.97 285.33C1136.97 290.966 1136.97 296.601 1136.97 302.407C1134.15 302.407 1131.33 302.407 1128.43 302.407C1128.43 296.771 1128.43 291.137 1128.43 285.33C1126.32 285.33 1124.2 285.33 1122.02 285.33C1122.02 282.513 1122.02 279.696 1122.02 276.793Z" fill="#FEFEFE"/>
</svg>
