<svg width="1339" height="474" viewBox="0 0 1339 474" fill="none" xmlns="http://www.w3.org/2000/svg">
<path fill-rule="evenodd" clip-rule="evenodd" d="M1336.13 5.53516V436.01C1336.13 454.909 1320.84 470.181 1301.92 470.181H38.6066C19.6855 470.181 4.39575 454.909 4.39575 436.01V116.447C4.39575 97.548 19.6855 82.2762 38.6066 82.2762H1257.96L1329.25 5.53516H1336.13ZM261.264 232.705C261.264 272.411 231.258 301.428 190.931 301.428H162.645V353.734H110.278V164.363H191.123C231.258 164.363 261.264 192.998 261.264 232.705ZM207.559 232.896C207.559 219.342 198.576 209.988 184.816 209.988H162.645V255.803H184.816C198.576 255.803 207.559 246.449 207.559 232.896ZM332.935 154.818H282.479V353.734H332.935V154.818ZM520.235 207.506V353.543H481.246L476.85 343.235C464.809 352.97 449.711 358.507 432.701 358.507C387.978 358.507 356.061 325.863 356.061 280.429C356.061 235.186 387.978 202.925 432.701 202.925C449.902 202.925 465.383 208.651 477.423 218.578L482.583 207.315H520.235V207.506ZM472.263 280.62C472.263 261.721 458.311 247.404 439.581 247.404C420.66 247.404 406.899 261.721 406.899 280.62C406.899 299.71 420.851 314.027 439.581 314.027C458.502 314.027 472.263 299.71 472.263 280.62ZM650.58 353.734V309.827H631.276C620.573 309.827 614.266 303.528 614.266 293.028V246.449H649.815V207.697H613.12V164.936H602.799L537.244 234.614V246.449H564.001V301.619C564.001 334.072 583.687 353.734 615.987 353.734H650.58ZM674.088 207.697H724.544V353.734H674.088V207.697ZM674.47 146.61H724.162V189.371H674.47V146.61ZM841.702 358.697C886.424 358.697 918.341 326.054 918.341 280.62C918.341 235.186 886.424 202.925 841.51 202.925C824.118 202.925 808.637 209.033 796.597 219.342L790.29 207.697H756.079V406.422H805.962V348.962C816.282 355.261 828.514 358.697 841.702 358.697ZM835.012 247.213C853.742 247.213 867.694 261.339 867.694 280.62C867.694 299.901 853.551 314.027 835.012 314.027C816.282 314.027 802.33 299.901 802.33 280.62C802.33 261.53 816.091 247.213 835.012 247.213ZM939.556 290.929V207.506H990.012V288.638C990.012 304.101 998.23 313.073 1011.8 313.073C1025.18 313.073 1033.4 303.91 1033.4 288.638V207.506H1083.66V290.929C1083.66 331.781 1054.8 358.507 1011.61 358.507C968.415 358.507 939.556 331.972 939.556 290.929ZM1105.26 305.819C1105.83 337.508 1129.91 358.507 1169.86 358.507C1208.66 358.507 1234.46 338.462 1234.46 308.109C1234.46 271.438 1204.29 266.212 1181.24 262.221L1180.56 262.103L1179.97 261.996C1166.48 259.565 1155.52 257.591 1155.52 249.313C1155.52 242.631 1161.07 238.622 1169.09 238.622C1178.27 238.622 1184.57 243.013 1184.57 252.367H1231.78C1231.21 222.778 1207.13 202.925 1169.86 202.925C1132.4 202.925 1107.36 221.823 1107.36 251.031C1107.36 286.538 1137.37 293.41 1160.11 297.037C1174.06 299.328 1185.15 301.81 1185.15 310.209C1185.15 317.654 1178.27 321.472 1170.81 321.472C1161.26 321.472 1153.8 316.509 1153.8 305.819H1105.26Z" fill="white"/>
</svg>
