<svg width="1136" height="357" viewBox="0 0 1136 357" fill="none" xmlns="http://www.w3.org/2000/svg">
<path d="M303.681 197.429C303.278 192.175 301.661 187.392 300.246 182.339C299.774 182.205 299.235 182.003 298.696 182.003L297.348 182.744C297.146 186.112 297.348 189.48 297.011 192.848C296.876 194.735 297.011 196.621 296.742 198.574C296.1 208.482 294.176 218.263 291.015 227.676C290.071 230.64 288.523 233.267 287.781 236.298V234.749C287.556 235.728 287.218 236.677 286.771 237.577C283.873 243.102 280.572 248.356 276.394 252.869C274.239 255.025 271.342 256.642 268.511 257.585C267.569 258.056 266.693 257.18 266.491 256.305C266.693 255.092 267.434 253.947 267.972 252.802C271.813 244.988 276.058 237.106 279.09 228.955C282.458 220.332 284.48 211.441 287.108 202.683C287.377 201.74 287.377 200.865 287.377 199.989C286.703 199.787 285.962 199.383 285.288 199.585C282.862 200.124 280.64 201.471 278.349 202.077C277.675 202.279 277.203 201.74 276.664 201.404C276.664 198.911 277.675 196.89 278.281 194.599C279.898 189.143 281.785 183.821 283.401 178.365C284.547 174.929 285.558 171.427 286.771 167.992C287.175 166.981 287.377 165.97 287.579 164.892C285.288 168.261 282.66 171.494 280.842 174.997L276.866 182.003C275.653 184.159 274.374 186.112 273.498 188.469L273.296 188.2C272.622 190.76 271.342 193.117 270.398 195.61C269.724 197.564 268.714 199.517 267.972 201.538C267.77 202.413 268.511 202.818 268.983 203.492C270.6 205.041 271.679 207.264 271.813 209.554C272.083 213.529 270.466 217.503 268.646 221.007C267.569 223.028 265.952 224.644 264.604 226.53C261.706 230.684 259.499 235.279 258.069 240.138C257.395 242.361 256.586 244.516 256.047 246.672C255.617 247.045 255.112 247.32 254.565 247.48C254.093 247.278 253.622 246.941 253.218 246.672C253.083 243.708 253.419 240.677 253.891 237.713C254.295 234.075 254.902 230.303 256.115 226.935C256.789 224.712 258.743 223.499 259.484 221.343C260.629 218.042 260.561 214.405 260.023 210.902C259.682 209.166 259.043 207.502 258.136 205.984C256.789 204.031 254.363 203.761 253.083 201.942C252.544 201.201 251.938 200.258 252.14 199.315C252.41 197.765 253.016 196.486 253.689 195.071C253.241 194.511 252.72 194.013 252.14 193.589C250.264 192.373 248.331 191.249 246.345 190.221C242.572 188.066 238.733 185.843 234.892 183.754C234.016 183.216 233.005 182.744 232.196 182.003C232.062 181.329 232.196 180.521 232.196 179.847C237.857 178.365 244.392 180.386 249.31 183.216C251.331 184.361 252.949 185.775 255.104 186.314C258.002 187.123 261.37 186.044 263.391 183.889C264.889 181.933 265.821 179.602 266.087 177.152C266.289 176.277 265.682 175.604 264.874 175.401C262.178 174.66 259.484 174.054 256.856 173.178C255.306 172.572 253.756 171.831 253.285 170.012C253.151 169.136 253.419 167.722 254.498 167.789C257.395 167.654 260.225 168.058 263.257 167.251C264.043 166.987 264.767 166.564 265.381 166.008C265.995 165.451 266.488 164.773 266.828 164.017C267.502 162.535 268.04 160.851 268.444 159.301C268.579 158.628 268.107 158.089 267.838 157.482C266.424 157.482 265.143 157.819 263.796 158.291C262.313 158.762 261.1 158.223 259.754 157.482L259.214 155.798C260.561 154.249 262.111 152.969 263.257 151.352C266.123 147.411 268.5 143.136 270.331 138.62C272.352 133.77 274.374 128.719 275.855 123.598C277.657 118.376 278.767 112.941 279.157 107.431C280.64 108.845 281.92 110.463 282.795 112.281C283.738 114.302 284.412 116.66 284.884 118.883C288.253 117.805 292.026 116.525 294.788 114.168C297.483 111.675 297.82 107.633 297.281 104.265C296.136 104.938 294.923 105.613 293.71 106.151C292.16 106.825 290.88 107.836 289.197 108.24C289.735 106.69 290.408 105.208 291.284 103.861C292.16 102.446 293.576 101.369 294.788 100.156C297.956 96.8509 300.37 92.8972 301.863 88.5694C303.345 83.989 304.153 79.1381 304.355 74.4235C304.625 71.7289 304.759 68.6972 303.615 66.2046C303.023 64.7684 302.087 63.5012 300.888 62.5135C299.689 61.5268 298.265 60.8504 296.742 60.5461C294.239 60.0955 291.659 60.4008 289.33 61.4223C282.256 64.5883 275.182 67.9562 267.77 70.1116C258.675 72.4023 249.445 74.5577 240.147 75.5007C236.644 75.7026 232.735 76.5112 229.435 75.9055C221.914 73.9401 214.256 72.5446 206.527 71.7289C201.383 71.1232 196.21 70.786 191.03 70.7184C187.662 70.5165 184.36 70.3136 181.059 70.5831C178.027 70.8527 174.995 70.6507 171.964 70.9203C165.226 71.3241 158.624 72.0651 152.021 73.0757C148.247 73.6148 144.542 74.6254 140.701 75.0968C138.141 75.5007 135.716 75.3664 133.088 75.433C128.035 75.5683 122.915 74.8273 117.861 74.0863C104.249 71.4136 91.0133 67.0929 78.4472 61.2194C76.6278 60.4118 74.6736 59.4012 72.7205 58.9964C70.0251 58.6602 67.3297 58.6602 64.9049 60.1422C63.1529 61.3547 61.5357 63.2406 60.8618 65.3293C59.8511 68.2258 60.188 71.3918 60.5249 74.4235C60.8618 81.0916 62.5465 88.0303 66.1842 93.6889C67.6667 96.1815 69.5534 98.135 71.575 100.089C73.5281 101.706 74.6063 104.4 75.617 106.69C72.6531 105.815 70.2947 103.794 67.3298 102.918C66.9928 104.804 67.2624 106.69 67.5993 108.577C68.2731 111.473 70.699 113.696 73.3259 114.774C75.3475 115.716 77.5038 116.66 79.7275 117.334C80.4003 115.784 80.9394 114.235 81.8828 112.82C82.7588 111.338 83.9043 110.126 85.0498 108.779C85.2877 108.772 85.5205 108.702 85.7237 108.577C86.2627 115.448 88.3507 121.645 90.4396 128.112C91.3156 130.672 92.4611 132.962 92.9328 135.656V133.77C93.4045 136.465 94.6164 138.822 95.762 141.315C97.5813 145.155 99.4681 148.793 102.162 152.093C103.241 153.305 104.454 154.384 105.532 155.462C105.532 156 105.532 156.405 105.397 156.876C104.92 157.503 104.271 157.977 103.53 158.241C102.788 158.504 101.985 158.544 101.22 158.358C99.7376 157.953 98.3899 157.415 96.7727 157.55C95.8967 159.571 97.3118 162.063 97.9856 163.882C98.7942 165.903 100.546 167.048 102.567 167.452C105.262 167.992 107.958 167.722 110.787 167.856L111.595 168.733C111.528 169.406 111.595 170.349 111.191 170.956C110.18 172.438 108.564 172.976 106.947 173.515C104.319 174.323 101.691 174.929 99.0638 175.67C98.7942 176.479 98.5247 177.22 98.7943 178.029C99.2659 180.116 100.075 182.475 101.49 184.091C103.578 186.112 106.677 187.123 109.574 186.448C112.337 185.505 114.425 183.687 117.187 182.339C120.463 180.672 124.034 179.665 127.698 179.375C129.518 179.241 131.201 179.375 132.886 180.116C132.751 181.059 132.886 181.868 131.942 182.475C129.113 184.293 126.081 185.843 123.184 187.527C119.276 189.884 115.301 191.905 111.461 194.263C111.461 195.408 111.461 196.149 112.067 197.092C112.808 198.776 113.078 200.595 111.73 202.01C110.248 203.896 107.89 204.098 106.677 206.052C104.925 208.746 104.656 211.777 104.319 214.943C104.184 217.166 104.656 219.525 105.464 221.68C106.071 223.432 107.621 224.374 108.294 226.194C110.18 230.64 110.719 235.826 111.258 240.542C111.595 242.697 111.663 244.853 111.595 247.009C110.989 247.211 110.248 247.75 109.574 247.48C108.766 247.143 108.699 246.132 108.294 245.459C106.206 238.588 104.049 231.245 99.5355 225.655C96.9689 222.806 95.0188 219.457 93.8088 215.819C93.0676 213.125 92.4611 210.43 93.3371 207.736C93.9436 205.58 95.2903 204.031 96.7727 202.549C96.7727 200.326 95.5598 198.844 94.8186 196.89C93.4719 193.455 92.1242 189.951 90.4396 186.651C90.1096 185.925 89.8173 185.183 89.5636 184.428L89.2941 184.764L88.2833 182.677L83.5674 174.525C81.8154 171.359 79.5253 168.395 77.5038 165.364C77.7059 167.587 78.4472 169.406 79.121 171.427L86.3301 194.196C86.8692 196.553 87.9464 198.844 88.3507 201.201L87.2051 202.413C84.4434 201.808 81.8154 200.258 79.0536 199.652C77.5712 199.45 77.1669 200.999 77.5038 202.145C79.5253 209.487 81.5459 216.897 83.9043 224.105C87.1388 234.142 91.8546 243.034 96.5032 252.398C97.1096 253.678 97.8509 254.89 98.1878 256.171C98.4573 256.978 97.514 257.517 97.0423 257.989C94.6095 257.182 92.2976 256.049 90.17 254.621C88.6876 253.61 87.6768 252.263 86.5323 250.916C81.2565 244.424 77.1114 237.091 74.2693 229.224C71.7038 222.188 69.9191 214.892 68.947 207.466C68.3405 204.098 68.2731 200.595 67.8014 197.16C67.6667 192.444 67.7341 187.728 67.3298 183.013C66.7233 182.07 65.3092 181.936 64.6354 182.811C63.9615 183.821 63.7594 185.034 63.4224 186.18C61.94 190.894 61.1314 195.61 60.7271 200.595C60.0532 206.523 58.9751 212.586 59.5142 218.514C59.8511 221.208 59.9185 223.835 60.5249 226.463C60.9292 228.483 60.9966 230.572 61.8052 232.458C62.4791 233.94 63.3551 235.288 64.2984 236.635C67.6667 242.024 71.1706 247.278 74.5389 252.735C79.9296 260.953 85.1172 269.238 90.5744 277.457C91.1134 277.457 91.6525 277.457 92.1242 277.322L93.135 276.245C94.4817 276.109 96.0989 275.638 97.5139 275.773C98.7943 277.525 99.5355 279.748 100.546 281.634C102.769 285.945 104.723 290.391 107.284 294.567C107.621 295.578 109.641 295.51 109.978 294.702C110.315 293.085 110.18 291.334 110.18 289.65V277.457C110.45 275.436 110.18 273.011 111.528 271.395C113.145 269.508 116.648 269.441 118.4 271.259C119.748 273.281 119.68 275.571 119.68 277.861C119.748 281.498 119.411 285.137 120.085 288.707C120.893 288.909 121.567 289.246 122.376 288.707C126.148 286.551 129.315 283.857 133.56 282.375C137.793 280.785 142.324 280.142 146.832 280.489C150.336 280.96 153.57 282.644 156.737 284.059C155.322 282.914 154.041 281.634 152.424 280.691C147.124 277.644 140.869 276.706 134.907 278.063C132.886 278.468 130.932 278.468 128.978 278.4C128.642 277.996 128.17 277.591 127.968 277.053C128.17 275.773 128.776 274.493 129.181 273.281C130.527 269.104 131.605 264.726 132.212 260.414C132.549 258.258 132.481 256.103 132.751 253.947C132.953 252.196 132.549 250.444 132.481 248.558C132.263 245.412 131.331 242.358 129.754 239.626C128.179 236.895 126.001 234.559 123.386 232.795C122.443 232.121 120.893 231.649 120.691 230.37C119.285 225.53 118.537 220.522 118.467 215.482C118.609 208 121.711 200.879 127.092 195.678C129.623 193.348 132.375 191.272 135.312 189.48C135.985 189.143 136.322 189.346 136.794 189.817C141.51 194.667 145.282 201.067 150.404 205.378L150.606 206.052C147.237 206.995 143.936 206.186 140.903 204.772C137.804 203.222 135.177 200.73 132.481 198.709C131.134 197.631 129.989 196.553 128.305 196.015C128.776 199.517 130.662 202.751 133.021 205.378C137.266 209.757 143.868 212.114 148.517 216.089C149.123 216.493 148.854 217.032 148.989 217.638C147.237 217.369 145.619 216.964 143.868 216.493L130.461 213.125C129.486 212.945 128.536 212.651 127.631 212.249C127.496 212.249 127.294 212.384 127.226 212.518C128.372 214.068 129.248 215.752 130.864 216.964C133.56 218.985 137.266 219.996 140.567 220.332C142.588 220.602 144.475 221.007 146.428 221.343C148.45 221.748 150.134 222.69 151.819 223.701C150.875 224.981 148.854 225.385 147.439 225.924C142.521 227.406 138.006 225.924 133.155 225.385C131.538 224.981 130.057 225.924 128.574 226.396C128.69 227.31 129.012 228.185 129.518 228.955C130.999 230.976 133.021 231.852 135.109 232.997C139.354 235.624 145.013 237.106 149.797 235.557C158.556 232.862 166.977 229.629 175.601 226.328C177.96 225.519 179.645 223.633 179.981 221.141C180.251 218.446 179.981 215.55 180.116 212.788C180.251 210.767 179.779 208.881 178.499 207.399C177.219 205.917 175.601 205.378 173.782 204.772C165.724 202.377 158.671 197.407 153.705 190.625C152.057 188.206 150.849 185.515 150.134 182.677C149.827 181.568 149.874 180.39 150.269 179.309C151.078 177.086 151.617 174.727 151.819 172.438C151.819 169.204 150.875 166.24 150.134 163.276C149.73 161.726 149.662 159.908 148.786 158.762C147.708 157.348 146.765 155.933 145.619 154.653C144.407 153.305 142.588 152.632 140.971 151.959C138.073 150.477 135.042 149.6 131.942 148.591C124.905 145.921 118.795 141.264 114.358 135.185C111.258 131.144 108.631 126.63 106.34 121.982C105.666 120.634 105.127 119.152 104.993 117.603C104.656 115.313 104.993 113.022 104.454 110.665L104.925 109.789H106.542C107.89 112.349 109.102 114.909 110.382 117.536C111.393 119.893 113.752 122.049 116.311 122.521C117.187 122.79 118.063 122.79 119.007 122.79C125.205 122.992 131.134 123.262 136.996 125.687C140.769 127.237 143.936 129.863 146.563 133.029C148.719 135.724 149.932 138.822 151.819 141.786C153.435 144.347 155.457 146.772 157.815 148.793C159.431 150.275 161.318 151.218 163.205 152.296C163.676 148.927 162.127 144.886 161.79 141.584C163.137 141.045 164.013 140.372 164.957 139.361C164.889 138.351 164.957 137.34 164.418 136.533C163.07 133.838 160.644 131.885 158.624 129.728L150.538 121.039L150.336 120.23C153.57 119.018 156.872 117.671 159.364 115.245C151.819 115.043 144.273 115.245 136.727 115.111C137.064 114.437 137.131 114.168 137.939 114.033C140.634 113.561 143.329 112.618 145.956 111.809C149.326 110.53 153.165 109.52 156.198 107.566C154.85 106.286 153.3 105.747 151.617 105.141C147.46 103.928 143.145 103.337 138.815 103.39C132.953 103.659 126.89 104.063 121.095 102.918L121.635 101.571C124.127 100.695 126.755 100.224 129.315 99.5494C134.773 98.2026 140.23 96.653 145.687 95.1709C151.078 93.4194 156.467 91.3316 161.655 89.0409C162.598 88.6371 163.339 88.098 164.081 87.4246C157.545 87.2893 151.01 87.4246 144.542 87.3569C141.51 87.3569 138.478 87.4246 135.581 87.2893C136.255 86.1445 137.603 85.8749 138.747 85.2682C144.273 82.3717 149.46 79.5429 155.524 77.9933C159.398 77.1796 163.373 76.9529 167.314 77.3199C174.793 77.4542 182.339 77.5218 189.75 77.3875C193.119 77.3875 196.353 76.9151 199.655 77.0503C206.293 77.1448 212.827 78.7094 218.789 81.6307C222.023 82.9785 225.189 84.7301 228.356 86.2121C228.963 86.414 229.165 86.8178 229.502 87.2893C219.867 87.4912 210.232 87.2893 200.598 87.4246C201.339 87.9627 202.08 88.4351 202.888 88.7713C207.605 91.062 212.658 92.8136 217.643 94.6318C223.708 96.653 229.906 97.8655 236.037 99.819C238.53 100.492 240.888 101.571 243.381 102.042C238.328 103.726 233.409 103.254 228.154 103.39C225.392 103.254 222.63 103.659 219.8 103.928C215.758 104.4 211.647 105.679 208.144 107.903V108.644C209.694 109.924 211.175 111.136 213.062 111.809C217.913 113.629 222.36 112.888 227.413 114.168L229.704 114.841C223.977 114.975 218.25 114.841 212.59 114.841C210.367 114.909 208.279 114.707 206.123 115.111C206.123 115.38 206.257 115.582 206.325 115.852C208.683 117.738 211.378 119.085 214.073 120.23C214.073 122.049 212.86 122.588 211.849 123.801C209.828 126.158 207.47 128.314 205.449 130.739C203.966 132.49 202.08 134.04 200.8 135.926C199.992 137.206 199.789 138.958 200.8 140.102C201.474 140.776 202.417 141.248 203.158 141.854C202.686 145.222 201.137 148.995 201.744 152.363C204.64 150.341 207.875 148.119 210.165 145.357C212.725 142.527 214.747 139.159 216.499 135.724C218.654 131.817 221.821 128.516 225.796 126.562C231.559 123.926 237.855 122.658 244.19 122.857C247.086 122.857 250.051 122.386 252.275 120.432C253.689 119.287 254.498 117.873 255.104 116.121C256.115 113.561 257.26 111.068 259.012 108.913C259.417 110.867 260.09 112.618 260.023 114.639C260.09 118.075 259.012 121.107 257.462 124.137C254.318 131.5 249.272 137.893 242.842 142.663C237.857 146.434 232.062 149.197 226.267 151.352C224.045 152.093 221.552 152.7 219.665 154.046C217.374 155.798 215.488 158.426 215.016 161.322C214.545 164.421 213.399 167.52 213.062 170.618C212.793 172.909 213.264 175.065 213.736 177.354V176.816C214.073 178.029 214.545 179.241 214.949 180.386C215.825 182.475 215.488 184.966 214.41 186.853C213.264 188.739 211.714 190.491 210.165 192.107C205.853 196.823 200.733 201.067 194.871 203.829C192.85 204.839 190.828 205.176 189.144 206.523C187.864 207.601 186.584 208.813 186.382 210.565C185.978 213.193 186.18 215.887 186.112 218.514C186.112 220.13 185.91 221.882 186.786 223.364C187.599 224.858 188.946 225.989 190.559 226.53C197.701 229.224 204.91 232.054 212.119 234.613C213.938 235.288 215.758 236.163 217.643 236.5C219.463 236.77 221.552 236.836 223.236 236.163C226.876 234.619 230.333 232.677 233.544 230.37C235.161 229.224 236.374 227.676 236.509 225.587C233.948 225.587 231.523 224.914 228.895 224.846C225.728 224.509 222.832 224.173 220.069 222.421C220.945 221.343 222.225 221.343 223.438 221.073C227.48 220.198 231.254 219.726 234.42 216.762C235.566 215.482 236.913 214.405 236.846 212.518C230.243 214.27 223.64 215.752 217.038 217.571L216.162 217.1V216.089C217.239 215.28 218.182 214.472 219.328 213.798C222.562 211.643 226.807 209.891 229.906 207.264C231.321 205.917 233.005 204.502 233.814 202.683C234.892 200.663 235.363 198.642 235.229 196.419C231.59 198.642 228.895 202.01 225.122 204.165C222.899 205.513 220.406 206.186 217.913 206.388C216.566 206.456 215.016 206.052 213.736 205.715C218.924 201.672 223.843 197.429 228.963 193.387C229.974 192.646 230.58 191.771 231.859 191.501C237.513 196.171 241.623 202.44 243.651 209.487C245.425 216.598 245.518 224.025 243.92 231.178C241.899 232.458 239.877 233.67 238.126 235.422C234.555 238.925 232.735 244.112 232.196 249.03C231.654 257.236 232.801 265.467 235.566 273.213C235.97 274.561 236.576 275.907 236.711 277.255L235.498 278.534C233.409 278.534 231.321 278.535 229.3 277.996C227.316 277.463 225.285 277.125 223.236 276.986C220.583 277.011 217.962 277.56 215.523 278.6C213.084 279.64 210.873 281.151 209.02 283.048C212.658 280.555 218.048 280.555 222.293 280.825C226.47 281.432 231.187 281.701 234.824 283.924C237.587 285.608 240.281 287.427 242.909 289.178L244.729 288.707C245.268 286.012 244.931 282.98 245.066 280.152C245.133 277.255 244.661 274.493 246.076 271.799C247.76 269.172 252.342 269.441 253.824 272.068C254.565 274.359 254.632 276.986 254.632 279.411V292.749C254.565 293.624 254.767 294.365 255.037 295.174L257.058 295.308C258.878 292.614 260.225 289.515 261.774 286.619C263.593 283.048 265.278 279.275 267.165 275.638L271.409 276.177L272.555 277.389C273.094 277.389 273.7 277.389 274.239 277.188C275.114 276.109 275.788 274.897 276.597 273.752L289.937 252.937C293.98 246.47 298.291 240.138 302.267 233.603C303.48 231.785 303.48 229.831 303.883 227.742C304.692 223.499 305.231 219.255 305.231 214.943C305.298 209.15 304.018 203.29 303.615 197.429H303.681ZM117.052 81.025C111.528 81.025 106.34 77.859 100.614 77.859C98.4573 77.859 95.9641 77.6561 93.8762 78.3305C92.4611 78.8019 91.046 79.2058 89.9679 80.3506C94.0109 82.1698 97.8509 84.0557 101.826 85.8073C103.578 86.6836 105.33 87.5589 107.216 88.2999C106.408 88.2999 105.599 88.2999 104.79 88.098L96.2336 85.9425C96.638 89.1762 96.5706 92.4088 96.7053 95.6424C97.0423 98.2026 97.1096 100.762 97.5813 103.322C99.9606 120.137 107.357 135.843 118.804 148.388C121.095 150.814 123.722 153.104 126.553 154.99C123.52 153.643 120.691 152.093 117.794 150.477L119.748 151.285C116.949 149.723 114.386 147.772 112.134 145.491C106.131 139.305 101.434 131.974 98.3226 123.935C95.8293 117.873 93.8762 111.608 91.5851 105.478C90.5743 102.918 88.8897 101.099 87.6094 98.7417C86.4758 96.5973 85.573 94.3394 84.9151 92.005C83.9043 89.0409 83.5674 86.1445 83.7021 83.0451C83.8369 80.0144 85.3868 77.2523 87.9464 75.6359C91.1352 73.8794 94.7561 73.0618 98.3899 73.2776C101.085 73.2776 103.443 74.2206 106.003 74.8273C109.978 75.7702 113.886 76.6465 117.794 77.7237C120.691 78.2628 123.386 79.2058 126.283 79.6096C123.252 80.8231 120.219 80.9573 116.985 80.9573L117.052 81.025ZM242.64 152.632C244.998 151.285 247.154 149.6 249.04 147.58C251.736 145.02 254.026 142.191 255.778 139.025C256.789 137.138 257.462 135.185 258.406 133.299C262.245 124.648 264.788 115.477 265.952 106.084L267.3 92.4764C267.569 90.4553 267.703 88.5018 267.703 86.414L265.008 87.3569C262.381 88.3675 259.754 89.1762 257.193 90.321L261.168 87.155C264.132 84.932 267.502 83.248 271.005 81.9679C272.555 81.4964 274.104 81.2269 275.586 80.4859C273.189 79.5837 270.705 78.9292 268.175 78.5324C262.987 77.7914 257.395 79.4077 252.207 80.1487C247.491 81.025 242.842 81.6984 238.194 80.4859C240.753 79.2734 243.381 79.0038 246.21 78.2628C251.129 76.9827 256.182 75.7702 261.168 74.6254C262.785 74.2206 264.604 73.5472 266.289 73.4795C268.579 73.3453 270.87 73.6824 273.161 73.952C275.855 74.6254 278.551 75.7026 280.168 78.1285C281.65 80.0144 281.92 82.3051 282.054 84.7301C281.775 89.2607 280.633 93.6969 278.686 97.7978C277.81 99.819 276.529 101.772 275.586 103.861C273.296 110.126 271.139 116.458 268.309 122.588C264.287 132.582 257.88 141.439 249.647 148.388C247.356 150.275 244.729 151.555 242.303 153.305C241.36 153.98 240.147 154.384 238.934 154.653C240.147 153.98 241.36 153.171 242.707 152.632H242.64ZM135.851 134.444C138.545 135.454 140.903 137.138 142.588 139.563C142.251 140.776 141.914 141.854 141.24 142.865C140.095 144.347 138.545 145.896 136.794 146.368C134.773 147.041 132.481 145.829 130.999 144.549C129.315 143.202 128.844 140.776 128.642 138.756C128.642 136.667 128.237 134.713 129.45 132.895C131.808 132.49 133.627 133.569 135.851 134.376V134.444ZM233.072 133.569C233.477 133.569 234.353 133.433 234.622 133.838C234.824 135.051 234.892 136.397 235.026 137.61C235.229 139.901 234.285 142.527 232.668 144.077C231.321 145.29 229.637 146.368 227.817 146.906C227.151 147.046 226.465 147.04 225.802 146.889C225.139 146.738 224.516 146.444 223.977 146.031C223.147 145.173 222.517 144.143 222.132 143.013C221.749 141.883 221.619 140.682 221.754 139.497C223.438 137.476 225.391 135.724 227.75 134.511C229.367 133.838 231.254 133.569 233.072 133.569ZM161.655 174.525C162.059 176.681 162.329 178.836 163.946 180.454C166.64 182.744 169.807 183.485 173.177 183.957C175.669 184.361 178.027 184.361 180.521 184.428C186.423 184.736 192.337 184.099 198.037 182.541C199.924 181.8 201.744 180.318 202.62 178.365C203.023 177.354 203.09 176.209 203.495 175.199L204.371 174.997C205.314 176.479 206.19 178.163 206.931 179.78C207.605 181.059 207.605 182.609 207.403 183.957C207.066 185.439 205.651 186.651 204.438 187.392C202.552 188.605 199.789 188.403 197.701 188.469C195.746 188.469 193.861 188.739 191.906 188.874H171.896C169.47 188.874 167.112 188.469 164.62 188.2C162.8 187.864 160.577 187.392 159.364 185.977C158.017 184.091 157.815 181.396 158.017 179.241C158.421 177.288 160.375 175.738 161.79 174.525H161.655ZM184.697 241.754C186.517 241.754 188.268 241.956 190.087 242.091C196.083 242.495 202.215 243.708 207.875 245.796C211.243 247.076 214.342 248.895 217.306 250.916C224.794 256.652 230.172 264.706 232.601 273.82C229.637 271.799 227.009 269.441 224.313 267.083C223.024 265.98 221.521 265.154 219.899 264.656C218.275 264.158 216.568 263.997 214.882 264.186C214.41 264.726 213.803 265.265 213.736 265.938C213.13 267.959 213.871 270.249 213.871 272.404C208.009 277.525 200.396 279.95 192.715 279.814C190.087 279.748 187.191 280.219 185.034 278.602C183.215 277.457 182.945 275.166 182.811 273.213C182.676 274.965 181.665 276.447 180.453 277.727C177.893 279.748 174.658 280.421 171.357 280.555C166.628 280.501 161.948 279.588 157.545 277.861C155.12 277.053 152.963 275.706 150.673 274.695C149.865 272 150.538 268.902 150.269 266.072C150.471 264.792 148.786 264.186 147.843 263.917C145.148 263.985 142.723 265.265 140.567 266.611C138.208 268.161 136.861 270.249 135.042 272.202C134.619 272.684 134.052 273.014 133.425 273.145C133.897 268.431 135.446 264.254 138.006 260.347C143.038 253.178 150.28 247.854 158.624 245.19C163.59 243.422 168.787 242.378 174.052 242.091C177.556 241.62 181.06 241.822 184.697 241.754Z" fill="white"/>
<path d="M885.081 138.394C875.479 130.875 863.379 127.026 851.062 127.568C843.618 127.276 836.19 128.43 829.212 130.966C822.234 133.5 815.847 137.363 810.424 142.33C801.884 150.985 796.591 162.185 795.399 174.124C794.17 183.965 795.343 193.95 798.825 203.268C801.018 208.869 804.294 214.008 808.478 218.408C810.502 220.452 812.449 222.496 814.706 224.236C822.763 230.122 832.318 233.76 842.341 234.759C846.234 235.062 850.13 235.591 854.015 235.062C864.628 234.787 874.914 231.41 883.525 225.372C893.236 218.033 899.876 207.515 902.204 195.773C903.295 188.961 904.157 182.223 903.76 175.335H850.517C850.051 179.271 850.279 183.057 850.279 186.841C850.279 190.096 849.972 193.2 850.675 196.303L869.275 196.228C870.445 196.53 872.159 195.773 872.387 197.288C871.376 201.679 869.434 206.524 865.54 209.097C861.338 212.503 855.65 213.487 850.437 213.639C844.894 213.764 839.486 211.965 835.18 208.567C830.276 205.161 827.318 200.24 825.293 194.941C821.992 185.608 822.353 175.418 826.305 166.327C828.485 161.936 831.521 157.394 835.802 154.593C838.82 152.42 842.322 150.973 846.024 150.366C849.724 149.761 853.519 150.014 857.107 151.106C860.684 152.199 863.954 154.098 866.639 156.652C869.325 159.205 871.346 162.338 872.546 165.796C876.44 165.04 879.631 163.299 883.208 161.785C888.351 159.59 893.563 157.999 898.469 155.351L894.188 148.537C891.928 144.753 888.43 141.421 885.081 138.394Z" fill="white"/>
<path d="M513.437 130.751C499.658 130.6 485.956 130.751 472.178 130.6V130.751C470.153 130.751 468.13 130.902 466.105 131.357V228.403C466.148 229.685 466.357 230.957 466.728 232.189H512.658C516.94 232.113 521.222 232.34 525.425 231.961V209.781H493.508C493.508 203.877 493.119 197.82 493.741 191.916C495.451 192.295 497.205 192.448 498.957 192.371C507.287 192.295 515.539 192.446 523.869 192.295C523.869 185.027 524.024 177.836 523.869 170.644C522.934 169.736 521.844 170.039 520.754 169.887C511.568 169.887 502.539 170.114 493.508 169.887L493.43 153.536C496.933 153.082 500.436 153.082 504.017 153.082L525.503 153.006C525.425 145.664 525.347 138.321 525.503 130.902C521.455 130.751 517.485 131.053 513.437 130.751Z" fill="white"/>
<path d="M681.12 130.673C678.784 130.673 675.982 130.37 673.803 131.127H673.725C673.569 138.395 673.803 145.662 673.725 152.853C681.12 153.308 688.749 152.475 696.145 153.383C695.989 179.5 696.145 205.54 695.989 231.581C697.235 231.808 698.558 232.111 699.96 232.111C707.511 232.111 715.218 231.959 722.769 232.111C723.547 228.78 723.158 225.449 723.158 222.042V153.155C730.709 152.853 738.26 153.232 745.734 153.004V131.051C741.062 130.976 736.392 130.598 731.721 130.673H681.12Z" fill="white"/>
<path d="M782.322 131.05C779.208 130.672 776.094 130.596 772.981 130.672V130.596C766.908 130.672 761.148 130.217 755.231 131.05V229.838C755.309 230.747 755.075 232.109 756.399 232.109C764.962 232.261 773.525 232.033 782.089 232.261C782.711 229.081 782.478 225.902 782.478 222.798V143.465C782.478 139.377 782.634 135.213 782.322 131.05Z" fill="white"/>
<path d="M966.745 130.675H929.139C924.858 130.675 920.577 130.448 916.455 130.978V231.658C920.19 232.34 923.847 232.113 927.662 232.113H971.799C973.206 232.113 974.375 231.734 975.693 231.507L975.614 209.705L953.744 209.63C950.157 209.554 946.738 210.008 943.151 209.251C943.309 203.726 943.309 198.124 943.151 192.673C946.738 191.992 950.087 192.295 953.744 192.218H973.751V170.039C963.554 169.661 953.427 170.039 943.23 169.887C943.23 164.437 943.309 158.911 943.151 153.461C947.749 152.704 952.03 153.082 956.618 153.006C963.009 153.006 969.312 153.157 975.693 152.931V131.129C972.74 130.902 969.777 130.675 966.745 130.675Z" fill="white"/>
<path fill-rule="evenodd" clip-rule="evenodd" d="M432.163 197.82L427.104 191.765V190.326C433.253 189.342 438.781 186.163 442.673 181.242C446.643 176.019 449.134 169.66 448.9 163.074C449.31 159.243 448.935 155.372 447.799 151.683C446.664 147.993 444.789 144.558 442.284 141.575C436.652 135.837 429.134 132.196 421.031 131.281C412.161 130.562 403.374 130.61 394.518 130.659C391.25 130.677 387.972 130.695 384.677 130.675C383.379 130.675 382.082 130.658 380.785 130.641C378.189 130.607 375.594 130.574 373 130.675C371.929 132.393 372.183 134.792 372.422 137.033C372.53 138.05 372.634 139.036 372.61 139.91V219.924C372.571 220.945 372.501 221.949 372.432 222.947C372.229 225.875 372.03 228.742 372.61 231.734C375.551 232.098 378.455 232.069 381.398 232.04C382.74 232.026 384.09 232.013 385.455 232.036H396.977C398.222 232.036 399.468 232.036 399.312 230.447C399.459 224.638 399.45 218.812 399.44 212.986C399.429 206.511 399.418 200.035 399.624 193.581C401.384 195.344 402.669 197.391 403.979 199.48C404.581 200.44 405.19 201.409 405.852 202.363C408.999 206.971 412.04 211.683 415.085 216.399C418.442 221.599 421.803 226.804 425.313 231.885C427.114 232.098 428.954 232.049 430.777 232.001C431.555 231.982 432.33 231.961 433.098 231.961H454.117C455.673 231.961 457.075 231.734 458.631 231.431C455.576 227.547 452.511 223.69 449.452 219.842C443.629 212.514 437.83 205.216 432.163 197.82ZM414.726 174.051C417.295 172.613 419.786 170.417 420.33 167.389C421.343 163.074 421.031 157.7 417.14 154.748C412.999 151.277 406.437 151.053 400.935 150.864C400.436 150.847 399.947 150.83 399.468 150.811V176.019C400.128 176.019 400.783 176.024 401.432 176.03C406.063 176.071 410.424 176.109 414.726 174.051Z" fill="white"/>
<path fill-rule="evenodd" clip-rule="evenodd" d="M630.364 163.907C628.807 160.273 627.172 156.564 624.837 153.309C620.278 146.668 614.158 141.177 606.983 137.294C599.808 133.411 591.785 131.246 583.578 130.977C577.808 130.583 572.006 130.606 566.215 130.628C563.097 130.64 559.981 130.652 556.876 130.599C555.238 130.648 553.631 130.618 552.042 130.587C548.724 130.524 545.479 130.464 542.163 131.128C542.252 148.562 542.239 166.019 542.227 183.473C542.217 196.563 542.208 209.651 542.24 222.725C542.262 223.593 542.248 224.456 542.235 225.316C542.199 227.605 542.163 229.876 542.785 232.188C548.657 232.015 554.503 232.04 560.353 232.064C564.741 232.083 569.131 232.102 573.535 232.036C581.787 232.112 589.883 232.112 597.668 229.312C604.314 227.222 610.457 223.848 615.729 219.392C621.001 214.936 625.292 209.491 628.346 203.382C631.399 197.274 633.152 190.628 633.499 183.845C633.845 177.061 632.779 170.28 630.364 163.907ZM592.53 205.541C598.758 202.059 603.117 195.852 604.518 189.039C604.598 188.449 604.681 187.865 604.764 187.283C605.256 183.835 605.73 180.512 605.063 177.078C604.363 172.082 603.04 167.465 599.77 163.453C597.279 160.442 594.159 157.98 590.616 156.231C587.073 154.483 583.187 153.486 579.219 153.309C575.948 152.93 572.913 152.93 569.721 153.157L569.409 153.611V209.629C577.506 209.705 585.368 209.705 592.53 205.541Z" fill="white"/>
<path fill-rule="evenodd" clip-rule="evenodd" d="M1056.9 204.152C1055.21 202.023 1053.51 199.894 1051.83 197.743C1051.3 197.045 1050.73 196.394 1050.16 195.751C1048.7 194.098 1047.28 192.505 1047 190.325C1053.69 189.116 1059.63 185.389 1063.51 179.954C1069.89 170.567 1070.52 157.699 1065.92 147.403C1064.07 143.775 1061.41 140.594 1058.14 138.092C1052.59 134.043 1045.97 131.626 1039.06 131.127C1032.48 130.489 1025.83 130.561 1019.21 130.635C1016.42 130.666 1013.65 130.696 1010.88 130.674C1009.87 130.674 1008.86 130.67 1007.84 130.665C1002.71 130.644 997.424 130.623 992.351 131.127C992.182 132.914 992.222 134.661 992.252 136.398C992.262 137.09 992.272 137.781 992.272 138.471V229.007C992.272 230.068 992.271 230.976 992.668 232.035C997.107 232.149 1001.53 232.111 1005.94 232.073C1010.35 232.035 1014.74 231.997 1019.14 232.112C1019.33 226.281 1019.3 220.389 1019.28 214.513C1019.27 211.159 1019.26 207.81 1019.28 204.481C1019.31 203.428 1019.28 202.403 1019.25 201.396C1019.19 198.783 1019.13 196.278 1019.91 193.655C1023.25 198.666 1026.52 203.689 1029.79 208.703C1034.37 215.736 1038.93 222.751 1043.65 229.689C1043.85 229.926 1044.03 230.177 1044.2 230.424C1044.85 231.354 1045.45 232.215 1046.92 232.035H1078.68C1076.16 228.468 1073.38 225.025 1070.59 221.566C1068.99 219.594 1067.4 217.616 1065.84 215.608C1062.95 211.73 1059.93 207.943 1056.9 204.152ZM1019.99 176.018C1024.73 176.32 1030.19 176.094 1034.55 174.05V174.125C1041.16 170.719 1042.64 161.559 1038.36 155.957C1036.18 153.384 1033.07 152.323 1029.72 151.566C1026.45 150.961 1023.18 150.81 1019.91 150.81C1019.25 153.418 1019.29 155.909 1019.34 158.507C1019.36 159.529 1019.39 160.567 1019.36 161.634L1019.28 174.352C1019.26 174.664 1019.31 174.978 1019.43 175.267C1019.55 175.558 1019.74 175.814 1019.99 176.018Z" fill="white"/>
</svg>
