<svg width="1276" height="439" viewBox="0 0 1276 439" fill="none" xmlns="http://www.w3.org/2000/svg">
<path d="M377.411 115.918H105.28V308.857C105.28 319.349 113.792 327.793 124.21 327.793H395.959V134.597C396.086 124.235 387.701 115.918 377.411 115.918ZM355.305 301.82H145.934C141.107 301.82 137.169 297.853 137.169 293.12C137.169 288.258 141.107 284.42 145.934 284.42H355.305C360.132 284.42 364.072 288.386 364.072 293.12C364.072 297.853 360.132 301.82 355.305 301.82ZM363.69 243.606C363.69 253.841 355.178 262.285 344.633 262.285H156.353C145.807 262.285 137.296 253.969 137.296 243.606V163.641C137.296 153.405 145.807 144.961 156.353 144.961H344.633C355.178 144.961 363.69 153.277 363.69 163.641V243.606Z" fill="white"/>
<path d="M223.173 161.99V244.386H275.008V161.99H223.173ZM248.837 217.773C248.075 219.181 246.55 220.076 245.025 220.076C241.595 220.076 239.435 216.237 241.341 213.295L251.505 196.79H240.705C238.42 196.79 236.513 194.872 236.513 192.569C236.513 190.266 238.42 188.346 240.705 188.346H255.697C257.476 188.346 259 188.987 260.144 190.137C261.414 191.417 261.922 192.825 261.922 194.616L248.837 217.773Z" fill="white"/>
<path d="M155.08 161.99V244.386H206.914V161.99H155.08ZM180.235 217.773C179.472 219.181 177.947 220.076 176.424 220.076C172.993 220.076 170.833 216.237 172.739 213.295L182.902 196.79H172.104C169.817 196.79 167.912 194.872 167.912 192.569C167.912 190.266 169.817 188.346 172.104 188.346H187.095C188.874 188.346 190.399 188.987 191.542 190.137C192.812 191.417 193.321 192.825 193.321 194.616L180.235 217.773Z" fill="white"/>
<path d="M291.907 161.99V244.386H343.741V161.99H291.907ZM317.951 217.773C317.189 219.181 315.664 220.076 314.139 220.076C310.709 220.076 308.549 216.237 310.456 213.295L320.619 196.79H309.819C307.534 196.79 305.627 194.872 305.627 192.569C305.627 190.266 307.534 188.346 309.819 188.346H324.811C326.59 188.346 328.114 188.987 329.258 190.137C330.528 191.417 331.036 192.825 331.036 194.616L317.951 217.773Z" fill="white"/>
<path d="M545.873 115.918C551.336 115.918 555.91 117.836 559.721 121.675C563.533 125.514 565.438 130.12 565.438 135.621V161.85C565.438 167.223 563.533 171.829 559.721 175.667C555.91 179.505 551.336 181.425 545.873 181.425H538.251L565.311 214.051H531.517L504.33 181.425H480.953V214.051H448.557V115.918H545.873ZM532.914 155.068V142.147H480.953V155.197H532.914V155.068Z" fill="white"/>
<path d="M630.61 142.161V152.013H700.484V177.986H630.61V187.836H714.968V214.065H617.779C612.316 214.065 607.742 212.146 603.93 208.308C600.119 204.47 598.214 199.864 598.214 194.362V135.508C598.214 130.007 600.119 125.401 603.93 121.563C607.742 117.724 612.316 115.805 617.779 115.805H714.968V142.033H630.61V142.161Z" fill="white"/>
<path d="M864.503 115.932V142.16H822.197V213.937H789.801V142.16H747.749V115.932H864.503Z" fill="white"/>
<path d="M994.726 115.932C1000.19 115.932 1004.76 117.851 1008.57 121.69C1012.38 125.528 1014.29 130.134 1014.29 135.636V161.865C1014.29 167.238 1012.38 171.844 1008.57 175.682C1004.76 179.52 1000.19 181.439 994.726 181.439H987.103L1014.17 214.065H980.37L953.183 181.439H929.806V214.065H897.41V115.932H994.726ZM981.767 155.083V142.16H929.806V155.21H981.767V155.083Z" fill="white"/>
<path d="M1146.41 115.933C1151.87 115.933 1156.45 117.852 1160.27 121.69C1164.07 125.528 1165.98 130.134 1165.98 135.636V194.362C1165.98 199.864 1164.07 204.47 1160.27 208.308C1156.45 212.146 1151.87 214.065 1146.41 214.065H1068.66C1063.2 214.065 1058.63 212.146 1054.82 208.308C1051 204.47 1049.11 199.864 1049.11 194.362V135.508C1049.11 130.007 1051 125.401 1054.82 121.563C1058.63 117.724 1063.2 115.805 1068.66 115.805H1146.41V115.933ZM1133.46 187.709V142.161H1081.5V187.709H1133.46Z" fill="white"/>
<path d="M545.873 115.918C551.336 115.918 555.91 117.836 559.721 121.675C563.533 125.514 565.438 130.12 565.438 135.621V161.85C565.438 167.223 563.533 171.829 559.721 175.667C555.91 179.505 551.336 181.425 545.873 181.425H538.251L565.311 214.051H531.517L504.33 181.425H480.953V214.051H448.557V115.918H545.873ZM532.914 155.068V142.147H480.953V155.197H532.914V155.068Z" fill="white"/>
<path d="M630.61 142.161V152.013H700.484V177.986H630.61V187.836H714.968V214.065H617.779C612.316 214.065 607.742 212.146 603.93 208.308C600.119 204.47 598.214 199.864 598.214 194.362V135.508C598.214 130.007 600.119 125.401 603.93 121.563C607.742 117.724 612.316 115.805 617.779 115.805H714.968V142.033H630.61V142.161Z" fill="white"/>
<path d="M864.503 115.932V142.16H822.197V213.937H789.801V142.16H747.749V115.932H864.503Z" fill="white"/>
<path d="M994.726 115.932C1000.19 115.932 1004.76 117.851 1008.57 121.69C1012.38 125.528 1014.29 130.134 1014.29 135.636V161.865C1014.29 167.238 1012.38 171.844 1008.57 175.682C1004.76 179.52 1000.19 181.439 994.726 181.439H987.103L1014.17 214.065H980.37L953.183 181.439H929.806V214.065H897.41V115.932H994.726ZM981.767 155.083V142.16H929.806V155.21H981.767V155.083Z" fill="white"/>
<path d="M1146.41 115.933C1151.87 115.933 1156.45 117.852 1160.27 121.69C1164.07 125.528 1165.98 130.134 1165.98 135.636V194.362C1165.98 199.864 1164.07 204.47 1160.27 208.308C1156.45 212.146 1151.87 214.065 1146.41 214.065H1068.66C1063.2 214.065 1058.63 212.146 1054.82 208.308C1051 204.47 1049.11 199.864 1049.11 194.362V135.508C1049.11 130.007 1051 125.401 1054.82 121.563C1058.63 117.724 1063.2 115.805 1068.66 115.805H1146.41V115.933ZM1133.46 187.709V142.161H1081.5V187.709H1133.46Z" fill="white"/>
<path d="M480.828 256.539V301.832H532.536V292.108H490.483V266.263H564.678V327.805H467.997C462.661 327.805 458.087 325.885 454.276 322.175C450.465 318.337 448.687 313.859 448.687 308.356V249.887C448.687 244.513 450.592 239.907 454.276 236.069C458.087 232.231 462.534 230.439 467.997 230.439H564.678V256.412H480.828V256.539Z" fill="white"/>
<path d="M679.915 230.57C685.25 230.57 689.697 232.49 693.507 236.201C697.319 240.039 699.225 244.517 699.225 250.019V327.936H666.828V295.566H615.375V327.936H583.233V250.019C583.233 244.645 585.138 240.039 588.823 236.201C592.633 232.363 597.08 230.57 602.543 230.57H679.915ZM666.955 269.466V256.543H615.502V269.466H666.955Z" fill="white"/>
<path d="M847.228 250.019V327.936H814.831V277.015L782.689 327.936L750.547 277.015V327.936H718.151V250.019C718.151 244.645 720.056 240.039 723.867 236.201C727.679 232.363 732.253 230.57 737.461 230.57H751.69L782.689 279.574L813.688 230.57H827.918C833.253 230.57 837.7 232.49 841.51 236.201C845.322 240.039 847.228 244.645 847.228 250.019Z" fill="white"/>
<path d="M864.505 327.932V230.566H896.902V327.932H864.505Z" fill="white"/>
<path d="M1031.31 230.566V308.485C1031.31 313.858 1029.4 318.464 1025.73 322.302C1021.91 326.141 1017.47 327.932 1012.01 327.932H995.489L947.465 267.542V327.932H915.322V250.015C915.322 244.64 917.229 240.034 920.913 236.196C924.724 232.358 929.171 230.566 934.634 230.566H951.15L999.172 290.956V230.566H1031.31Z" fill="white"/>
<path d="M1082 256.539V301.832H1133.71V292.108H1091.67V266.263H1165.86V327.805H1069.18C1063.84 327.805 1059.26 325.885 1055.46 322.175C1051.64 318.337 1049.86 313.859 1049.86 308.356V249.887C1049.86 244.513 1051.77 239.907 1055.46 236.069C1059.26 232.231 1063.72 230.439 1069.18 230.439H1165.86V256.412H1082V256.539Z" fill="white"/>
</svg>
