<svg width="1550" height="344" viewBox="0 0 1550 344" fill="none" xmlns="http://www.w3.org/2000/svg">
<path fill-rule="evenodd" clip-rule="evenodd" d="M40.7773 63.0487C61.7699 39.1471 91.5678 17.2664 130.865 2.4043C56.607 48.743 32.7303 125.966 81.8696 183.535C85.91 185.902 89.8325 188.031 93.5001 189.923C172.562 230.688 96.5932 316.652 29.6258 253.883C-9.67889 217.045 -13.6509 115.954 40.7773 63.0487ZM135.356 334.906C103.878 329.84 69.4558 316.267 35.9754 290.952C114.781 329.117 193.186 308.36 216.163 236.349C216.038 231.684 215.772 227.245 215.439 223.147C208.255 134.763 321.71 153.368 303.746 243.2C293.212 295.92 209.239 352.84 135.356 334.906ZM323.493 118.045C334.303 147.919 339.069 184.484 333.067 225.919C328.38 138.772 272.139 80.5304 197.766 95.4256C193.727 97.7971 189.956 100.182 186.515 102.46C112.387 151.563 73.7256 43.7175 161.32 15.8102C212.721 -0.5735 303.424 44.9817 323.493 118.045ZM432.366 298.441V287.746H490.587C490.911 289.724 491.078 291.693 491.078 293.669V307.493C491.078 315.829 489.575 323.418 486.585 330.277C483.597 337.128 475.69 341.102 462.861 342.197C458.296 342.526 453.699 342.748 449.082 342.861C444.464 342.969 439.763 343.02 434.978 343.02C413.23 343.02 398.393 340.417 390.454 335.211C382.516 330.003 378.553 318.949 378.553 302.057V294.489C378.553 291.97 378.605 289.449 378.71 286.923V271.956C378.71 257.592 382.084 247.274 388.823 241.024C395.562 234.775 407.962 231.645 426.004 231.645H434.162C436.88 231.645 439.594 231.708 442.313 231.813C445.031 231.813 447.745 231.842 450.47 231.898C453.186 231.948 455.902 231.98 458.621 231.98C470.363 232.309 478.626 234.88 483.409 239.709C488.195 244.534 490.587 251.448 490.587 260.438V264.549H475.585C475.585 257.972 474.521 252.817 472.399 249.086C470.279 245.357 464.597 243.332 455.361 242.997C450.794 242.783 446.144 242.646 441.414 242.586C436.689 242.533 431.982 242.509 427.311 242.509C412.85 242.509 403.825 244.289 400.241 247.854C396.647 251.417 394.694 259.668 394.37 272.61L394.203 286.923L394.37 302.553C394.37 309.137 395.267 315.249 397.055 320.898C398.851 326.548 404.695 329.972 414.594 331.174C416.33 331.396 418.118 331.564 419.976 331.67C421.817 331.783 423.612 331.838 425.356 331.838C427.203 331.944 429.023 331.997 430.821 331.997H444.108C457.157 331.997 465.66 330.604 469.631 327.804C473.599 325.008 475.585 318.453 475.585 308.146V298.441H432.366ZM517.977 342.197H502.975V232.468H567.393C581.519 232.468 591.745 234.827 598.052 239.55C604.355 244.26 607.507 252.49 607.507 264.22C607.507 271.566 606.503 277.794 604.49 282.894C602.475 287.996 595.548 291.422 583.699 293.173C591.525 293.614 597.153 295.723 600.573 299.504C604.002 303.291 605.712 308.201 605.712 314.236V342.197H590.061V317.032C590.061 309.791 587.962 304.807 583.782 302.057C579.595 299.314 573.097 297.946 564.291 297.946H517.977V342.197ZM517.976 243.163V287.746H562.334C572.657 287.746 580.137 286.396 584.754 283.702C589.373 281.008 591.689 275.472 591.689 267.106C591.689 259.182 590.468 253.212 588.014 249.192C585.57 245.172 578.75 243.163 567.549 243.163H517.976ZM618.92 299.916V282.812C618.92 267.898 620.77 255.588 624.469 245.882C628.165 236.175 641.049 231.318 663.121 231.318H669.805C688.174 231.318 702.04 233.182 711.388 236.913C720.736 240.645 725.414 251.119 725.414 268.33V287.828C725.414 294.352 725.303 300.854 725.09 307.323C724.656 320.708 721.198 330.058 714.729 335.372C708.26 340.691 696.494 343.356 679.427 343.356H673.234C672.139 343.24 671.135 343.19 670.212 343.19H667.363C652.028 343.19 640.398 341.271 632.459 337.434C624.521 333.587 620.069 324.713 619.089 310.782C618.982 307.157 618.92 303.541 618.92 299.916ZM634.746 268.499L634.412 288.735L634.58 306.334C634.799 316.977 636.866 324.051 640.775 327.559C644.693 331.068 653.499 332.82 667.196 332.82C682.522 332.82 693.394 331.533 699.808 328.961C706.228 326.38 709.597 318.401 709.921 305.018C709.921 302.057 709.976 299.074 710.079 296.057C710.196 293.043 710.251 289.997 710.251 286.923V268.826C710.251 255.335 707.282 247.443 701.358 245.136C695.433 242.836 685.185 241.686 670.62 241.686H665.565C653.604 241.686 645.558 243.163 641.433 246.124C637.295 249.086 635.071 256.548 634.746 268.499ZM829.45 309.298V232.468H844.784V309.298C844.784 320.594 842.118 328.848 836.793 334.061C831.461 339.269 821.19 342.094 805.972 342.526C803.465 342.639 800.937 342.716 798.388 342.779C795.825 342.83 793.304 342.861 790.803 342.861C774.173 342.861 761.071 341.239 751.502 338.004C741.933 334.77 737.152 325.199 737.152 309.298V232.468H752.646V309.298C752.646 318.73 754.705 324.903 758.839 327.804C762.972 330.71 770.743 332.166 782.158 332.166H796.996C809.176 332.166 817.628 330.85 822.361 328.215C827.094 325.588 829.45 319.276 829.45 309.298ZM872.175 342.197H857.336V232.468H924.689C926.101 232.468 927.568 232.53 929.091 232.636C932.466 232.855 935.752 233.322 938.956 234.036C942.159 234.751 945.018 236.04 947.518 237.895C951.542 240.753 954.29 244.099 955.757 247.938C957.225 251.775 958.175 255.778 958.609 259.942C958.609 261.039 958.63 262.165 958.685 263.315C958.747 264.472 958.768 265.593 958.768 266.687C958.768 268.006 958.747 269.351 958.685 270.724C958.63 272.093 958.547 273.493 958.444 274.917C958.01 277.984 957.17 280.976 955.916 283.876C954.662 286.784 952.678 289.336 949.964 291.528C945.617 295.045 940.691 297.154 935.208 297.861C929.711 298.578 924.144 298.99 918.495 299.094H917.841C916.753 299.094 915.692 299.124 914.658 299.18C913.625 299.24 912.564 299.264 911.476 299.264H872.175V342.197ZM872.175 243.49V288.569H908.383C920.555 288.569 929.359 287.477 934.802 285.292C940.237 283.108 942.951 276.82 942.951 266.444C942.951 258.679 941.732 252.892 939.286 249.064C936.841 245.244 930.503 243.332 920.287 243.332H916.87C916.312 243.437 915.664 243.49 914.899 243.49H872.175ZM519.577 52.9697V55.2598H498.678C497.918 43.9559 495.271 36.4336 490.726 32.6881C486.183 28.9498 476.645 27.0783 462.111 27.0783H451.886C449.463 27.0783 446.699 27.1167 443.599 27.1913C440.489 27.2683 437.198 27.3813 433.712 27.5353C429.775 27.8385 425.919 28.2955 422.13 28.9065C418.341 29.5151 415.239 30.4196 412.816 31.6368C409.792 33.162 407.556 35.2164 406.117 37.8048C404.675 40.386 403.73 43.049 403.278 45.7818C403.127 47.0014 403.015 48.2186 402.939 49.4359C402.857 50.6555 402.826 51.7957 402.826 52.8542C402.826 61.2208 404.487 67.5716 407.822 71.9015C411.149 76.2414 418.877 78.7168 430.989 79.3181C435.079 79.6312 439.132 79.8211 443.139 79.8954C447.154 79.9724 451.132 80.0109 455.069 80.0109C473.845 80.3143 489.896 82.2628 503.224 85.8493C516.544 89.4434 523.214 101.243 523.214 121.255C523.214 132.864 521.087 142.831 516.852 151.159C512.612 159.487 501.858 164.329 484.6 165.708C481.566 165.86 478.538 165.975 475.512 166.049C472.479 166.127 469.529 166.239 466.653 166.391C463.62 166.545 460.594 166.622 457.568 166.622H448.482C428.793 166.622 412.518 164.565 399.641 160.464C386.776 156.353 380.338 144.659 380.338 125.383V123.548C380.338 122.939 380.413 122.323 380.564 121.714C380.564 121.103 380.638 120.495 380.79 119.876C380.94 119.27 381.017 118.661 381.017 118.044H401.46C401.46 131.953 403.845 141.041 408.614 145.313C413.384 149.59 424.477 151.731 441.894 151.731H459.838C475.588 151.731 486.486 150.17 492.545 147.055C498.598 143.935 501.633 135.912 501.633 122.977C501.633 112.782 499.773 106.015 496.07 102.667C492.357 99.3231 484.371 97.4201 472.102 96.9633C469.226 96.8119 466.389 96.6963 463.584 96.6213C460.783 96.5443 457.944 96.5064 455.069 96.5064C435.231 95.8975 418 93.6822 403.392 89.8597C388.774 86.0468 381.47 73.9731 381.47 53.6552C381.47 35.1779 387.341 23.6383 399.075 19.0532C410.811 14.4705 426.523 12.1804 446.21 12.1804H451.432C471.115 12.1804 487.399 14.0833 500.272 17.8816C513.139 21.6897 519.577 33.3809 519.577 52.9697ZM539.328 13.1018H560.912V79.7825H579.762L656.995 13.1018H685.157L598.388 87.1125L695.385 165.937H666.304L579.762 95.1277H560.912V165.937H539.328V13.1018ZM840.754 13.1018H865.975L794.413 102.003V165.937H773.292V102.003L703.555 13.1018H728.314L784.651 84.5937L840.754 13.1018ZM1134.91 13.1018H1156.94L1097.43 165.937H1064.95L1015.43 28.4495L964.555 165.937H932.755L874.599 13.1018H896.41L948.428 152.643L999.529 13.1018H1030.88L1081.76 152.643L1134.91 13.1018ZM1171.7 165.937V13.1018H1193.28V165.937H1171.7ZM1352.74 13.1018H1373.41V165.937H1338.88L1232.35 27.7639V165.937H1211.69V13.1018H1246.21L1352.74 152.643V13.1018ZM1484.03 165.937H1391.13V13.1018H1478.58C1506.89 13.1018 1525.52 18.637 1534.45 29.7124C1543.39 40.7901 1547.86 57.0207 1547.86 78.4038V93.0664C1547.86 112.013 1544.64 128.893 1538.2 143.706C1531.77 158.527 1513.71 165.937 1484.03 165.937ZM1412.02 28.4495V151.046H1481.3C1483.87 151.046 1486.45 150.894 1489.02 150.581C1494.17 150.276 1499.17 149.478 1504.02 148.176C1508.86 146.882 1512.8 144.628 1515.82 141.416C1519.15 137.906 1521.58 133.704 1523.09 128.816C1524.61 123.927 1525.6 118.813 1526.05 113.461C1526.19 111.024 1526.32 108.618 1526.39 106.244C1526.47 103.877 1526.5 101.546 1526.5 99.2557V91.6952C1526.5 85.5824 1526.43 79.5156 1526.27 73.4777C1526.13 67.4417 1525.52 61.4494 1524.46 55.4883C1522.64 43.7274 1517.57 36.2821 1509.24 33.1451C1500.91 30.0155 1490.61 28.4495 1478.35 28.4495H1412.02Z" fill="white"/>
</svg>
