<svg width="1437" height="491" viewBox="0 0 1437 491" fill="none" xmlns="http://www.w3.org/2000/svg">
<g clip-path="url(#clip0_8280_3692)">
<mask id="mask0_8280_3692" style="mask-type:luminance" maskUnits="userSpaceOnUse" x="0" y="0" width="1437" height="491">
<path d="M1437 0H0V491H1437V0Z" fill="white"/>
</mask>
<g mask="url(#mask0_8280_3692)">
<path d="M458.28 177.545C458.28 185.448 467.301 189.373 476.429 189.373C484.953 189.373 493.975 185.448 493.975 178.539C493.975 167.541 481.214 167.043 472.854 166.546C451.899 165.219 430.945 156.818 430.945 132.831C430.945 107.849 452.066 95.1367 475.495 95.1367C497.605 95.1367 520.042 107.794 519.548 132.831H491.555C491.388 124.927 484.019 121.666 475.989 121.666C469.278 121.666 460.424 123.49 460.424 132.223C460.424 139.961 466.971 141.785 477.969 142.945C502.39 145.101 523.672 150.849 523.672 178.816C523.672 203.024 500.243 215.681 476.869 215.681C452.615 215.681 429.407 203.522 429.902 177.655H458.28V177.545Z" fill="white"/>
<path d="M643.291 97.4629H653.962V212.978H623.986V159.808L599.568 185.453H596.102L571.685 159.808V212.978H541.709V97.4629H552.38L597.919 147.317L643.291 97.4629Z" fill="white"/>
<path d="M702.029 198.591L695.485 212.906H664.193V208.816L716.77 96.6172H730.519L782.602 208.816V212.906H751.637L744.929 198.591H702.029ZM711.709 173.443H735.468L723.535 145.642L711.709 173.443Z" fill="white"/>
<path d="M890.34 208.493V212.749H858.55L838.915 176.713H823.186V212.749H793.213V97.6206C810.261 97.6206 826.761 97.4548 843.646 97.6206C871.311 97.6206 884.894 118.181 884.894 138.41C884.73 151.564 879.174 164.222 867.845 171.959L890.34 208.493ZM843.482 152.228C851.84 152.228 855.912 144.987 855.912 137.747C855.912 130.507 852.006 123.763 843.482 123.763H822.691V152.228H843.482Z" fill="white"/>
<path d="M896.217 124.096V97.7871H981.353V124.096H953.361V212.971H924.376V124.096H896.217Z" fill="white"/>
<path d="M1019.5 177.545C1019.5 185.448 1028.52 189.373 1037.65 189.373C1046.17 189.373 1055.19 185.448 1055.19 178.539C1055.19 167.541 1042.43 167.043 1034.07 166.546C1013.12 165.219 992.162 156.818 992.162 132.831C992.162 107.849 1013.28 95.1367 1036.71 95.1367C1058.82 95.1367 1081.26 107.794 1080.76 132.831H1052.77C1052.61 124.927 1045.23 121.666 1037.21 121.666C1030.5 121.666 1021.64 123.49 1021.64 132.223C1021.64 139.961 1028.19 141.785 1039.18 142.945C1063.6 145.101 1084.89 150.849 1084.89 178.816C1084.89 203.024 1061.46 215.681 1038.09 215.681C1013.83 215.681 990.622 203.522 991.116 177.655H1019.5V177.545Z" fill="white"/>
<path d="M1155.55 215.078C1125.24 215.078 1096.92 195.347 1096.92 155.331C1096.92 115.537 1126.23 95.418 1156.04 95.418C1185.36 95.418 1214.51 115.481 1214.51 155.331C1214.45 190.594 1190.25 215.078 1155.55 215.078ZM1155.71 186.614C1169.96 186.614 1184.53 175.892 1184.53 155.331C1184.53 134.77 1170.29 124.048 1156.04 124.048C1141.14 124.048 1126.89 134.273 1126.89 155.331C1126.89 175.947 1140.97 186.614 1155.71 186.614Z" fill="white"/>
<path d="M1299.59 175.773H1262.9V212.971H1232.93V97.7871H1304.48V123.93H1262.9V149.41H1299.59V175.773Z" fill="white"/>
<path d="M1313.17 124.096V97.7871H1398.31V124.096H1370.31V212.971H1341.33V124.096H1313.17Z" fill="white"/>
<path d="M488.58 277.527C511.021 277.527 532.964 288.084 539.511 312.071H526.089C520.039 295.435 505.796 290.019 488.58 290.019C461.907 290.019 445.189 310.413 445.189 336.557C445.189 363.363 461.907 383.093 488.58 383.093C512.176 383.093 529.006 370.436 531.15 345.398H490.397V333.738H543.799C544.293 344.295 543.14 354.464 539.398 363.692C530.874 384.918 511.736 395.916 488.635 395.916C456.242 395.916 431.494 372.204 431.494 336.5C431.494 300.795 456.627 277.527 488.58 277.527Z" fill="white"/>
<path d="M576.643 365.899L563.224 394.365H548.98V392.54L602.382 278.684H608.596L661.506 392.54V394.365H647.426L634.005 365.899H576.643ZM581.264 354.071H629.386L605.296 300.295L581.264 354.071Z" fill="white"/>
<path d="M778.018 279.008H783.243V394.356H769.494V311.285L731.821 363.296H729.677L692.002 311.285V394.356H678.253V279.008H683.642L730.775 343.342L778.018 279.008Z" fill="white"/>
<path d="M857.898 383.363V394.361H804.496V383.363H824.295V290.064H805.815V279.232H856.579V290.064H838.099V383.363H857.898Z" fill="white"/>
<path d="M891.61 307.301L892.765 338.916V394.353H879.18V278.838H883.91L958.597 366.054L957.111 333.004V279.059H970.863V394.575H966.463L891.61 307.301Z" fill="white"/>
<path d="M1051.42 277.527C1073.86 277.527 1095.81 288.084 1102.35 312.071H1088.93C1082.88 295.435 1068.64 290.019 1051.42 290.019C1024.75 290.019 1008.03 310.413 1008.03 336.557C1008.03 363.363 1024.75 383.093 1051.42 383.093C1075.02 383.093 1091.85 370.436 1093.99 345.398H1053.24V333.738H1106.64C1107.14 344.295 1105.98 354.464 1102.24 363.692C1093.72 384.918 1074.58 395.916 1051.48 395.916C1019.09 395.916 994.338 372.204 994.338 336.5C994.338 300.795 1019.47 277.527 1051.42 277.527Z" fill="white"/>
<path d="M183.167 228.412C169.347 222.581 158.917 209.446 158.917 193.396C158.917 172.793 175.54 156.088 196.041 156.088C201.159 156.088 206.048 157.005 210.448 159.003C240.141 172.531 327.72 216.358 327.72 216.358C342.779 225.103 352.068 241.252 352.068 258.743V319.634C352.068 333.229 344.866 345.776 333.131 352.586L204.222 424.191C192.521 430.97 178.082 430.97 166.381 424.191L38.1235 348.427C35.0598 346.789 33.0063 343.581 33.0063 339.846C33.0063 337.749 33.6906 335.785 34.7989 334.179L34.5382 334.572C44.2187 319.831 61.4934 310.825 80.2023 312.726C87.4707 313.445 94.2829 315.64 100.085 319.241C112.34 326.875 147.574 352.228 184.47 352.228C218.759 352.228 240.825 332.903 240.825 332.903C253.309 323.172 261.36 304.471 261.36 287.371V287.437C261.36 271.354 251.549 257.597 237.599 251.865L183.167 228.412Z" fill="white"/>
<path d="M204.222 424.165C192.521 430.946 178.082 430.946 166.381 424.165L38.1235 348.401C35.0598 346.763 33.0063 343.554 33.0063 339.82C33.0063 337.723 33.6906 335.759 34.7989 334.153L34.5382 334.546C44.2187 319.807 61.4934 310.799 80.2023 312.699C87.4707 313.418 94.2829 315.613 100.085 319.218C112.34 326.849 147.574 352.202 184.47 352.202C218.759 352.202 240.825 332.876 240.825 332.876C253.309 323.149 261.36 304.445 261.36 287.346V287.411C261.36 271.328 251.549 257.571 237.599 251.839L183.199 228.419C169.379 222.588 158.949 209.453 158.949 193.403C158.949 183.02 163.154 173.652 169.933 166.904C164.327 172.538 160.872 180.4 160.872 188.981C160.872 202.378 169.282 213.81 181.081 218.232L258.231 247.581C287.564 258.619 308.458 287.084 308.458 320.428C308.458 349.712 292.358 375.23 268.53 388.495L204.222 424.165Z" fill="white"/>
<path d="M332.502 137.091C335.339 138.991 337.198 142.234 337.198 145.902C337.198 147.344 336.905 148.719 336.382 149.997C330.223 165.949 316.761 173.024 316.37 173.22C306.688 178.167 295.151 178.69 285.014 175.219C281.722 174.105 278.234 172.303 275.431 170.24C265.327 162.837 229.213 138.139 193.327 138.139C159.592 138.139 137.852 156.515 137.852 156.515C126.118 165.326 118.426 181.933 117.742 197.558L117.676 200.833C117.676 216.097 127.357 229.199 141.079 234.637L195.25 256.976C208.842 262.544 219.142 274.991 219.142 290.255C219.142 309.843 202.779 325.697 182.604 325.697C177.584 325.697 172.728 324.813 168.425 322.945C139.189 310.106 52.9775 268.44 52.9775 268.44C38.1471 260.12 29.021 244.791 29.021 228.184V208.4V171.353C29.021 157.76 36.2241 145.215 47.9581 138.401L176.867 66.7982C188.568 60.0178 203.007 60.0178 214.709 66.7982L332.502 137.091Z" fill="white"/>
<path d="M332.502 137.091C335.339 138.991 337.198 142.234 337.198 145.902C337.198 147.344 336.905 148.719 336.382 149.997C330.223 165.949 316.761 173.024 316.37 173.22C306.688 178.167 295.151 178.69 285.014 175.219C281.722 174.105 278.234 172.303 275.431 170.24C265.327 162.837 229.213 138.139 193.327 138.139C159.592 138.139 137.852 156.515 137.852 156.515C126.118 165.326 118.426 181.933 117.742 197.558L117.676 200.833C117.676 216.097 127.357 229.199 141.079 234.637L195.25 256.976C208.842 262.544 219.142 274.991 219.142 290.255C219.142 309.843 202.779 325.697 182.604 325.697C177.584 325.697 172.728 324.813 168.425 322.945C139.189 310.106 52.9775 268.44 52.9775 268.44C38.1471 260.12 29.021 244.791 29.021 228.184V208.4V171.353C29.021 157.76 36.2241 145.215 47.9581 138.401L176.867 66.7982C188.568 60.0178 203.007 60.0178 214.709 66.7982L332.502 137.091Z" fill="white"/>
<path d="M336.083 150.749C329.108 162.214 316.557 169.878 302.216 169.878C293.091 169.878 284.681 166.734 277.999 161.526C252.348 141.905 217.961 126.543 182.825 126.543H182.76C131.457 126.543 88.4653 174.857 88.4653 226.414C88.4653 256.778 107.24 291.107 130.642 305.618L130.675 305.65C145.798 312.758 159.651 319.178 168.419 323.043C172.721 324.943 177.577 325.795 182.597 325.795C202.772 325.795 219.135 309.907 219.135 290.354C219.135 277.971 212.583 267.424 202.772 260.938C201.99 260.48 201.241 260.021 200.491 259.595C198.894 258.678 197.199 257.859 195.504 257.172L181.423 251.407L141.105 234.668C127.383 229.231 117.702 216.227 117.702 200.93L117.767 197.655C118.452 182.031 126.144 165.424 137.878 156.612C137.878 156.612 159.618 138.237 193.353 138.237C198.959 138.237 204.565 138.826 210.106 139.874C239.93 145.508 267.048 164.081 275.587 170.337C278.39 172.4 281.878 174.169 285.17 175.316C287.06 175.971 288.984 176.462 290.938 176.823C299.48 178.395 308.541 177.281 316.396 173.285C316.721 173.088 329.792 166.242 336.083 150.749Z" fill="white"/>
<path d="M336.083 150.749C329.108 162.214 316.557 169.878 302.216 169.878C293.091 169.878 284.681 166.734 277.999 161.526C252.348 141.905 217.961 126.543 182.825 126.543H182.76C131.457 126.543 88.4653 174.857 88.4653 226.414C88.4653 256.778 107.24 291.107 130.642 305.618L130.675 305.65C145.798 312.758 159.651 319.178 168.419 323.043C172.721 324.943 177.577 325.795 182.597 325.795C202.772 325.795 219.135 309.907 219.135 290.354C219.135 277.971 212.583 267.424 202.772 260.938C201.99 260.48 201.241 260.021 200.491 259.595C198.894 258.678 197.199 257.859 195.504 257.172L181.423 251.407L141.105 234.668C127.383 229.231 117.702 216.227 117.702 200.93L117.767 197.655C118.452 182.031 126.144 165.424 137.878 156.612C137.878 156.612 159.618 138.237 193.353 138.237C198.959 138.237 204.565 138.826 210.106 139.874C239.93 145.508 267.048 164.081 275.587 170.337C278.39 172.4 281.878 174.169 285.17 175.316C287.06 175.971 288.984 176.462 290.938 176.823C299.48 178.395 308.541 177.281 316.396 173.285C316.721 173.088 329.792 166.242 336.083 150.749Z" fill="white"/>
<path d="M336.083 150.749C329.108 162.214 316.557 169.878 302.216 169.878C293.091 169.878 284.681 166.734 277.999 161.526C252.348 141.905 217.961 126.543 182.825 126.543H182.76C131.457 126.543 88.4653 174.857 88.4653 226.414C88.4653 256.778 107.24 291.107 130.642 305.618L130.675 305.65C145.798 312.758 159.651 319.178 168.419 323.043C172.721 324.943 177.577 325.795 182.597 325.795C202.772 325.795 219.135 309.907 219.135 290.354C219.135 277.971 212.583 267.424 202.772 260.938C201.99 260.48 201.241 260.021 200.491 259.595C198.894 258.678 197.199 257.859 195.504 257.172L181.423 251.407L141.105 234.668C127.383 229.231 117.702 216.227 117.702 200.93L117.767 197.655C118.452 182.031 126.144 165.424 137.878 156.612C137.878 156.612 159.618 138.237 193.353 138.237C198.959 138.237 204.565 138.826 210.106 139.874C239.93 145.508 267.048 164.081 275.587 170.337C278.39 172.4 281.878 174.169 285.17 175.316C287.06 175.971 288.984 176.462 290.938 176.823C299.48 178.395 308.541 177.281 316.396 173.285C316.721 173.088 329.792 166.242 336.083 150.749Z" fill="white"/>
</g>
</g>
<defs>
<clipPath id="clip0_8280_3692">
<rect width="1437" height="491" fill="white"/>
</clipPath>
</defs>
</svg>
