<svg width="1463" height="452" viewBox="0 0 1463 452" fill="none" xmlns="http://www.w3.org/2000/svg">
<path d="M234.391 290.985C234.187 297.294 233.303 303.196 231.735 308.71C230.16 314.223 228.295 319.24 226.126 323.772C220.621 334.8 213.095 343.121 203.573 348.724C194.033 354.342 182.391 356.942 168.63 356.555C162.334 356.354 156.442 355.469 150.936 353.896C145.429 352.32 140.421 350.453 135.898 348.278C124.885 342.765 116.581 335.29 110.984 325.832C105.375 316.377 102.78 304.769 103.164 290.985C103.561 279.968 109.067 274.454 119.674 274.454H135.887C146.109 274.454 151.616 279.864 152.396 290.692C153.38 301.723 158.784 307.237 168.61 307.237H168.904C174.41 307.237 178.486 305.816 181.144 302.95C183.801 300.098 185.119 296.116 185.119 290.985C185.119 285.675 182.655 280.556 177.748 275.629C172.433 270.309 163.783 263.523 151.798 255.257C135.674 244.236 124.865 235.666 119.358 229.565C113.852 223.65 109.675 217.303 106.826 210.52C103.975 203.724 102.748 196.391 103.145 188.52C103.337 182.224 104.22 176.261 105.8 170.657C107.373 165.04 109.238 159.982 111.41 155.453C116.904 144.432 124.378 136.104 133.818 130.501C143.26 124.893 154.85 122.283 168.61 122.677C174.897 122.871 180.8 123.763 186.304 125.339C191.801 126.912 196.821 128.783 201.343 130.947C212.548 136.461 220.955 143.997 226.554 153.531C232.16 163.09 234.757 174.75 234.37 188.53C234.167 199.357 228.661 204.771 217.851 204.771H201.343C191.507 204.771 186.112 199.257 185.128 188.236C184.144 177.219 178.638 171.802 168.621 171.999C157.811 172.586 152.406 178.1 152.406 188.53C152.406 192.471 155.357 197.093 161.249 202.413C162.82 203.796 165.618 206.009 169.654 209.058C173.681 212.114 178.841 215.993 185.128 220.725C201.049 232.538 212.153 242.186 218.449 249.671C223.764 255.98 227.839 262.569 230.688 269.455C233.548 276.321 234.785 283.501 234.391 290.985Z" fill="white"/>
<path d="M380.341 141.256V338.233C380.341 343.75 378.901 347.833 376.041 350.491C373.174 353.153 369.168 354.484 364.025 354.484H347.417C340.492 354.484 335.553 351.528 332.582 345.617L298.377 257.318V337.939C298.377 343.453 296.906 347.587 293.956 350.339C291.006 353.101 286.982 354.474 281.87 354.474H265.653C260.545 354.474 256.517 353.101 253.568 350.339C250.618 347.587 249.146 343.453 249.146 337.939V141.256C249.146 135.738 250.618 131.607 253.568 128.852C256.517 126.1 260.545 124.721 265.653 124.721H281.87C288.744 124.721 293.856 127.97 297.203 134.469L331.111 221.883V141.263C331.111 135.749 332.541 131.614 335.411 128.862C338.278 126.11 342.285 124.728 347.428 124.728H364.035C369.178 124.728 373.181 126.11 376.041 128.862C378.901 131.614 380.341 135.749 380.341 141.256Z" fill="white"/>
<path d="M528.034 290.986C528.034 297.295 527.243 303.196 525.671 308.71C524.099 314.224 522.224 319.243 520.055 323.772C509.019 345.627 489.815 356.555 462.428 356.555C435.037 356.555 415.933 345.627 405.094 323.772C402.921 319.243 401.004 314.224 399.322 308.71C397.65 303.196 396.808 297.295 396.808 290.986V188.216C396.808 181.92 397.64 176.009 399.322 170.495C400.997 164.988 402.914 159.961 405.094 155.433C415.933 133.578 435.037 122.646 462.428 122.646C489.815 122.646 509.019 133.578 520.055 155.433C522.224 159.961 524.089 164.988 525.671 170.495C527.243 176.009 528.034 181.92 528.034 188.216V290.986ZM478.793 290.986V188.216C478.793 178.377 473.287 172.963 462.283 171.978C451.475 172.77 446.069 178.183 446.069 188.216V290.986C446.069 301.032 451.475 306.445 462.283 307.227C473.287 306.241 478.793 300.831 478.793 290.986Z" fill="white"/>
<path d="M756.667 288.915C756.667 295.22 755.879 301.122 754.304 306.635C752.736 312.153 750.767 317.169 748.405 321.698C737.383 343.553 718.279 354.484 691.123 354.484C677.542 354.484 663.853 350.159 650.085 341.482C636.698 350.145 623.02 354.484 609.044 354.484C581.678 354.484 562.584 343.553 551.763 321.698C549.593 317.169 547.687 312.153 546.005 306.635C544.333 301.122 543.49 295.22 543.49 288.915V141.256C543.49 135.738 544.962 131.607 547.911 128.852C550.861 126.1 554.885 124.721 559.997 124.721H576.214C581.322 124.721 585.357 126.1 588.3 128.852C591.249 131.614 592.721 135.749 592.721 141.256V288.915C592.721 298.957 598.126 304.375 608.934 305.156C619.935 304.171 625.444 298.757 625.444 288.915V141.256C625.444 135.738 626.874 131.607 629.745 128.852C632.615 126.1 636.618 124.721 641.758 124.721H658.368C663.511 124.721 667.515 126.1 670.375 128.852C673.245 131.614 674.675 135.749 674.675 141.256V288.915C674.675 298.767 680.129 304.171 691.04 305.156C701.951 304.171 707.409 298.757 707.409 288.915V141.256C707.409 135.738 708.839 131.607 711.706 128.852C714.576 126.1 718.583 124.721 723.722 124.721H740.333C745.472 124.721 749.479 126.1 752.339 128.852C755.209 131.614 756.639 135.749 756.639 141.256V288.915H756.667Z" fill="white"/>
<path d="M904.352 288.915C904.352 295.22 903.561 301.122 901.989 306.635C900.418 312.153 898.542 317.169 896.373 321.698C885.337 343.553 866.133 354.484 838.746 354.484H805.939C794.907 354.484 786.683 351.58 781.27 345.769C775.854 339.958 773.146 331.937 773.146 321.698V157.504C773.146 147.267 775.854 139.24 781.27 133.432C786.683 127.625 794.907 124.721 805.939 124.721H838.746C866.133 124.721 885.337 135.648 896.373 157.504C898.542 162.036 900.407 167.059 901.989 172.566C903.561 178.08 904.352 183.981 904.352 190.286V195.61C904.352 212.145 900.224 225.835 891.973 236.659C900.224 247.296 904.352 260.975 904.352 277.711V288.915ZM855.111 195.6V190.279C855.111 185.16 853.729 181.177 850.983 178.315C848.227 175.459 844.099 174.028 838.601 174.028H830.349C825.044 174.028 822.387 176.79 822.387 182.294V211.827H838.601C844.11 211.827 848.237 210.406 850.983 207.554C853.729 204.702 855.111 200.72 855.111 195.6ZM855.111 288.915V277.693C855.111 272.574 853.729 268.532 850.983 265.587C848.227 262.631 844.099 261.159 838.601 261.159H822.387V296.887C822.387 302.404 825.044 305.156 830.349 305.156H838.601C844.11 305.156 848.237 303.732 850.983 300.869C853.729 298.024 855.111 294.045 855.111 288.915Z" fill="white"/>
<path d="M1050.02 290.986C1050.02 297.295 1049.23 303.196 1047.66 308.71C1046.08 314.224 1044.21 319.243 1042.04 323.772C1031.01 345.627 1011.8 356.555 984.413 356.555C957.022 356.555 937.918 345.627 927.079 323.772C924.91 319.243 922.993 314.224 921.308 308.71C919.636 303.196 918.793 297.295 918.793 290.986V188.216C918.793 181.92 919.625 176.009 921.308 170.495C922.983 164.988 924.9 159.961 927.079 155.433C937.918 133.578 957.022 122.646 984.413 122.646C1011.8 122.646 1031.01 133.578 1042.04 155.433C1044.21 159.961 1046.07 164.988 1047.66 170.495C1049.23 176.009 1050.02 181.92 1050.02 188.216V290.986ZM1000.78 290.986V188.216C1000.78 178.377 995.272 172.963 984.268 171.978C973.46 172.77 968.058 178.183 968.058 188.216V290.986C968.058 301.032 973.46 306.445 984.268 307.227C995.272 306.241 1000.78 300.831 1000.78 290.986Z" fill="white"/>
<path d="M1197.7 199.437C1197.7 230.149 1184.33 250.331 1157.6 259.98L1196.52 322.593C1197.5 324.166 1198.18 325.742 1198.59 327.315C1198.98 328.888 1199.18 330.465 1199.18 332.038C1199.18 337.551 1196.51 341.89 1191.18 345.039L1177.27 353.893C1174.5 355.863 1171.55 356.849 1168.39 356.849C1165.62 356.849 1163.06 356.209 1160.69 354.93C1158.32 353.651 1156.26 351.539 1154.48 348.583L1115.72 284.791V338.243C1115.72 343.757 1114.25 347.84 1111.3 350.501C1108.35 353.163 1104.32 354.494 1099.21 354.494H1083C1077.89 354.494 1073.86 353.163 1070.91 350.501C1067.96 347.84 1066.49 343.757 1066.49 338.243V157.504C1066.49 147.267 1069.2 139.24 1074.61 133.432C1080.02 127.625 1088.25 124.721 1099.28 124.721H1132.08C1159.47 124.721 1178.68 135.648 1189.71 157.504C1191.88 162.036 1193.75 167.059 1195.33 172.566C1196.9 178.08 1197.69 183.981 1197.69 190.286L1197.7 199.437ZM1148.46 199.437V190.279C1148.46 185.16 1147.08 181.177 1144.34 178.315C1141.58 175.459 1137.45 174.028 1131.95 174.028H1123.7C1118.4 174.028 1115.74 176.79 1115.74 182.294V215.668H1131.95C1137.46 215.668 1141.59 214.247 1144.34 211.391C1147.08 208.539 1148.46 204.557 1148.46 199.437Z" fill="white"/>
<path d="M1346.87 141.256V338.233C1346.87 343.75 1345.43 347.833 1342.57 350.491C1339.7 353.153 1335.69 354.484 1330.56 354.484H1313.94C1307.02 354.484 1302.08 351.528 1299.11 345.617L1264.91 257.318V337.939C1264.91 343.453 1263.44 347.587 1260.49 350.339C1257.53 353.101 1253.51 354.474 1248.4 354.474H1232.18C1227.07 354.474 1223.05 353.101 1220.1 350.339C1217.15 347.587 1215.67 343.453 1215.67 337.939V141.256C1215.67 135.738 1217.15 131.607 1220.1 128.852C1223.05 126.1 1227.07 124.721 1232.18 124.721H1248.4C1255.27 124.721 1260.39 127.97 1263.73 134.469L1297.64 221.883V141.263C1297.64 135.749 1299.07 131.614 1301.94 128.862C1304.81 126.11 1308.81 124.728 1313.96 124.728H1330.57C1335.71 124.728 1339.71 126.11 1342.57 128.862C1345.43 131.614 1346.87 135.749 1346.87 141.256Z" fill="white"/>
</svg>
