<svg width="2449" height="823" viewBox="0 0 2449 823" fill="none" xmlns="http://www.w3.org/2000/svg">
<path d="M374.211 512.996C378.333 512.996 380.404 515.07 380.404 519.189V546.781C380.404 551.094 378.333 553.263 374.211 553.263H233.138C225.813 553.263 219.754 553.872 214.979 555.083C210.186 556.31 206.389 558.36 203.57 561.277C200.751 564.189 198.738 568.084 197.511 572.951C196.283 577.842 195.689 584.036 195.689 591.531V632.082C195.689 639.597 196.302 645.83 197.511 650.797C198.738 655.779 200.751 659.708 203.57 662.625C206.389 665.538 210.186 667.607 214.979 668.819C219.773 670.046 225.813 670.639 233.138 670.639H326.062C330.932 670.639 334.518 669.372 336.762 666.844C339.005 664.311 340.137 659.843 340.137 653.48V630.661C340.137 628.228 339.005 627.001 336.762 627.001H254.25C250.128 627.001 248.057 624.837 248.057 620.523V599.41C248.057 595.096 250.128 592.932 254.25 592.932H371.68C377.317 592.932 380.136 595.749 380.136 601.384V666.999C380.136 682.757 377.126 693.877 371.124 700.355C365.122 706.837 356.474 710.078 345.218 710.078H231.451C217.184 710.078 205.066 708.777 195.133 706.129C185.181 703.501 177.07 699.227 170.78 693.323C164.491 687.419 159.889 679.71 156.974 670.24C154.059 660.766 152.602 649.261 152.602 635.742V587.312C152.602 573.793 154.059 562.349 156.974 552.954C159.889 543.579 164.472 535.93 170.78 530.005C177.07 524.101 185.181 519.763 195.133 517.04C205.085 514.317 217.184 512.961 231.451 512.961H374.211V512.996Z" fill="white"/>
<path d="M753.915 512.996C761.052 512.996 767.049 514.457 771.94 517.369C776.812 520.287 781.603 525.961 786.3 534.394L879.512 703.621C880.454 705.501 880.683 707.052 880.219 708.258C879.741 709.485 878.401 710.078 876.14 710.078H840.378C837.175 710.078 835.023 708.857 833.897 706.419L813.894 670.105H681.547L662.122 706.419C660.797 708.857 658.65 710.078 655.642 710.078H619.037C616.601 710.078 615.142 709.47 614.664 708.258C614.186 707.032 614.436 705.501 615.375 703.621L707.742 534.394C712.439 525.942 717.041 520.287 721.549 517.369C726.052 514.457 731.306 512.996 737.308 512.996H753.915ZM699.284 637.453H796.157L751.384 554.949C750.637 553.647 749.601 552.979 748.276 552.979H746.593C745.268 552.979 744.232 553.647 743.485 554.949L699.284 637.453Z" fill="white"/>
<path d="M1172.5 512.996C1176.62 512.996 1180.19 513.285 1183.2 513.844C1186.21 514.397 1188.83 515.489 1191.08 517.085C1193.32 518.676 1195.35 520.84 1197.14 523.563C1198.92 526.286 1200.74 529.891 1202.63 534.394L1261.21 669.547C1261.95 671.237 1263.27 672.08 1265.15 672.08H1268.53C1270.41 672.08 1271.71 671.237 1272.48 669.547L1331.06 534.394C1332.94 529.891 1334.76 526.286 1336.54 523.563C1338.33 520.84 1340.34 518.691 1342.6 517.085C1344.84 515.489 1347.43 514.417 1350.35 513.844C1353.26 513.285 1356.77 512.996 1360.91 512.996H1391.04C1400.8 512.996 1407.37 515.2 1410.75 519.614C1414.12 524.022 1415.81 531.581 1415.81 542.278V703.89C1415.81 708.014 1413.65 710.078 1409.33 710.078H1380.61C1376.48 710.078 1374.41 708.014 1374.41 703.89V556.908C1374.41 555.028 1373.66 554.086 1372.17 554.086H1369.64C1367.76 554.086 1366.53 554.834 1365.97 556.33L1309.1 682.473C1306.86 687.534 1304.56 691.812 1302.2 695.283C1299.84 698.749 1297.31 701.606 1294.61 703.87C1291.88 706.114 1288.78 707.725 1285.31 708.662C1281.84 709.6 1277.75 710.064 1273.05 710.064H1259.53C1254.84 710.064 1250.75 709.6 1247.28 708.662C1243.81 707.725 1240.7 706.134 1237.98 703.87C1235.26 701.606 1232.73 698.749 1230.37 695.283C1228.01 691.812 1225.73 687.534 1223.47 682.473L1166.59 556.33C1166.04 554.834 1164.81 554.086 1162.93 554.086H1160.4C1158.9 554.086 1158.16 555.028 1158.16 556.908V703.89C1158.16 708.014 1156.08 710.078 1151.96 710.078H1123.24C1118.92 710.078 1116.76 708.014 1116.76 703.89V542.278C1116.76 531.581 1118.44 524.022 1121.82 519.614C1125.19 515.2 1131.87 512.996 1141.82 512.996H1172.5Z" fill="white"/>
<path d="M1865.02 512.996C1869.33 512.996 1871.5 515.07 1871.5 519.189V545.938C1871.5 550.057 1869.33 552.131 1865.02 552.131H1741.97C1734.65 552.131 1728.59 552.74 1723.81 553.951C1719.02 555.178 1715.18 557.228 1712.26 560.145C1709.35 563.057 1707.34 567.007 1706.21 571.973C1705.08 576.96 1704.52 583.093 1704.52 590.419V593.236H1863.62C1867.74 593.236 1869.81 595.306 1869.81 599.43V621.67C1869.81 625.794 1867.74 627.863 1863.62 627.863H1704.52V632.656C1704.52 639.981 1705.08 646.14 1706.21 651.101C1707.34 656.068 1709.35 660.017 1712.26 662.935C1715.18 665.847 1719.04 667.916 1723.81 669.123C1728.61 670.35 1734.65 670.948 1741.97 670.948H1865.02C1869.33 670.948 1871.5 673.018 1871.5 677.137V703.885C1871.5 708.009 1869.33 710.078 1865.02 710.078H1741.13C1726.86 710.078 1714.74 708.777 1704.81 706.129C1694.86 703.501 1686.75 699.227 1680.46 693.323C1674.17 687.419 1669.57 679.71 1666.65 670.24C1663.74 660.766 1662.28 649.261 1662.28 635.742V587.312C1662.28 573.793 1663.74 562.349 1666.65 552.954C1669.57 543.579 1674.17 535.93 1680.46 530.005C1686.75 524.101 1694.86 519.763 1704.81 517.04C1714.76 514.317 1726.86 512.961 1741.13 512.961H1865.02V512.996Z" fill="white"/>
<path d="M2312.87 512.996C2316.99 512.996 2319.06 515.07 2319.06 519.194V545.938C2319.06 550.062 2316.99 552.131 2312.87 552.131H2171.8C2166.35 552.131 2162.5 553.552 2160.25 556.35C2157.99 559.167 2156.88 563.022 2156.88 567.894V577.459C2156.88 587.965 2161.75 593.221 2171.53 593.221H2277.13C2293.47 593.221 2305.75 597.4 2314.02 605.758C2322.29 614.12 2326.41 626.083 2326.41 641.652V664.181C2326.41 677.89 2322.36 688.955 2314.31 697.408C2306.23 705.865 2293.66 710.078 2276.57 710.078H2120.56C2116.25 710.078 2114.08 708.014 2114.08 703.89V677.142C2114.08 673.018 2116.25 670.948 2120.56 670.948H2268.4C2273.85 670.948 2277.7 669.547 2279.95 666.73C2282.19 663.912 2283.32 660.077 2283.32 655.191V643.646C2283.32 633.14 2278.43 627.888 2268.67 627.888H2163.07C2146.74 627.888 2134.44 623.705 2126.18 615.367C2117.92 607.004 2113.79 595.041 2113.79 579.473V558.918C2113.79 545.21 2117.82 534.145 2125.91 525.692C2133.98 517.255 2146.56 513.021 2163.65 513.021L2312.87 512.996Z" fill="white"/>
<path d="M385.181 186.201C390.052 186.201 392.487 188.331 392.487 192.589V220.18C392.487 224.434 390.052 226.563 385.181 226.563H218.835C212.412 226.563 207.887 228.019 205.221 230.916C202.575 233.814 201.233 237.783 201.233 242.825V252.698C201.233 263.549 206.985 268.955 218.491 268.955H342.996C362.248 268.955 376.744 273.273 386.485 281.88C396.226 290.487 401.097 302.834 401.097 318.901V342.144C401.097 356.271 396.341 367.695 386.811 376.407C377.3 385.109 362.458 389.482 342.324 389.482H158.395C153.294 389.482 150.763 387.353 150.763 383.094V355.503C150.763 351.249 153.314 349.12 158.395 349.12H332.718C339.141 349.12 343.667 347.664 346.332 344.767C348.978 341.869 350.321 337.9 350.321 332.864V320.956C350.321 310.12 344.568 304.694 333.063 304.694H208.557C189.306 304.694 174.79 300.381 165.068 291.774C155.327 283.162 150.457 270.82 150.457 254.748V233.544C150.457 219.412 155.212 207.988 164.742 199.281C174.253 190.574 189.095 186.201 209.229 186.201H385.181Z" fill="white"/>
<path d="M642.309 186.201C667.585 186.201 685.72 191.248 696.728 201.311C707.716 211.379 713.22 226.274 713.22 246.026V267.519C713.22 287.266 707.716 302.161 696.728 312.229C685.72 322.297 667.6 327.338 642.309 327.338H505.761V383.094C505.761 387.353 503.345 389.482 498.515 389.482H462.884C457.822 389.482 455.291 387.353 455.291 383.094V194.928C455.291 189.118 458.591 186.221 465.187 186.221L642.309 186.201ZM505.761 288.991H632.069C643.287 288.991 651.208 286.867 655.81 282.608C660.427 278.35 662.733 271.872 662.733 263.145V252.105C662.733 243.398 660.427 236.915 655.81 232.642C651.188 228.383 643.269 226.259 632.069 226.259H510.039C507.181 226.259 505.743 227.426 505.743 229.745L505.761 288.991Z" fill="white"/>
<path d="M815.847 186.201C820.623 186.201 823.004 188.331 823.004 192.589V383.074C823.004 387.333 820.603 389.462 815.847 389.462H780.701C775.716 389.462 773.22 387.333 773.22 383.074V192.589C773.22 188.331 775.716 186.201 780.701 186.201H815.847Z" fill="white"/>
<path d="M1077.59 192.758C1093.75 192.758 1107.37 194.159 1118.47 196.916C1129.55 199.699 1138.43 204.032 1145.06 209.937C1151.7 215.846 1156.45 223.455 1159.35 232.736C1162.25 242.016 1163.68 253.171 1163.68 266.191V383.397C1163.68 388.708 1161.02 391.356 1155.73 391.356H1120.27C1114.96 391.356 1112.31 388.708 1112.31 383.397V278.483C1112.31 271.003 1111.83 264.675 1110.87 259.484C1109.91 254.303 1108.03 250.204 1105.28 247.192C1102.49 244.18 1098.7 242.016 1093.88 240.674C1089.05 239.348 1082.78 238.68 1075.08 238.68H978.831C971.105 238.68 948.343 237.797 939.985 238.39C940.578 247.342 939.387 271.003 939.387 278.483V383.397C939.387 388.708 936.722 391.356 931.433 391.356H895.979C890.415 391.356 887.656 388.708 887.656 383.397V266.191C887.656 253.171 888.054 208.575 887.656 191.855C896.955 189.96 957.353 192.738 973.77 192.738L1077.59 192.758Z" fill="white"/>
<path d="M1415.31 188.871C1440.92 188.871 1459.31 193.913 1470.45 203.981C1481.6 214.044 1487.17 228.944 1487.17 248.691V270.183C1487.17 289.936 1481.6 304.831 1470.45 314.894C1459.31 324.962 1440.92 330.008 1415.31 330.008H1276.92V385.744C1276.92 389.998 1274.46 392.127 1269.58 392.127H1233.46C1228.35 392.127 1225.78 389.998 1225.78 385.744V197.573C1225.78 191.768 1229.11 188.871 1235.8 188.871H1415.31ZM1276.94 291.661H1404.95C1416.32 291.661 1424.34 289.532 1429.02 285.273C1433.69 281.019 1436.04 274.537 1436.04 265.81V254.77C1436.04 246.063 1433.69 239.585 1429.02 235.307C1424.34 231.053 1416.32 228.924 1404.95 228.924H1281.27C1278.38 228.924 1276.92 230.096 1276.92 232.415L1276.94 291.661Z" fill="white"/>
<path d="M1583.56 188.871C1588.16 188.871 1590.46 190.995 1590.46 195.254V311.119C1590.46 318.863 1591.13 325.306 1592.49 330.427C1593.86 335.563 1596.1 339.633 1599.24 342.62C1602.39 345.632 1606.63 347.761 1611.96 349.008C1617.29 350.274 1624.06 350.883 1632.23 350.883H1759.42C1764.02 350.883 1766.32 353.017 1766.32 357.27V385.744C1766.32 389.998 1764.02 392.127 1759.42 392.127H1630.33C1614.42 392.127 1600.91 390.766 1589.81 388.063C1578.71 385.36 1569.66 380.952 1562.64 374.853C1555.62 368.755 1550.5 360.816 1547.24 351.037C1544 341.258 1542.37 329.41 1542.37 315.472V195.254C1542.37 190.995 1544.77 188.871 1549.6 188.871H1583.56Z" fill="white"/>
<path d="M1955.54 188.871C1963.5 188.871 1970.2 190.367 1975.64 193.379C1981.09 196.386 1986.42 202.235 1991.66 210.937L2095.6 385.455C2096.64 387.39 2096.91 388.981 2096.39 390.247C2095.87 391.514 2094.36 392.127 2091.83 392.127H2051.94C2048.37 392.127 2045.98 390.866 2044.71 388.352L2022.41 350.883H1874.8L1853.13 388.352C1851.66 390.866 1849.26 392.127 1845.9 392.127H1805.08C1802.35 392.127 1800.72 391.494 1800.21 390.247C1799.69 388.981 1799.94 387.39 1800.99 385.455L1904 210.937C1909.24 202.235 1914.38 196.366 1919.4 193.379C1924.42 190.387 1930.29 188.871 1936.99 188.871H1955.54ZM1894.63 317.218H2002.66L1952.73 232.145C1951.88 230.804 1950.73 230.111 1949.28 230.111H1947.4C1945.92 230.111 1944.77 230.804 1943.94 232.145L1894.63 317.218Z" fill="white"/>
<path d="M2100.2 188.871C2103.54 188.871 2106.05 190.043 2107.74 192.362L2191.59 297.181L2276.07 192.362C2277.74 190.043 2280.26 188.871 2283.62 188.871H2324.76C2326.43 188.871 2327.58 189.504 2328.21 190.746C2328.85 192.013 2328.63 193.319 2327.58 194.661L2214.83 329.969V385.744C2214.83 389.998 2212.53 392.127 2207.93 392.127H2174.01C2169.19 392.127 2166.78 389.998 2166.78 385.744V329.989L2055.27 194.681C2054.22 193.319 2053.97 192.013 2054.49 190.771C2055 189.504 2056.21 188.886 2058.09 188.886L2100.2 188.871Z" fill="white"/>
</svg>
