<svg width="2223" height="699" viewBox="0 0 2223 699" fill="none" xmlns="http://www.w3.org/2000/svg">
<g clip-path="url(#clip0_8280_3808)">
<path d="M317.424 698.565C302.55 697.752 287.722 696.94 272.892 696.128C255.45 695.226 238.007 694.323 220.564 693.285C219.437 693.24 218.22 692.337 217.183 691.525C181.08 661.511 145.022 631.453 108.965 601.439C93.4603 588.486 77.9101 575.533 62.4052 562.535C61.2784 561.588 60.1966 559.963 59.6558 558.293C48.8835 525.842 37.976 493.437 27.5643 460.716C23.688 448.53 21.0739 435.622 18.009 422.939C12.0594 398.297 6.29017 373.609 0.340627 348.966C-0.200241 346.71 -0.0650545 344.95 0.520886 342.829C4.44217 329.515 8.36347 316.2 12.1495 302.796C27.4741 248.863 42.7536 194.973 58.0783 141.04C58.5289 139.37 59.16 137.745 59.4304 136.03C60.1065 132.014 62.2249 130.073 64.6588 128.358C65.5152 127.771 66.3264 127.004 67.1378 126.282C92.2881 103.625 117.258 80.562 142.634 58.3116C153.09 49.1045 164.269 41.5673 175.131 33.2629C189.194 22.6115 203.301 12.0505 217.409 1.53457C218.401 0.76731 219.617 0.361071 220.744 0.361071C284.792 0.180539 348.885 0.0451328 412.932 0C413.879 0 414.87 0.361112 415.681 1.0381C442.365 21.032 469.138 40.8451 495.64 61.2903C504.474 68.1054 512.632 76.5903 521.015 84.3983C538.053 100.194 555.136 116.037 572.128 131.923C573.164 132.871 574.111 134.496 574.607 136.121C593.897 203.368 613.144 270.706 632.389 337.999C632.48 338.27 632.48 338.541 632.57 338.766C635.634 343.912 634.237 349.012 632.885 354.518C624.457 388.503 616.479 422.669 607.825 456.609C604.715 468.839 600.298 480.574 596.422 492.444C589.165 514.514 581.818 536.539 574.607 558.609C573.886 560.775 572.939 562.219 571.497 563.438C521.601 605.005 471.661 646.527 421.812 688.32C417.53 691.931 413.338 693.736 408.381 693.916C393.777 694.458 379.218 695.361 364.615 696.173C350.507 696.985 336.4 697.843 322.247 698.655C320.669 698.746 319.137 698.655 317.56 698.655C317.424 698.655 317.424 698.61 317.424 698.565ZM413.113 492.263C432.403 522.728 451.559 552.922 470.76 583.206C471.031 582.845 471.211 582.619 471.392 582.303C477.431 570.614 483.426 558.924 489.42 547.235C489.78 546.558 490.051 545.611 490.096 544.798C490.411 539.518 490.637 534.282 490.908 529.001C491.764 512.799 492.62 496.506 493.477 480.258C493.928 472.36 494.288 464.416 494.694 456.247C493.882 456.473 493.251 456.563 492.62 456.744C473.149 462.927 453.723 469.11 434.251 475.294C433.711 475.474 433.08 475.61 432.629 476.061C426.138 481.387 419.783 486.757 413.113 492.263ZM139.839 456.157C140.29 464.416 140.605 472.179 141.056 479.897C142.183 501.109 143.265 522.412 144.437 543.625C144.527 545.113 144.933 546.783 145.564 548.048C151.153 559.06 156.787 570.027 162.466 580.994C162.872 581.761 163.277 582.484 163.773 583.342C183.063 552.922 202.219 522.683 221.466 492.354C214.795 486.802 208.349 481.432 201.904 476.061C201.453 475.699 200.822 475.564 200.236 475.384C185.813 470.78 171.345 466.131 156.922 461.573C151.242 459.722 145.654 458.008 139.839 456.157ZM117.799 378.348C118.52 377.4 119.016 376.678 119.512 376.001C130.915 359.573 142.319 343.054 153.812 326.761C156.561 322.88 158.635 318.773 159.896 313.673C161.519 307.264 163.412 301.035 165.26 294.446C134.025 282.803 102.97 271.248 71.6901 259.604C72.7718 272.963 73.8085 285.871 74.9803 298.734C75.1606 300.81 75.8818 303.021 76.7832 304.691C86.2484 321.887 95.8036 338.948 105.314 356.098C109.461 363.409 113.607 370.766 117.799 378.348ZM516.418 378.529C516.915 377.852 517.049 377.671 517.14 377.445C530.932 352.622 544.769 327.844 558.561 303.021C558.967 302.254 559.238 301.306 559.327 300.404C559.823 295.214 560.273 289.933 560.679 284.698C561.401 276.483 562.032 268.224 562.753 259.514C531.428 271.158 500.373 282.712 469.183 294.357C471.707 303.157 474.051 311.687 476.484 320.127C476.709 320.984 477.295 321.752 477.791 322.429C490.231 340.392 502.716 358.309 515.156 376.272C515.562 376.949 515.967 377.671 516.418 378.529ZM465.667 587.087C446.376 556.623 427.355 526.564 408.2 496.37C401.304 502.103 394.498 507.744 387.737 513.475C387.286 513.927 386.88 514.559 386.52 515.191C375.612 534.101 364.66 553.058 353.753 572.013C353.482 572.464 353.302 572.96 353.031 573.593C353.618 573.818 354.068 574.043 354.519 574.134C378.993 581.446 403.467 588.757 427.986 595.933C428.934 596.204 429.925 596.204 430.871 595.979C439.119 593.947 447.368 591.781 455.616 589.705C458.907 588.848 462.152 587.99 465.667 587.087ZM281.546 573.593C281.277 573.006 281.141 572.735 281.006 572.464C269.918 553.238 258.83 534.011 247.742 514.829C247.427 514.288 247.067 513.701 246.661 513.386C239.945 507.744 233.229 502.147 226.378 496.415C207.267 526.61 188.202 556.713 169.001 587.042C169.677 587.313 169.992 587.494 170.309 587.584C180.36 590.156 190.411 592.729 200.462 595.212C202.625 595.753 204.924 596.43 206.952 595.843C227.731 589.886 248.464 583.658 269.197 577.474C273.163 576.12 277.265 574.901 281.546 573.593ZM404.639 138.964C404.053 138.107 403.647 137.474 403.287 136.933C387.511 114.953 371.737 92.9284 355.916 70.9488C355.285 70.0912 354.473 69.3691 353.662 68.9629C343.16 63.6824 332.614 58.4921 322.112 53.2116C321.616 52.9408 321.075 52.7603 320.444 52.5798C320.444 89.9497 320.444 127.049 320.444 164.373C321.255 164.373 321.977 164.373 322.652 164.373C329.594 164.373 336.625 164.419 343.566 164.329C344.783 164.329 346.045 164.058 347.217 163.561C356.367 159.679 365.472 155.754 374.575 151.872C384.492 147.584 394.408 143.342 404.639 138.964ZM314.089 164.373C314.089 126.913 314.089 89.8593 314.089 52.5345C313.323 52.8505 312.692 53.1213 312.106 53.3921C301.919 58.447 291.823 63.5018 281.682 68.647C280.375 69.324 278.977 70.4523 277.986 71.8514C262.707 93.0187 247.472 114.276 232.237 135.443C231.471 136.526 230.435 137.158 229.488 138.016C230.615 139.19 231.201 139.46 231.742 139.686C249.185 147.223 266.627 154.671 284.071 162.207C285.783 162.974 287.542 164.193 289.299 164.238C297.502 164.464 305.75 164.373 314.089 164.373ZM560.724 251.976C559.778 250.938 559.192 250.397 558.696 249.764C551.755 240.783 544.904 231.757 537.917 222.911C536.882 221.557 535.529 220.429 534.177 219.796C515.967 211.537 497.713 203.323 479.504 195.064C473.825 192.536 468.146 189.964 462.332 187.392C462.241 188.7 462.152 189.738 462.107 190.821C461.295 212.26 460.484 233.698 459.582 255.136C459.447 258.521 459.807 261.634 460.755 264.749C462.602 270.887 464.27 277.07 466.027 283.208C466.389 284.427 466.749 285.645 467.109 286.864C498.254 275.31 529.129 263.756 560.724 251.976ZM167.424 286.909C169.948 278.063 172.381 269.488 174.771 260.913C175.041 259.964 174.951 258.837 174.906 257.753C174.184 239.023 173.509 220.248 172.787 201.473C172.652 196.869 172.381 192.22 172.201 187.526C171.57 187.753 171.209 187.888 170.849 188.068C147.005 198.81 123.118 209.551 99.3192 220.338C98.5082 220.699 97.6972 221.466 97.0654 222.324C89.8993 231.576 82.7327 240.874 75.6114 250.171C75.1606 250.758 74.755 251.39 74.1691 252.247C105.404 263.801 136.323 275.31 167.424 286.909ZM320.489 358.083C320.489 398.207 320.489 437.697 320.489 477.189C345.594 477.189 370.609 477.189 395.94 477.189C370.745 437.382 345.73 397.936 320.489 358.083ZM238.548 477.234C263.969 477.234 288.983 477.234 313.953 477.234C313.953 437.608 313.953 398.116 313.953 358.174C288.713 397.981 263.743 437.427 238.548 477.234ZM320.399 187.933C320.399 237.173 320.399 286.007 320.399 335.472C340.952 303.067 361.189 271.113 381.562 238.933C361.099 221.918 340.862 204.993 320.399 187.933ZM314.179 335.562C314.179 285.961 314.179 237.127 314.179 187.888C293.671 204.993 273.389 221.828 252.925 238.933C273.298 271.113 293.581 303.067 314.179 335.562ZM401.439 473.669C409.281 445.957 416.989 418.651 424.786 391.256C391.839 379.025 359.161 366.794 325.898 354.383C351.228 394.46 376.198 433.816 401.439 473.669ZM233.049 473.669C258.29 433.861 283.214 394.506 308.184 355.059C308.095 354.879 308.049 354.789 308.004 354.608C275.326 366.794 242.559 378.98 209.701 391.256C217.499 418.742 225.206 445.957 233.049 473.669ZM186.714 294.086C227.369 309.25 267.529 324.189 307.689 339.173C307.779 338.948 307.869 338.812 307.959 338.586C287.857 306.858 267.755 275.085 247.607 243.356C227.369 260.235 207.222 277.025 186.714 294.086ZM386.88 243.311C366.733 275.129 346.631 306.812 326.574 338.541C326.664 338.766 326.754 338.902 326.844 339.128C367.004 324.144 407.163 309.205 447.773 294.04C427.266 277.025 407.164 260.235 386.88 243.311ZM305.165 347.026C305.165 346.845 305.21 346.71 305.21 346.484C265.005 331.501 224.846 316.561 184.236 301.397C192.079 329.108 199.741 356.188 207.448 383.358C240.216 371.262 272.712 359.166 305.165 347.026ZM329.278 346.484C329.278 346.665 329.278 346.8 329.234 347.026C361.775 359.166 394.317 371.307 426.95 383.448C434.702 356.142 442.365 329.064 450.162 301.487C409.552 316.561 369.438 331.546 329.278 346.484ZM579.52 278.56C574.787 287.09 570.189 295.304 565.638 303.608C565.187 304.421 564.961 305.549 564.872 306.541C563.88 318.006 562.933 329.469 562.032 340.933C560.679 357.361 559.282 373.79 557.93 390.263C556.984 401.591 556.037 412.965 555.09 424.655C555.631 424.158 556.037 423.887 556.398 423.526C570.28 408.451 584.208 393.332 598.044 378.167C598.54 377.581 598.945 376.226 598.901 375.279C598.721 368.961 598.36 362.597 598.09 356.278C597.233 338.496 596.377 320.759 595.43 302.976C595.385 302.074 595.25 300.946 594.799 300.268C589.796 293.092 584.748 286.007 579.52 278.56ZM79.4425 424.926C78.9918 419.509 78.6312 414.725 78.2255 409.941C75.4762 377.175 72.7267 344.408 70.1125 311.597C69.7069 306.812 68.6703 302.796 66.4166 299.005C62.7207 293.002 59.4304 286.548 55.9148 280.32C55.5993 279.778 55.2837 279.281 54.878 278.695C49.7399 286.007 44.6917 293.137 39.7337 300.359C39.3282 300.9 39.1929 301.984 39.1478 302.796C37.9309 326.987 36.759 351.134 35.6773 375.37C35.6322 376.453 36.2181 377.896 36.8492 378.574C46.0439 388.683 55.3288 398.703 64.5236 408.767C69.3914 414.003 74.2141 419.283 79.4425 424.926ZM494.513 578.422C502.581 575.895 510.333 573.547 518.132 571.02C518.852 570.794 519.483 569.936 519.979 569.26C533.14 550.846 546.166 532.341 559.372 513.972C560.544 512.347 560.724 510.904 560.409 508.827C558.021 494.656 555.767 480.393 553.468 466.177C552.296 459 551.124 451.779 549.862 444.197C549.456 444.828 549.276 445.144 549.096 445.551C531.653 479.446 514.21 513.341 496.767 547.235C496.451 547.866 496.091 548.634 496.046 549.401C495.505 558.879 495.009 568.448 494.513 578.422ZM84.7611 444.242C84.5808 445.01 84.4455 445.46 84.3554 445.957C80.9299 467.35 77.4142 488.698 74.0338 510.091C73.8986 511.129 74.3493 512.663 74.8902 513.475C88.0513 532.116 101.258 550.71 114.464 569.215C115.184 570.253 116.221 571.02 117.258 571.381C121.269 572.78 125.236 573.909 129.248 575.127C132.763 576.211 136.279 577.294 139.974 578.332C139.479 568.989 139.028 560.052 138.487 551.206C138.352 549.536 137.991 547.686 137.271 546.332C120.278 513.115 103.15 479.942 86.1132 446.769C85.7526 446.002 85.3019 445.28 84.7611 444.242ZM470.941 123.98C470.806 124.296 470.625 124.612 470.49 124.883C470.941 125.153 471.391 125.334 471.706 125.74C493.882 154.489 516.058 183.284 538.234 212.033C538.954 212.936 539.902 213.703 540.893 214.11C548.104 217.45 555.316 220.654 562.572 223.949C563.158 224.22 563.744 224.4 564.466 224.626C564.556 223.452 564.646 222.595 564.691 221.692C565.006 214.29 565.367 206.843 565.547 199.442C565.592 197.953 565.187 196.056 564.51 194.884C553.738 175.476 542.785 156.25 532.014 136.753C530.3 133.638 528.408 132.51 525.749 132.148C510.604 129.982 495.46 127.636 480.315 125.379C477.206 124.837 474.051 124.431 470.941 123.98ZM69.9773 224.672C70.8788 224.31 71.5999 224.085 72.1859 223.769C79.2172 220.609 86.2936 217.495 93.3248 214.201C94.4971 213.659 95.7141 212.711 96.6146 211.492C118.655 183.014 140.56 154.489 162.556 125.966C162.961 125.424 163.277 124.837 163.818 124.16C163.007 124.16 162.421 124.115 161.835 124.16C143.265 126.958 124.695 129.757 106.125 132.646C105.359 132.735 104.413 133.502 103.916 134.36C92.4684 154.67 81.02 174.98 69.6618 195.335C69.2111 196.147 68.8956 197.41 68.9406 198.449C69.0758 203.459 69.3012 208.423 69.4815 213.433C69.5717 217.179 69.7971 220.79 69.9773 224.672ZM342.394 39.8071C342.214 40.1682 342.034 40.6195 341.854 40.9806C346.947 47.6602 352.039 54.2947 357.178 60.9293C358.124 62.1027 359.207 63.186 360.378 63.7726C391.253 79.2532 422.217 94.5986 453.137 110.034C453.723 110.305 454.309 110.53 455.165 110.891C454.85 110.034 454.715 109.537 454.534 109.131C446.556 89.9046 438.579 70.6328 430.511 51.3612C430.06 50.2779 428.888 49.3753 427.941 49.1045C407.479 42.831 387.061 36.6478 366.598 30.4646C365.877 30.2389 364.975 29.9682 364.299 30.2842C356.953 33.3531 349.696 36.5576 342.394 39.8071ZM179.232 110.891C180.089 110.44 180.494 110.349 180.855 110.124C212.135 94.5528 243.46 78.9823 274.695 63.3213C275.507 62.87 276.318 62.1931 276.904 61.3355C281.637 54.8364 286.325 48.247 291.057 41.6576C291.462 41.1161 291.779 40.5292 292.274 39.762C284.746 36.4672 277.445 33.2629 270.143 30.1035C269.512 29.8327 268.701 30.0134 268.025 30.1938C247.472 36.4222 226.874 42.6505 206.321 48.8788C205.059 49.2399 204.338 50.0522 203.707 51.6319C195.954 70.4523 188.157 89.2275 180.314 108.048C180.043 108.815 179.774 109.582 179.232 110.891ZM326.98 630.64C327.746 631.182 328.017 631.408 328.286 631.589C344.693 641.789 361.099 652.033 377.506 662.188C378.317 662.73 379.534 662.73 380.435 662.369C400.312 653.613 420.189 644.813 440.021 635.876C441.013 635.425 441.959 634.431 442.59 633.348C446.196 627.21 449.667 620.982 453.182 614.754C453.633 614.077 453.993 613.31 454.534 612.272C447.548 610.195 440.787 608.48 434.206 606.133C430.375 604.779 426.725 605.005 422.849 606.043C397.293 612.723 371.691 619.132 346.09 625.631C339.96 627.346 333.695 628.925 326.98 630.64ZM307.553 630.776C306.516 630.46 306.021 630.234 305.525 630.144C274.02 622.156 242.559 614.122 211.098 606.043C207.403 605.096 203.978 605.005 200.327 606.314C195.279 608.074 190.14 609.383 185.092 610.872C183.425 611.369 181.757 611.956 179.909 612.543C184.011 619.808 187.931 626.714 191.898 633.619C192.529 634.702 193.52 635.65 194.512 636.101C214.209 644.947 233.995 653.658 253.692 662.46C255.044 663.045 256.126 663.001 257.388 662.188C267.664 655.689 277.986 649.28 288.262 642.916C294.528 638.854 300.838 634.973 307.553 630.776ZM205.419 176.785C205.059 177.958 204.789 178.726 204.564 179.538C197.802 203.323 191.177 227.198 184.28 250.893C182.117 258.25 180.629 265.471 181.486 273.459C181.937 277.747 181.846 282.216 181.982 286.548C181.982 287.044 182.072 287.586 182.162 288.489C202.761 271.293 223.133 254.323 243.686 237.173C230.975 217.043 218.266 197.005 205.419 176.785ZM452.416 288.58C452.731 279.552 453.092 271.113 453.362 262.628C453.407 261.861 453.092 261.048 452.912 260.326C445.25 233.246 437.587 206.212 429.925 179.222C429.745 178.545 429.474 177.824 429.114 176.875C416.267 197.14 403.602 217.134 390.847 237.263C411.31 254.278 431.637 271.248 452.416 288.58ZM432.719 385.57C453.407 393.287 473.96 400.915 494.784 408.722C494.423 407.368 494.243 406.466 493.973 405.563C487.797 383.764 481.352 362.101 475.538 340.076C472.608 328.882 468.597 319.089 462.107 311.235C460.033 308.753 458.275 305.775 456.202 302.796C448.314 330.552 440.562 357.903 432.719 385.57ZM139.614 408.722C160.527 400.915 181.035 393.242 201.769 385.57C193.926 357.903 186.174 330.507 178.286 302.796C173.373 309.882 168.686 316.652 163.953 323.467C163.502 324.099 163.322 325.046 163.097 325.813C158.409 342.377 153.722 358.941 149.034 375.505C145.924 386.426 142.859 397.349 139.614 408.722ZM492.259 416.35C471.526 408.632 451.108 401.05 430.556 393.377C422.803 420.773 415.096 447.943 407.298 475.519C408.335 475.293 408.876 475.203 409.417 474.977C414.284 473.488 419.152 471.773 424.066 470.419C427.941 469.336 431.412 467.305 434.837 464.461C453.272 448.936 471.752 433.636 490.277 418.2C490.772 417.749 491.359 417.163 492.259 416.35ZM142.228 416.44C143.22 417.297 143.851 417.839 144.437 418.38C162.916 433.816 181.396 449.116 199.83 464.642C203.211 467.485 206.681 469.607 210.603 470.554C213.352 471.232 216.057 472.27 218.761 473.127C221.466 473.985 224.169 474.797 227.189 475.699C226.874 474.481 226.739 473.714 226.514 472.946C219.257 447.221 211.91 421.54 204.698 395.77C204.202 394.009 203.662 393.513 202.31 394.055C189.419 398.929 176.438 403.713 163.502 408.542C156.471 411.115 149.53 413.687 142.228 416.44ZM320.489 485.448C320.489 510.181 320.489 534.733 320.489 559.511C321.255 558.924 321.886 558.473 322.472 557.977C339.78 543.579 356.953 528.866 374.395 514.829C381.202 509.368 387.151 503.005 391.523 493.933C392.876 491.09 394.633 488.517 396.391 485.448C370.88 485.448 345.774 485.448 320.489 485.448ZM238.052 485.448C241.973 492.218 245.579 498.536 249.23 504.856C249.816 505.894 250.537 506.796 251.393 507.473C271.721 524.443 292.094 541.413 312.466 558.383C312.917 558.744 313.458 559.06 313.953 559.466C313.953 534.643 313.953 510.091 313.953 485.493C288.713 485.448 263.607 485.448 238.052 485.448ZM385.439 232.795C398.059 212.846 410.589 193.078 423.48 172.723C422.172 172.723 421.406 172.723 420.685 172.723C397.518 172.723 374.395 172.768 351.273 172.678C347.262 172.678 343.431 173.31 339.6 175.16C334.687 177.508 329.639 179.493 324.275 181.84C344.783 198.9 364.975 215.735 385.439 232.795ZM211.009 172.723C223.944 193.123 236.474 212.891 249.05 232.795C269.423 215.825 289.66 198.945 310.122 181.885C309.401 181.524 308.906 181.253 308.455 181.028C302.641 178.5 296.781 175.972 290.922 173.581C289.75 173.084 288.488 172.814 287.271 172.814C262.707 172.768 238.142 172.768 213.533 172.768C212.947 172.723 212.226 172.723 211.009 172.723ZM549.005 425.06C552.025 389.135 554.956 353.841 557.885 318.593C557.75 318.547 557.57 318.502 557.434 318.366C545.22 340.301 533.005 362.19 520.746 384.26C530.075 397.8 539.36 411.16 549.005 425.06ZM85.5273 425.06C95.128 411.25 104.413 397.891 113.787 384.351C101.528 362.281 89.2683 340.301 77.0537 318.322C76.9185 318.412 76.7833 318.502 76.603 318.593C79.5777 353.841 82.5074 389.09 85.5273 425.06ZM90.1246 440.361C105.945 471.141 121.495 501.335 137.045 531.574C137.18 531.484 137.36 531.393 137.496 531.304C136.143 505.578 134.791 479.851 133.439 454.126C119.016 449.567 104.818 445.055 90.1246 440.361ZM496.993 531.348C497.128 531.393 497.353 531.438 497.488 531.529C512.993 501.335 528.543 471.141 544.363 440.406C529.669 445.099 515.427 449.613 501.049 454.172C499.696 479.897 498.345 505.668 496.993 531.348ZM169.948 127.636C149.485 154.218 129.383 180.35 109.235 206.438C109.776 206.754 110.092 206.708 110.362 206.618C130.374 197.592 150.431 188.52 170.443 179.538C171.66 178.996 171.886 178.184 171.795 176.65C171.3 164.284 170.849 152.007 170.398 139.641C170.309 135.804 170.128 132.014 169.948 127.636ZM524.937 206.979C525.027 206.798 525.117 206.618 525.208 206.438C505.105 180.35 484.958 154.218 464.586 127.725C464.45 129.08 464.405 129.757 464.36 130.478C463.775 145.688 463.278 160.898 462.602 176.018C462.512 178.275 463.053 179.087 464.54 179.719C479.459 186.398 494.333 193.078 509.252 199.803C514.481 202.195 519.709 204.586 524.937 206.979ZM265.636 77.2222C265.546 76.9965 265.501 76.8612 265.366 76.6355C237.646 90.4461 209.927 104.257 181.757 118.248C195.368 124.115 208.395 129.622 221.42 135.354C222.863 135.985 223.719 135.714 224.801 134.225C233.995 121.272 243.28 108.454 252.475 95.5462C256.892 89.4983 261.264 83.3602 265.636 77.2222ZM452.145 118.519C452.145 118.338 452.145 118.157 452.145 117.977C424.471 104.167 396.751 90.401 369.032 76.5903C368.897 76.8611 368.717 77.1771 368.581 77.4479C369.663 78.8019 370.835 80.0656 371.917 81.5098C384.582 99.1113 397.247 116.849 409.958 134.405C410.453 135.083 411.581 135.759 412.212 135.488C425.598 129.982 438.849 124.251 452.145 118.519ZM324.275 623.193C354.293 615.521 383.726 608.029 413.113 600.537C412.662 599.95 412.212 599.724 411.761 599.635C391.208 593.496 370.7 587.449 350.147 581.265C348.93 580.904 348.254 581.446 347.533 582.664C341.763 592.729 335.994 602.748 330.225 612.768C328.377 616.063 326.484 619.312 324.275 623.193ZM221.33 600.04C221.33 600.22 221.33 600.356 221.33 600.537C250.762 608.074 280.24 615.566 310.032 623.148C309.627 622.336 309.536 622.02 309.401 621.749C301.874 608.706 294.347 595.708 286.865 582.574C285.919 580.949 285.062 580.994 283.845 581.401C269.603 585.643 255.359 589.886 241.117 594.083C234.536 596.069 227.955 598.054 221.33 600.04ZM196.765 52.0833C196.18 52.1284 195.819 52.1284 195.548 52.2638C181.892 56.416 168.19 60.4328 154.623 64.8559C151.648 65.8037 148.899 68.2859 145.834 70.1815C154.848 84.3532 163.412 97.8479 172.157 111.659C180.405 91.6196 188.517 72.0319 196.765 52.0833ZM437.632 51.9479C446.016 72.0771 454.128 91.755 462.377 111.704C471.166 97.803 479.729 84.308 488.654 70.2266C485.725 68.331 483.2 65.9841 480.496 65.0815C470.85 61.7867 461.115 59.0336 451.379 56.0549C446.917 54.6558 442.454 53.3921 437.632 51.9479ZM555.27 439.864C558.832 461.618 562.302 483.011 565.907 505.261C566.719 503.862 567.124 503.05 567.621 502.374C576.14 490.322 584.658 478.181 593.311 466.312C595.52 463.288 596.287 459.542 597.504 455.615C583.396 450.334 569.469 445.099 555.27 439.864ZM67.949 504.991C68.2195 504.72 68.4899 504.449 68.7603 504.178C72.2309 482.831 75.7015 461.483 79.2622 439.819C64.9292 445.144 51.047 450.335 37.1196 455.526C38.2014 460.038 39.4634 463.829 41.8521 467.125C50.3258 478.723 58.6191 490.593 67.0025 502.418C67.4081 503.14 67.6336 504.133 67.949 504.991ZM599.487 386.697C585.425 401.998 571.632 416.937 557.659 432.146C571.903 437.472 585.785 442.617 599.577 447.763C602.191 440.135 602.191 440.135 601.695 432.237C601.47 428.491 601.335 424.79 601.154 420.999C600.613 409.806 600.073 398.567 599.487 386.697ZM35.0463 386.788C34.9562 387.736 34.9111 388.187 34.9111 388.594C34.1899 403.939 33.5138 419.283 32.6124 434.628C32.3419 439.458 33.5138 443.474 34.9111 447.852C48.8384 442.662 62.6756 437.472 76.8733 432.146C62.8109 416.892 49.1088 402.043 35.0463 386.788ZM524.757 123.889C516.824 109.763 509.252 96.4041 501.77 82.909C499.562 78.9373 496.316 77.4479 493.522 74.7399C484.913 88.3248 476.484 101.639 467.786 115.404C486.806 118.293 505.511 121.046 524.757 123.889ZM166.792 115.404C158.049 101.548 149.53 88.1895 140.876 74.4691C138.262 77.0417 135.287 78.9373 133.439 82.0515C125.732 95.0948 118.385 108.544 110.903 121.859C110.633 122.4 110.407 122.942 109.956 123.889C128.977 121.046 147.637 118.293 166.792 115.404ZM370.7 666.792C353.707 656.14 337.166 645.85 320.489 635.425C320.489 652.304 320.489 668.913 320.489 685.297C323.464 685.297 326.529 686.199 329.143 685.115C342.89 679.384 356.502 673.156 370.7 666.792ZM314.044 635.425C297.277 645.896 280.735 656.231 263.878 666.792C264.824 667.243 265.366 667.468 265.907 667.739C278.392 673.291 290.877 678.752 303.362 684.439C306.922 686.064 310.393 685.386 314.044 685.567C314.044 668.868 314.044 652.304 314.044 635.425ZM627.251 346.44C618.823 334.479 610.53 322.7 601.965 310.514C602.957 330.959 603.904 350.591 604.896 370.766C612.558 362.417 619.769 354.518 627.251 346.44ZM32.4772 311.281C32.3419 311.235 32.2067 311.1 32.0715 311.055C23.8232 322.745 15.5751 334.524 7.23669 346.394C14.7637 354.563 22.0204 362.461 29.5925 370.676C30.5841 350.501 31.5307 330.914 32.4772 311.281ZM68.1744 184.142C77.6847 167.217 86.8344 150.924 96.3449 134C85.8879 135.579 76.1071 137.068 66.1461 138.558C66.8673 153.767 67.4984 168.571 68.1744 184.142ZM568.297 138.558C558.29 137.068 548.51 135.624 538.099 134.044C547.653 150.969 556.804 167.308 566.269 184.187C566.989 168.481 567.666 153.722 568.297 138.558ZM104.052 567.319C104.142 567.139 104.187 566.958 104.232 566.778C93.5956 551.793 82.9581 536.854 72.0958 521.555C70.2027 533.199 68.3998 544.346 66.5519 555.72C79.127 559.601 91.6121 563.438 104.052 567.319ZM530.166 566.823C530.255 567.003 530.301 567.139 530.391 567.319C542.876 563.438 555.361 559.602 567.891 555.675C565.998 544.211 564.195 533.108 562.347 521.509C551.439 536.99 540.802 551.884 530.166 566.823ZM387.016 668.281C395.67 673.697 403.782 678.707 411.896 683.852C413.158 684.664 413.789 684.439 414.645 682.949C421 671.666 427.355 660.473 433.711 649.28C434.026 648.738 434.251 648.152 434.792 647.068C418.792 654.11 403.152 661.06 387.016 668.281ZM247.472 668.191C231.336 661.015 215.696 654.064 200.056 647.114C206.727 659.57 213.533 671.666 220.429 683.627C220.654 684.078 221.51 684.258 221.871 684.078C230.3 679.022 238.637 673.743 247.472 668.191ZM257.704 25.0036C257.207 24.5523 256.982 24.3717 256.756 24.2363C245.399 19.2717 234.085 14.3523 222.772 9.34252C221.691 8.84606 221.24 9.38763 220.789 10.5159C218.49 16.2027 216.101 21.8443 213.758 27.5311C212.135 31.4576 210.513 35.4292 208.665 39.8523C225.117 34.8877 241.252 30.0134 257.704 25.0036ZM376.604 24.9584C393.236 30.0133 409.327 34.8877 425.778 39.8974C425.327 38.7239 425.057 38.0019 424.786 37.3248C421.181 28.6142 417.53 19.9938 414.015 11.2381C413.293 9.43276 412.662 8.98145 411.175 9.61331C400.402 14.3973 389.63 19.0461 378.858 23.785C378.182 24.0558 377.595 24.4169 376.604 24.9584ZM121.405 384.847C125.417 392.114 129.383 399.199 133.529 406.601C139.794 384.576 145.834 363.138 151.919 341.701C151.784 341.61 151.693 341.475 151.558 341.384C141.552 355.827 131.501 370.269 121.405 384.847ZM513.083 384.847C502.942 370.224 492.936 355.827 482.929 341.384C482.794 341.475 482.705 341.61 482.569 341.701C488.654 363.184 494.739 384.622 500.959 406.556C505.105 399.065 509.027 392.069 513.083 384.847ZM198.93 175.747C198.479 175.702 198.298 175.656 198.163 175.702C191.853 178.545 185.588 181.389 179.277 184.187C178.151 184.684 178.241 185.676 178.286 186.895C178.737 199.396 179.232 211.853 179.683 224.4C179.863 229.591 180.134 234.826 180.36 240.016C180.494 240.016 180.629 240.062 180.765 240.062C186.76 218.713 192.799 197.366 198.93 175.747ZM453.768 240.062C453.904 240.062 454.038 240.016 454.173 240.016C454.264 239.159 454.309 238.256 454.354 237.398C455.03 220.429 455.661 203.503 456.292 186.534C456.382 184.954 455.841 184.548 454.939 184.187C448.945 181.569 442.951 178.816 437.001 176.108C436.596 175.927 436.19 175.883 435.559 175.747C441.688 197.366 447.728 218.668 453.768 240.062ZM261.624 525.797C261.85 526.564 261.895 526.745 261.985 526.881C270.324 541.322 278.662 555.765 286.956 570.252C287.677 571.561 288.443 571.652 289.479 571.336C293.942 569.937 298.359 568.673 302.821 567.319C304.759 566.732 306.742 566.146 309.176 565.424C293.085 552.019 277.491 539.066 261.624 525.797ZM372.818 526.429C372.728 526.339 372.683 526.203 372.592 526.068C356.998 539.066 341.403 552.064 325.718 565.108C325.943 565.379 326.033 565.559 326.168 565.604C332.659 567.545 339.104 569.576 345.594 571.336C346.225 571.517 347.262 570.659 347.758 569.847C355.285 557.029 362.677 544.076 370.114 531.168C370.97 529.588 371.917 528.009 372.818 526.429ZM139.343 447.808C154.443 452.591 169.361 457.33 184.28 462.115C184.326 461.889 184.416 461.753 184.416 461.528C169.046 448.755 153.676 435.893 137.991 422.849C138.487 431.515 138.937 439.503 139.343 447.808ZM496.451 422.804C480.677 435.893 465.397 448.71 450.072 461.483C450.162 461.708 450.207 461.844 450.253 462.07C465.172 457.33 480.135 452.546 495.099 447.852C495.595 439.593 495.956 431.56 496.451 422.804ZM269.107 164.329C268.341 163.877 268.07 163.742 267.8 163.561C254.053 157.649 240.216 151.691 226.423 145.87C225.792 145.599 224.666 146.185 224.169 146.907C220.294 152.098 216.552 157.424 212.767 162.749C212.496 163.11 212.27 163.652 211.91 164.329C230.931 164.329 249.725 164.329 269.107 164.329ZM422.398 164.329C422.532 164.013 422.758 163.697 422.894 163.426C418.521 157.694 414.195 151.872 409.732 146.23C409.327 145.734 408.29 145.779 407.659 146.05C397.293 150.473 386.926 154.896 376.514 159.364C372.954 160.853 369.392 162.432 365.832 163.922C365.877 164.013 365.877 164.193 365.922 164.284C384.762 164.329 403.602 164.329 422.398 164.329ZM458.41 130.93C458.275 130.885 458.14 130.84 457.959 130.749C450.478 142.575 442.996 154.444 435.334 166.54C442.59 169.835 449.486 172.949 456.653 176.154C457.238 160.808 457.824 145.87 458.41 130.93ZM176.483 130.749C176.348 130.84 176.212 130.93 176.077 131.02C176.663 145.959 177.204 160.898 177.791 176.198C185.047 172.903 191.943 169.79 199.11 166.585C191.447 154.354 183.965 142.575 176.483 130.749ZM320.444 617.236C327.971 604.238 335.093 591.781 342.485 579.008C334.957 576.752 327.791 574.676 320.444 572.464C320.444 587.358 320.444 601.936 320.444 617.236ZM314.044 617.1C314.044 601.846 314.044 587.223 314.044 572.419C306.697 574.63 299.53 576.752 292.048 578.964C299.396 591.826 306.562 604.238 314.044 617.1ZM218.806 142.575C206.366 137.249 194.242 132.059 182.162 126.823C182.072 126.913 182.027 127.094 181.982 127.184C189.419 138.964 196.901 150.653 204.022 161.936C208.935 155.437 213.758 149.164 218.806 142.575ZM415.772 142.484C420.775 149.074 425.598 155.483 430.466 161.981C437.677 150.653 445.114 138.919 452.506 127.229C452.416 127.139 452.371 126.958 452.325 126.868C440.246 132.014 428.122 137.249 415.772 142.484ZM517.14 390.76C513.083 398.071 509.116 405.157 505.015 412.559C517.23 417.117 529.174 421.586 541.119 426.054C541.208 425.873 541.253 425.738 541.299 425.602C533.366 414.003 525.343 402.449 517.14 390.76ZM129.472 412.559C125.326 405.112 121.36 397.981 117.303 390.76C109.1 402.585 101.122 414.139 93.1444 425.602C93.2346 425.783 93.2798 425.918 93.3248 426.098C105.314 421.586 117.213 417.117 129.472 412.559ZM538.414 434.042C538.414 433.861 538.414 433.726 538.414 433.545C526.65 429.122 514.841 424.79 502.852 420.321C502.401 429.032 501.95 437.246 501.545 445.777C513.984 441.76 526.2 437.923 538.414 434.042ZM132.988 445.731C132.537 437.021 132.087 428.807 131.637 420.277C119.602 424.744 107.838 429.122 96.1191 433.501C96.1191 433.681 96.1191 433.816 96.1191 434.042C108.333 437.923 120.503 441.85 132.988 445.731ZM624.457 360.34C624.366 360.16 624.277 360.069 624.186 359.889C618.101 366.478 612.017 373.068 606.022 379.702C605.571 380.199 605.436 381.643 605.481 382.546C605.887 391.888 606.383 401.276 606.833 410.663C606.969 413.552 607.104 416.53 607.284 419.419C607.419 419.464 607.555 419.464 607.735 419.509C613.279 399.832 618.867 380.064 624.457 360.34ZM26.9784 420.05C27.1587 419.103 27.2938 418.742 27.2938 418.426C27.8798 406.24 28.5109 393.964 29.0066 381.778C29.0517 380.876 28.4657 379.612 27.9249 379.025C22.2908 372.797 16.6117 366.659 10.9325 360.476C10.7522 360.25 10.4819 360.16 9.8959 359.799C15.6201 380.108 21.2091 399.832 26.9784 420.05ZM589.345 484.32C589.21 484.275 589.12 484.14 588.985 484.094C583.216 492.218 577.626 500.658 571.632 508.331C568.252 512.618 567.26 516.59 568.657 522.638C570.235 529.498 571.091 536.674 572.353 544.482C578.123 523.901 583.711 504.088 589.345 484.32ZM62.1347 544.211C62.4052 543.038 62.5855 542.316 62.6756 541.684C64.0278 533.289 65.3348 524.94 66.7772 516.59C67.0476 514.92 66.7772 513.972 65.9659 512.844C59.6106 503.907 53.2104 494.971 46.8552 485.99C46.4496 485.448 46.089 485.042 45.6383 484.5C45.5031 484.591 45.4129 484.726 45.2777 484.816C50.8667 504.449 56.4105 524.082 62.1347 544.211ZM211.459 16.5637C211.369 16.4734 211.279 16.3381 211.189 16.2478C197.127 28.0275 182.974 39.7168 168.911 51.4965C179.232 48.8788 189.419 45.8097 199.515 42.6505C200.236 42.4248 201.093 41.4771 201.498 40.4842C204.293 34.0301 206.952 27.4858 209.612 20.9416C210.287 19.4071 210.873 17.9628 211.459 16.5637ZM423.344 16.2478C423.254 16.3381 423.164 16.4284 423.074 16.5186C423.344 17.1956 423.569 17.9178 423.84 18.5496C426.815 25.6806 429.789 32.8567 432.674 40.0328C433.35 41.7027 434.206 42.47 435.469 42.831C440.742 44.4107 446.016 45.9903 451.289 47.6151C455.976 49.0142 460.664 50.4134 465.397 51.8124C465.441 51.632 465.487 51.5416 465.532 51.3612C451.47 39.7168 437.362 28.0275 423.344 16.2478ZM557.659 128.854C557.704 128.674 557.75 128.493 557.75 128.312C543.733 116.669 529.76 104.979 515.743 93.2895C521.196 103.85 526.83 114.005 532.554 124.07C532.915 124.657 533.591 125.108 534.177 125.199C542.019 126.507 549.862 127.681 557.659 128.854ZM118.971 93.8314C118.835 93.6501 118.746 93.5155 118.655 93.3798C104.638 105.024 90.6655 116.758 76.603 128.403C84.5808 127.725 92.4233 126.507 100.221 125.288C100.807 125.199 101.528 124.747 101.844 124.16C107.658 114.005 113.292 103.941 118.971 93.8314ZM43.7452 245.252C47.7567 252.518 51.5878 259.379 55.0584 265.561C58.3036 261.545 61.5037 257.482 64.7039 253.466C64.8842 253.195 65.1095 252.653 65.0645 252.292C64.8842 246.967 64.6588 241.641 64.4334 235.955C57.4021 239.068 50.6864 242.092 43.7452 245.252ZM579.474 265.561C582.945 259.333 586.776 252.383 590.788 245.252C583.802 242.092 577.041 239.068 570.1 235.955C569.874 241.641 569.604 246.786 569.469 252.021C569.469 252.518 569.604 253.15 569.874 253.466C573.029 257.527 576.229 261.5 579.474 265.561ZM331.171 36.2868C326.303 29.8328 321.616 23.6947 317.379 18.1434C312.917 23.9655 308.275 30.0133 303.407 36.377C308.049 38.408 312.421 40.3487 316.838 42.2443C317.199 42.4248 317.604 42.2444 317.966 42.1541C322.202 40.1682 326.484 38.3178 331.171 36.2868ZM487.752 588.802C482.885 590.292 478.243 591.69 473.645 593.135C473.194 593.315 472.653 593.677 472.338 594.218C469.949 598.37 467.606 602.477 465.081 606.991C472.338 609.157 479.369 611.233 486.491 613.4C486.896 605.096 487.302 597.197 487.752 588.802ZM169.452 607.036C166.883 602.477 164.584 598.37 162.195 594.354C161.925 593.858 161.475 593.451 161.113 593.315C156.381 591.826 151.648 590.382 146.736 588.848C147.186 597.152 147.592 605.185 148.042 613.4C155.209 611.278 162.15 609.157 169.452 607.036ZM234.806 684.935C234.806 685.115 234.852 685.297 234.852 685.477C251.573 685.477 268.386 685.477 285.423 685.477C285.017 685.115 284.927 684.89 284.747 684.845C275.372 680.648 265.952 676.451 256.532 672.344C256.081 672.117 255.495 672.117 255.044 672.388C248.238 676.54 241.522 680.738 234.806 684.935ZM399.681 685.432C399.681 685.297 399.727 685.115 399.727 684.89C393.011 680.692 386.294 676.45 379.489 672.298C378.903 671.937 377.957 672.208 377.28 672.524C370.475 675.457 363.669 678.526 356.862 681.595C354.338 682.724 351.859 683.852 349.336 684.981C349.381 685.161 349.381 685.297 349.425 685.386C366.147 685.431 382.914 685.432 399.681 685.432ZM13.682 325.542C14.1328 325.182 14.3581 325.046 14.4483 324.911C20.4429 316.426 26.4375 307.941 32.3419 299.411C32.8828 298.598 33.1532 297.199 33.1983 296.026C33.5589 290.61 33.7843 285.104 34.0097 279.688C34.19 275.356 34.3702 270.932 34.5505 266.599C34.4153 266.554 34.28 266.555 34.0997 266.509C27.384 286.007 20.6231 305.504 13.682 325.542ZM620.31 325.272C620.446 325.182 620.535 325.091 620.626 325.001C613.82 305.458 607.059 285.871 600.253 266.328C600.298 276.709 600.748 286.909 601.29 297.064C601.335 297.831 601.605 298.689 601.965 299.23C608.096 307.895 614.226 316.607 620.31 325.272ZM573.886 159.725C573.75 159.725 573.615 159.725 573.48 159.77C572.984 170.782 572.443 181.84 572.038 192.852C571.992 193.755 572.443 194.884 572.849 195.696C577.357 203.819 581.863 211.853 586.416 219.932C586.641 220.383 586.866 220.79 587.137 221.241C587.272 221.15 587.317 221.016 587.452 220.88C582.945 200.525 578.392 180.125 573.886 159.725ZM61.0079 159.861C60.8727 159.815 60.7375 159.77 60.6022 159.679C56.0499 180.079 51.5427 200.525 46.9453 221.15C47.2609 220.97 47.3961 220.925 47.4412 220.834C52.309 212.26 57.1767 203.594 61.9995 194.928C62.315 194.342 62.4502 193.439 62.4502 192.717C62.0446 181.84 61.5487 170.828 61.0079 159.861ZM470.264 631.633C469.678 631.678 469.498 631.633 469.273 631.678C461.43 635.154 453.542 638.629 445.745 642.194C445.069 642.51 444.438 643.323 443.987 644.135C439.39 652.214 434.748 660.292 430.15 668.462C429.834 669.049 429.564 669.635 429.249 670.222C429.339 670.312 429.383 670.403 429.474 670.492C442.996 657.585 456.518 644.722 470.264 631.633ZM205.014 670.448C205.104 670.357 205.149 670.177 205.284 670.087C202.084 664.4 198.568 659.029 195.684 653.027C191.988 645.173 187.211 640.073 180.449 638.538C179.413 638.313 178.511 637.681 177.475 637.184C173.283 635.38 169.092 633.484 164.9 631.633C164.809 631.814 164.764 631.949 164.719 632.174C178.151 644.902 191.582 657.675 205.014 670.448ZM549.231 570.388C549.231 570.207 549.186 570.118 549.186 569.937C549.005 569.937 548.78 569.892 548.6 569.937C540.171 572.555 531.743 575.172 523.315 577.835C522.503 578.106 521.692 578.873 521.061 579.64C516.734 585.643 512.407 591.781 508.08 597.874C507.313 598.957 506.367 599.86 505.466 600.807C505.647 601.078 505.872 601.394 506.007 601.665C520.43 591.285 534.853 580.859 549.231 570.388ZM128.391 601.71C128.526 601.53 128.571 601.394 128.706 601.214C123.388 593.767 118.069 586.23 112.751 578.828C112.3 578.241 111.624 578.016 111.038 577.79C105.314 576.03 99.6346 574.225 93.911 572.464C91.0711 571.606 88.1866 570.704 85.347 569.847C85.3019 570.027 85.2568 570.207 85.2117 570.388C99.6346 580.814 114.013 591.285 128.391 601.71ZM390.171 10.3805C390.171 10.2 390.171 10.0647 390.171 9.83899C373.675 11.0576 357.178 12.2761 340.682 13.4947C341.133 14.0363 341.628 14.3071 342.124 14.3973C347.578 16.0673 353.121 17.331 358.485 19.4522C362.947 21.1673 367.004 20.8965 371.331 18.685C377.506 15.6611 383.86 13.1788 390.171 10.3805ZM293.942 13.9912C293.942 13.8107 293.896 13.7204 293.896 13.5399C277.4 12.3213 260.904 11.1027 243.776 9.83899C244.497 10.3806 244.722 10.6063 244.948 10.6965C252.79 14.1266 260.678 17.5567 268.521 20.9416C269.152 21.2124 269.918 21.2124 270.594 20.9868C275.192 19.6328 279.743 18.2788 284.341 16.9248C287.496 15.977 290.696 14.9841 293.942 13.9912ZM582.9 272.557C586.911 277.567 590.923 282.486 594.574 287.044C594.123 277.16 593.537 266.193 593.042 255.226C592.906 255.181 592.771 255.136 592.591 255.045C589.48 260.732 586.326 266.419 582.9 272.557ZM41.8973 255.136C41.7621 255.181 41.5367 255.226 41.4015 255.316C40.9057 266.239 40.3648 277.115 39.8691 286.909C43.5199 282.396 47.4862 277.431 51.4976 272.467C48.2074 266.419 45.0073 260.777 41.8973 255.136ZM571.361 206.843C571.046 213.974 570.775 220.293 570.595 226.567C570.595 227.018 571.046 227.65 571.317 227.785C576.409 230.132 581.503 232.479 587.182 235.006C581.818 225.393 576.771 216.457 571.361 206.843ZM63.1263 206.843C57.7176 216.457 52.6695 225.393 47.3059 235.006C52.985 232.433 58.0782 230.178 63.1263 227.785C63.4869 227.605 63.8925 226.747 63.8925 226.296C63.7123 220.067 63.3968 213.885 63.1263 206.843ZM492.981 607.307C499.201 598.551 505.015 590.382 510.83 582.213C505.376 583.387 500.193 584.966 495.009 586.682C494.603 586.771 494.062 587.494 494.017 587.99C493.657 594.083 493.342 600.266 492.981 607.307ZM141.417 605.095C141.146 600.04 140.831 593.858 140.471 587.674C140.425 587.223 139.93 586.726 139.569 586.591C134.34 584.921 129.067 583.296 123.838 581.717C123.703 581.942 123.658 582.077 123.523 582.303C129.563 590.066 135.648 597.783 141.417 605.095ZM476.935 619.583C476.935 619.357 476.89 619.132 476.89 618.996C471.842 617.507 466.794 615.972 461.746 614.528C461.385 614.438 460.755 614.618 460.573 615.025C457.644 620.079 454.759 625.18 451.875 630.279C451.965 630.46 452.01 630.55 452.101 630.731C460.349 626.939 468.641 623.284 476.935 619.583ZM352.987 26.6735C352.987 26.4929 352.987 26.3575 352.987 26.177C344.287 23.5593 335.679 20.8965 326.98 18.2788C326.844 18.5496 326.664 18.7753 326.529 19.0461C330 23.6044 333.47 28.1629 336.94 32.6762C337.256 33.0372 337.932 33.2177 338.293 33.0372C343.251 31.0063 348.119 28.8398 352.987 26.6735ZM183.019 630.911C181.08 627.481 179.458 624.638 177.835 621.84C176.438 619.357 175.311 615.746 173.509 614.844C171.57 613.942 169.001 615.612 166.747 616.243C163.683 617.1 160.663 618.049 157.598 619.041C157.598 619.267 157.598 619.402 157.598 619.628C165.892 623.284 174.229 626.984 183.019 630.911ZM281.502 26.2674C281.502 26.4478 281.502 26.5832 281.502 26.7638C286.369 28.9302 291.237 31.0965 296.15 33.1726C296.556 33.3531 297.232 33.1726 297.502 32.8115C300.973 28.2983 304.444 23.7398 307.914 19.1815C307.779 18.9558 307.644 18.685 307.464 18.5044C298.81 20.9867 290.156 23.6045 281.502 26.2674ZM566.449 288.082C566.584 288.127 566.674 288.263 566.809 288.309C569.694 283.163 572.578 277.928 575.554 272.603C573.12 269.533 570.866 266.69 568.522 263.666C567.801 271.745 567.124 279.914 566.449 288.082ZM67.6787 288.263C67.8139 288.218 67.904 288.082 68.0843 288.038C67.3632 279.868 66.7321 271.7 66.056 263.936C63.7123 266.825 61.4136 269.668 59.0248 272.647C61.9545 277.973 64.8391 283.118 67.6787 288.263ZM145.924 563.031C145.788 563.076 145.564 563.122 145.428 563.212C145.699 568.583 146.014 573.954 146.33 579.324C146.375 579.731 146.645 580.407 146.916 580.498C149.936 581.536 152.956 582.439 156.516 583.522C152.73 576.255 149.35 569.621 145.924 563.031ZM489.06 563.258C488.925 563.212 488.699 563.167 488.563 563.076C485.138 569.756 481.712 576.346 478.017 583.612C481.443 582.529 484.372 581.672 487.257 580.723C487.662 580.634 488.158 579.911 488.203 579.46C488.519 573.999 488.789 568.628 489.06 563.258ZM70.8337 245.071C75.5663 238.888 79.9383 233.246 84.2652 227.559C79.7129 229.004 75.4311 230.945 71.1041 232.975C70.7436 233.156 70.383 234.149 70.383 234.736C70.5182 237.94 70.6985 241.19 70.8337 245.071ZM563.609 245.071C563.744 241.325 563.835 238.211 564.06 235.097C564.15 233.653 563.699 233.066 562.753 232.615C559.282 231.125 555.812 229.5 552.341 227.921C551.665 227.605 550.989 227.379 550.313 227.063C550.268 227.243 550.222 227.379 550.178 227.559C554.55 233.246 558.876 238.888 563.609 245.071ZM308.184 46.7576C304.894 45.3133 302.145 44.0496 299.396 42.9213C299.125 42.831 298.63 43.0116 298.359 43.3726C295.339 47.254 292.364 51.1805 289.345 55.0619C289.479 55.3328 289.66 55.6036 289.795 55.8744C295.745 52.9859 301.649 50.0522 308.184 46.7576ZM344.648 55.9195C344.783 55.6036 344.964 55.3328 345.099 55.0169C342.169 51.1806 339.285 47.3894 336.354 43.6434C336.039 43.192 335.363 42.8762 335.003 43.0567C332.298 44.1399 329.594 45.3585 326.349 46.8027C332.794 50.0523 338.699 52.9407 344.648 55.9195ZM464.135 595.708C457.464 597.423 451.244 599.002 445.024 600.582C449.305 602.342 453.588 603.651 457.87 604.825C458.321 604.914 458.996 604.554 459.312 604.057C460.889 601.485 462.332 598.867 464.135 595.708ZM170.353 595.708C172.157 598.867 173.689 601.62 175.266 604.283C175.492 604.644 176.077 604.914 176.393 604.87C180.765 603.651 185.092 602.342 189.464 601.033C189.464 600.853 189.464 600.718 189.419 600.537C183.244 598.957 177.024 597.423 170.353 595.708ZM460.979 289.165C460.258 286.593 459.627 284.337 458.996 282.125C458.861 282.17 458.681 282.216 458.546 282.216C458.546 284.788 458.546 287.36 458.546 290.068C459.312 289.752 460.033 289.481 460.979 289.165ZM175.943 290.068C175.943 287.225 175.943 284.743 175.943 282.216C175.807 282.17 175.672 282.17 175.492 282.125C174.815 284.427 174.184 286.728 173.509 289.165C174.5 289.527 175.176 289.752 175.943 290.068ZM171.39 296.612C170.669 299.05 170.083 301.216 169.452 303.428C169.587 303.518 169.632 303.608 169.767 303.699C171.12 301.758 172.426 299.817 173.96 297.606C173.012 297.29 172.337 297.019 171.39 296.612ZM460.529 297.606C462.107 299.863 463.413 301.803 464.766 303.744C464.856 303.699 464.946 303.563 465.036 303.518C464.405 301.262 463.729 299.005 463.098 296.703C462.196 297.019 461.566 297.199 460.529 297.606ZM235.168 493.933C235.302 493.753 235.348 493.662 235.483 493.482C234.356 491.496 233.184 489.555 231.922 487.344C231.381 488.292 230.931 489.014 230.435 489.871C232.148 491.405 233.635 492.67 235.168 493.933ZM402.566 487.434C401.259 489.646 400.132 491.632 399.005 493.573C399.096 493.753 399.185 493.843 399.276 494.024C400.898 492.67 402.43 491.405 404.369 489.826C403.602 488.788 403.152 488.201 402.566 487.434ZM226.558 483.688C224.891 483.191 223.403 482.74 221.646 482.199C224.575 485.899 225.341 486.08 226.558 483.688ZM413.023 482.108C411.084 482.695 409.597 483.191 408.064 483.688C409.101 486.215 409.552 486.035 413.023 482.108ZM320.534 175.07C321.841 174.484 323.149 173.942 324.951 173.13C320.715 172.272 320.264 172.452 320.534 175.07ZM314.044 175.115C314.089 172.543 313.007 172.091 309.852 173.31C311.384 173.942 312.647 174.484 314.044 175.115Z" fill="white"/>
<path d="M845.582 188.293H788.476V145.191H929.868C938.7 145.191 945.737 152.458 945.737 161.079V188.293H888.626V326.671H845.582V188.293Z" fill="white"/>
<path d="M1143.96 235.954C1143.96 286.096 1103.4 326.716 1053.32 326.716C1003.24 326.716 962.685 286.096 962.685 235.954C962.685 185.811 1003.24 145.191 1053.32 145.191C1103.4 145.191 1143.96 185.811 1143.96 235.954ZM1100.69 235.954C1100.69 209.867 1079.37 188.519 1053.32 188.519C1027.04 188.519 1005.95 209.867 1005.95 235.954C1005.95 262.266 1027.04 283.388 1053.32 283.388C1079.37 283.388 1100.69 262.266 1100.69 235.954Z" fill="white"/>
<path d="M1172.26 145.191H1211.03C1212.61 145.191 1214.19 145.869 1215.35 147.223L1264.3 204.18L1313.25 147.223C1314.38 145.869 1315.96 145.191 1317.8 145.191H1356.29V326.671H1313.25V213.251L1292.88 237.307L1276.34 256.354C1269.98 263.62 1258.67 263.62 1252.32 256.354L1215.4 213.251V326.671H1172.36V145.191H1172.26Z" fill="white"/>
<path d="M1469.48 145.191H1496.88C1505.71 145.191 1512.74 152.232 1512.74 161.079V214.38H1582.97V145.191H1610.37C1618.97 145.191 1626.23 152.232 1626.23 161.079V326.716H1582.97V257.527H1512.74V326.716H1469.48V145.191Z" fill="white"/>
<path d="M1835.78 235.954C1835.78 286.096 1795.21 326.716 1745.13 326.716C1695.06 326.716 1654.49 286.096 1654.49 235.954C1654.49 185.811 1695.06 145.191 1745.13 145.191C1795.21 145.191 1835.78 185.811 1835.78 235.954ZM1792.5 235.954C1792.5 209.867 1771.19 188.519 1745.13 188.519C1718.86 188.519 1697.77 209.867 1697.77 235.954C1697.77 262.266 1718.86 283.388 1745.13 283.388C1771.23 283.388 1792.5 262.266 1792.5 235.954Z" fill="white"/>
<path d="M1864.08 250.261C1864.08 241.641 1871.33 234.374 1879.95 234.374H1931.6C1944.76 234.374 1955.17 223.723 1954.5 210.545C1954.05 198.088 1943.41 188.52 1931.15 188.52H1864.08V145.418H1930.92C1967.16 145.418 1997.99 174.89 1997.76 211.221C1997.76 237.534 1982.35 260.01 1959.91 270.435L2016.11 326.716H1956.3L1907.12 277.477V326.716H1864.08V250.261Z" fill="white"/>
<path d="M2038.74 145.191H2072.72C2077.27 145.191 2081.78 147.222 2084.71 150.653L2179.63 261.138V145.191H2206.81C2215.65 145.191 2222.67 152.232 2222.67 161.079V326.716H2179.18L2081.78 213.297V326.716H2038.74V145.191Z" fill="white"/>
<path d="M823.586 550.529C822.729 550.258 821.694 549.943 820.837 549.536C819.98 549.265 819.124 548.815 818.223 548.544L816.33 547.55L812.724 545.655C812.138 545.204 811.417 544.933 810.876 544.481C809.704 543.759 808.578 542.902 807.541 542.18C805.242 540.465 803.213 538.569 801.185 536.674C790.819 526.158 784.328 511.715 784.328 495.828C784.328 479.806 790.819 465.364 801.185 454.983C803.213 452.953 805.242 451.237 807.541 449.522C808.532 448.664 809.704 447.943 810.876 447.22C813.31 445.641 815.789 444.332 818.223 443.158C819.079 442.707 819.935 442.436 820.837 441.985L823.586 441.128C829.356 439.097 835.531 438.104 842.021 438.104C848.511 438.104 854.686 439.097 860.455 441.128L863.205 441.985C864.061 442.436 864.918 442.707 865.819 443.158C868.434 444.332 870.867 445.595 873.166 447.22C874.338 447.943 875.465 448.664 876.637 449.522C878.8 451.237 880.963 452.997 882.856 454.983L863.521 474.345C862.078 473.037 860.635 471.727 859.058 470.734H858.923C858.652 470.464 858.202 470.148 857.752 469.877L856.895 469.426L855.723 468.703C854.867 468.252 854.145 467.981 853.289 467.71L852.117 467.26C851.847 467.124 851.531 466.989 851.261 466.989C850.99 466.853 850.81 466.853 850.675 466.718C850.404 466.718 849.953 466.582 849.684 466.447C847.25 465.86 844.635 465.59 842.066 465.59C839.451 465.59 836.882 465.86 834.584 466.447C834.133 466.582 833.863 466.718 833.412 466.718L832.962 466.989C832.691 466.989 832.24 467.124 831.97 467.26L830.798 467.71C829.942 467.981 829.22 468.297 828.499 468.703L827.508 469.155L827.057 469.606L826.2 470.058C825.931 470.193 825.48 470.509 825.209 470.78L823.902 471.637C823.902 471.637 823.766 471.637 823.766 471.772H823.631V471.908C823.046 472.179 822.64 472.63 822.189 472.901V473.037C815.834 478.543 811.823 486.757 811.823 495.828C811.823 504.945 815.878 513.024 822.189 518.62C822.64 518.891 823.046 519.343 823.631 519.794L823.902 520.065L825.209 520.922C826.2 521.644 827.372 522.231 828.545 522.818C829.265 523.269 829.986 523.675 830.843 523.991C832.015 524.442 833.277 524.849 834.584 525.165C836.882 525.751 839.497 526.158 842.066 526.158C844.68 526.158 847.25 525.707 849.684 525.165C850.855 524.894 852.118 524.442 853.289 523.991C854.145 523.721 854.867 523.269 855.723 522.818C856.895 522.231 857.887 521.644 858.878 520.922H859.013L861.312 519.207L863.475 517.177V495.964H880.783C886.417 495.964 890.879 500.432 890.879 505.938V516.905C890.879 524.262 888.13 531.348 882.946 536.538L882.811 536.674C880.918 538.569 878.755 540.419 876.591 542.18L873.12 544.481L871.408 545.475C870.237 546.196 868.974 546.919 867.667 547.505C867.081 547.957 866.36 548.228 865.819 548.499L863.521 549.356V549.491H863.25C862.394 549.943 861.537 550.214 860.501 550.485C854.732 552.515 848.556 553.508 842.066 553.508C835.531 553.553 829.356 552.515 823.586 550.529Z" fill="white"/>
<path d="M948.844 444.558L948.974 444.424C950.421 440.813 954.023 438.195 958.214 438.195C962.413 438.195 965.838 440.632 967.453 444.107L1018.48 553.373L1018.21 553.509H989.944L978.857 529.679H937.757L926.666 553.509H898.136L948.844 444.558ZM966.734 503.908L958.354 485.584L949.833 503.908H966.734Z" fill="white"/>
<path d="M1032.9 438.059H1057.56C1058.55 438.059 1059.58 438.509 1060.3 439.367L1091.45 475.608L1122.6 439.367C1123.31 438.509 1124.3 438.059 1125.48 438.059H1150V553.553H1122.6V481.385L1109.61 496.686L1099.12 508.827C1095.06 513.43 1087.84 513.43 1083.83 508.827L1060.35 481.385V553.553H1032.95V438.059H1032.9Z" fill="white"/>
<path d="M1171.59 438.059H1189.03C1194.48 438.059 1199.13 442.526 1199.13 448.168V553.553H1171.59V438.059Z" fill="white"/>
<path d="M1220.72 438.059H1242.35C1245.23 438.059 1248.12 439.367 1250.01 441.533L1310.41 511.851V438.103H1327.72C1333.35 438.103 1337.81 442.571 1337.81 448.213V553.598H1310.14L1248.16 481.431V553.598H1220.76V438.059H1220.72Z" fill="white"/>
<path d="M1395.01 550.529C1394.15 550.258 1393.16 549.943 1392.26 549.536C1391.41 549.265 1390.55 548.815 1389.65 548.544L1387.8 547.55L1384.2 545.655C1383.61 545.204 1382.89 544.933 1382.3 544.481C1381.13 543.759 1380.01 542.902 1378.97 542.18C1376.66 540.465 1374.64 538.569 1372.61 536.674C1362.25 526.158 1355.76 511.715 1355.76 495.828C1355.76 479.806 1362.25 465.364 1372.61 454.983C1374.64 452.953 1376.66 451.237 1378.97 449.522C1379.96 448.664 1381.13 447.943 1382.3 447.22C1384.74 445.641 1387.22 444.332 1389.65 443.158C1390.5 442.707 1391.36 442.436 1392.26 441.985L1395.01 441.128C1400.78 439.097 1406.96 438.104 1413.44 438.104C1419.94 438.104 1426.12 439.097 1431.88 441.128L1434.63 441.985C1435.49 442.436 1436.35 442.707 1437.24 443.158C1439.86 444.332 1442.29 445.595 1444.6 447.22C1445.76 447.943 1446.89 448.664 1448.07 449.522C1450.22 451.237 1452.39 452.997 1454.24 454.983L1434.9 474.345C1433.46 473.037 1432.02 471.727 1430.44 470.734H1430.31C1430.04 470.464 1429.58 470.148 1429.13 469.877L1428.27 469.426L1427.11 468.703C1426.25 468.252 1425.53 467.981 1424.67 467.71L1423.5 467.26C1423.22 467.124 1422.92 466.989 1422.65 466.989C1422.38 466.853 1422.19 466.853 1422.06 466.718C1421.79 466.718 1421.34 466.582 1421.07 466.447C1418.63 465.86 1416.02 465.59 1413.41 465.59C1410.78 465.59 1408.22 465.86 1405.92 466.447C1405.47 466.582 1405.2 466.718 1404.75 466.718L1404.3 466.989C1404.03 466.989 1403.58 467.124 1403.31 467.26L1402.13 467.71C1401.27 467.981 1400.56 468.297 1399.84 468.703L1398.85 469.155L1398.39 469.606L1397.54 470.058C1397.27 470.193 1396.81 470.509 1396.54 470.78L1395.24 471.637C1395.24 471.637 1395.11 471.637 1395.11 471.772H1394.97V471.908C1394.38 472.179 1393.98 472.63 1393.53 472.901V473.037C1387.17 478.543 1383.16 486.757 1383.16 495.828C1383.16 504.945 1387.22 513.024 1393.53 518.62C1393.98 518.891 1394.38 519.343 1394.97 519.794L1395.24 520.065L1396.54 520.922C1397.54 521.644 1398.71 522.231 1399.88 522.818C1400.6 523.269 1401.32 523.675 1402.18 523.991C1403.36 524.442 1404.62 524.849 1405.92 525.165C1408.22 525.751 1410.83 526.158 1413.41 526.158C1415.97 526.158 1418.59 525.707 1421.07 525.165C1422.24 524.894 1423.49 524.442 1424.67 523.991C1425.53 523.721 1426.25 523.269 1427.11 522.818C1428.27 522.231 1429.27 521.644 1430.26 520.922H1430.39L1432.7 519.207L1434.85 517.177V495.964H1452.16C1457.8 495.964 1462.26 500.432 1462.26 505.938V516.905C1462.26 524.262 1459.51 531.348 1454.33 536.538L1454.19 536.674C1452.34 538.569 1450.19 540.419 1448.02 542.18L1444.55 544.481L1442.83 545.475C1441.67 546.196 1440.41 546.919 1439.09 547.505C1438.51 547.957 1437.78 548.228 1437.2 548.499L1434.9 549.356V549.491H1434.63C1433.78 549.943 1432.92 550.214 1431.88 550.485C1426.12 552.515 1419.94 553.508 1413.44 553.508C1407 553.553 1400.78 552.515 1395.01 550.529Z" fill="white"/>
</g>
<defs>
<clipPath id="clip0_8280_3808">
<rect width="2223" height="699" fill="white"/>
</clipPath>
</defs>
</svg>
