<svg width="1768" height="402" viewBox="0 0 1768 402" fill="none" xmlns="http://www.w3.org/2000/svg">
<path d="M0 72.1539V4.24435H269.791V72.1539H176.425V314.688H93.3657V72.1539H0Z" fill="white"/>
<path d="M381.117 318.932C355.856 318.932 334.232 313.93 316.246 303.925C298.26 293.82 284.467 279.773 274.868 261.785C265.269 243.696 260.469 222.727 260.469 198.878C260.469 175.029 265.269 154.11 274.868 136.122C284.467 118.033 298.26 103.986 316.246 93.9819C334.232 83.8763 355.856 78.8235 381.117 78.8235C406.378 78.8235 428.002 83.8763 445.988 93.9819C463.974 103.986 477.767 118.033 487.366 136.122C496.965 154.11 501.765 175.029 501.765 198.878C501.765 222.727 496.965 243.696 487.366 261.785C477.767 279.773 463.974 293.82 445.988 303.925C428.002 313.93 406.378 318.932 381.117 318.932ZM381.723 257.086C388.797 257.086 394.91 254.711 400.063 249.962C405.216 245.212 409.208 238.441 412.037 229.649C414.866 220.857 416.281 210.398 416.281 198.271C416.281 186.044 414.866 175.584 412.037 166.894C409.208 158.102 405.216 151.331 400.063 146.581C394.91 141.832 388.797 139.457 381.723 139.457C374.246 139.457 367.83 141.832 362.474 146.581C357.119 151.331 353.027 158.102 350.197 166.894C347.368 175.584 345.953 186.044 345.953 198.271C345.953 210.398 347.368 220.857 350.197 229.649C353.027 238.441 357.119 245.212 362.474 249.962C367.83 254.711 374.246 257.086 381.723 257.086Z" fill="white"/>
<path d="M535.716 402V81.8552H618.775V122.48H620.594C623.626 114.597 628.072 107.372 633.932 100.803C639.793 94.1335 647.068 88.828 655.758 84.8869C664.448 80.8447 674.552 78.8235 686.071 78.8235C701.43 78.8235 716.031 82.9163 729.874 91.1018C743.819 99.2873 755.136 112.172 763.826 129.756C772.617 147.339 777.012 170.178 777.012 198.271C777.012 225.152 772.819 247.435 764.432 265.12C756.146 282.805 745.031 295.992 731.087 304.683C717.244 313.374 702.037 317.719 685.465 317.719C674.552 317.719 664.801 315.951 656.213 312.414C647.725 308.776 640.45 303.875 634.387 297.71C628.425 291.445 623.828 284.371 620.594 276.489H619.382V402H535.716ZM617.563 198.271C617.563 209.59 619.028 219.392 621.958 227.679C624.99 235.864 629.234 242.231 634.69 246.778C640.247 251.225 646.866 253.448 654.545 253.448C662.225 253.448 668.742 251.275 674.098 246.93C679.554 242.483 683.697 236.167 686.526 227.982C689.456 219.695 690.922 209.792 690.922 198.271C690.922 186.751 689.456 176.898 686.526 168.713C683.697 160.426 679.554 154.11 674.098 149.765C668.742 145.318 662.225 143.095 654.545 143.095C646.866 143.095 640.247 145.318 634.69 149.765C629.234 154.11 624.99 160.426 621.958 168.713C619.028 176.898 617.563 186.751 617.563 198.271Z" fill="white"/>
<path d="M978.18 101.258C977.372 91.1523 973.583 83.27 966.813 77.6109C960.144 71.9517 949.989 69.1222 936.348 69.1222C927.658 69.1222 920.534 70.1833 914.977 72.3054C909.52 74.3265 905.478 77.1056 902.851 80.6425C900.224 84.1795 898.86 88.2217 898.759 92.7692C898.557 96.5083 899.214 99.8937 900.729 102.925C902.346 105.856 904.872 108.534 908.308 110.959C911.743 113.284 916.139 115.406 921.494 117.326C926.849 119.246 933.215 120.964 940.592 122.48L966.055 127.937C983.233 131.575 997.935 136.375 1010.16 142.337C1022.39 148.299 1032.39 155.323 1040.17 163.407C1047.95 171.391 1053.66 180.385 1057.3 190.389C1061.04 200.394 1062.96 211.308 1063.06 223.131C1062.96 243.544 1057.85 260.825 1047.75 274.973C1037.65 289.121 1023.2 299.883 1004.4 307.26C985.708 314.637 963.226 318.326 936.954 318.326C909.975 318.326 886.431 314.334 866.323 306.351C846.316 298.367 830.755 286.089 819.64 269.516C808.627 252.842 803.069 231.519 802.968 205.548H882.996C883.501 215.047 885.876 223.03 890.12 229.498C894.363 235.965 900.325 240.867 908.004 244.201C915.785 247.536 925.031 249.204 935.741 249.204C944.734 249.204 952.262 248.092 958.325 245.869C964.388 243.646 968.985 240.563 972.118 236.622C975.25 232.681 976.867 228.184 976.968 223.131C976.867 218.382 975.301 214.238 972.269 210.701C969.339 207.063 964.489 203.83 957.719 201C950.949 198.069 941.804 195.341 930.285 192.814L899.365 186.145C871.881 180.183 850.207 170.228 834.343 156.283C818.58 142.236 810.749 123.086 810.85 98.8326C810.749 79.1267 816.003 61.8967 826.613 47.1425C837.323 32.2873 852.127 20.7164 871.022 12.4299C890.019 4.14329 911.794 0 936.348 0C961.407 0 983.081 4.19382 1001.37 12.5814C1019.66 20.9691 1033.76 32.7926 1043.66 48.052C1053.66 63.2104 1058.71 80.9457 1058.81 101.258H978.18Z" fill="white"/>
<path d="M1095.11 314.688V4.24435H1229.1C1252.14 4.24435 1272.3 8.79186 1289.58 17.8869C1306.86 26.9819 1320.29 39.7655 1329.89 56.2376C1339.49 72.7097 1344.29 91.9608 1344.29 113.991C1344.29 136.223 1339.34 155.474 1329.44 171.744C1319.64 188.014 1305.84 200.545 1288.06 209.337C1270.38 218.129 1249.71 222.525 1226.07 222.525H1146.04V157.041H1209.09C1219 157.041 1227.43 155.323 1234.41 151.887C1241.48 148.35 1246.88 143.348 1250.62 136.88C1254.46 130.413 1256.38 122.783 1256.38 113.991C1256.38 105.098 1254.46 97.5188 1250.62 91.2534C1246.88 84.8869 1241.48 80.0362 1234.41 76.7014C1227.43 73.2655 1219 71.5475 1209.09 71.5475H1179.39V314.688H1095.11Z" fill="white"/>
<path d="M1459.48 4.24435V314.688H1375.21V4.24435H1459.48Z" fill="white"/>
<path d="M1768 4.24435V314.688H1697.67L1585.51 151.584H1583.69V314.688H1499.42V4.24435H1570.96L1681.3 166.742H1683.73V4.24435H1768Z" fill="white"/>
</svg>
