<svg width="1419" height="408" viewBox="0 0 1419 408" fill="none" xmlns="http://www.w3.org/2000/svg">
<g clip-path="url(#clip0_8280_3785)">
<path d="M0.211426 56.2695V112.26H43.7793V343.479H103.046V112.26H146.707V56.2695H0.211426Z" fill="white"/>
<path d="M643.139 56.2695V343.479H778.951V287.581H702.406V227.87H763.068V171.879H702.406V112.26H778.951V56.2695H643.139Z" fill="white"/>
<path d="M901.015 11.8125H841.751V299.022H977.56V243.031H901.015V11.8125Z" fill="white"/>
<path d="M1377.85 191.41C1389.55 177.18 1396.61 158.857 1396.61 138.954C1396.61 93.287 1359.64 56.2695 1314.03 56.2695H1250.12V343.479H1315.52C1364.56 343.479 1404.32 303.671 1404.32 254.563C1404.14 229.916 1394.11 207.5 1377.85 191.41ZM1310.59 112.26C1325.36 112.26 1337.25 124.258 1337.25 138.954C1337.25 153.742 1325.27 165.647 1310.59 165.647H1309.38V112.168H1310.59V112.26ZM1344.87 254.563C1344.87 272.793 1330.1 287.488 1311.99 287.488H1309.38V221.545H1311.99C1330.19 221.638 1344.87 236.426 1344.87 254.563Z" fill="white"/>
<path d="M369.005 161.368C369.005 103.332 322 56.2695 264.034 56.2695H222.416H200.029V343.479H259.296V266.375H263.94C267.936 266.375 271.837 266.096 275.645 265.724L314.012 343.479H380.153L330.454 242.565C354.049 223.312 369.005 194.108 369.005 161.368ZM259.482 210.477V112.26H260.689C287.815 112.26 309.738 134.211 309.738 161.368C309.738 188.527 287.815 210.477 260.689 210.477H259.482Z" fill="white"/>
<path d="M528.321 268.421C528.321 283.396 516.151 295.58 501.195 295.58C486.146 295.58 474.07 283.396 474.07 268.421V56.2695H414.803V264.98C414.803 312.786 453.54 351.57 501.288 351.57C549.036 351.57 587.774 312.786 587.774 264.98V56.2695H528.506V268.421H528.321Z" fill="white"/>
<path d="M1419 384.309H820.939V407.84H1419V384.309Z" fill="white"/>
<path d="M1419 0H820.939V23.5311H1419V0Z" fill="white"/>
<path d="M1140.32 387.75H1200.98L1139.11 100.541H1066.37L1004.5 387.75H1065.16L1072.13 354.825H1133.35L1140.32 387.75ZM1084.02 298.834L1102.7 210.756L1121.36 298.834H1084.02Z" fill="white"/>
</g>
<defs>
<clipPath id="clip0_8280_3785">
<rect width="1419" height="408" fill="white"/>
</clipPath>
</defs>
</svg>
