<svg width="1309" height="461" viewBox="0 0 1309 461" fill="none" xmlns="http://www.w3.org/2000/svg">
<path d="M202.031 394.124C298.525 394.124 376.75 315.714 376.75 218.993C376.75 122.27 298.525 43.8613 202.031 43.8613C105.536 43.8613 27.311 122.27 27.311 218.993C27.311 315.714 105.536 394.124 202.031 394.124Z" fill="white"/>
<path d="M331.815 273.38L275.903 217.336L331.815 161.295C338.802 154.29 338.802 143.281 331.815 136.276L282.229 86.5722C275.239 79.5671 264.256 79.5671 257.269 86.5722L201.357 142.614L145.448 86.5722C138.458 79.5671 127.476 79.5671 120.488 86.5722L70.8993 136.276C63.9121 143.281 63.9121 154.29 70.8993 161.295L126.811 217.336L70.8993 273.38C63.9121 280.383 63.9121 291.392 70.8993 298.399L120.488 348.101C127.476 355.108 138.458 355.108 145.448 348.101L201.357 292.058L257.269 348.101C264.256 355.108 275.239 355.108 282.229 348.101L331.815 298.399C338.802 291.392 338.802 280.383 331.815 273.38Z" fill="#192232"/>
<path d="M1168.81 43.8633C1122.88 43.8633 1085.61 81.2246 1085.61 127.259C1085.61 173.294 1122.88 210.656 1168.81 210.656C1214.73 210.656 1252 173.294 1252 127.259C1252 81.2246 1214.73 43.8633 1168.81 43.8633ZM1207.08 143.938C1209.07 145.94 1209.07 149.275 1207.08 151.277L1192.43 165.955C1190.44 167.956 1187.11 167.956 1185.11 165.955L1168.81 149.609L1152.5 165.955C1150.5 167.956 1147.17 167.956 1145.18 165.955L1130.53 151.277C1128.54 149.275 1128.54 145.94 1130.53 143.938L1146.84 127.593L1130.53 111.247C1128.54 109.245 1128.54 105.91 1130.53 103.908L1145.18 89.2305C1147.17 87.2292 1150.5 87.2292 1152.5 89.2305L1168.81 105.576L1185.11 89.2305C1187.11 87.2292 1190.44 87.2292 1192.43 89.2305L1207.08 103.908C1209.07 105.91 1209.07 109.245 1207.08 111.247L1190.77 127.593L1207.08 143.938Z" fill="white"/>
<path d="M647.644 250.693H694.236C696.232 250.693 698.229 252.028 698.893 254.029L750.812 393.133C752.141 396.469 749.48 399.805 746.152 399.805H702.889C700.892 399.805 698.893 398.47 698.229 396.469L693.902 384.46C693.238 382.459 691.239 381.124 689.242 381.124H652.635C650.639 381.124 648.643 382.459 647.975 384.46L643.649 396.469C642.984 398.47 640.988 399.805 638.992 399.805H596.059C592.731 399.805 590.07 396.469 591.399 393.133L642.984 253.695C643.649 252.028 645.645 250.693 647.644 250.693ZM680.923 347.1C684.252 347.1 686.582 343.764 685.583 340.76L671.273 296.394H670.274L656.297 340.76C655.299 344.096 657.626 347.1 660.954 347.1H680.923Z" fill="white"/>
<path d="M772.769 250.693H807.046C808.712 250.693 810.041 251.362 811.039 252.694L851.975 308.072C853.972 310.739 857.964 310.739 859.961 308.072L900.897 252.694C901.895 251.362 903.227 250.693 904.89 250.693H938.836C941.497 250.693 943.827 253.029 943.827 255.699V394.802C943.827 397.469 941.497 399.805 938.836 399.805H898.567C895.903 399.805 893.573 397.469 893.573 394.802V365.447L893.907 334.757H893.242L871.277 364.778C870.279 366.113 868.947 366.782 867.284 366.782H843.987C842.324 366.782 840.992 366.113 839.994 364.778L818.029 334.422L817.364 334.757L817.695 365.447V394.802C817.695 397.469 815.365 399.805 812.704 399.805H772.769C770.105 399.805 767.775 397.469 767.775 394.802V255.699C767.775 252.694 769.772 250.693 772.769 250.693Z" fill="white"/>
<path d="M1203.07 309.73H1155.48C1155.48 309.73 1145.16 310.399 1145.16 301.391C1145.16 292.384 1155.48 292.384 1155.48 292.384H1247C1249.66 292.384 1251.99 290.051 1251.99 287.381V255.356C1251.99 252.689 1249.66 250.354 1247 250.354H1152.48C1128.19 250.354 1103.23 250.353 1103.23 299.725C1103.23 344.425 1127.19 340.42 1151.82 340.42H1199.41C1199.41 340.42 1210.06 340.42 1210.06 348.762C1210.06 357.1 1199.74 357.435 1199.74 357.435H1080.26C1080.26 357.435 1080.26 357.435 1079.93 357.435H1002.39V345.426C1002.39 342.756 1004.72 340.42 1007.38 340.42H1055.3C1057.97 340.42 1060.3 338.085 1060.3 335.418V314.067C1060.3 311.399 1057.97 309.064 1055.3 309.064H1002.39V297.389C1002.39 294.719 1004.72 292.384 1007.38 292.384H1079.93C1082.59 292.384 1084.92 290.051 1084.92 287.381V255.356C1084.92 252.689 1082.59 250.354 1079.93 250.354H965.78C963.12 250.354 960.79 252.689 960.79 255.356V394.463C960.79 397.13 963.12 399.465 965.78 399.465H1202.73C1228.03 399.465 1251.66 399.465 1251.66 350.094C1251.99 305.728 1226.7 309.73 1203.07 309.73Z" fill="white"/>
<path d="M864.633 206.993L836.678 160.292C835.346 158.291 833.35 156.956 831.02 156.956H816.044C812.383 156.956 809.388 159.958 809.388 163.628V203.325C809.388 206.993 806.394 209.997 802.732 209.997H764.462C760.8 209.997 757.806 206.993 757.806 203.325V50.8768C757.806 47.2072 760.8 44.2051 764.462 44.2051H859.642C897.914 44.2051 917.216 72.5595 917.216 100.581C917.216 119.928 908.23 139.276 890.26 149.617C889.926 149.951 889.592 150.618 889.926 150.952L918.214 200.321C920.875 204.657 917.55 210.329 912.222 210.329H870.291C867.961 210.329 865.964 209.328 864.633 206.993ZM809.388 117.927C809.388 118.261 809.722 118.594 810.055 118.594H847.661C860.306 118.594 866.629 109.587 866.629 100.581C866.629 91.5739 860.306 82.5672 847.661 82.5672H816.044C812.383 82.5672 809.388 85.5694 809.388 89.2387V117.927Z" fill="white"/>
<path d="M1060.31 124.924C1059.98 124.59 1059.98 124.59 1059.98 124.257C1059.98 123.923 1059.98 123.923 1060.31 123.59C1068.3 115.25 1072.96 101.907 1072.96 88.5633C1072.96 57.5401 1052.99 43.8633 1033.02 43.8633H941.5C936.84 43.8633 933.181 47.5326 933.181 52.2028V202.314C933.181 206.985 936.84 210.656 941.5 210.656H1033.02C1063.3 210.656 1076.95 185.969 1076.95 163.286C1076.95 147.608 1070.63 133.597 1060.31 124.924ZM1015.05 113.916H979.108V86.8956C979.108 84.2268 981.435 81.8919 984.099 81.8919H1015.05C1026.7 81.8919 1032.02 89.8977 1032.02 97.9039C1032.02 105.91 1026.7 113.916 1015.05 113.916ZM984.099 143.271H1015.05C1026.7 143.271 1032.02 151.277 1032.02 159.283C1032.02 166.956 1026.7 175.295 1015.05 175.295H979.108V148.275C979.108 145.606 981.435 143.271 984.099 143.271Z" fill="white"/>
<path d="M577.086 310.399H523.173C518.847 310.399 515.519 313.735 515.519 318.072V336.753C515.519 341.09 518.847 344.426 523.173 344.426H541.143C541.81 344.426 542.475 345.095 542.475 345.761V355.434C542.475 355.769 542.144 356.435 541.81 356.769C536.817 359.436 531.161 360.771 523.838 360.771H522.839C507.2 360.771 499.211 360.437 491.89 360.105C476.581 359.105 465.265 344.76 465.265 326.079V325.745C465.265 309.733 475.25 296.389 490.559 292.053C494.221 291.052 553.124 290.718 575.423 291.052C579.085 291.052 581.746 288.051 581.746 284.715C581.746 275.041 581.746 257.695 581.746 257.695C581.746 254.025 578.751 251.357 575.423 251.357C552.793 251.357 491.557 251.357 490.225 251.689C449.625 254.693 420.339 286.05 420.339 325.745V326.079C420.339 369.779 442.301 396.799 480.574 399.8C482.24 399.8 494.885 400.135 514.187 400.135C521.841 400.135 527.833 400.135 528.831 400.135C529.496 400.135 530.163 400.135 531.161 400.135C551.461 400.135 582.744 379.784 585.074 373.781C585.407 373.115 585.074 318.741 585.074 318.741C584.74 313.735 581.412 310.399 577.086 310.399Z" fill="white"/>
<path d="M556.457 43.8633H429.661C425.999 43.8633 423.005 46.8657 423.005 50.535V88.5633C423.005 92.2329 425.999 95.2351 429.661 95.2351H460.61C464.272 95.2351 467.266 98.2372 467.266 101.907V203.984C467.266 207.651 470.261 210.656 473.923 210.656H511.862C515.524 210.656 518.518 207.651 518.518 203.984V102.24C518.518 98.5708 521.513 95.5687 525.174 95.5687H556.123C559.785 95.5687 562.78 92.5665 562.78 88.8969V50.535C563.113 46.8657 560.119 43.8633 556.457 43.8633Z" fill="white"/>
<path d="M695.243 44.2051C691.581 44.2051 688.586 47.2072 688.586 50.8768V152.953C688.586 159.958 685.926 162.627 678.602 162.627H642.328C635.008 162.627 632.344 159.958 632.344 152.953V50.8768C632.344 47.2072 629.349 44.2051 625.687 44.2051H586.417C582.758 44.2051 579.76 47.2072 579.76 50.8768V159.625C579.76 177.306 584.087 190.315 592.409 198.32C600.728 206.661 614.374 210.663 632.344 210.663H687.922C705.892 210.663 719.538 206.327 727.857 198.32C736.176 189.981 740.503 176.971 740.503 159.625V50.8768C740.503 47.2072 737.508 44.2051 733.846 44.2051H695.243Z" fill="white"/>
</svg>
