<svg width="2153" height="673" viewBox="0 0 2153 673" fill="none" xmlns="http://www.w3.org/2000/svg">
<g clip-path="url(#clip0_8280_3872)">
<path d="M388.795 214.519H493.309C499.58 214.519 505.851 216.622 507.941 222.932C510.031 229.241 507.941 233.447 503.761 239.757C447.323 296.541 390.885 353.325 334.447 412.213C321.905 424.832 307.273 439.554 294.731 452.172C290.551 456.379 284.28 460.585 275.919 456.379C269.648 454.275 267.558 447.966 267.558 439.553C267.558 370.15 267.558 300.747 267.558 231.344C267.558 216.622 271.738 212.416 284.28 212.416H388.795V214.519Z" fill="white"/>
<path d="M645.9 214.519H748.324C754.595 214.519 760.866 214.519 765.047 222.932C767.137 231.344 765.047 235.55 760.866 239.757C702.338 298.644 645.9 357.532 587.372 414.316C574.83 426.935 562.288 439.554 549.747 452.172C545.566 456.379 539.295 460.585 533.024 456.379C526.753 454.275 524.663 447.966 524.663 441.657C524.663 370.15 524.663 300.747 524.663 229.241C524.663 218.725 528.844 212.416 541.385 212.416C576.92 214.519 612.455 214.519 645.9 214.519Z" fill="white"/>
<path d="M240.384 336.501V441.657C240.384 447.966 238.293 454.276 232.023 456.379C225.752 458.482 219.481 456.379 215.3 452.173C146.321 382.77 77.341 311.263 6.2711 239.757C0.000222481 233.448 -2.09007 227.138 2.09051 220.829C4.1808 214.52 10.4517 214.52 16.7226 214.52H96.1536H221.571C236.203 214.52 240.384 218.726 240.384 233.448V336.501Z" fill="white"/>
<path d="M1233.27 286.026L1260.45 372.254H1206.1L1233.27 286.026ZM1210.28 214.52L1126.67 458.482H1178.92L1193.56 412.213H1275.08L1289.71 458.482H1341.97L1258.36 214.52H1210.28Z" fill="white"/>
<path d="M1350.33 458.482H1513.37V416.42H1413.04L1511.28 248.17V216.623H1350.33V258.686H1448.57L1350.33 426.936V458.482Z" fill="white"/>
<path d="M1676.41 353.326V321.779C1676.41 279.716 1665.96 258.685 1632.52 258.685H1594.89V418.523H1632.52C1663.87 416.42 1676.41 395.388 1676.41 353.326ZM1544.73 458.482V216.623H1630.43C1684.78 216.623 1724.49 243.963 1724.49 321.779V353.326C1724.49 431.141 1686.87 458.482 1630.43 458.482H1544.73ZM1839.46 286.026L1866.63 372.254H1812.28L1839.46 286.026ZM1816.46 214.52L1732.85 458.482H1785.11L1799.74 412.213H1881.26L1895.89 458.482H1948.15L1864.54 214.52H1816.46Z" fill="white"/>
<path d="M1971.15 458.482H2017.13V307.057L2111.19 458.482H2153V214.52H2107.01V368.048L2012.95 214.52H1973.24V458.482H1971.15Z" fill="white"/>
<path d="M930.18 353.326C944.812 321.779 961.534 290.232 978.256 258.685H1009.61C1024.24 290.232 1040.97 321.779 1055.6 351.223C1057.69 351.223 1057.69 351.223 1059.78 351.223C1059.78 307.057 1059.78 260.788 1059.78 214.52H1107.85V454.276C1093.22 454.276 1078.59 454.276 1061.87 454.276C1040.97 414.316 1020.06 370.151 994.979 325.985C971.986 370.151 951.083 412.213 928.089 454.276C911.367 454.276 896.735 454.276 880.013 454.276C880.013 374.357 880.013 294.438 880.013 214.52H925.999V351.223C928.089 353.326 930.18 353.326 930.18 353.326Z" fill="white"/>
</g>
<defs>
<clipPath id="clip0_8280_3872">
<rect width="2153" height="673" fill="white"/>
</clipPath>
</defs>
</svg>
