<svg width="1559" height="239" viewBox="0 0 1559 239" fill="none" xmlns="http://www.w3.org/2000/svg">
<path d="M68.981 236L0.446455 3.61791H70.7965L102.567 146.587H104.383L142.054 3.61791H197.427L235.098 147.041H236.913L268.684 3.61791H339.034L270.5 236H210.135L170.648 106.193H168.833L129.346 236H68.981ZM422.547 3.61791V236H359.459V3.61791H422.547ZM653.51 3.61791V236H600.861L516.895 113.909H515.534V236H452.445V3.61791H506.002L588.607 125.255H590.422V3.61791H653.51ZM747.008 236V3.61791H910.402V54.4515H810.096V94.3922H900.416V145.226H810.096V236H747.008ZM964.951 236H896.871L973.575 3.61791H1059.81L1136.51 236H1068.43L1017.6 67.6138H1015.78L964.951 236ZM952.243 144.318H1080.23V191.521H952.243V144.318ZM1275.12 76.2373C1274.51 68.6728 1271.67 62.7725 1266.61 58.5363C1261.61 54.3002 1254.01 52.1821 1243.8 52.1821C1237.29 52.1821 1231.96 52.9764 1227.8 54.565C1223.71 56.0779 1220.69 58.1581 1218.72 60.8057C1216.76 63.4533 1215.73 66.4791 1215.66 69.8831C1215.51 72.682 1216 75.2161 1217.13 77.4855C1218.34 79.6792 1220.23 81.6838 1222.81 83.4993C1225.38 85.2391 1228.67 86.8276 1232.68 88.2649C1236.69 89.7022 1241.45 90.9881 1246.98 92.1228L1266.04 96.2077C1278.9 98.9309 1289.9 102.524 1299.06 106.987C1308.21 111.45 1315.7 116.708 1321.52 122.759C1327.35 128.735 1331.62 135.468 1334.35 142.956C1337.14 150.445 1338.58 158.615 1338.66 167.465C1338.58 182.746 1334.76 195.681 1327.2 206.271C1319.63 216.862 1308.82 224.918 1294.75 230.44C1280.75 235.962 1263.92 238.723 1244.25 238.723C1224.05 238.723 1206.43 235.735 1191.38 229.759C1176.4 223.783 1164.75 214.592 1156.43 202.187C1148.18 189.705 1144.02 173.744 1143.95 154.303H1203.86C1204.24 161.414 1206.01 167.39 1209.19 172.231C1212.37 177.072 1216.83 180.741 1222.58 183.237C1228.4 185.734 1235.33 186.982 1243.34 186.982C1250.08 186.982 1255.71 186.15 1260.25 184.486C1264.79 182.821 1268.23 180.514 1270.58 177.564C1272.92 174.614 1274.13 171.248 1274.21 167.465C1274.13 163.91 1272.96 160.809 1270.69 158.161C1268.5 155.438 1264.87 153.017 1259.8 150.899C1254.73 148.705 1247.88 146.663 1239.26 144.772L1216.11 139.779C1195.54 135.316 1179.31 127.865 1167.43 117.426C1155.63 106.911 1149.77 92.5767 1149.85 74.4218C1149.77 59.671 1153.7 46.7735 1161.65 35.7293C1169.67 24.6095 1180.75 15.9481 1194.89 9.74517C1209.12 3.54227 1225.42 0.440813 1243.8 0.440813C1262.56 0.440813 1278.78 3.58009 1292.48 9.85864C1306.17 16.1372 1316.72 24.9877 1324.13 36.4101C1331.62 47.7569 1335.4 61.0326 1335.48 76.2373H1275.12ZM1356.3 54.4515V3.61791H1558.27V54.4515H1488.38V236H1426.2V54.4515H1356.3Z" fill="white"/>
</svg>
