<svg width="1743" height="476" viewBox="0 0 1743 476" fill="none" xmlns="http://www.w3.org/2000/svg">
<path fill-rule="evenodd" clip-rule="evenodd" d="M301.873 90.5735C299.065 90.1059 296.273 89.6409 293.667 88.4258C292.261 88.4258 290.938 88.4258 289.532 88.5078C286.801 113.607 279.604 137.393 267.36 160.443C261.654 150.271 257.6 140.183 254.041 129.929C249.408 116.395 246.763 102.534 244.859 88.4258H242.376C241.881 89.0399 241.154 89.1023 240.438 89.1637C240.198 89.1843 239.959 89.2049 239.731 89.246C229.059 90.9684 218.717 93.7573 208.542 97.2022C206.474 97.9404 205.895 98.7606 206.225 100.975C208.129 113.28 210.693 125.419 214.414 137.311C215.742 141.517 217.236 145.688 218.726 149.85C219.563 152.18 220.398 154.507 221.2 156.832C220.051 157.37 219.233 156.975 218.433 156.589C218.252 156.503 218.073 156.416 217.889 156.342C198.698 148.96 182.068 137.804 168.005 122.959C166.103 120.907 164.862 120.907 162.709 122.629C154.106 129.602 146.165 137.147 138.885 145.349C136.9 147.565 137.314 148.794 139.134 150.682C162.544 174.961 190.59 191.447 223.433 199.894C226.855 200.761 230.223 201.516 233.889 202.341C234.742 202.532 235.612 202.729 236.504 202.93C225.749 214.331 214.249 223.764 201.841 232.293C198.779 234.345 197.124 234.016 194.644 231.639C172.389 210.641 146.496 195.466 117.541 185.294C114.563 184.228 113.406 184.803 112.164 187.673C108.027 197.515 104.719 207.605 102.155 217.941C101.409 220.892 101.822 222.124 104.967 223.189C123.083 229.26 139.713 238.283 154.852 249.929C155.145 250.151 155.45 250.364 155.757 250.579C156.917 251.385 158.102 252.21 158.823 253.703C157.995 253.976 157.242 254.25 156.489 254.523C156.11 254.659 155.733 254.796 155.347 254.932C137.892 260.921 119.94 264.12 101.574 265.186C99.1747 265.349 98.1821 265.842 98.5145 268.467C99.7535 279.786 101.657 290.942 104.8 301.85C105.463 304.147 106.374 304.967 108.773 304.721C120.437 303.572 132.018 302.177 143.434 299.552C190.839 288.808 231.29 265.924 264.797 231.146C266.782 229.094 267.774 228.931 269.843 231.146C278.86 240.825 288.788 249.52 299.377 257.393C336.934 285.364 379.125 300.948 425.867 304.721C427.852 304.885 429.093 304.803 429.756 302.424C432.899 291.35 434.967 280.113 436.041 268.63C436.29 266.088 435.546 265.431 432.982 265.267C420.241 264.611 407.749 262.889 395.422 259.771C388.804 258.131 382.105 256.409 375.403 253.539C376.203 252.904 376.886 252.345 377.512 251.838C378.176 251.294 378.776 250.805 379.374 250.34C394.597 238.61 411.306 229.506 429.591 223.353C432.734 222.287 433.147 220.892 432.485 218.023C429.921 207.687 426.611 197.599 422.475 187.755C421.318 184.885 420.076 184.31 417.099 185.378C387.812 195.63 361.835 211.05 339.333 232.293C337.267 234.263 335.942 234.59 333.459 232.868C321.629 224.912 310.711 216.053 300.783 205.883C300.615 205.717 300.432 205.558 300.244 205.395C299.504 204.757 298.714 204.075 298.714 202.766C300.534 202.439 302.354 202.028 304.174 201.619C339.747 193.826 370.108 176.847 395.341 150.845C397.326 148.794 397.575 147.565 395.506 145.268C388.225 137.147 380.366 129.765 371.928 122.874C369.613 120.989 368.371 121.07 366.303 123.286C352.569 137.886 336.19 148.794 317.494 156.178C317.215 156.288 316.929 156.437 316.639 156.589C315.639 157.11 314.556 157.678 313.275 156.914C313.44 156.26 313.605 155.603 313.854 154.946C320.72 137.886 325.353 120.25 328.166 102.124C328.58 99.3347 328.166 97.9404 325.27 97.0382C319.23 95.1517 313.191 93.265 307.071 91.6246C305.36 91.1537 303.614 90.8633 301.873 90.5735ZM247.311 387.321C247.316 389.371 247.321 391.42 247.321 393.472C247.321 395.565 247.325 397.655 247.33 399.741C247.346 405.99 247.362 412.217 247.237 418.489C247.156 421.277 247.899 422.179 250.796 422.424C261.633 423.329 272.47 423.244 283.391 422.424C286.533 422.179 287.196 421.195 287.196 418.241C287.154 410.121 287.154 401.98 287.154 393.839C287.154 385.697 287.154 377.558 287.112 369.438C287.031 366.814 287.691 364.844 289.346 362.713C296.213 353.859 303.068 344.991 309.925 336.123C320.662 322.231 331.404 308.336 342.209 294.47C344.443 291.598 343.864 290.778 340.886 289.467C330.793 285.036 321.113 279.788 311.931 273.799C309.532 272.24 308.54 272.57 306.801 274.783C300.041 283.705 293.207 292.552 286.366 301.406C280.815 308.589 275.262 315.777 269.741 323.014C267.837 325.556 266.928 325.801 264.859 323.095C259.192 315.655 253.455 308.234 247.713 300.803C241.047 292.18 234.375 283.546 227.797 274.867C225.895 272.322 224.735 272.406 222.336 273.963C213.071 279.952 203.391 285.2 193.3 289.549C190.239 290.86 190.32 291.843 192.224 294.306C205.288 311.054 218.264 327.846 231.246 344.65C235.94 350.725 240.635 356.801 245.335 362.876C246.742 364.762 247.404 366.569 247.404 368.863C247.279 375.016 247.295 381.169 247.311 387.321Z" fill="white"/>
<path fill-rule="evenodd" clip-rule="evenodd" d="M1446.68 178.496C1464.38 178.741 1480.51 183.744 1494.99 194.08C1497.22 195.72 1497.72 196.786 1495.9 199.165C1491.68 204.824 1487.63 210.732 1483.74 216.719C1482.33 218.852 1481.42 219.261 1479.11 217.702C1470.01 211.634 1460.33 206.876 1449.16 205.892C1444.44 205.481 1439.81 205.563 1435.34 207.285C1430.71 209.091 1427.4 212.206 1426.99 217.457C1426.58 222.787 1428.97 226.643 1433.77 229.103C1439.85 232.298 1446.44 234.015 1453.04 235.73L1455.61 236.403C1463.55 238.537 1471.5 240.834 1479.02 244.278C1494.08 251.167 1502.35 262.486 1502.11 279.302C1501.86 296.363 1494.58 309.24 1478.86 316.868C1468.85 321.707 1458.09 323.102 1447.09 322.609C1427.15 321.707 1409.2 315.145 1393.57 302.679C1391.42 300.957 1391 299.889 1392.99 297.676C1397.87 292.261 1402.5 286.684 1407.05 281.024C1408.62 279.056 1409.53 279.056 1411.6 280.615C1423.76 290.212 1437.33 296.281 1453.3 295.624C1456.94 295.461 1460.41 294.886 1463.72 293.409C1468.35 291.36 1471.25 288.079 1471.58 282.828C1471.91 277.498 1469.35 273.972 1464.88 271.593C1458.39 268.074 1451.24 266.221 1444.15 264.382C1442.48 263.947 1440.81 263.515 1439.15 263.061C1432.28 261.176 1425.42 259.124 1418.88 256.173C1402.58 248.788 1394.97 235.747 1396.63 217.95C1398.7 196.213 1414.75 181.12 1438.08 179.153C1440.33 178.823 1442.64 178.706 1444.96 178.587L1446.68 178.496ZM785.851 281.335V281.304C785.858 279.402 785.863 277.505 785.863 275.61C785.863 267.571 785.779 259.451 785.698 251.413C785.698 249.281 785.2 248.625 782.966 248.625C769.979 248.707 757.073 248.707 744.086 248.625C741.768 248.625 741.438 249.527 741.438 251.494C741.52 257.645 741.603 263.8 741.438 269.95C741.438 272.165 742.266 272.656 744.332 272.574C745.864 272.492 747.373 272.513 748.884 272.535C750.392 272.553 751.903 272.574 753.433 272.492C755.502 272.411 756.081 273.231 755.997 275.117C755.916 278.563 755.916 281.926 755.997 285.37C756.081 287.011 755.418 287.995 754.012 288.978C739.453 298.657 716.124 298.741 702.06 288.406C686.177 276.675 681.874 260.271 685.1 241.815C688.327 223.033 703.713 208.925 721.17 207.53C735.48 206.383 748.138 210.402 759.058 219.588C761.044 221.229 761.955 221.065 763.526 219.095C768.573 212.781 773.701 206.547 779.08 200.476C780.9 198.426 780.319 197.606 778.499 196.129C759.307 180.627 736.97 176.281 713.228 180.134C657.882 189.159 637.698 247.886 662.02 289.471C677.158 315.309 701.563 324.743 730.848 323.593C750.455 322.854 767.745 315.884 783.215 303.99C785.119 302.513 786.028 301.036 785.944 298.575C785.821 292.853 785.837 287.081 785.851 281.335ZM806.867 247.716C809.185 212.036 832.1 186.198 867.175 180.293C892.243 176.028 915.656 180.95 935.51 198.256C934.125 199.915 932.742 201.565 931.359 203.212C926.798 208.647 922.27 214.043 917.888 219.583C916.309 221.595 915.345 220.829 914.064 219.81L913.669 219.499C904.073 211.709 893.236 207.771 880.744 207.36C862.131 206.706 843.351 220.649 839.711 242.795C836.982 258.871 840.538 273.472 852.782 285.2C868.831 300.538 894.891 297.832 909.285 288.728C910.277 288.072 910.94 287.333 910.775 286.104C910.775 284.824 910.907 283.466 911.042 282.108C911.351 278.944 911.663 275.785 910.277 273.635C908.964 271.654 905.956 272.018 902.967 272.378C901.625 272.542 900.289 272.703 899.11 272.651C896.958 272.57 896.297 271.995 896.379 269.864C896.546 263.711 896.546 257.558 896.379 251.408C896.297 249.274 897.041 248.618 899.191 248.7C912.181 248.784 925.087 248.784 938.074 248.7C940.392 248.7 940.722 249.52 940.722 251.571C940.638 267.567 940.638 283.559 940.722 299.555C940.722 301.688 939.729 302.754 938.239 303.901C924.094 314.975 908.127 321.782 890.093 323.588C844.813 329.199 803.883 294.108 806.867 247.716ZM1679.14 321.707C1677.82 321.625 1676.41 321.544 1675.09 321.544C1667.71 321.544 1660.32 321.539 1652.93 321.534H1652.9H1652.87C1630.64 321.518 1608.37 321.501 1586.16 321.625C1583.1 321.625 1582.27 320.887 1582.27 317.77C1582.35 273.642 1582.35 229.512 1582.27 185.303C1582.27 181.859 1583.35 181.284 1586.41 181.366C1594.02 181.529 1601.54 181.611 1609.16 181.366C1612.38 181.284 1613.21 182.186 1613.21 185.385C1613.18 199.226 1613.17 213.055 1613.16 226.881C1613.15 247.625 1613.14 268.377 1613.04 289.144C1613.04 292.67 1613.79 293.738 1617.51 293.738C1630.99 293.561 1644.5 293.596 1658 293.628C1663.4 293.643 1668.79 293.654 1674.18 293.654C1675.01 293.654 1675.84 293.696 1676.66 293.738C1677.49 293.778 1678.32 293.82 1679.14 293.82V321.707ZM965.392 234.747V234.77C965.388 240.257 965.383 245.765 965.383 251.244V317.599C965.299 320.634 966.046 321.536 969.188 321.536C980.235 321.415 991.327 321.429 1002.4 321.445C1006.08 321.45 1009.77 321.455 1013.45 321.455C1020.23 321.373 1026.93 320.716 1033.55 319.242C1067.97 311.53 1090.72 281.674 1088.48 247.061C1086.16 212.202 1060.19 185.462 1024.95 182.181C1013.4 181.106 1001.83 181.244 990.242 181.38C983.229 181.464 976.208 181.546 969.188 181.361C966.046 181.277 965.299 182.181 965.299 185.214C965.425 201.703 965.409 218.237 965.392 234.747ZM996.416 261.334C996.411 258.054 996.406 254.77 996.406 251.49C996.406 238.537 996.406 225.563 996.323 212.611C996.323 210.15 996.571 208.921 999.549 209.084C1002.39 209.232 1005.24 209.199 1008.08 209.164C1013.09 209.103 1018.08 209.045 1023.04 209.986C1041.74 213.594 1054.56 227.538 1056.05 246.405C1057.13 260.021 1054.4 272.57 1044.14 282.494C1036.69 289.712 1027.51 293.075 1017.34 293.65C1013.98 293.876 1010.6 293.853 1007.22 293.827C1004.52 293.806 1001.82 293.785 999.135 293.895C996.653 293.977 996.323 293.075 996.323 290.862C996.446 281.019 996.432 271.177 996.416 261.334ZM1225.3 321.462C1222.3 321.462 1219.36 321.457 1216.46 321.452C1207.9 321.436 1199.68 321.422 1191.47 321.544C1189.33 321.544 1188.54 320.293 1187.71 319.008L1187.5 318.674C1185.36 315.51 1183.23 312.355 1181.1 309.205C1174.72 299.784 1168.36 290.387 1162.1 280.86C1160.11 277.825 1158.04 275.939 1154.24 276.678C1151.76 277.168 1150.93 276.185 1151.01 273.56C1151.18 266.587 1151.18 259.617 1151.01 252.644C1150.93 250.102 1151.67 249.445 1154.24 249.445C1156.14 249.419 1158.03 249.48 1159.93 249.538C1164.23 249.674 1168.52 249.807 1172.77 248.952C1184.1 246.657 1190.39 239.357 1190.06 228.858C1189.73 218.111 1183.36 210.977 1171.86 209.664C1165.32 208.874 1158.78 208.998 1152.22 209.122C1148.57 209.19 1144.92 209.26 1141.25 209.171C1139.22 209.096 1139.24 210.241 1139.26 211.496L1139.27 211.879V226.643C1139.27 234.174 1139.26 241.713 1139.25 249.253V249.277C1139.24 271.939 1139.22 294.64 1139.35 317.279C1139.35 320.56 1138.69 321.789 1135.13 321.625C1127.27 321.38 1119.41 321.462 1111.55 321.625C1108.99 321.707 1108.32 320.969 1108.32 318.426C1108.41 273.887 1108.41 229.267 1108.32 184.728C1108.32 182.268 1108.91 181.447 1111.55 181.447C1118.25 181.475 1124.96 181.457 1131.67 181.438C1145.1 181.403 1158.54 181.366 1171.94 181.693C1187.41 182.104 1201.72 186.287 1211.9 199.001C1230.27 222.049 1221.41 258.058 1194.44 270.032C1191.05 271.509 1191.47 272.577 1193.2 275.037C1202.18 287.826 1211.09 300.795 1220.3 314.19L1225.3 321.462ZM1300.84 238.448C1303.61 231.7 1306.44 224.82 1309.35 217.621C1311.62 223.18 1313.85 228.617 1316.05 233.987L1316.07 234.02C1319.87 243.295 1323.58 252.366 1327.3 261.503C1328.15 263.54 1326.82 263.47 1325.64 263.409L1325.33 263.395L1325.07 263.388C1318.62 263.47 1312.08 263.47 1305.63 263.388C1303.64 263.388 1302.65 263.963 1301.99 265.767C1299.26 272.904 1296.45 280.04 1293.47 287.011C1292.31 289.717 1292.64 290.455 1295.78 290.455C1302.48 290.415 1309.17 290.415 1315.85 290.415C1322.52 290.415 1329.21 290.415 1335.91 290.373C1338.31 290.292 1339.55 290.948 1340.46 293.327C1343.85 301.94 1347.41 310.551 1350.96 319.083C1351.05 319.291 1351.12 319.511 1351.19 319.73C1351.55 320.819 1351.92 321.952 1353.78 321.952C1361.29 321.829 1368.8 321.845 1376.27 321.861C1378.76 321.866 1381.24 321.871 1383.72 321.871C1383.72 321.572 1383.74 321.354 1383.75 321.184C1383.76 320.934 1383.77 320.786 1383.72 320.641C1364.21 274.967 1344.69 229.213 1325.17 183.459L1325.15 183.415C1324.24 181.366 1323 181.036 1321.02 181.036C1313.82 181.202 1306.7 181.284 1299.51 181.036C1296.53 180.954 1295.2 181.94 1294.05 184.565C1284.53 206.871 1275 229.178 1265.47 251.485L1265.46 251.513L1265.39 251.663C1255.88 273.918 1246.37 296.171 1236.88 318.426C1236.79 318.655 1236.65 318.884 1236.52 319.118C1236.07 319.894 1235.58 320.737 1236.22 321.871C1238.56 321.871 1240.9 321.866 1243.23 321.861C1250.24 321.845 1257.25 321.831 1264.26 321.952C1266.66 321.952 1267.24 320.641 1267.9 319.001C1273.22 305.915 1278.57 292.86 1283.91 279.816L1283.92 279.788C1287.71 270.518 1291.51 261.253 1295.29 251.987C1297.12 247.501 1298.96 243.017 1300.83 238.471L1300.84 238.448ZM516.333 181.44C519.325 181.44 522.27 181.447 525.181 181.452C533.777 181.466 542.073 181.482 550.418 181.359C552.462 181.359 552.982 182.611 553.487 183.824C553.615 184.132 553.743 184.438 553.894 184.721C559.951 195.891 565.979 207.091 572.013 218.303C575.949 225.615 579.889 232.936 583.841 240.252C584.42 241.318 584.998 242.386 585.826 243.778C587.811 240.138 589.764 236.6 591.688 233.106C594.013 228.891 596.303 224.738 598.564 220.567C601.073 215.973 603.602 211.393 606.133 206.811C610.201 199.443 614.276 192.073 618.256 184.639C619.495 182.261 620.82 181.277 623.549 181.359C631.183 181.482 638.865 181.466 646.522 181.452C649.07 181.447 651.618 181.44 654.158 181.44C654.533 182.677 653.919 183.541 653.347 184.347C653.161 184.611 652.977 184.871 652.836 185.133C636.211 214.33 619.576 243.535 602.951 272.651C601.545 275.112 600.963 277.573 600.963 280.36C601.001 285.705 600.989 291.032 600.98 296.36C600.966 303.462 600.952 310.558 601.047 317.683C601.131 320.798 600.138 321.618 597.077 321.536C589.466 321.291 581.937 321.291 574.326 321.536C571.184 321.618 570.107 320.964 570.191 317.599C570.326 310.979 570.312 304.333 570.3 297.687C570.291 292.152 570.279 286.618 570.356 281.099C570.356 278.393 569.777 276.096 568.452 273.717C551.825 244.435 535.197 215.071 518.567 185.707C518.156 184.889 517.703 184.032 517.117 182.927L516.333 181.44ZM1556.45 267.669C1556.46 262.164 1556.46 256.663 1556.46 251.167C1556.46 245.671 1556.46 240.168 1556.45 234.665C1556.44 218.16 1556.42 201.644 1556.55 185.221C1556.55 182.515 1556.05 181.366 1552.99 181.447C1544.97 181.695 1537.02 181.611 1529 181.447C1526.6 181.447 1525.69 181.94 1525.69 184.565C1525.77 229.267 1525.77 273.969 1525.69 318.672C1525.69 321.05 1526.43 321.625 1528.75 321.625C1536.61 321.462 1544.47 321.298 1552.33 321.625C1555.97 321.707 1556.55 320.396 1556.55 317.197C1556.42 300.709 1556.44 284.179 1556.45 267.669Z" fill="white"/>
</svg>
