<svg width="28" height="25" viewBox="0 0 28 25" fill="none" xmlns="http://www.w3.org/2000/svg">
  <path fill-rule="evenodd" clip-rule="evenodd" d="M14 4.58901C11.6008 1.83124 7.5917 0.978975 4.58564 3.50426C1.57957 6.02954 1.15636 10.2516 3.51704 13.2383C5.47979 15.7215 11.4197 20.9588 13.3665 22.654C13.5843 22.8436 13.6932 22.9384 13.8203 22.9756C13.9311 23.0081 14.0524 23.0081 14.1633 22.9756C14.2904 22.9384 14.3992 22.8436 14.6171 22.654C16.5639 20.9588 22.5038 15.7215 24.4666 13.2383C26.8272 10.2516 26.4556 6.00297 23.3979 3.50426C20.3402 1.00554 16.3992 1.83124 14 4.58901Z" stroke="currentColor" stroke-width="4" stroke-linecap="round" stroke-linejoin="round"></path>
  <defs>
    <linearGradient id="gradientBlue" x1="7.31147" y1="2" x2="17.4469" y2="20.9379" gradientUnits="userSpaceOnUse">
      <stop stop-color="#41C6FF"></stop>
      <stop offset="1" stop-color="#1A64FC"></stop>
    </linearGradient>
    <clipPath id="clip0_3142_2">
      <rect width="28" height="25" fill="white"></rect>
    </clipPath>
  </defs>
</svg>