<svg width="100" height="100" viewBox="0 0 100 100" fill="none" xmlns="http://www.w3.org/2000/svg">
<circle cx="50" cy="50" r="50" fill="white"/>
<path d="M41.9505 49.1079H26.8571C22.514 49.1079 19 45.5538 19 41.1609V25.8951C19 18.8884 27.374 15.3343 32.3345 20.3514L47.5319 35.7225C52.3919 40.6382 48.8743 49.1079 41.9505 49.1079Z" fill="#4B309E"/>
<path d="M74.3085 80.9333H57.4563C53.5296 80.9333 50.3242 77.6914 50.3242 73.7197V56.9909C50.3242 53.0193 53.5296 49.7773 57.4563 49.7773H74.4088C80.7154 49.7773 83.8166 57.619 79.1647 62.0118C77.3055 63.7908 77.3055 66.8221 79.1647 68.7026C83.7125 73.0955 80.7154 80.937 74.3048 80.937L74.3085 80.9333Z" fill="#4B309E"/>
<path d="M38.8939 51.2381L36.8413 53.3142C35.6104 54.559 33.6173 54.559 32.3865 53.3142L30.3339 51.2381C29.4489 50.3431 28.2516 49.8428 27.0022 49.8428H24.5108C21.4691 49.8391 19 52.3363 19 55.4166V65.2102C19 73.6686 25.8383 80.8896 34.2011 80.9988C42.7685 81.1116 49.8076 74.0636 49.7036 65.4207V55.4166C49.7036 52.3363 47.2344 49.8428 44.1927 49.8428H42.2294C40.9799 49.8428 39.7789 50.3467 38.8976 51.2381H38.8939Z" fill="#4B309E"/>
<path d="M81.2336 26.6927V23.6275C81.2336 20.5472 78.7644 18.0537 75.7228 18.0537H55.9404C52.895 18.0537 50.4297 20.551 50.4297 23.6275V26.6927C50.4297 28.1708 51.0097 29.5886 52.0435 30.6342C53.6499 32.2589 53.6499 34.8954 52.0435 36.5239C51.0097 37.5695 50.4297 38.9873 50.4297 40.4654V43.5306C50.4297 46.6109 52.8988 49.1044 55.9404 49.1044H75.7228C78.7681 49.1044 81.2336 46.6072 81.2336 43.5306V40.4654C81.2336 38.9873 80.6535 37.5695 79.6197 36.5239C78.0133 34.8991 78.0133 32.2627 79.6197 30.6342C80.6535 29.5886 81.2336 28.1708 81.2336 26.6927Z" fill="#4B309E"/>
</svg>
