<svg width="18" height="18" viewBox="0 0 18 18" fill="none" xmlns="http://www.w3.org/2000/svg" class="" style="color: rgb(43, 144, 254);">
  <path d="M3.25619 3.25594C2.76953 3.7426 2.76953 4.52586 2.76953 6.09236C2.76953 7.13671 2.76953 7.65892 3.09397 7.98329C3.4184 8.30775 3.94057 8.30775 4.98492 8.30775H6.09261C7.13695 8.30775 7.65916 8.30775 7.98353 7.98329C8.30799 7.65892 8.30799 7.13671 8.30799 6.09236V4.98467C8.30799 3.94033 8.30799 3.41815 7.98353 3.09372C7.65916 2.76929 7.13695 2.76929 6.09261 2.76929C4.5261 2.76929 3.74284 2.76929 3.25619 3.25594Z" fill="#1C274C"></path>
  <path d="M3.25619 3.25594C2.76953 3.7426 2.76953 4.52586 2.76953 6.09236C2.76953 7.13671 2.76953 7.65892 3.09397 7.98329C3.4184 8.30775 3.94057 8.30775 4.98492 8.30775H6.09261C7.13695 8.30775 7.65916 8.30775 7.98353 7.98329C8.30799 7.65892 8.30799 7.13671 8.30799 6.09236V4.98467C8.30799 3.94033 8.30799 3.41815 7.98353 3.09372C7.65916 2.76929 7.13695 2.76929 6.09261 2.76929C4.5261 2.76929 3.74284 2.76929 3.25619 3.25594Z" fill="url(#paint0_linear_7131_20)"></path>
  <path d="M3.25619 14.7441C2.76953 14.2574 2.76953 13.4742 2.76953 11.9076C2.76953 10.8633 2.76953 10.3411 3.09397 10.0167C3.41841 9.69226 3.94057 9.69226 4.98492 9.69226H6.09261C7.13695 9.69226 7.65916 9.69226 7.98353 10.0167C8.30799 10.3411 8.30799 10.8633 8.30799 11.9076V13.0153C8.30799 14.0597 8.30799 14.5819 7.98353 14.9063C7.65916 15.2307 7.13696 15.2307 6.09263 15.2307C4.52613 15.2307 3.74283 15.2307 3.25619 14.7441Z" fill="#1C274C"></path>
  <path d="M3.25619 14.7441C2.76953 14.2574 2.76953 13.4742 2.76953 11.9076C2.76953 10.8633 2.76953 10.3411 3.09397 10.0167C3.41841 9.69226 3.94057 9.69226 4.98492 9.69226H6.09261C7.13695 9.69226 7.65916 9.69226 7.98353 10.0167C8.30799 10.3411 8.30799 10.8633 8.30799 11.9076V13.0153C8.30799 14.0597 8.30799 14.5819 7.98353 14.9063C7.65916 15.2307 7.13696 15.2307 6.09263 15.2307C4.52613 15.2307 3.74283 15.2307 3.25619 14.7441Z" fill="url(#paint1_linear_7131_20)"></path>
  <path d="M9.69238 4.98467C9.69238 3.94033 9.69238 3.41815 10.0168 3.09372C10.3412 2.76929 10.8634 2.76929 11.9078 2.76929C13.4743 2.76929 14.2576 2.76929 14.7442 3.25594C15.2308 3.7426 15.2308 4.52586 15.2308 6.09236C15.2308 7.13671 15.2308 7.65892 14.9064 7.98329C14.582 8.30775 14.0598 8.30775 13.0155 8.30775H11.9078C10.8634 8.30775 10.3412 8.30775 10.0168 7.98329C9.69238 7.65892 9.69238 7.13671 9.69238 6.09236V4.98467Z" fill="#1C274C"></path>
  <path d="M9.69238 4.98467C9.69238 3.94033 9.69238 3.41815 10.0168 3.09372C10.3412 2.76929 10.8634 2.76929 11.9078 2.76929C13.4743 2.76929 14.2576 2.76929 14.7442 3.25594C15.2308 3.7426 15.2308 4.52586 15.2308 6.09236C15.2308 7.13671 15.2308 7.65892 14.9064 7.98329C14.582 8.30775 14.0598 8.30775 13.0155 8.30775H11.9078C10.8634 8.30775 10.3412 8.30775 10.0168 7.98329C9.69238 7.65892 9.69238 7.13671 9.69238 6.09236V4.98467Z" fill="url(#paint2_linear_7131_20)"></path>
  <path d="M10.0168 14.9063C9.69238 14.5819 9.69238 14.0597 9.69238 13.0153V11.9076C9.69238 10.8633 9.69238 10.3411 10.0168 10.0167C10.3412 9.69226 10.8634 9.69226 11.9078 9.69226H13.0155C14.0598 9.69226 14.582 9.69226 14.9064 10.0167C15.2308 10.3411 15.2308 10.8633 15.2308 11.9076C15.2308 13.4741 15.2308 14.2574 14.7442 14.7441C14.2576 15.2307 13.4743 15.2307 11.9078 15.2307C10.8635 15.2307 10.3412 15.2307 10.0168 14.9063Z" fill="#1C274C"></path>
  <path d="M10.0168 14.9063C9.69238 14.5819 9.69238 14.0597 9.69238 13.0153V11.9076C9.69238 10.8633 9.69238 10.3411 10.0168 10.0167C10.3412 9.69226 10.8634 9.69226 11.9078 9.69226H13.0155C14.0598 9.69226 14.582 9.69226 14.9064 10.0167C15.2308 10.3411 15.2308 10.8633 15.2308 11.9076C15.2308 13.4741 15.2308 14.2574 14.7442 14.7441C14.2576 15.2307 13.4743 15.2307 11.9078 15.2307C10.8635 15.2307 10.3412 15.2307 10.0168 14.9063Z" fill="url(#paint3_linear_7131_20)"></path>
  <defs>
    <linearGradient id="paint0_linear_7131_20" x1="3.99526" y1="2.76929" x2="6.85528" y2="7.4452" gradientUnits="userSpaceOnUse">
      <stop stop-color="#41C6FF"></stop>
      <stop offset="1" stop-color="#1A64FC"></stop>
    </linearGradient>
    <linearGradient id="paint1_linear_7131_20" x1="3.99526" y1="9.69226" x2="6.85528" y2="14.3682" gradientUnits="userSpaceOnUse">
      <stop stop-color="#41C6FF"></stop>
      <stop offset="1" stop-color="#1A64FC"></stop>
    </linearGradient>
    <linearGradient id="paint2_linear_7131_20" x1="10.9181" y1="2.76929" x2="13.7781" y2="7.4452" gradientUnits="userSpaceOnUse">
      <stop stop-color="#41C6FF"></stop>
      <stop offset="1" stop-color="#1A64FC"></stop>
    </linearGradient>
    <linearGradient id="paint3_linear_7131_20" x1="10.9181" y1="9.69226" x2="13.7781" y2="14.3682" gradientUnits="userSpaceOnUse">
      <stop stop-color="#41C6FF"></stop>
      <stop offset="1" stop-color="#1A64FC"></stop>
    </linearGradient>
  </defs>
</svg>