<svg width="123" height="590" viewBox="0 0 123 590" fill="none" xmlns="http://www.w3.org/2000/svg">
<g opacity="0.4">
<path d="M15.4941 589.424C12.0006 589.424 8.95697 588.092 6.36328 585.427C3.76958 582.763 2.47274 579.299 2.47274 575.037C2.47274 570.063 3.66372 566.304 6.04568 563.758C7.68659 562.041 10.5185 560.353 14.5413 558.695L74.1697 533.562L14.5413 508.518C10.5185 506.919 7.73952 505.261 6.20448 503.544C3.71665 500.88 2.47274 497.061 2.47274 492.088C2.47274 487.943 3.74312 484.539 6.28388 481.875C8.82463 479.151 11.8947 477.789 15.4941 477.789C16.7116 477.789 18.1672 478.085 19.8611 478.677C21.502 479.269 23.2487 479.98 25.1014 480.809L107.2 517.576C112.175 519.767 115.378 521.454 116.807 522.638C119.824 525.303 121.333 529.062 121.333 533.917C121.333 538.654 119.824 542.354 116.807 545.019C115.166 546.499 111.964 548.275 107.2 550.347L25.1014 586.315C24.0427 586.789 22.4283 587.44 20.258 588.269C18.0349 589.039 16.4469 589.424 15.4941 589.424Z" fill="white"/>
<path d="M61.863 479.359C43.4425 479.359 28.6743 473.586 17.5585 462.041C6.44267 450.436 0.884766 434.983 0.884766 415.682C0.884766 396.499 6.41621 381.105 17.4791 369.5C28.542 357.836 43.3366 352.005 61.863 352.005C80.3893 352.005 95.2104 357.807 106.326 369.411C117.442 381.016 123 396.439 123 415.682C123 434.983 117.442 450.436 106.326 462.041C95.2104 473.586 80.3893 479.359 61.863 479.359ZM61.863 447.742C72.1848 447.742 80.6275 445.255 87.1911 440.282C94.6546 434.598 98.4128 426.398 98.4657 415.682C98.4657 405.024 94.7075 396.854 87.1911 391.17C80.5746 386.197 72.1319 383.71 61.863 383.71C51.647 383.71 43.2307 386.197 36.6142 391.17C29.1507 396.854 25.419 405.024 25.419 415.682C25.419 426.339 29.1507 434.539 36.6142 440.282C43.1249 445.255 51.5411 447.742 61.863 447.742Z" fill="white"/>
<path d="M107.041 344.012L14.3912 342.603C10.1566 342.603 16.7202 326.459 14.3912 323.617C12.0621 320.775 3.42552 333.414 3.42552 329.269L1.47882 294.408C1.47882 275.994 9.30103 260.737 21.052 249.429C32.0091 238.89 45.3216 233.62 60.9896 233.62C79.4101 233.62 95.3692 238.515 106.326 250.593C116.542 261.842 120.559 271.632 120.559 288.566L120.38 329.269C120.38 333.295 119.189 336.759 116.807 339.66C114.425 342.561 111.17 344.012 107.041 344.012ZM107.041 344.012L93.2999 300.249C93.2999 289.118 92.4844 279.269 86.0795 273.407C80.0982 267.96 71.7349 265.237 60.9896 265.237C50.7736 265.237 45.9546 267.535 40.2158 271.04C34.477 274.545 28.7382 282.467 28.7382 292.947C23.6985 291.429 21.9136 300.249 24.4341 300.249L14.3912 342.603L107.041 344.012Z" fill="white"/>
<path d="M107.2 225.933H16.6057C12.0535 225.933 8.55997 224.571 6.12508 221.848C3.69019 219.124 2.47274 215.572 2.47274 211.191C2.47274 206.691 3.66372 203.109 6.04568 200.444C8.42764 197.78 11.9476 196.448 16.6057 196.448H49.1592L9.14223 155.862C6.44267 153.197 4.66944 150.888 3.82252 148.935C2.92267 146.921 2.47274 144.642 2.47274 142.096C2.47274 138.721 3.74312 135.435 6.28388 132.238C8.82463 128.982 11.8418 127.354 15.3353 127.354C17.2938 127.354 19.0935 127.827 20.7344 128.775C22.3224 129.722 24.0427 131.172 25.8953 133.126L57.8136 168.295L95.3692 129.84C98.2805 126.939 100.371 125.015 101.642 124.068C103.812 122.469 105.982 121.67 108.152 121.67C112.281 121.67 115.51 123.179 117.839 126.199C120.168 129.159 121.333 132.801 121.333 137.123C121.333 140.497 120.089 143.902 117.601 147.336C116.278 149.171 113.79 151.836 110.137 155.329L68.5324 196.448H107.2C111.752 196.448 115.245 197.81 117.68 200.533C120.115 203.257 121.333 206.809 121.333 211.191C121.333 215.69 120.142 219.272 117.76 221.937C115.378 224.601 111.858 225.933 107.2 225.933Z" fill="white"/>
<path d="M110.455 114.92C108.391 114.92 106.247 114.654 104.024 114.121C101.8 113.529 98.4657 112.345 94.0194 110.568L24.9426 82.1492C16.5792 78.7744 10.9419 75.8732 8.03065 73.4457C3.26673 69.4196 0.884766 64.1503 0.884766 57.6375C0.884766 52.3089 2.28748 47.898 5.0929 44.4048C7.89832 40.8524 14.5149 36.9448 24.9426 32.6819L94.0194 4.35132C98.6775 2.39752 102.039 1.18372 104.103 0.710083C106.167 0.23645 108.285 -0.000305176 110.455 -0.000305176C113.79 -0.000305176 116.436 1.27264 118.395 3.81854C120.353 6.36444 121.333 9.7984 121.333 14.1205C121.333 18.6202 120.142 22.0839 117.76 24.5114C115.907 26.4651 112.758 28.1526 108.311 29.5735L73.217 42.007V72.913L108.311 85.2575C112.652 86.8561 115.748 88.5435 117.601 90.3197C120.089 92.7472 121.333 96.2108 121.333 100.71C121.333 104.973 120.353 108.407 118.395 111.012C116.383 113.618 113.737 114.92 110.455 114.92ZM73.217 72.913V42.007L30.4211 56.6606L73.217 72.913Z" fill="white"/>
<path d="M15.8138 344.085C7.89018 344.085 1.4668 338.2 1.4668 330.941L1.4668 294.429C1.4668 287.169 7.89018 273.982 15.8138 273.982C23.7375 273.982 28.7262 282.788 28.7262 290.047L28.7262 330.941C28.7262 338.2 23.7375 344.085 15.8138 344.085Z" fill="white"/>
<path d="M107.628 344.085C99.7046 344.085 93.2812 338.2 93.2812 330.941V294.429C93.2812 287.169 99.7046 273.982 107.628 273.982C115.552 273.982 120.541 282.788 120.541 290.047V330.941C120.541 338.2 115.552 344.085 107.628 344.085Z" fill="white"/>
<path d="M107.659 344.085C101.32 344.085 96.1816 338.2 96.1816 330.941V294.429C96.1816 287.169 101.32 273.982 107.659 273.982C113.998 273.982 119.137 284.248 119.137 291.508V330.941C119.137 338.2 113.998 344.085 107.659 344.085Z" fill="white"/>
</g>
</svg>
