<svg width="25" height="25" viewBox="0 0 25 25" fill="none" xmlns="http://www.w3.org/2000/svg">
<g clip-path="url(#clip0_4840_132)">
<path d="M14.9094 14.5542C14.7751 14.8067 14.5905 15.0172 14.3555 15.1897C14.1213 15.3614 13.8397 15.4896 13.5124 15.5742C13.3698 15.6101 13.2203 15.6353 13.0677 15.6559V16.608H11.9324V15.675C11.6081 15.6475 11.2992 15.5971 11.0077 15.517C10.5622 15.395 9.98081 14.9036 9.98081 14.9036C9.93046 14.8746 9.89765 14.8235 9.89077 14.7663C9.88315 14.7098 9.90297 14.6518 9.94267 14.6106L10.5126 14.0415C10.5744 13.9804 10.669 13.969 10.7437 14.014C10.7437 14.014 11.1695 14.384 11.4922 14.4725C11.8149 14.5603 12.1353 14.6045 12.4558 14.6045C12.8586 14.6045 13.1913 14.5335 13.456 14.3909C13.7207 14.2474 13.8519 14.0262 13.8519 13.7225C13.8519 13.5051 13.7878 13.3327 13.6566 13.206C13.5269 13.0809 13.3072 13.0023 12.9959 12.968L11.9766 12.8802C11.3724 12.8207 10.907 12.6529 10.5789 12.3767C10.2508 12.0989 10.0883 11.6793 10.0883 11.117C10.0883 10.8065 10.1509 10.5296 10.2768 10.2862C10.4034 10.0428 10.575 9.83755 10.7933 9.66973C11.0115 9.50264 11.2655 9.37598 11.5554 9.29209C11.676 9.25776 11.8026 9.23408 11.9323 9.21353V8.39258H13.0676V9.19673C13.3331 9.22266 13.5856 9.26538 13.8206 9.33022C14.2196 9.43857 14.6377 9.76587 14.6377 9.76587C14.6903 9.79336 14.7262 9.84443 14.7353 9.90244C14.7445 9.96196 14.7247 10.0199 14.6834 10.0626L14.1494 10.6051C14.0929 10.6623 14.0044 10.6768 13.9311 10.6394C13.9311 10.6394 13.6153 10.4144 13.3421 10.3434C13.069 10.2724 12.7821 10.2358 12.48 10.2358C12.0863 10.2358 11.7934 10.3121 11.6057 10.4624C11.4165 10.6142 11.3219 10.8111 11.3219 11.0537C11.3219 11.2726 11.389 11.4405 11.5233 11.5572C11.6576 11.6755 11.8842 11.7518 12.2031 11.7838L13.0965 11.8602C13.7602 11.9189 14.2615 12.0952 14.601 12.3881C14.9415 12.6826 15.1108 13.1106 15.1108 13.6722C15.1108 14.0086 15.0437 14.3023 14.9094 14.5542Z" fill="url(#paint0_linear_4840_132)"/>
<path d="M12.5 0C5.59692 0 0 5.59614 0 12.5C0 19.4031 5.59692 25 12.5 25C19.4039 25 25 19.4031 25 12.5C25 5.59614 19.4039 0 12.5 0ZM23.7106 12.5C23.7106 14.0343 23.4009 15.4976 22.8401 16.8305L20.6909 15.9401C21.1365 14.8812 21.3837 13.7192 21.3837 12.5C21.3837 12.484 21.3829 12.468 21.3829 12.452H23.7099C23.7099 12.468 23.7106 12.484 23.7106 12.5ZM12.5 20.6032C8.03223 20.6032 4.39761 16.9678 4.39761 12.5C4.39761 8.03223 8.03223 4.39761 12.5 4.39761C16.9678 4.39761 20.6024 8.03223 20.6024 12.5C20.6024 16.9678 16.9678 20.6032 12.5 20.6032ZM1.28936 12.5C1.28936 10.9657 1.59912 9.50239 2.16064 8.1688L4.30986 9.05991C3.86353 10.1188 3.61636 11.2808 3.61636 12.5C3.61636 12.516 3.61714 12.5313 3.61714 12.5473L1.29019 12.5481C1.29014 12.532 1.28936 12.516 1.28936 12.5ZM22.8684 8.24053L20.7184 9.13086C20.2622 8.02231 19.5893 7.02593 18.7508 6.19507L20.3957 4.55015C21.4485 5.59541 22.2938 6.84815 22.8684 8.24053ZM16.8305 2.15986L15.9394 4.30981C14.8812 3.86353 13.7192 3.61636 12.5 3.61636C12.484 3.61636 12.468 3.61714 12.4527 3.61714V1.29014C12.468 1.29014 12.484 1.28936 12.5 1.28936C14.0343 1.28936 15.4968 1.5999 16.8305 2.15986ZM8.24053 2.13164L9.13086 4.28164C8.02305 4.73789 7.02593 5.41079 6.19507 6.24927L4.5502 4.60435C5.59541 3.55146 6.84815 2.70615 8.24053 2.13164ZM2.13164 16.7587L4.28164 15.8691C4.73789 16.977 5.41079 17.9741 6.24849 18.8049L4.60356 20.4499C3.55073 19.4046 2.70537 18.1519 2.13164 16.7587ZM8.1688 22.8401L9.05913 20.6902C10.1181 21.1373 11.2808 21.3845 12.5 21.3845C12.516 21.3845 12.532 21.383 12.5473 21.383V23.7099C12.532 23.7099 12.516 23.7114 12.5 23.7114C10.965 23.7114 9.50166 23.4009 8.1688 22.8401ZM16.7595 22.8684L15.8691 20.7184C16.977 20.2622 17.9741 19.5893 18.8049 18.7516L20.4499 20.3965C19.4046 21.4485 18.1519 22.2938 16.7595 22.8684Z" fill="url(#paint1_linear_4840_132)"/>
<path d="M6.69638 14.5313C6.65444 14.4031 6.53691 14.3223 6.4103 14.3223C6.37978 14.3223 6.34848 14.3269 6.31796 14.3368C6.16005 14.3871 6.07304 14.5565 6.12343 14.7144C6.14785 14.7899 6.17377 14.8647 6.202 14.9402L6.20278 14.9417L6.20585 14.9501V14.9509V14.9532L6.20737 14.954V14.9548L6.21044 14.9624V14.9639H6.21196V14.9654V14.9662L6.21274 14.9677V14.97L6.21425 14.9753L6.21503 14.9761L6.21581 14.9769L6.2166 14.9784V14.9799V14.9807L6.21738 14.9815L6.21816 14.9823V14.9831L6.21967 14.9854V14.9861L6.22045 14.9876L6.22123 14.9884V14.9892V14.9907V14.9922H6.22275V14.9937V14.9953V14.996L6.22353 14.9976V14.9983L6.22431 14.9999V15.0006L6.22582 15.0021V15.0029V15.0037L6.2266 15.0052L6.22739 15.0067L6.22817 15.0083L6.22895 15.009L6.23046 15.0128V15.0136V15.0159V15.0174L6.23198 15.0182V15.0197V15.0205L6.23276 15.022H6.23354L6.23505 15.0266L6.23657 15.0281V15.0289L6.23735 15.0304L6.23813 15.0327L6.2412 15.0434V15.0442C6.34648 15.3089 6.47314 15.5645 6.61811 15.8071C6.67382 15.901 6.77377 15.9536 6.87597 15.9536C6.92861 15.9536 6.98124 15.9399 7.03007 15.9109C7.17275 15.8247 7.21928 15.6416 7.13383 15.4997C6.95195 15.1928 6.80395 14.8686 6.69638 14.5313Z" fill="url(#paint2_linear_4840_132)"/>
<path d="M8.76081 7.62212C8.89431 7.52524 8.9241 7.33677 8.82717 7.20327C8.76843 7.12163 8.67761 7.07812 8.58454 7.07812C8.52351 7.07812 8.46096 7.09644 8.40754 7.13535L8.40603 7.13613L8.40525 7.13691L8.40447 7.1377L8.40368 7.13848L8.4029 7.13926L8.40139 7.14077H8.39988L8.3991 7.14228H8.39841L8.39763 7.1438H8.39685L8.39533 7.14458L8.39455 7.14536H8.39377L8.38918 7.14844L8.38767 7.14995V7.15146H8.38616L8.38537 7.15225L8.38459 7.15303H8.38381C8.06872 7.38496 7.77878 7.65122 7.52243 7.9457C7.41335 8.07085 7.42707 8.26079 7.55217 8.36914C7.60862 8.41875 7.67956 8.44316 7.749 8.44316C7.83366 8.44316 7.91609 8.40884 7.97561 8.34019C8.2092 8.07153 8.47317 7.83042 8.76081 7.62212Z" fill="url(#paint3_linear_4840_132)"/>
<path d="M9.91374 18.0815C9.58948 17.9389 9.27976 17.7604 8.99363 17.5482C8.94021 17.5093 8.87766 17.4902 8.81511 17.4902C8.72356 17.4902 8.63279 17.533 8.574 17.6123C8.47405 17.7458 8.50378 17.9343 8.63733 18.0312C8.83342 18.1776 9.04094 18.3096 9.25759 18.4264L9.2591 18.4271L9.26062 18.4287L9.26672 18.4317V18.4333H9.26824L9.27131 18.434L9.2782 18.4371H9.27898L9.27976 18.4386L9.28054 18.4401H9.28132L9.2821 18.4409L9.28821 18.4432H9.28972L9.29123 18.444L9.29275 18.4448H9.29353L9.29582 18.4463V18.4478L9.2989 18.4501L9.30119 18.4509H9.30198H9.30427L9.30505 18.4517L9.30656 18.4524H9.30735L9.31267 18.4555L9.31418 18.4563H9.3157V18.4577V18.4584H9.31721L9.31872 18.4592L9.32331 18.4615L9.32483 18.4623L9.32634 18.4631L9.32712 18.4639H9.3279H9.32942V18.4654H9.3302H9.33098V18.4669H9.33249H9.33479L9.33557 18.4684H9.33708L9.3386 18.4699H9.34011H9.34089L9.34319 18.4714L9.3447 18.4722V18.473L9.34621 18.4738H9.34773V18.4746H9.34924L9.35075 18.4753L9.35227 18.4761L9.35378 18.4769L9.35456 18.4777L9.35686 18.4792H9.35764L9.35842 18.4807H9.35993L9.36072 18.4815H9.3615L9.36301 18.4823V18.4831H9.36452H9.36531H9.36682L9.3676 18.4838L9.36911 18.4846L9.37063 18.4861L9.37214 18.4869V18.4877L9.37366 18.4885L9.37517 18.4893L9.37668 18.49H9.3782L9.37971 18.4908L9.38122 18.4916L9.38274 18.4924H9.38425V18.4932L9.38576 18.4939L9.38728 18.4947L9.38879 18.4962L9.39031 18.497L9.39182 18.4978L9.39333 18.4986L9.39485 18.4994H9.39636L9.39714 18.5001L9.39792 18.5009H9.39944H9.40095L9.40173 18.5024L9.40554 18.504L9.40632 18.5055H9.4071H9.40862L9.4094 18.507H9.41018H9.41169L9.41247 18.5078L9.41325 18.5085H9.41477L9.41628 18.5093H9.4178V18.5101L9.41931 18.5109L9.42082 18.5117V18.5125H9.42234V18.5132L9.42385 18.514H9.42536L9.42766 18.5155L9.42844 18.5163H9.42995L9.43074 18.5178H9.43152H9.43303L9.43381 18.5186H9.43459L9.43611 18.5194L9.4407 18.5225L9.44221 18.5232H9.44299H9.44377V18.524L9.44529 18.5248L9.4468 18.5256H9.44831L9.44983 18.5271H9.45061L9.4529 18.5279H9.45442V18.5287L9.45593 18.5294L9.45744 18.5302L9.45896 18.531L9.46047 18.5318V18.5326L9.46277 18.5333H9.46355L9.46506 18.5341V18.5349H9.46657H9.46809V18.5364H9.4696H9.47112L9.4719 18.5372L9.47268 18.538H9.47346L9.47575 18.5395H9.47654H9.47732L9.47883 18.541L9.48034 18.5418L9.48113 18.5426H9.48191H9.48342L9.48493 18.5441L9.48645 18.5449L9.48796 18.5457H9.48948L9.49099 18.5472H9.4925L9.49402 18.5479L9.49553 18.5487V18.5495L9.49704 18.5503L9.49856 18.5511L9.50007 18.5519H9.50085H9.50163L9.50315 18.5526V18.5534L9.50466 18.5542L9.50544 18.555H9.50696H9.50774H9.50852L9.51081 18.5565H9.51233L9.51384 18.5573L9.51462 18.5581L9.51614 18.5588L9.51692 18.5596L9.51843 18.5604L9.51994 18.5612H9.5216L9.52312 18.5627H9.5239L9.52468 18.5635L9.52619 18.5643H9.52771L9.52849 18.5658H9.52927H9.53078L9.5323 18.5666H9.53381L9.53533 18.5673L9.53684 18.5681V18.5689L9.53762 18.5697H9.5384L9.53991 18.5705H9.54143L9.54221 18.572H9.54299H9.5445L9.54529 18.5728L9.54758 18.5743L9.54909 18.575H9.54988H9.55066H9.55217L9.55295 18.5766H9.55373H9.55525L9.55603 18.5781L9.55984 18.5796L9.56135 18.5804L9.56213 18.5812L9.56364 18.5819H9.56443L9.56594 18.5827H9.56672L9.56824 18.5842L9.57053 18.585L9.57282 18.5858H9.57512V18.5866L9.57663 18.5874H9.57741L9.57893 18.5881L9.58122 18.5896L9.58581 18.5919H9.58811V18.5927L9.58962 18.5935H9.5904L9.59802 18.5973H9.5988L9.6011 18.5981L9.60261 18.5989L9.6072 18.6012L9.60949 18.6027L9.61179 18.6035L9.6133 18.6042V18.605L9.6156 18.6058L9.624 18.6089H9.62551L9.67585 18.631C9.71555 18.6485 9.7552 18.6577 9.79563 18.6577C9.91159 18.6577 10.0222 18.5883 10.0718 18.4754C10.1381 18.3219 10.0663 18.1456 9.91374 18.0815Z" fill="url(#paint4_linear_4840_132)"/>
<path d="M18.8995 12.9961C18.7469 12.9961 18.6164 13.1113 18.6019 13.2669C18.5668 13.6202 18.4921 13.9688 18.3791 14.3038C18.3257 14.4617 18.4096 14.6318 18.5668 14.6845C18.5989 14.6967 18.6309 14.7013 18.663 14.7013C18.7911 14.7013 18.9056 14.6219 18.9483 14.4968V14.4953L18.9491 14.4937L18.9499 14.493V14.4922L18.9507 14.4899V14.4891L18.9514 14.4876L18.9522 14.4845H18.953V14.483V14.4815H18.9538V14.48L18.9546 14.4792V14.4785V14.477L18.9553 14.4754L18.9561 14.4747V14.4739L18.9576 14.4693V14.4685L18.9584 14.4677L18.9592 14.4662V14.4647V14.4639V14.4631L18.9607 14.4616V14.4601V14.4586L18.9622 14.454V14.4532L18.9637 14.4524V14.4517V14.4509V14.4494H18.9645L18.9653 14.4479V14.4463V14.4448V14.444L18.9661 14.4425H18.9669V14.4402L18.9684 14.4387V14.4372V14.4364V14.4349V14.4341L18.9699 14.4333V14.4326V14.4311V14.4296L18.9714 14.4281V14.4266L18.9729 14.4251V14.422V14.4205L18.9737 14.4197L18.9745 14.4182V14.4174V14.4167L18.9753 14.4151L18.976 14.4144V14.4128V14.4113L18.9776 14.409V14.4067V14.406L18.9791 14.4044V14.4037V14.4021L18.9806 14.4006V14.3983V14.3976V14.396L18.9821 14.3922L18.9829 14.3915L18.9837 14.3899L18.9844 14.3869V14.3846L18.9852 14.3823L18.9883 14.3762V14.3747V14.3731V14.3716V14.3708L18.9898 14.3701V14.3693V14.367L18.9929 14.3601V14.3586V14.3578L18.9937 14.3563V14.3555L18.9945 14.354V14.3532L18.9952 14.3517L18.9975 14.3441V14.3418L18.9983 14.3403V14.3395L18.9991 14.338L19.0022 14.3304V14.3289V14.3273V14.3266L19.0037 14.325L19.0075 14.3105L19.0083 14.3075L19.0121 14.296L19.0129 14.2938L19.0159 14.2823V14.28L19.0175 14.277C19.106 13.9703 19.1685 13.6521 19.2006 13.324C19.2158 13.16 19.0953 13.0127 18.9297 12.9967L18.8995 12.9961Z" fill="url(#paint5_linear_4840_132)"/>
<path d="M6.09431 12.0563C6.24841 12.0563 6.37966 11.9388 6.39338 11.7824C6.4239 11.4284 6.49714 11.079 6.607 10.7433C6.65891 10.5861 6.57341 10.4152 6.4155 10.3649C6.3842 10.3535 6.35217 10.3496 6.32165 10.3496C6.19651 10.3496 6.07903 10.429 6.0363 10.5541C6.00198 10.6579 5.97146 10.7639 5.94324 10.87V10.8723L5.94172 10.8746V10.8769L5.94021 10.8837V10.8853L5.93943 10.8868L5.93865 10.8882V10.889V10.8898L5.93786 10.8906L5.93708 10.8921V10.8929V10.8944V10.8952L5.9363 10.8967V10.8982L5.93552 10.899V10.8998V10.9013V10.9021L5.93474 10.9028V10.9043V10.9051L5.93396 10.9066V10.9082V10.9089V10.9097L5.93318 10.9112L5.9324 10.912V10.9143L5.93088 10.9166V10.9189V10.9204L5.9301 10.9219H5.92932V10.9234V10.9257L5.92781 10.9318V10.9326L5.92702 10.9341V10.9349L5.92624 10.9364L5.92546 10.9387C5.88733 11.0951 5.85603 11.2538 5.83161 11.4148V11.4163V11.4171V11.4179L5.83083 11.4194V11.4202L5.83005 11.4217V11.4225V11.4271V11.4278V11.4293L5.82854 11.4301V11.4316V11.4324V11.4339V11.4347V11.4362V11.437V11.4378V11.4393L5.82702 11.4408V11.4423V11.4438V11.4446V11.4461V11.4469V11.4484V11.4492V11.45V11.4515V11.453L5.82551 11.4545V11.4561V11.4568V11.4622V11.4637V11.4645L5.824 11.466V11.4667V11.4683V11.4698V11.4706L5.82248 11.4805C5.81106 11.5629 5.80266 11.646 5.79499 11.7299C5.77971 11.8955 5.90183 12.0404 6.06662 12.0549L6.09431 12.0563Z" fill="url(#paint6_linear_4840_132)"/>
<path d="M18.6067 10.726C18.6357 10.726 18.6662 10.7222 18.6968 10.7123C18.8539 10.6626 18.9432 10.4948 18.8936 10.3361C18.7738 9.95083 18.6097 9.58311 18.4076 9.23979C18.3527 9.14517 18.2527 9.0918 18.149 9.0918C18.0971 9.0918 18.0452 9.10552 17.9979 9.13374C17.8544 9.21689 17.8072 9.40151 17.8903 9.54497C18.0711 9.85093 18.2146 10.1774 18.3199 10.5154C18.3595 10.6436 18.4785 10.726 18.6067 10.726Z" fill="url(#paint7_linear_4840_132)"/>
<path d="M17.2165 16.5957C17.1326 16.5957 17.0502 16.6285 16.9907 16.6964C16.7542 16.9627 16.4887 17.2015 16.2002 17.4083C16.066 17.5044 16.0339 17.6928 16.1308 17.8279C16.1888 17.9095 16.2811 17.9522 16.375 17.9522C16.4352 17.9522 16.4962 17.9354 16.5489 17.8981C16.8022 17.718 17.0364 17.5166 17.2523 17.2969L17.2607 17.287L17.2615 17.2862H17.2623H17.2638L17.2676 17.2831V17.2823L17.2684 17.2815L17.2699 17.2808V17.2792L17.2707 17.2785L17.2715 17.277L17.2761 17.2716L17.2776 17.2701V17.2693L17.2784 17.2686L17.2792 17.2678L17.2799 17.2663L17.2807 17.2655V17.264H17.2822L17.2837 17.2632H17.2845H17.2852H17.2867V17.2624V17.261H17.2882L17.289 17.2595L17.2897 17.258L17.2913 17.2564L17.292 17.2549L17.2928 17.2534H17.2943V17.2526L17.2959 17.2519L17.2974 17.2511V17.2503H17.2989V17.2495L17.3004 17.2487V17.2479L17.3019 17.2457L17.3034 17.2441L17.3042 17.2434L17.3057 17.2418V17.2411L17.3065 17.2396H17.3073L17.3111 17.2334L17.3134 17.2319L17.3157 17.2304C17.3576 17.1877 17.3996 17.1412 17.4408 17.0946C17.5507 16.9703 17.5385 16.7811 17.4149 16.6704C17.3569 16.6201 17.2867 16.5957 17.2165 16.5957Z" fill="url(#paint8_linear_4840_132)"/>
<path d="M13.7422 18.5273L13.6765 18.5357C13.3439 18.609 13.0005 18.6471 12.6572 18.6471L12.6198 18.6463H12.6191C12.4535 18.6463 12.3185 18.7806 12.3169 18.9454C12.3154 19.1117 12.4482 19.246 12.613 19.2476H12.6145H12.6259H12.6282H12.629H12.6297H12.6404H12.6481H12.6496H12.6511H12.6526H12.6541H12.6572H12.6587H12.6602H12.6617H12.6632H12.6648H12.6663H12.6671H12.6678H12.6686H12.6709H12.6732H12.674H12.6748H12.6755H12.6771H12.6786H12.6794H12.6801H12.6847H12.687H12.6878H12.6893H12.6916H12.6924H12.6939H12.6947H12.6962H12.697H12.6985H12.7008H12.7016H12.7031H12.7039H12.7047H12.7062H12.7069H12.7077H12.71H12.7108H12.7131H12.7139H12.7147H12.7154H12.717H12.7185H12.72H12.7208H12.7215H12.7231H12.7246H12.7261H12.7269H12.7284H12.7292H12.7307H12.7315H12.7322H12.733H12.7353H12.7384H12.7392H12.74H12.7415H12.743L12.7445 19.246H12.746H12.7475H12.7483H12.7491H12.7499H12.7514H12.7522H12.7537H12.7552H12.7567H12.7582H12.7658H12.7673H12.7681H12.7704H12.7735H12.775H12.7765H12.778H12.7796H12.7818H12.7826H12.7834H12.7842H12.7865H12.7964H12.7979H12.7994H12.8009H12.8025H12.8032H12.8047H12.8055H12.807H12.8086H12.8101H12.8116H12.8147L12.8208 19.2445H12.8215H12.8231H12.8238H12.8254H12.8284H12.8299H12.8322H12.833H12.8345H12.836H12.8376H12.8391H12.8483H12.849H12.8513H12.8528L12.8551 19.2437H12.8559H12.8574H12.8597H12.8788H12.8803H12.8834L12.8849 19.243H12.888C13.1734 19.2308 13.4556 19.1957 13.7295 19.1377H13.7303H13.7318H13.7333H13.7341H13.7356H13.7364L13.7379 19.1362H13.7394H13.7409L13.7424 19.1347H13.7447H13.747H13.7493H13.7501L13.7516 19.1339H13.7531L13.7547 19.1331H13.7554L13.7562 19.1323H13.7577H13.7592H13.76H13.7615L13.7623 19.1315H13.7638L13.7646 19.1308H13.7654H13.7669L13.7684 19.13L13.776 19.1285H13.7768L13.7791 19.127H13.7806H13.7814H13.7822H13.7837H13.7852L13.7867 19.1254L13.8081 19.1208C13.9691 19.085 14.0706 18.9255 14.0347 18.7638C14.003 18.6235 13.8795 18.5273 13.7422 18.5273Z" fill="url(#paint9_linear_4840_132)"/>
<path d="M16.2261 7.54082C16.3176 7.54082 16.4077 7.49961 16.4656 7.41953C16.5671 7.28755 16.5389 7.09907 16.4061 6.9999C16.368 6.97017 16.3291 6.94268 16.2902 6.91294L16.2879 6.91216L16.2863 6.91138L16.281 6.90757H16.2802L16.2779 6.90606L16.2764 6.90527V6.90449L16.2703 6.90142V6.90063L16.2688 6.89985L16.2673 6.89834H16.2665L16.265 6.89683L16.2627 6.89531L16.2612 6.89453L16.2596 6.89385L16.2589 6.89233H16.2573L16.2566 6.89155L16.255 6.89077V6.88999L16.2535 6.88921V6.88843L16.252 6.88765L16.2512 6.88687L16.2497 6.88608L16.2489 6.8853L16.2474 6.88467L16.2459 6.88315H16.2451L16.2443 6.88164H16.2436L16.2421 6.88086L16.2413 6.88008L16.2398 6.87856L16.2382 6.87778L16.2375 6.877L16.2367 6.87622H16.2352L16.2337 6.87544V6.87466H16.2329L16.2321 6.87388V6.8731L16.2291 6.87158L16.2276 6.8708H16.2268L16.226 6.87002H16.2245V6.86851H16.223L16.2222 6.86772H16.2214L16.2199 6.86621L16.2168 6.8647V6.86318H16.2153V6.8624L16.2138 6.86162V6.86084L16.2123 6.86006L16.2039 6.85474L16.2031 6.85396H16.2023L16.2015 6.85244H16.2L16.1947 6.84785L16.1924 6.84707L16.1909 6.84556L16.1802 6.83945C15.9261 6.66777 15.6553 6.51826 15.373 6.39312C15.3333 6.37559 15.2914 6.36719 15.2509 6.36719C15.135 6.36719 15.0259 6.43433 14.9763 6.54648C14.9084 6.69829 14.9778 6.87529 15.1297 6.94399C15.4539 7.08589 15.7621 7.26597 16.046 7.47959C16.1002 7.52095 16.1635 7.54082 16.2261 7.54082Z" fill="url(#paint10_linear_4840_132)"/>
<path d="M12.4176 6.35439H12.4207C12.5855 6.35439 12.7213 6.22163 12.7236 6.05684C12.7259 5.89282 12.5954 5.75776 12.4329 5.75469L12.3627 5.75391H12.3604H12.3596H12.3581H12.3573H12.3565H12.355H12.3535H12.352H12.3505H12.349H12.3482H12.3467H12.3459H12.3428H12.3375H12.3367H12.3352H12.3337H12.3322H12.3307H12.3291H12.3283H12.3275H12.326H12.3245H12.323H12.3215H12.3192H12.3184H12.3169H12.3161H12.3146H12.3138H12.3123H12.3108H12.3093H12.3078H12.3047H12.3032H12.3017H12.3001H12.2994H12.2971H12.2956H12.294H12.2925H12.291H12.2895H12.2887H12.2879H12.2864H12.2849H12.2834H12.2811H12.2803H12.2788H12.278H12.2772H12.2757H12.2742H12.2734H12.2719L12.2711 5.75469H12.2696H12.2688H12.268H12.2649H12.2642H12.2634H12.2619H12.2604H12.2588H12.2573H12.2565H12.2559H12.2543H12.2528H12.2521H12.2505H12.2498H12.2482H12.2467H12.2452H12.2437H12.2422H12.2407H12.2392H12.2376H12.2361H12.2346H12.2331H12.2323H12.2285H12.227H12.2255H12.224H12.2225H12.2209H12.2194H12.2187H12.2179H12.2164H12.2148H12.2141H12.2118H12.2103H12.2087H12.207H12.2063H12.204H12.2024H12.2009H12.1994H12.1979H12.1964H12.1949H12.1903H12.1888L12.1873 5.7562H12.1857H12.185H12.1842H12.1826H12.1811H12.1803H12.1795H12.178H12.1765H12.1757H12.1734H12.1719H12.1696H12.1688H12.1673H12.1658H12.1643H12.1635H12.1627H12.1612H12.1597H12.1582H12.1567H12.1559H12.1521H12.1506H12.1491H12.1476H12.1468H12.146H12.1445H12.143H12.1422H12.1414H12.1399H12.1391L12.1338 5.75771H12.1315H12.1307H12.1292H12.1277H12.1269H12.1254H12.1246H12.1231H12.1216H12.1201H12.1125H12.1109H12.1079V5.75923H12.1063H12.1056H12.1041H12.0934H12.0918H12.0911H12.0896H12.0888H12.088H12.0865H12.085H12.0842L12.0773 5.76074H12.0742H12.0727H12.0719H12.0704H12.0696H12.0681H12.0666H12.0658H12.0559H12.0536H12.0528H12.0513H12.0498L12.0491 5.76235H12.0361H12.0346H12.0323H12.03L12.0132 5.76313C11.7188 5.78223 11.4319 5.82495 11.1519 5.88901C10.9894 5.92715 10.8902 6.08892 10.9275 6.24912C10.9588 6.38799 11.0824 6.48105 11.2197 6.48105L11.2876 6.47344C11.6317 6.39409 11.9873 6.35439 12.3428 6.35439H12.4176Z" fill="url(#paint11_linear_4840_132)"/>
</g>
<defs>
<linearGradient id="paint0_linear_4840_132" x1="11.0448" y1="8.39258" x2="15.8067" y2="13.3409" gradientUnits="userSpaceOnUse">
<stop stop-color="#41C6FF"/>
<stop offset="1" stop-color="#1A64FC"/>
</linearGradient>
<linearGradient id="paint1_linear_4840_132" x1="5.53279" y1="-1.12605e-07" x2="18.4426" y2="21.1066" gradientUnits="userSpaceOnUse">
<stop stop-color="#41C6FF"/>
<stop offset="1" stop-color="#1A64FC"/>
</linearGradient>
<linearGradient id="paint2_linear_4840_132" x1="6.34538" y1="14.3223" x2="7.2895" y2="15.3323" gradientUnits="userSpaceOnUse">
<stop stop-color="#41C6FF"/>
<stop offset="1" stop-color="#1A64FC"/>
</linearGradient>
<linearGradient id="paint3_linear_4840_132" x1="7.7664" y1="7.07812" x2="8.45467" y2="8.26139" gradientUnits="userSpaceOnUse">
<stop stop-color="#41C6FF"/>
<stop offset="1" stop-color="#1A64FC"/>
</linearGradient>
<linearGradient id="paint4_linear_4840_132" x1="8.86473" y1="17.4902" x2="9.37264" y2="18.6154" gradientUnits="userSpaceOnUse">
<stop stop-color="#41C6FF"/>
<stop offset="1" stop-color="#1A64FC"/>
</linearGradient>
<linearGradient id="paint5_linear_4840_132" x1="18.5487" y1="12.9961" x2="19.5148" y2="13.7731" gradientUnits="userSpaceOnUse">
<stop stop-color="#41C6FF"/>
<stop offset="1" stop-color="#1A64FC"/>
</linearGradient>
<linearGradient id="paint6_linear_4840_132" x1="5.97705" y1="10.3496" x2="6.94117" y2="11.1148" gradientUnits="userSpaceOnUse">
<stop stop-color="#41C6FF"/>
<stop offset="1" stop-color="#1A64FC"/>
</linearGradient>
<linearGradient id="paint7_linear_4840_132" x1="18.0835" y1="9.0918" x2="19.0299" y2="10.0935" gradientUnits="userSpaceOnUse">
<stop stop-color="#41C6FF"/>
<stop offset="1" stop-color="#1A64FC"/>
</linearGradient>
<linearGradient id="paint8_linear_4840_132" x1="16.3937" y1="16.5957" x2="17.0741" y2="17.7777" gradientUnits="userSpaceOnUse">
<stop stop-color="#41C6FF"/>
<stop offset="1" stop-color="#1A64FC"/>
</linearGradient>
<linearGradient id="paint9_linear_4840_132" x1="12.6987" y1="18.5273" x2="12.899" y2="19.3117" gradientUnits="userSpaceOnUse">
<stop stop-color="#41C6FF"/>
<stop offset="1" stop-color="#1A64FC"/>
</linearGradient>
<linearGradient id="paint10_linear_4840_132" x1="15.2991" y1="6.36719" x2="15.8126" y2="7.49493" gradientUnits="userSpaceOnUse">
<stop stop-color="#41C6FF"/>
<stop offset="1" stop-color="#1A64FC"/>
</linearGradient>
<linearGradient id="paint11_linear_4840_132" x1="11.3189" y1="5.75391" x2="11.515" y2="6.54914" gradientUnits="userSpaceOnUse">
<stop stop-color="#41C6FF"/>
<stop offset="1" stop-color="#1A64FC"/>
</linearGradient>
<clipPath id="clip0_4840_132">
<rect width="25" height="25" fill="white"/>
</clipPath>
</defs>
</svg>
