<svg fill="none" viewBox="0 0 40 40">
  <g fill="#7A85A5">
    <path d="M12.653 26.812v-10.86h-2.51v-2.783h5.975v13.643h-3.464zM29.137 16.691c0 1.188-.642 2.238-1.713 2.822 1.499.623 2.433 1.927 2.433 3.445 0 2.452-2.18 4.009-5.585 4.009-3.406 0-5.586-1.537-5.586-3.95 0-1.558 1.012-2.881 2.588-3.504-1.148-.642-1.887-1.732-1.887-2.919 0-2.18 1.907-3.561 4.865-3.561 2.997 0 4.885 1.42 4.885 3.658zm-7.181 5.975c0 1.148.817 1.79 2.316 1.79 1.498 0 2.335-.622 2.335-1.79 0-1.128-.837-1.77-2.335-1.77-1.499 0-2.316.641-2.316 1.77zm.35-5.78c0 .973.7 1.518 1.966 1.518 1.265 0 1.965-.545 1.965-1.518 0-1.012-.7-1.576-1.965-1.576-1.265 0-1.966.564-1.966 1.576z"></path>
    <path d="M35.621 14.71c.576 1.699.869 3.477.869 5.29 0 9.092-7.398 16.49-16.49 16.49-9.092 0-16.49-7.398-16.49-16.49 0-9.092 7.398-16.49 16.49-16.49 1.814 0 3.591.293 5.29.869V.709C23.575.24 21.802 0 20 0 8.972 0 0 8.972 0 20s8.972 20 20 20 20-8.972 20-20c0-1.801-.239-3.574-.71-5.29h-3.669z"></path>
    <path d="M34.623 5.365V1.53h-2.757v3.835h-3.812v2.758h3.812v3.834h2.758V8.123h3.834V5.365h-3.834z"></path>
  </g>
</svg>